<svg version="1.1" xmlns="http://www.w3.org/2000/svg" width="810" height="450"><defs><clipPath id="wXluSWKtvewX"><path fill="none" stroke="none" d="M 0.5 0.5 L 810.5 0.5 L 810.5 450.5 L 0.5 450.5 L 0.5 0.5 Z M 41.5 29.5 L 805.5 29.5 L 805.5 373.5 L 41.5 373.5 L 41.5 29.5 Z" clip-rule="evenodd"/></clipPath><clipPath id="cdSyOPeTkRJp"><path fill="none" stroke="none" d="M 41.5 29.5 L 805.5 29.5 L 805.5 373.5 L 41.5 373.5 L 41.5 29.5 Z"/></clipPath><clipPath id="DxRgtdqmPQWe"><path fill="none" stroke="none" d="M 41.5 29.5 L 805.5 29.5 L 805.5 373.5 L 41.5 373.5 L 41.5 29.5 Z"/></clipPath><clipPath id="ZdIZGqDvbMqB"><path fill="none" stroke="none" d="M 41.5 29.5 L 805.5 29.5 L 805.5 373.5 L 41.5 373.5 L 41.5 29.5 Z"/></clipPath></defs><path fill="rgb(255,255,255)" stroke="none" paint-order="stroke" d="M 0.5 0.5 L 810.5 0.5 L 810.5 450.5 L 0.5 450.5 L 0.5 0.5 Z" fill-opacity="1" clip-path="url(#wXluSWKtvewX)"/><path fill="rgb(255,255,255)" stroke="none" paint-order="stroke" d="M 41.5 29.5 L 805.5 29.5 L 805.5 373.5 L 41.5 373.5 L 41.5 29.5 Z" fill-opacity="1"/><path fill="none" stroke="rgb(229,229,229)" paint-order="fill" d="M 41.5 29.5 L 805.5 29.5 L 805.5 373.5 L 41.5 373.5 L 41.5 29.5 Z" stroke-opacity="1" stroke-linejoin="bevel" stroke-miterlimit="10"/><path fill="rgb(3,102,102)" stroke="rgb(3,102,102)" paint-order="fill" d="M 41.5 358.150146484375 L 45.280208587646484 358.150146484375 L 45.280208587646484 373.5 L 41.5 373.5 L 41.5 358.150146484375 Z" fill-opacity="1" clip-path="url(#DxRgtdqmPQWe)" stroke-opacity="1" stroke-linejoin="bevel" stroke-miterlimit="10"/><path fill="rgb(3,102,102)" stroke="rgb(3,102,102)" paint-order="fill" d="M 45.678123474121094 354.5967712402344 L 53.23854064941406 354.5967712402344 L 53.23854064941406 373.5 L 45.678123474121094 373.5 L 45.678123474121094 354.5967712402344 Z" fill-opacity="1" clip-path="url(#DxRgtdqmPQWe)" stroke-opacity="1" stroke-linejoin="bevel" stroke-miterlimit="10"/><path fill="rgb(3,102,102)" stroke="rgb(3,102,102)" paint-order="fill" d="M 53.63645935058594 350.7912902832031 L 61.196876525878906 350.7912902832031 L 61.196876525878906 373.5 L 53.63645935058594 373.5 L 53.63645935058594 350.7912902832031 Z" fill-opacity="1" clip-path="url(#DxRgtdqmPQWe)" stroke-opacity="1" stroke-linejoin="bevel" stroke-miterlimit="10"/><path fill="rgb(3,102,102)" stroke="rgb(3,102,102)" paint-order="fill" d="M 61.594791412353516 345.845458984375 L 69.15520477294922 345.845458984375 L 69.15520477294922 373.5 L 61.594791412353516 373.5 L 61.594791412353516 345.845458984375 Z" fill-opacity="1" clip-path="url(#DxRgtdqmPQWe)" stroke-opacity="1" stroke-linejoin="bevel" stroke-miterlimit="10"/><path fill="rgb(3,102,102)" stroke="rgb(3,102,102)" paint-order="fill" d="M 69.55313110351562 339.22247314453125 L 77.11354064941406 339.22247314453125 L 77.11354064941406 373.5 L 69.55313110351562 373.5 L 69.55313110351562 339.22247314453125 Z" fill-opacity="1" clip-path="url(#DxRgtdqmPQWe)" stroke-opacity="1" stroke-linejoin="bevel" stroke-miterlimit="10"/><path fill="rgb(3,102,102)" stroke="rgb(3,102,102)" paint-order="fill" d="M 77.51145935058594 329.91998291015625 L 85.07186889648438 329.91998291015625 L 85.07186889648438 373.5 L 77.51145935058594 373.5 L 77.51145935058594 329.91998291015625 Z" fill-opacity="1" clip-path="url(#DxRgtdqmPQWe)" stroke-opacity="1" stroke-linejoin="bevel" stroke-miterlimit="10"/><path fill="rgb(3,102,102)" stroke="rgb(3,102,102)" paint-order="fill" d="M 85.46979522705078 320.0207214355469 L 93.03020477294922 320.0207214355469 L 93.03020477294922 373.5 L 85.46979522705078 373.5 L 85.46979522705078 320.0207214355469 Z" fill-opacity="1" clip-path="url(#DxRgtdqmPQWe)" stroke-opacity="1" stroke-linejoin="bevel" stroke-miterlimit="10"/><path fill="rgb(3,102,102)" stroke="rgb(3,102,102)" paint-order="fill" d="M 93.42813110351562 308.4310302734375 L 100.98854064941406 308.4310302734375 L 100.98854064941406 373.5 L 93.42813110351562 373.5 L 93.42813110351562 308.4310302734375 Z" fill-opacity="1" clip-path="url(#DxRgtdqmPQWe)" stroke-opacity="1" stroke-linejoin="bevel" stroke-miterlimit="10"/><path fill="rgb(3,102,102)" stroke="rgb(3,102,102)" paint-order="fill" d="M 101.38645935058594 299.1350402832031 L 108.94686889648438 299.1350402832031 L 108.94686889648438 373.5 L 101.38645935058594 373.5 L 101.38645935058594 299.1350402832031 Z" fill-opacity="1" clip-path="url(#DxRgtdqmPQWe)" stroke-opacity="1" stroke-linejoin="bevel" stroke-miterlimit="10"/><path fill="rgb(3,102,102)" stroke="rgb(3,102,102)" paint-order="fill" d="M 109.34479522705078 287.7842712402344 L 116.90520477294922 287.7842712402344 L 116.90520477294922 373.5 L 109.34479522705078 373.5 L 109.34479522705078 287.7842712402344 Z" fill-opacity="1" clip-path="url(#DxRgtdqmPQWe)" stroke-opacity="1" stroke-linejoin="bevel" stroke-miterlimit="10"/><path fill="rgb(3,102,102)" stroke="rgb(3,102,102)" paint-order="fill" d="M 117.30313110351562 255.4420166015625 L 124.86354064941406 255.4420166015625 L 124.86354064941406 373.5 L 117.30313110351562 373.5 L 117.30313110351562 255.4420166015625 Z" fill-opacity="1" clip-path="url(#DxRgtdqmPQWe)" stroke-opacity="1" stroke-linejoin="bevel" stroke-miterlimit="10"/><path fill="rgb(3,102,102)" stroke="rgb(3,102,102)" paint-order="fill" d="M 125.26146697998047 175.10714721679688 L 132.82188415527344 175.10714721679688 L 132.82188415527344 373.5 L 125.26146697998047 373.5 L 125.26146697998047 175.10714721679688 Z" fill-opacity="1" clip-path="url(#DxRgtdqmPQWe)" stroke-opacity="1" stroke-linejoin="bevel" stroke-miterlimit="10"/><path fill="rgb(3,102,102)" stroke="rgb(3,102,102)" paint-order="fill" d="M 133.21978759765625 73.89681243896484 L 140.78021240234375 73.89681243896484 L 140.78021240234375 373.5 L 133.21978759765625 373.5 L 133.21978759765625 73.89681243896484 Z" fill-opacity="1" clip-path="url(#DxRgtdqmPQWe)" stroke-opacity="1" stroke-linejoin="bevel" stroke-miterlimit="10"/><path fill="rgb(3,102,102)" stroke="rgb(3,102,102)" paint-order="fill" d="M 141.17811584472656 32.905941009521484 L 148.73854064941406 32.905941009521484 L 148.73854064941406 373.5 L 141.17811584472656 373.5 L 141.17811584472656 32.905941009521484 Z" fill-opacity="1" clip-path="url(#DxRgtdqmPQWe)" stroke-opacity="1" stroke-linejoin="bevel" stroke-miterlimit="10"/><path fill="rgb(3,102,102)" stroke="rgb(3,102,102)" paint-order="fill" d="M 149.13645935058594 51.27602005004883 L 156.69688415527344 51.27602005004883 L 156.69688415527344 373.5 L 149.13645935058594 373.5 L 149.13645935058594 51.27602005004883 Z" fill-opacity="1" clip-path="url(#DxRgtdqmPQWe)" stroke-opacity="1" stroke-linejoin="bevel" stroke-miterlimit="10"/><path fill="rgb(3,102,102)" stroke="rgb(3,102,102)" paint-order="fill" d="M 157.09478759765625 110.79507446289062 L 164.65521240234375 110.79507446289062 L 164.65521240234375 373.5 L 157.09478759765625 373.5 L 157.09478759765625 110.79507446289062 Z" fill-opacity="1" clip-path="url(#DxRgtdqmPQWe)" stroke-opacity="1" stroke-linejoin="bevel" stroke-miterlimit="10"/><path fill="rgb(3,102,102)" stroke="rgb(3,102,102)" paint-order="fill" d="M 165.05311584472656 192.7463836669922 L 172.61354064941406 192.7463836669922 L 172.61354064941406 373.5 L 165.05311584472656 373.5 L 165.05311584472656 192.7463836669922 Z" fill-opacity="1" clip-path="url(#DxRgtdqmPQWe)" stroke-opacity="1" stroke-linejoin="bevel" stroke-miterlimit="10"/><path fill="rgb(3,102,102)" stroke="rgb(3,102,102)" paint-order="fill" d="M 173.01145935058594 247.35226440429688 L 180.57188415527344 247.35226440429688 L 180.57188415527344 373.5 L 173.01145935058594 373.5 L 173.01145935058594 247.35226440429688 Z" fill-opacity="1" clip-path="url(#DxRgtdqmPQWe)" stroke-opacity="1" stroke-linejoin="bevel" stroke-miterlimit="10"/><path fill="rgb(3,102,102)" stroke="rgb(3,102,102)" paint-order="fill" d="M 180.96978759765625 278.39764404296875 L 188.53021240234375 278.39764404296875 L 188.53021240234375 373.5 L 180.96978759765625 373.5 L 180.96978759765625 278.39764404296875 Z" fill-opacity="1" clip-path="url(#DxRgtdqmPQWe)" stroke-opacity="1" stroke-linejoin="bevel" stroke-miterlimit="10"/><path fill="rgb(3,102,102)" stroke="rgb(3,102,102)" paint-order="fill" d="M 188.92811584472656 297.9795227050781 L 196.48854064941406 297.9795227050781 L 196.48854064941406 373.5 L 188.92811584472656 373.5 L 188.92811584472656 297.9795227050781 Z" fill-opacity="1" clip-path="url(#DxRgtdqmPQWe)" stroke-opacity="1" stroke-linejoin="bevel" stroke-miterlimit="10"/><path fill="rgb(3,102,102)" stroke="rgb(3,102,102)" paint-order="fill" d="M 196.88645935058594 307.8561096191406 L 204.44688415527344 307.8561096191406 L 204.44688415527344 373.5 L 196.88645935058594 373.5 L 196.88645935058594 307.8561096191406 Z" fill-opacity="1" clip-path="url(#DxRgtdqmPQWe)" stroke-opacity="1" stroke-linejoin="bevel" stroke-miterlimit="10"/><path fill="rgb(3,102,102)" stroke="rgb(3,102,102)" paint-order="fill" d="M 204.84478759765625 313.3009033203125 L 212.40521240234375 313.3009033203125 L 212.40521240234375 373.5 L 204.84478759765625 373.5 L 204.84478759765625 313.3009033203125 Z" fill-opacity="1" clip-path="url(#DxRgtdqmPQWe)" stroke-opacity="1" stroke-linejoin="bevel" stroke-miterlimit="10"/><path fill="rgb(3,102,102)" stroke="rgb(3,102,102)" paint-order="fill" d="M 212.80311584472656 316.7506103515625 L 220.36354064941406 316.7506103515625 L 220.36354064941406 373.5 L 212.80311584472656 373.5 L 212.80311584472656 316.7506103515625 Z" fill-opacity="1" clip-path="url(#DxRgtdqmPQWe)" stroke-opacity="1" stroke-linejoin="bevel" stroke-miterlimit="10"/><path fill="rgb(3,102,102)" stroke="rgb(3,102,102)" paint-order="fill" d="M 220.76145935058594 319.8598937988281 L 228.32188415527344 319.8598937988281 L 228.32188415527344 373.5 L 220.76145935058594 373.5 L 220.76145935058594 319.8598937988281 Z" fill-opacity="1" clip-path="url(#DxRgtdqmPQWe)" stroke-opacity="1" stroke-linejoin="bevel" stroke-miterlimit="10"/><path fill="rgb(3,102,102)" stroke="rgb(3,102,102)" paint-order="fill" d="M 228.71978759765625 321.8399353027344 L 236.28021240234375 321.8399353027344 L 236.28021240234375 373.5 L 228.71978759765625 373.5 L 228.71978759765625 321.8399353027344 Z" fill-opacity="1" clip-path="url(#DxRgtdqmPQWe)" stroke-opacity="1" stroke-linejoin="bevel" stroke-miterlimit="10"/><path fill="rgb(3,102,102)" stroke="rgb(3,102,102)" paint-order="fill" d="M 236.67811584472656 324.7458801269531 L 244.23854064941406 324.7458801269531 L 244.23854064941406 373.5 L 236.67811584472656 373.5 L 236.67811584472656 324.7458801269531 Z" fill-opacity="1" clip-path="url(#DxRgtdqmPQWe)" stroke-opacity="1" stroke-linejoin="bevel" stroke-miterlimit="10"/><path fill="rgb(3,102,102)" stroke="rgb(3,102,102)" paint-order="fill" d="M 244.63645935058594 327.60455322265625 L 252.19688415527344 327.60455322265625 L 252.19688415527344 373.5 L 244.63645935058594 373.5 L 244.63645935058594 327.60455322265625 Z" fill-opacity="1" clip-path="url(#DxRgtdqmPQWe)" stroke-opacity="1" stroke-linejoin="bevel" stroke-miterlimit="10"/><path fill="rgb(3,102,102)" stroke="rgb(3,102,102)" paint-order="fill" d="M 252.59478759765625 329.8019714355469 L 260.15521240234375 329.8019714355469 L 260.15521240234375 373.5 L 252.59478759765625 373.5 L 252.59478759765625 329.8019714355469 Z" fill-opacity="1" clip-path="url(#DxRgtdqmPQWe)" stroke-opacity="1" stroke-linejoin="bevel" stroke-miterlimit="10"/><path fill="rgb(3,102,102)" stroke="rgb(3,102,102)" paint-order="fill" d="M 260.5531311035156 332.0777282714844 L 268.1135559082031 332.0777282714844 L 268.1135559082031 373.5 L 260.5531311035156 373.5 L 260.5531311035156 332.0777282714844 Z" fill-opacity="1" clip-path="url(#DxRgtdqmPQWe)" stroke-opacity="1" stroke-linejoin="bevel" stroke-miterlimit="10"/><path fill="rgb(3,102,102)" stroke="rgb(3,102,102)" paint-order="fill" d="M 268.5114440917969 334.4532470703125 L 276.0718688964844 334.4532470703125 L 276.0718688964844 373.5 L 268.5114440917969 373.5 L 268.5114440917969 334.4532470703125 Z" fill-opacity="1" clip-path="url(#DxRgtdqmPQWe)" stroke-opacity="1" stroke-linejoin="bevel" stroke-miterlimit="10"/><path fill="rgb(3,102,102)" stroke="rgb(3,102,102)" paint-order="fill" d="M 276.46978759765625 336.3891296386719 L 284.03021240234375 336.3891296386719 L 284.03021240234375 373.5 L 276.46978759765625 373.5 L 276.46978759765625 336.3891296386719 Z" fill-opacity="1" clip-path="url(#DxRgtdqmPQWe)" stroke-opacity="1" stroke-linejoin="bevel" stroke-miterlimit="10"/><path fill="rgb(3,102,102)" stroke="rgb(3,102,102)" paint-order="fill" d="M 284.4281311035156 338.42242431640625 L 291.9885559082031 338.42242431640625 L 291.9885559082031 373.5 L 284.4281311035156 373.5 L 284.4281311035156 338.42242431640625 Z" fill-opacity="1" clip-path="url(#DxRgtdqmPQWe)" stroke-opacity="1" stroke-linejoin="bevel" stroke-miterlimit="10"/><path fill="rgb(3,102,102)" stroke="rgb(3,102,102)" paint-order="fill" d="M 292.3864440917969 340.1180114746094 L 299.9468688964844 340.1180114746094 L 299.9468688964844 373.5 L 292.3864440917969 373.5 L 292.3864440917969 340.1180114746094 Z" fill-opacity="1" clip-path="url(#DxRgtdqmPQWe)" stroke-opacity="1" stroke-linejoin="bevel" stroke-miterlimit="10"/><path fill="rgb(3,102,102)" stroke="rgb(3,102,102)" paint-order="fill" d="M 300.34478759765625 341.6539306640625 L 307.90521240234375 341.6539306640625 L 307.90521240234375 373.5 L 300.34478759765625 373.5 L 300.34478759765625 341.6539306640625 Z" fill-opacity="1" clip-path="url(#DxRgtdqmPQWe)" stroke-opacity="1" stroke-linejoin="bevel" stroke-miterlimit="10"/><path fill="rgb(3,102,102)" stroke="rgb(3,102,102)" paint-order="fill" d="M 308.3031311035156 343.2109375 L 315.8635559082031 343.2109375 L 315.8635559082031 373.5 L 308.3031311035156 373.5 L 308.3031311035156 343.2109375 Z" fill-opacity="1" clip-path="url(#DxRgtdqmPQWe)" stroke-opacity="1" stroke-linejoin="bevel" stroke-miterlimit="10"/><path fill="rgb(3,102,102)" stroke="rgb(3,102,102)" paint-order="fill" d="M 316.2614440917969 344.1003723144531 L 323.8218688964844 344.1003723144531 L 323.8218688964844 373.5 L 316.2614440917969 373.5 L 316.2614440917969 344.1003723144531 Z" fill-opacity="1" clip-path="url(#DxRgtdqmPQWe)" stroke-opacity="1" stroke-linejoin="bevel" stroke-miterlimit="10"/><path fill="rgb(3,102,102)" stroke="rgb(3,102,102)" paint-order="fill" d="M 324.21978759765625 345.4755554199219 L 331.78021240234375 345.4755554199219 L 331.78021240234375 373.5 L 324.21978759765625 373.5 L 324.21978759765625 345.4755554199219 Z" fill-opacity="1" clip-path="url(#DxRgtdqmPQWe)" stroke-opacity="1" stroke-linejoin="bevel" stroke-miterlimit="10"/><path fill="rgb(3,102,102)" stroke="rgb(3,102,102)" paint-order="fill" d="M 332.1781311035156 346.0011901855469 L 339.7385559082031 346.0011901855469 L 339.7385559082031 373.5 L 332.1781311035156 373.5 L 332.1781311035156 346.0011901855469 Z" fill-opacity="1" clip-path="url(#DxRgtdqmPQWe)" stroke-opacity="1" stroke-linejoin="bevel" stroke-miterlimit="10"/><path fill="rgb(3,102,102)" stroke="rgb(3,102,102)" paint-order="fill" d="M 340.1364440917969 346.4363098144531 L 347.6968688964844 346.4363098144531 L 347.6968688964844 373.5 L 340.1364440917969 373.5 L 340.1364440917969 346.4363098144531 Z" fill-opacity="1" clip-path="url(#DxRgtdqmPQWe)" stroke-opacity="1" stroke-linejoin="bevel" stroke-miterlimit="10"/><path fill="rgb(3,102,102)" stroke="rgb(3,102,102)" paint-order="fill" d="M 348.09478759765625 347.1495361328125 L 355.65521240234375 347.1495361328125 L 355.65521240234375 373.5 L 348.09478759765625 373.5 L 348.09478759765625 347.1495361328125 Z" fill-opacity="1" clip-path="url(#DxRgtdqmPQWe)" stroke-opacity="1" stroke-linejoin="bevel" stroke-miterlimit="10"/><path fill="rgb(3,102,102)" stroke="rgb(3,102,102)" paint-order="fill" d="M 356.0531311035156 346.564208984375 L 363.6135559082031 346.564208984375 L 363.6135559082031 373.5 L 356.0531311035156 373.5 L 356.0531311035156 346.564208984375 Z" fill-opacity="1" clip-path="url(#DxRgtdqmPQWe)" stroke-opacity="1" stroke-linejoin="bevel" stroke-miterlimit="10"/><path fill="rgb(3,102,102)" stroke="rgb(3,102,102)" paint-order="fill" d="M 364.0114440917969 345.27679443359375 L 371.5718688964844 345.27679443359375 L 371.5718688964844 373.5 L 364.0114440917969 373.5 L 364.0114440917969 345.27679443359375 Z" fill-opacity="1" clip-path="url(#DxRgtdqmPQWe)" stroke-opacity="1" stroke-linejoin="bevel" stroke-miterlimit="10"/><path fill="rgb(3,102,102)" stroke="rgb(3,102,102)" paint-order="fill" d="M 371.96978759765625 343.5840148925781 L 379.53021240234375 343.5840148925781 L 379.53021240234375 373.5 L 371.96978759765625 373.5 L 371.96978759765625 343.5840148925781 Z" fill-opacity="1" clip-path="url(#DxRgtdqmPQWe)" stroke-opacity="1" stroke-linejoin="bevel" stroke-miterlimit="10"/><path fill="rgb(3,102,102)" stroke="rgb(3,102,102)" paint-order="fill" d="M 379.9281311035156 341.56585693359375 L 387.4885559082031 341.56585693359375 L 387.4885559082031 373.5 L 379.9281311035156 373.5 L 379.9281311035156 341.56585693359375 Z" fill-opacity="1" clip-path="url(#DxRgtdqmPQWe)" stroke-opacity="1" stroke-linejoin="bevel" stroke-miterlimit="10"/><path fill="rgb(3,102,102)" stroke="rgb(3,102,102)" paint-order="fill" d="M 387.8864440917969 336.998291015625 L 395.4468688964844 336.998291015625 L 395.4468688964844 373.5 L 387.8864440917969 373.5 L 387.8864440917969 336.998291015625 Z" fill-opacity="1" clip-path="url(#DxRgtdqmPQWe)" stroke-opacity="1" stroke-linejoin="bevel" stroke-miterlimit="10"/><path fill="rgb(3,102,102)" stroke="rgb(3,102,102)" paint-order="fill" d="M 395.84478759765625 332.3236999511719 L 403.40521240234375 332.3236999511719 L 403.40521240234375 373.5 L 395.84478759765625 373.5 L 395.84478759765625 332.3236999511719 Z" fill-opacity="1" clip-path="url(#DxRgtdqmPQWe)" stroke-opacity="1" stroke-linejoin="bevel" stroke-miterlimit="10"/><path fill="rgb(3,102,102)" stroke="rgb(3,102,102)" paint-order="fill" d="M 403.8031311035156 331.4967041015625 L 411.3635559082031 331.4967041015625 L 411.3635559082031 373.5 L 403.8031311035156 373.5 L 403.8031311035156 331.4967041015625 Z" fill-opacity="1" clip-path="url(#DxRgtdqmPQWe)" stroke-opacity="1" stroke-linejoin="bevel" stroke-miterlimit="10"/><path fill="rgb(3,102,102)" stroke="rgb(3,102,102)" paint-order="fill" d="M 411.7614440917969 330.0686950683594 L 419.3218688964844 330.0686950683594 L 419.3218688964844 373.5 L 411.7614440917969 373.5 L 411.7614440917969 330.0686950683594 Z" fill-opacity="1" clip-path="url(#DxRgtdqmPQWe)" stroke-opacity="1" stroke-linejoin="bevel" stroke-miterlimit="10"/><path fill="rgb(3,102,102)" stroke="rgb(3,102,102)" paint-order="fill" d="M 419.71978759765625 329.7462158203125 L 427.28021240234375 329.7462158203125 L 427.28021240234375 373.5 L 419.71978759765625 373.5 L 419.71978759765625 329.7462158203125 Z" fill-opacity="1" clip-path="url(#DxRgtdqmPQWe)" stroke-opacity="1" stroke-linejoin="bevel" stroke-miterlimit="10"/><path fill="rgb(3,102,102)" stroke="rgb(3,102,102)" paint-order="fill" d="M 427.6781311035156 333.1360778808594 L 435.2385559082031 333.1360778808594 L 435.2385559082031 373.5 L 427.6781311035156 373.5 L 427.6781311035156 333.1360778808594 Z" fill-opacity="1" clip-path="url(#DxRgtdqmPQWe)" stroke-opacity="1" stroke-linejoin="bevel" stroke-miterlimit="10"/><path fill="rgb(3,102,102)" stroke="rgb(3,102,102)" paint-order="fill" d="M 435.6364440917969 336.1036071777344 L 443.1968688964844 336.1036071777344 L 443.1968688964844 373.5 L 435.6364440917969 373.5 L 435.6364440917969 336.1036071777344 Z" fill-opacity="1" clip-path="url(#DxRgtdqmPQWe)" stroke-opacity="1" stroke-linejoin="bevel" stroke-miterlimit="10"/><path fill="rgb(3,102,102)" stroke="rgb(3,102,102)" paint-order="fill" d="M 443.59478759765625 338.92022705078125 L 451.15521240234375 338.92022705078125 L 451.15521240234375 373.5 L 443.59478759765625 373.5 L 443.59478759765625 338.92022705078125 Z" fill-opacity="1" clip-path="url(#DxRgtdqmPQWe)" stroke-opacity="1" stroke-linejoin="bevel" stroke-miterlimit="10"/><path fill="rgb(3,102,102)" stroke="rgb(3,102,102)" paint-order="fill" d="M 451.5531311035156 343.23175048828125 L 459.1135559082031 343.23175048828125 L 459.1135559082031 373.5 L 451.5531311035156 373.5 L 451.5531311035156 343.23175048828125 Z" fill-opacity="1" clip-path="url(#DxRgtdqmPQWe)" stroke-opacity="1" stroke-linejoin="bevel" stroke-miterlimit="10"/><path fill="rgb(3,102,102)" stroke="rgb(3,102,102)" paint-order="fill" d="M 459.5114440917969 346.4012451171875 L 467.0718688964844 346.4012451171875 L 467.0718688964844 373.5 L 459.5114440917969 373.5 L 459.5114440917969 346.4012451171875 Z" fill-opacity="1" clip-path="url(#DxRgtdqmPQWe)" stroke-opacity="1" stroke-linejoin="bevel" stroke-miterlimit="10"/><path fill="rgb(3,102,102)" stroke="rgb(3,102,102)" paint-order="fill" d="M 467.46978759765625 349.17425537109375 L 475.03021240234375 349.17425537109375 L 475.03021240234375 373.5 L 467.46978759765625 373.5 L 467.46978759765625 349.17425537109375 Z" fill-opacity="1" clip-path="url(#DxRgtdqmPQWe)" stroke-opacity="1" stroke-linejoin="bevel" stroke-miterlimit="10"/><path fill="rgb(3,102,102)" stroke="rgb(3,102,102)" paint-order="fill" d="M 475.4281311035156 351.7599182128906 L 482.9885559082031 351.7599182128906 L 482.9885559082031 373.5 L 475.4281311035156 373.5 L 475.4281311035156 351.7599182128906 Z" fill-opacity="1" clip-path="url(#DxRgtdqmPQWe)" stroke-opacity="1" stroke-linejoin="bevel" stroke-miterlimit="10"/><path fill="rgb(3,102,102)" stroke="rgb(3,102,102)" paint-order="fill" d="M 483.3864440917969 354.05950927734375 L 490.9468688964844 354.05950927734375 L 490.9468688964844 373.5 L 483.3864440917969 373.5 L 483.3864440917969 354.05950927734375 Z" fill-opacity="1" clip-path="url(#DxRgtdqmPQWe)" stroke-opacity="1" stroke-linejoin="bevel" stroke-miterlimit="10"/><path fill="rgb(3,102,102)" stroke="rgb(3,102,102)" paint-order="fill" d="M 491.34478759765625 355.5180969238281 L 498.90521240234375 355.5180969238281 L 498.90521240234375 373.5 L 491.34478759765625 373.5 L 491.34478759765625 355.5180969238281 Z" fill-opacity="1" clip-path="url(#DxRgtdqmPQWe)" stroke-opacity="1" stroke-linejoin="bevel" stroke-miterlimit="10"/><path fill="rgb(3,102,102)" stroke="rgb(3,102,102)" paint-order="fill" d="M 499.3031311035156 357.17864990234375 L 506.8635559082031 357.17864990234375 L 506.8635559082031 373.5 L 499.3031311035156 373.5 L 499.3031311035156 357.17864990234375 Z" fill-opacity="1" clip-path="url(#DxRgtdqmPQWe)" stroke-opacity="1" stroke-linejoin="bevel" stroke-miterlimit="10"/><path fill="rgb(3,102,102)" stroke="rgb(3,102,102)" paint-order="fill" d="M 507.2614440917969 358.74139404296875 L 514.8218383789062 358.74139404296875 L 514.8218383789062 373.5 L 507.2614440917969 373.5 L 507.2614440917969 358.74139404296875 Z" fill-opacity="1" clip-path="url(#DxRgtdqmPQWe)" stroke-opacity="1" stroke-linejoin="bevel" stroke-miterlimit="10"/><path fill="rgb(3,102,102)" stroke="rgb(3,102,102)" paint-order="fill" d="M 515.2197875976562 360.040283203125 L 522.7802124023438 360.040283203125 L 522.7802124023438 373.5 L 515.2197875976562 373.5 L 515.2197875976562 360.040283203125 Z" fill-opacity="1" clip-path="url(#DxRgtdqmPQWe)" stroke-opacity="1" stroke-linejoin="bevel" stroke-miterlimit="10"/><path fill="rgb(3,102,102)" stroke="rgb(3,102,102)" paint-order="fill" d="M 523.1781005859375 361.645751953125 L 530.738525390625 361.645751953125 L 530.738525390625 373.5 L 523.1781005859375 373.5 L 523.1781005859375 361.645751953125 Z" fill-opacity="1" clip-path="url(#DxRgtdqmPQWe)" stroke-opacity="1" stroke-linejoin="bevel" stroke-miterlimit="10"/><path fill="rgb(3,102,102)" stroke="rgb(3,102,102)" paint-order="fill" d="M 531.136474609375 362.93231201171875 L 538.6968994140625 362.93231201171875 L 538.6968994140625 373.5 L 531.136474609375 373.5 L 531.136474609375 362.93231201171875 Z" fill-opacity="1" clip-path="url(#DxRgtdqmPQWe)" stroke-opacity="1" stroke-linejoin="bevel" stroke-miterlimit="10"/><path fill="rgb(3,102,102)" stroke="rgb(3,102,102)" paint-order="fill" d="M 539.0947875976562 363.74566650390625 L 546.6552124023438 363.74566650390625 L 546.6552124023438 373.5 L 539.0947875976562 373.5 L 539.0947875976562 363.74566650390625 Z" fill-opacity="1" clip-path="url(#DxRgtdqmPQWe)" stroke-opacity="1" stroke-linejoin="bevel" stroke-miterlimit="10"/><path fill="rgb(3,102,102)" stroke="rgb(3,102,102)" paint-order="fill" d="M 547.0531005859375 364.82696533203125 L 554.613525390625 364.82696533203125 L 554.613525390625 373.5 L 547.0531005859375 373.5 L 547.0531005859375 364.82696533203125 Z" fill-opacity="1" clip-path="url(#DxRgtdqmPQWe)" stroke-opacity="1" stroke-linejoin="bevel" stroke-miterlimit="10"/><path fill="rgb(3,102,102)" stroke="rgb(3,102,102)" paint-order="fill" d="M 555.011474609375 365.6417236328125 L 562.5718994140625 365.6417236328125 L 562.5718994140625 373.5 L 555.011474609375 373.5 L 555.011474609375 365.6417236328125 Z" fill-opacity="1" clip-path="url(#DxRgtdqmPQWe)" stroke-opacity="1" stroke-linejoin="bevel" stroke-miterlimit="10"/><path fill="rgb(3,102,102)" stroke="rgb(3,102,102)" paint-order="fill" d="M 562.9697875976562 366.0760498046875 L 570.5302124023438 366.0760498046875 L 570.5302124023438 373.5 L 562.9697875976562 373.5 L 562.9697875976562 366.0760498046875 Z" fill-opacity="1" clip-path="url(#DxRgtdqmPQWe)" stroke-opacity="1" stroke-linejoin="bevel" stroke-miterlimit="10"/><path fill="rgb(3,102,102)" stroke="rgb(3,102,102)" paint-order="fill" d="M 570.9281005859375 366.8199768066406 L 578.488525390625 366.8199768066406 L 578.488525390625 373.5 L 570.9281005859375 373.5 L 570.9281005859375 366.8199768066406 Z" fill-opacity="1" clip-path="url(#DxRgtdqmPQWe)" stroke-opacity="1" stroke-linejoin="bevel" stroke-miterlimit="10"/><path fill="rgb(3,102,102)" stroke="rgb(3,102,102)" paint-order="fill" d="M 578.886474609375 367.31463623046875 L 586.4468994140625 367.31463623046875 L 586.4468994140625 373.5 L 578.886474609375 373.5 L 578.886474609375 367.31463623046875 Z" fill-opacity="1" clip-path="url(#DxRgtdqmPQWe)" stroke-opacity="1" stroke-linejoin="bevel" stroke-miterlimit="10"/><path fill="rgb(3,102,102)" stroke="rgb(3,102,102)" paint-order="fill" d="M 586.8447875976562 367.5802001953125 L 594.4052124023438 367.5802001953125 L 594.4052124023438 373.5 L 586.8447875976562 373.5 L 586.8447875976562 367.5802001953125 Z" fill-opacity="1" clip-path="url(#DxRgtdqmPQWe)" stroke-opacity="1" stroke-linejoin="bevel" stroke-miterlimit="10"/><path fill="rgb(3,102,102)" stroke="rgb(3,102,102)" paint-order="fill" d="M 594.8031005859375 367.98089599609375 L 602.363525390625 367.98089599609375 L 602.363525390625 373.5 L 594.8031005859375 373.5 L 594.8031005859375 367.98089599609375 Z" fill-opacity="1" clip-path="url(#DxRgtdqmPQWe)" stroke-opacity="1" stroke-linejoin="bevel" stroke-miterlimit="10"/><path fill="rgb(3,102,102)" stroke="rgb(3,102,102)" paint-order="fill" d="M 602.761474609375 368.2812805175781 L 610.3218994140625 368.2812805175781 L 610.3218994140625 373.5 L 602.761474609375 373.5 L 602.761474609375 368.2812805175781 Z" fill-opacity="1" clip-path="url(#DxRgtdqmPQWe)" stroke-opacity="1" stroke-linejoin="bevel" stroke-miterlimit="10"/><path fill="rgb(3,102,102)" stroke="rgb(3,102,102)" paint-order="fill" d="M 610.7197875976562 368.519775390625 L 618.2802124023438 368.519775390625 L 618.2802124023438 373.5 L 610.7197875976562 373.5 L 610.7197875976562 368.519775390625 Z" fill-opacity="1" clip-path="url(#DxRgtdqmPQWe)" stroke-opacity="1" stroke-linejoin="bevel" stroke-miterlimit="10"/><path fill="rgb(3,102,102)" stroke="rgb(3,102,102)" paint-order="fill" d="M 618.6781005859375 368.67596435546875 L 626.238525390625 368.67596435546875 L 626.238525390625 373.5 L 618.6781005859375 373.5 L 618.6781005859375 368.67596435546875 Z" fill-opacity="1" clip-path="url(#DxRgtdqmPQWe)" stroke-opacity="1" stroke-linejoin="bevel" stroke-miterlimit="10"/><path fill="rgb(3,102,102)" stroke="rgb(3,102,102)" paint-order="fill" d="M 626.636474609375 368.75250244140625 L 634.1968994140625 368.75250244140625 L 634.1968994140625 373.5 L 626.636474609375 373.5 L 626.636474609375 368.75250244140625 Z" fill-opacity="1" clip-path="url(#DxRgtdqmPQWe)" stroke-opacity="1" stroke-linejoin="bevel" stroke-miterlimit="10"/><path fill="rgb(3,102,102)" stroke="rgb(3,102,102)" paint-order="fill" d="M 634.5947875976562 368.72705078125 L 642.1552124023438 368.72705078125 L 642.1552124023438 373.5 L 634.5947875976562 373.5 L 634.5947875976562 368.72705078125 Z" fill-opacity="1" clip-path="url(#DxRgtdqmPQWe)" stroke-opacity="1" stroke-linejoin="bevel" stroke-miterlimit="10"/><path fill="rgb(3,102,102)" stroke="rgb(3,102,102)" paint-order="fill" d="M 642.5531005859375 368.9502258300781 L 650.113525390625 368.9502258300781 L 650.113525390625 373.5 L 642.5531005859375 373.5 L 642.5531005859375 368.9502258300781 Z" fill-opacity="1" clip-path="url(#DxRgtdqmPQWe)" stroke-opacity="1" stroke-linejoin="bevel" stroke-miterlimit="10"/><path fill="rgb(3,102,102)" stroke="rgb(3,102,102)" paint-order="fill" d="M 650.511474609375 368.8646240234375 L 658.0718994140625 368.8646240234375 L 658.0718994140625 373.5 L 650.511474609375 373.5 L 650.511474609375 368.8646240234375 Z" fill-opacity="1" clip-path="url(#DxRgtdqmPQWe)" stroke-opacity="1" stroke-linejoin="bevel" stroke-miterlimit="10"/><path fill="rgb(3,102,102)" stroke="rgb(3,102,102)" paint-order="fill" d="M 658.4697875976562 368.8474426269531 L 666.0302124023438 368.8474426269531 L 666.0302124023438 373.5 L 658.4697875976562 373.5 L 658.4697875976562 368.8474426269531 Z" fill-opacity="1" clip-path="url(#DxRgtdqmPQWe)" stroke-opacity="1" stroke-linejoin="bevel" stroke-miterlimit="10"/><path fill="rgb(3,102,102)" stroke="rgb(3,102,102)" paint-order="fill" d="M 666.4281005859375 368.7581481933594 L 673.988525390625 368.7581481933594 L 673.988525390625 373.5 L 666.4281005859375 373.5 L 666.4281005859375 368.7581481933594 Z" fill-opacity="1" clip-path="url(#DxRgtdqmPQWe)" stroke-opacity="1" stroke-linejoin="bevel" stroke-miterlimit="10"/><path fill="rgb(3,102,102)" stroke="rgb(3,102,102)" paint-order="fill" d="M 674.386474609375 368.7476806640625 L 681.9468994140625 368.7476806640625 L 681.9468994140625 373.5 L 674.386474609375 373.5 L 674.386474609375 368.7476806640625 Z" fill-opacity="1" clip-path="url(#DxRgtdqmPQWe)" stroke-opacity="1" stroke-linejoin="bevel" stroke-miterlimit="10"/><path fill="rgb(3,102,102)" stroke="rgb(3,102,102)" paint-order="fill" d="M 682.3447875976562 368.6267395019531 L 689.9052124023438 368.6267395019531 L 689.9052124023438 373.5 L 682.3447875976562 373.5 L 682.3447875976562 368.6267395019531 Z" fill-opacity="1" clip-path="url(#DxRgtdqmPQWe)" stroke-opacity="1" stroke-linejoin="bevel" stroke-miterlimit="10"/><path fill="rgb(3,102,102)" stroke="rgb(3,102,102)" paint-order="fill" d="M 690.3031005859375 368.9348449707031 L 697.863525390625 368.9348449707031 L 697.863525390625 373.5 L 690.3031005859375 373.5 L 690.3031005859375 368.9348449707031 Z" fill-opacity="1" clip-path="url(#DxRgtdqmPQWe)" stroke-opacity="1" stroke-linejoin="bevel" stroke-miterlimit="10"/><path fill="rgb(3,102,102)" stroke="rgb(3,102,102)" paint-order="fill" d="M 698.261474609375 369.1221618652344 L 705.8218994140625 369.1221618652344 L 705.8218994140625 373.5 L 698.261474609375 373.5 L 698.261474609375 369.1221618652344 Z" fill-opacity="1" clip-path="url(#DxRgtdqmPQWe)" stroke-opacity="1" stroke-linejoin="bevel" stroke-miterlimit="10"/><path fill="rgb(3,102,102)" stroke="rgb(3,102,102)" paint-order="fill" d="M 706.2197875976562 369.31817626953125 L 713.7802124023438 369.31817626953125 L 713.7802124023438 373.5 L 706.2197875976562 373.5 L 706.2197875976562 369.31817626953125 Z" fill-opacity="1" clip-path="url(#DxRgtdqmPQWe)" stroke-opacity="1" stroke-linejoin="bevel" stroke-miterlimit="10"/><path fill="rgb(3,102,102)" stroke="rgb(3,102,102)" paint-order="fill" d="M 714.1781005859375 369.62322998046875 L 721.738525390625 369.62322998046875 L 721.738525390625 373.5 L 714.1781005859375 373.5 L 714.1781005859375 369.62322998046875 Z" fill-opacity="1" clip-path="url(#DxRgtdqmPQWe)" stroke-opacity="1" stroke-linejoin="bevel" stroke-miterlimit="10"/><path fill="rgb(3,102,102)" stroke="rgb(3,102,102)" paint-order="fill" d="M 722.136474609375 369.9757385253906 L 729.6968994140625 369.9757385253906 L 729.6968994140625 373.5 L 722.136474609375 373.5 L 722.136474609375 369.9757385253906 Z" fill-opacity="1" clip-path="url(#DxRgtdqmPQWe)" stroke-opacity="1" stroke-linejoin="bevel" stroke-miterlimit="10"/><path fill="rgb(3,102,102)" stroke="rgb(3,102,102)" paint-order="fill" d="M 730.0947875976562 370.1187438964844 L 737.6552124023438 370.1187438964844 L 737.6552124023438 373.5 L 730.0947875976562 373.5 L 730.0947875976562 370.1187438964844 Z" fill-opacity="1" clip-path="url(#DxRgtdqmPQWe)" stroke-opacity="1" stroke-linejoin="bevel" stroke-miterlimit="10"/><path fill="rgb(3,102,102)" stroke="rgb(3,102,102)" paint-order="fill" d="M 738.0531005859375 370.44903564453125 L 745.613525390625 370.44903564453125 L 745.613525390625 373.5 L 738.0531005859375 373.5 L 738.0531005859375 370.44903564453125 Z" fill-opacity="1" clip-path="url(#DxRgtdqmPQWe)" stroke-opacity="1" stroke-linejoin="bevel" stroke-miterlimit="10"/><path fill="rgb(3,102,102)" stroke="rgb(3,102,102)" paint-order="fill" d="M 746.011474609375 370.6912841796875 L 753.5718994140625 370.6912841796875 L 753.5718994140625 373.5 L 746.011474609375 373.5 L 746.011474609375 370.6912841796875 Z" fill-opacity="1" clip-path="url(#DxRgtdqmPQWe)" stroke-opacity="1" stroke-linejoin="bevel" stroke-miterlimit="10"/><path fill="rgb(3,102,102)" stroke="rgb(3,102,102)" paint-order="fill" d="M 753.9697875976562 370.8496398925781 L 761.5302124023438 370.8496398925781 L 761.5302124023438 373.5 L 753.9697875976562 373.5 L 753.9697875976562 370.8496398925781 Z" fill-opacity="1" clip-path="url(#DxRgtdqmPQWe)" stroke-opacity="1" stroke-linejoin="bevel" stroke-miterlimit="10"/><path fill="rgb(3,102,102)" stroke="rgb(3,102,102)" paint-order="fill" d="M 761.9281005859375 371.0497741699219 L 769.488525390625 371.0497741699219 L 769.488525390625 373.5 L 761.9281005859375 373.5 L 761.9281005859375 371.0497741699219 Z" fill-opacity="1" clip-path="url(#DxRgtdqmPQWe)" stroke-opacity="1" stroke-linejoin="bevel" stroke-miterlimit="10"/><path fill="rgb(3,102,102)" stroke="rgb(3,102,102)" paint-order="fill" d="M 769.886474609375 371.2952575683594 L 777.4468994140625 371.2952575683594 L 777.4468994140625 373.5 L 769.886474609375 373.5 L 769.886474609375 371.2952575683594 Z" fill-opacity="1" clip-path="url(#DxRgtdqmPQWe)" stroke-opacity="1" stroke-linejoin="bevel" stroke-miterlimit="10"/><path fill="rgb(3,102,102)" stroke="rgb(3,102,102)" paint-order="fill" d="M 777.8447875976562 373.4856872558594 L 785.4052124023438 373.4856872558594 L 785.4052124023438 373.5 L 777.8447875976562 373.5 L 777.8447875976562 373.4856872558594 Z" fill-opacity="1" clip-path="url(#DxRgtdqmPQWe)" stroke-opacity="1" stroke-linejoin="bevel" stroke-miterlimit="10"/><path fill="rgb(3,102,102)" stroke="rgb(3,102,102)" paint-order="fill" d="M 785.8031005859375 373.3754577636719 L 793.363525390625 373.3754577636719 L 793.363525390625 373.5 L 785.8031005859375 373.5 L 785.8031005859375 373.3754577636719 Z" fill-opacity="1" clip-path="url(#DxRgtdqmPQWe)" stroke-opacity="1" stroke-linejoin="bevel" stroke-miterlimit="10"/><path fill="rgb(3,102,102)" stroke="rgb(3,102,102)" paint-order="fill" d="M 793.761474609375 373.4491882324219 L 801.3218994140625 373.4491882324219 L 801.3218994140625 373.5 L 793.761474609375 373.5 L 793.761474609375 373.4491882324219 Z" fill-opacity="1" clip-path="url(#DxRgtdqmPQWe)" stroke-opacity="1" stroke-linejoin="bevel" stroke-miterlimit="10"/><path fill="rgb(3,102,102)" stroke="rgb(3,102,102)" paint-order="fill" d="M 801.7197875976562 373.4540710449219 L 805.5 373.4540710449219 L 805.5 373.5 L 801.7197875976562 373.5 L 801.7197875976562 373.4540710449219 Z" fill-opacity="1" clip-path="url(#DxRgtdqmPQWe)" stroke-opacity="1" stroke-linejoin="bevel" stroke-miterlimit="10"/><path fill="none" stroke="rgb(0,0,0)" paint-order="fill" d="M 41.5 373.5 L 805.5 373.5" stroke-opacity="1" stroke-linejoin="bevel" stroke-miterlimit="10"/><path fill="none" stroke="rgb(0,0,0)" paint-order="fill" d="M 41.5 379.5 L 41.5 371.5 M 81.5 379.5 L 81.5 371.5 M 121.5 379.5 L 121.5 371.5 M 160.5 379.5 L 160.5 371.5 M 200.5 379.5 L 200.5 371.5 M 240.5 379.5 L 240.5 371.5 M 280.5 379.5 L 280.5 371.5 M 320.5 379.5 L 320.5 371.5 M 359.5 379.5 L 359.5 371.5 M 399.5 379.5 L 399.5 371.5 M 439.5 379.5 L 439.5 371.5 M 479.5 379.5 L 479.5 371.5 M 519.5 379.5 L 519.5 371.5 M 558.5 379.5 L 558.5 371.5 M 598.5 379.5 L 598.5 371.5 M 638.5 379.5 L 638.5 371.5 M 678.5 379.5 L 678.5 371.5 M 717.5 379.5 L 717.5 371.5 M 757.5 379.5 L 757.5 371.5 M 797.5 379.5 L 797.5 371.5" stroke-opacity="1" stroke-linejoin="bevel" stroke-miterlimit="10"/><path fill="none" stroke="rgb(0,0,0)" paint-order="fill" d="M 41.5 377.5 L 41.5 373.5 M 49.5 377.5 L 49.5 373.5 M 57.5 377.5 L 57.5 373.5 M 65.5 377.5 L 65.5 373.5 M 73.5 377.5 L 73.5 373.5 M 81.5 377.5 L 81.5 373.5 M 89.5 377.5 L 89.5 373.5 M 97.5 377.5 L 97.5 373.5 M 105.5 377.5 L 105.5 373.5 M 113.5 377.5 L 113.5 373.5 M 121.5 377.5 L 121.5 373.5 M 129.5 377.5 L 129.5 373.5 M 137.5 377.5 L 137.5 373.5 M 144.5 377.5 L 144.5 373.5 M 152.5 377.5 L 152.5 373.5 M 160.5 377.5 L 160.5 373.5 M 168.5 377.5 L 168.5 373.5 M 176.5 377.5 L 176.5 373.5 M 184.5 377.5 L 184.5 373.5 M 192.5 377.5 L 192.5 373.5 M 200.5 377.5 L 200.5 373.5 M 208.5 377.5 L 208.5 373.5 M 216.5 377.5 L 216.5 373.5 M 224.5 377.5 L 224.5 373.5 M 232.5 377.5 L 232.5 373.5 M 240.5 377.5 L 240.5 373.5 M 248.5 377.5 L 248.5 373.5 M 256.5 377.5 L 256.5 373.5 M 264.5 377.5 L 264.5 373.5 M 272.5 377.5 L 272.5 373.5 M 280.5 377.5 L 280.5 373.5 M 288.5 377.5 L 288.5 373.5 M 296.5 377.5 L 296.5 373.5 M 304.5 377.5 L 304.5 373.5 M 312.5 377.5 L 312.5 373.5 M 320.5 377.5 L 320.5 373.5 M 328.5 377.5 L 328.5 373.5 M 335.5 377.5 L 335.5 373.5 M 343.5 377.5 L 343.5 373.5 M 351.5 377.5 L 351.5 373.5 M 359.5 377.5 L 359.5 373.5 M 367.5 377.5 L 367.5 373.5 M 375.5 377.5 L 375.5 373.5 M 383.5 377.5 L 383.5 373.5 M 391.5 377.5 L 391.5 373.5 M 399.5 377.5 L 399.5 373.5 M 407.5 377.5 L 407.5 373.5 M 415.5 377.5 L 415.5 373.5 M 423.5 377.5 L 423.5 373.5 M 431.5 377.5 L 431.5 373.5 M 439.5 377.5 L 439.5 373.5 M 447.5 377.5 L 447.5 373.5 M 455.5 377.5 L 455.5 373.5 M 463.5 377.5 L 463.5 373.5 M 471.5 377.5 L 471.5 373.5 M 479.5 377.5 L 479.5 373.5 M 487.5 377.5 L 487.5 373.5 M 495.5 377.5 L 495.5 373.5 M 503.5 377.5 L 503.5 373.5 M 511.5 377.5 L 511.5 373.5 M 519.5 377.5 L 519.5 373.5 M 526.5 377.5 L 526.5 373.5 M 534.5 377.5 L 534.5 373.5 M 542.5 377.5 L 542.5 373.5 M 550.5 377.5 L 550.5 373.5 M 558.5 377.5 L 558.5 373.5 M 566.5 377.5 L 566.5 373.5 M 574.5 377.5 L 574.5 373.5 M 582.5 377.5 L 582.5 373.5 M 590.5 377.5 L 590.5 373.5 M 598.5 377.5 L 598.5 373.5 M 606.5 377.5 L 606.5 373.5 M 614.5 377.5 L 614.5 373.5 M 622.5 377.5 L 622.5 373.5 M 630.5 377.5 L 630.5 373.5 M 638.5 377.5 L 638.5 373.5 M 646.5 377.5 L 646.5 373.5 M 654.5 377.5 L 654.5 373.5 M 662.5 377.5 L 662.5 373.5 M 670.5 377.5 L 670.5 373.5 M 678.5 377.5 L 678.5 373.5 M 686.5 377.5 L 686.5 373.5 M 694.5 377.5 L 694.5 373.5 M 702.5 377.5 L 702.5 373.5 M 710.5 377.5 L 710.5 373.5 M 717.5 377.5 L 717.5 373.5 M 725.5 377.5 L 725.5 373.5 M 733.5 377.5 L 733.5 373.5 M 741.5 377.5 L 741.5 373.5 M 749.5 377.5 L 749.5 373.5 M 757.5 377.5 L 757.5 373.5 M 765.5 377.5 L 765.5 373.5 M 773.5 377.5 L 773.5 373.5 M 781.5 377.5 L 781.5 373.5 M 789.5 377.5 L 789.5 373.5 M 797.5 377.5 L 797.5 373.5 M 805.5 377.5 L 805.5 373.5" stroke-opacity="1" stroke-linejoin="bevel" stroke-miterlimit="10"/><text fill="rgb(68,68,68)" stroke="none" font-family="helvetica" font-size="11px" font-style="normal" font-weight="normal" text-decoration="normal" x="34" y="392" text-anchor="start" dominant-baseline="alphabetic" transform="matrix(1, 0, 0, 1, 0.5, 0.5)" fill-opacity="1">20</text><text fill="none" stroke="rgb(0,0,0)" font-family="helvetica" font-size="11px" font-style="normal" font-weight="normal" text-decoration="normal" x="34" y="392" text-anchor="start" dominant-baseline="alphabetic" transform="matrix(1, 0, 0, 1, 0.5, 0.5)" stroke-opacity="0" stroke-linejoin="bevel" stroke-miterlimit="10">20</text><text fill="rgb(68,68,68)" stroke="none" font-family="helvetica" font-size="11px" font-style="normal" font-weight="normal" text-decoration="normal" x="73.79166412353516" y="392" text-anchor="start" dominant-baseline="alphabetic" transform="matrix(1, 0, 0, 1, 0.5, 0.5)" fill-opacity="1">25</text><text fill="none" stroke="rgb(0,0,0)" font-family="helvetica" font-size="11px" font-style="normal" font-weight="normal" text-decoration="normal" x="73.79166412353516" y="392" text-anchor="start" dominant-baseline="alphabetic" transform="matrix(1, 0, 0, 1, 0.5, 0.5)" stroke-opacity="0" stroke-linejoin="bevel" stroke-miterlimit="10">25</text><text fill="rgb(68,68,68)" stroke="none" font-family="helvetica" font-size="11px" font-style="normal" font-weight="normal" text-decoration="normal" x="113.58333587646484" y="392" text-anchor="start" dominant-baseline="alphabetic" transform="matrix(1, 0, 0, 1, 0.5, 0.5)" fill-opacity="1">30</text><text fill="none" stroke="rgb(0,0,0)" font-family="helvetica" font-size="11px" font-style="normal" font-weight="normal" text-decoration="normal" x="113.58333587646484" y="392" text-anchor="start" dominant-baseline="alphabetic" transform="matrix(1, 0, 0, 1, 0.5, 0.5)" stroke-opacity="0" stroke-linejoin="bevel" stroke-miterlimit="10">30</text><text fill="rgb(68,68,68)" stroke="none" font-family="helvetica" font-size="11px" font-style="normal" font-weight="normal" text-decoration="normal" x="153.375" y="392" text-anchor="start" dominant-baseline="alphabetic" transform="matrix(1, 0, 0, 1, 0.5, 0.5)" fill-opacity="1">35</text><text fill="none" stroke="rgb(0,0,0)" font-family="helvetica" font-size="11px" font-style="normal" font-weight="normal" text-decoration="normal" x="153.375" y="392" text-anchor="start" dominant-baseline="alphabetic" transform="matrix(1, 0, 0, 1, 0.5, 0.5)" stroke-opacity="0" stroke-linejoin="bevel" stroke-miterlimit="10">35</text><text fill="rgb(68,68,68)" stroke="none" font-family="helvetica" font-size="11px" font-style="normal" font-weight="normal" text-decoration="normal" x="193.1666717529297" y="392" text-anchor="start" dominant-baseline="alphabetic" transform="matrix(1, 0, 0, 1, 0.5, 0.5)" fill-opacity="1">40</text><text fill="none" stroke="rgb(0,0,0)" font-family="helvetica" font-size="11px" font-style="normal" font-weight="normal" text-decoration="normal" x="193.1666717529297" y="392" text-anchor="start" dominant-baseline="alphabetic" transform="matrix(1, 0, 0, 1, 0.5, 0.5)" stroke-opacity="0" stroke-linejoin="bevel" stroke-miterlimit="10">40</text><text fill="rgb(68,68,68)" stroke="none" font-family="helvetica" font-size="11px" font-style="normal" font-weight="normal" text-decoration="normal" x="232.9583282470703" y="392" text-anchor="start" dominant-baseline="alphabetic" transform="matrix(1, 0, 0, 1, 0.5, 0.5)" fill-opacity="1">45</text><text fill="none" stroke="rgb(0,0,0)" font-family="helvetica" font-size="11px" font-style="normal" font-weight="normal" text-decoration="normal" x="232.9583282470703" y="392" text-anchor="start" dominant-baseline="alphabetic" transform="matrix(1, 0, 0, 1, 0.5, 0.5)" stroke-opacity="0" stroke-linejoin="bevel" stroke-miterlimit="10">45</text><text fill="rgb(68,68,68)" stroke="none" font-family="helvetica" font-size="11px" font-style="normal" font-weight="normal" text-decoration="normal" x="272.75" y="392" text-anchor="start" dominant-baseline="alphabetic" transform="matrix(1, 0, 0, 1, 0.5, 0.5)" fill-opacity="1">50</text><text fill="none" stroke="rgb(0,0,0)" font-family="helvetica" font-size="11px" font-style="normal" font-weight="normal" text-decoration="normal" x="272.75" y="392" text-anchor="start" dominant-baseline="alphabetic" transform="matrix(1, 0, 0, 1, 0.5, 0.5)" stroke-opacity="0" stroke-linejoin="bevel" stroke-miterlimit="10">50</text><text fill="rgb(68,68,68)" stroke="none" font-family="helvetica" font-size="11px" font-style="normal" font-weight="normal" text-decoration="normal" x="312.5416564941406" y="392" text-anchor="start" dominant-baseline="alphabetic" transform="matrix(1, 0, 0, 1, 0.5, 0.5)" fill-opacity="1">55</text><text fill="none" stroke="rgb(0,0,0)" font-family="helvetica" font-size="11px" font-style="normal" font-weight="normal" text-decoration="normal" x="312.5416564941406" y="392" text-anchor="start" dominant-baseline="alphabetic" transform="matrix(1, 0, 0, 1, 0.5, 0.5)" stroke-opacity="0" stroke-linejoin="bevel" stroke-miterlimit="10">55</text><text fill="rgb(68,68,68)" stroke="none" font-family="helvetica" font-size="11px" font-style="normal" font-weight="normal" text-decoration="normal" x="352.3333435058594" y="392" text-anchor="start" dominant-baseline="alphabetic" transform="matrix(1, 0, 0, 1, 0.5, 0.5)" fill-opacity="1">60</text><text fill="none" stroke="rgb(0,0,0)" font-family="helvetica" font-size="11px" font-style="normal" font-weight="normal" text-decoration="normal" x="352.3333435058594" y="392" text-anchor="start" dominant-baseline="alphabetic" transform="matrix(1, 0, 0, 1, 0.5, 0.5)" stroke-opacity="0" stroke-linejoin="bevel" stroke-miterlimit="10">60</text><text fill="rgb(68,68,68)" stroke="none" font-family="helvetica" font-size="11px" font-style="normal" font-weight="normal" text-decoration="normal" x="392.125" y="392" text-anchor="start" dominant-baseline="alphabetic" transform="matrix(1, 0, 0, 1, 0.5, 0.5)" fill-opacity="1">65</text><text fill="none" stroke="rgb(0,0,0)" font-family="helvetica" font-size="11px" font-style="normal" font-weight="normal" text-decoration="normal" x="392.125" y="392" text-anchor="start" dominant-baseline="alphabetic" transform="matrix(1, 0, 0, 1, 0.5, 0.5)" stroke-opacity="0" stroke-linejoin="bevel" stroke-miterlimit="10">65</text><text fill="rgb(68,68,68)" stroke="none" font-family="helvetica" font-size="11px" font-style="normal" font-weight="normal" text-decoration="normal" x="431.9166564941406" y="392" text-anchor="start" dominant-baseline="alphabetic" transform="matrix(1, 0, 0, 1, 0.5, 0.5)" fill-opacity="1">70</text><text fill="none" stroke="rgb(0,0,0)" font-family="helvetica" font-size="11px" font-style="normal" font-weight="normal" text-decoration="normal" x="431.9166564941406" y="392" text-anchor="start" dominant-baseline="alphabetic" transform="matrix(1, 0, 0, 1, 0.5, 0.5)" stroke-opacity="0" stroke-linejoin="bevel" stroke-miterlimit="10">70</text><text fill="rgb(68,68,68)" stroke="none" font-family="helvetica" font-size="11px" font-style="normal" font-weight="normal" text-decoration="normal" x="471.7083435058594" y="392" text-anchor="start" dominant-baseline="alphabetic" transform="matrix(1, 0, 0, 1, 0.5, 0.5)" fill-opacity="1">75</text><text fill="none" stroke="rgb(0,0,0)" font-family="helvetica" font-size="11px" font-style="normal" font-weight="normal" text-decoration="normal" x="471.7083435058594" y="392" text-anchor="start" dominant-baseline="alphabetic" transform="matrix(1, 0, 0, 1, 0.5, 0.5)" stroke-opacity="0" stroke-linejoin="bevel" stroke-miterlimit="10">75</text><text fill="rgb(68,68,68)" stroke="none" font-family="helvetica" font-size="11px" font-style="normal" font-weight="normal" text-decoration="normal" x="511.5" y="392" text-anchor="start" dominant-baseline="alphabetic" transform="matrix(1, 0, 0, 1, 0.5, 0.5)" fill-opacity="1">80</text><text fill="none" stroke="rgb(0,0,0)" font-family="helvetica" font-size="11px" font-style="normal" font-weight="normal" text-decoration="normal" x="511.5" y="392" text-anchor="start" dominant-baseline="alphabetic" transform="matrix(1, 0, 0, 1, 0.5, 0.5)" stroke-opacity="0" stroke-linejoin="bevel" stroke-miterlimit="10">80</text><text fill="rgb(68,68,68)" stroke="none" font-family="helvetica" font-size="11px" font-style="normal" font-weight="normal" text-decoration="normal" x="551.2916870117188" y="392" text-anchor="start" dominant-baseline="alphabetic" transform="matrix(1, 0, 0, 1, 0.5, 0.5)" fill-opacity="1">85</text><text fill="none" stroke="rgb(0,0,0)" font-family="helvetica" font-size="11px" font-style="normal" font-weight="normal" text-decoration="normal" x="551.2916870117188" y="392" text-anchor="start" dominant-baseline="alphabetic" transform="matrix(1, 0, 0, 1, 0.5, 0.5)" stroke-opacity="0" stroke-linejoin="bevel" stroke-miterlimit="10">85</text><text fill="rgb(68,68,68)" stroke="none" font-family="helvetica" font-size="11px" font-style="normal" font-weight="normal" text-decoration="normal" x="591.0833129882812" y="392" text-anchor="start" dominant-baseline="alphabetic" transform="matrix(1, 0, 0, 1, 0.5, 0.5)" fill-opacity="1">90</text><text fill="none" stroke="rgb(0,0,0)" font-family="helvetica" font-size="11px" font-style="normal" font-weight="normal" text-decoration="normal" x="591.0833129882812" y="392" text-anchor="start" dominant-baseline="alphabetic" transform="matrix(1, 0, 0, 1, 0.5, 0.5)" stroke-opacity="0" stroke-linejoin="bevel" stroke-miterlimit="10">90</text><text fill="rgb(68,68,68)" stroke="none" font-family="helvetica" font-size="11px" font-style="normal" font-weight="normal" text-decoration="normal" x="630.875" y="392" text-anchor="start" dominant-baseline="alphabetic" transform="matrix(1, 0, 0, 1, 0.5, 0.5)" fill-opacity="1">95</text><text fill="none" stroke="rgb(0,0,0)" font-family="helvetica" font-size="11px" font-style="normal" font-weight="normal" text-decoration="normal" x="630.875" y="392" text-anchor="start" dominant-baseline="alphabetic" transform="matrix(1, 0, 0, 1, 0.5, 0.5)" stroke-opacity="0" stroke-linejoin="bevel" stroke-miterlimit="10">95</text><text fill="rgb(68,68,68)" stroke="none" font-family="helvetica" font-size="11px" font-style="normal" font-weight="normal" text-decoration="normal" x="667.1666870117188" y="392" text-anchor="start" dominant-baseline="alphabetic" transform="matrix(1, 0, 0, 1, 0.5, 0.5)" fill-opacity="1">100</text><text fill="none" stroke="rgb(0,0,0)" font-family="helvetica" font-size="11px" font-style="normal" font-weight="normal" text-decoration="normal" x="667.1666870117188" y="392" text-anchor="start" dominant-baseline="alphabetic" transform="matrix(1, 0, 0, 1, 0.5, 0.5)" stroke-opacity="0" stroke-linejoin="bevel" stroke-miterlimit="10">100</text><text fill="rgb(68,68,68)" stroke="none" font-family="helvetica" font-size="11px" font-style="normal" font-weight="normal" text-decoration="normal" x="706.9583129882812" y="392" text-anchor="start" dominant-baseline="alphabetic" transform="matrix(1, 0, 0, 1, 0.5, 0.5)" fill-opacity="1">105</text><text fill="none" stroke="rgb(0,0,0)" font-family="helvetica" font-size="11px" font-style="normal" font-weight="normal" text-decoration="normal" x="706.9583129882812" y="392" text-anchor="start" dominant-baseline="alphabetic" transform="matrix(1, 0, 0, 1, 0.5, 0.5)" stroke-opacity="0" stroke-linejoin="bevel" stroke-miterlimit="10">105</text><text fill="rgb(68,68,68)" stroke="none" font-family="helvetica" font-size="11px" font-style="normal" font-weight="normal" text-decoration="normal" x="746.75" y="392" text-anchor="start" dominant-baseline="alphabetic" transform="matrix(1, 0, 0, 1, 0.5, 0.5)" fill-opacity="1">110</text><text fill="none" stroke="rgb(0,0,0)" font-family="helvetica" font-size="11px" font-style="normal" font-weight="normal" text-decoration="normal" x="746.75" y="392" text-anchor="start" dominant-baseline="alphabetic" transform="matrix(1, 0, 0, 1, 0.5, 0.5)" stroke-opacity="0" stroke-linejoin="bevel" stroke-miterlimit="10">110</text><text fill="rgb(68,68,68)" stroke="none" font-family="helvetica" font-size="11px" font-style="normal" font-weight="normal" text-decoration="normal" x="786.5416870117188" y="392" text-anchor="start" dominant-baseline="alphabetic" transform="matrix(1, 0, 0, 1, 0.5, 0.5)" fill-opacity="1">115</text><text fill="none" stroke="rgb(0,0,0)" font-family="helvetica" font-size="11px" font-style="normal" font-weight="normal" text-decoration="normal" x="786.5416870117188" y="392" text-anchor="start" dominant-baseline="alphabetic" transform="matrix(1, 0, 0, 1, 0.5, 0.5)" stroke-opacity="0" stroke-linejoin="bevel" stroke-miterlimit="10">115</text><text fill="rgb(68,68,68)" stroke="none" font-family="helvetica" font-size="13px" font-style="italic" font-weight="normal" text-decoration="normal" x="380.8583335876465" y="413" text-anchor="start" dominant-baseline="alphabetic" transform="matrix(1, 0, 0, 1, 0.5, 0.5)" fill-opacity="1">Read Length</text><text fill="none" stroke="rgb(0,0,0)" font-family="helvetica" font-size="13px" font-style="italic" font-weight="normal" text-decoration="normal" x="380.8583335876465" y="413" text-anchor="start" dominant-baseline="alphabetic" transform="matrix(1, 0, 0, 1, 0.5, 0.5)" stroke-opacity="0" stroke-linejoin="bevel" stroke-miterlimit="10">Read Length</text><path fill="none" stroke="rgb(0,0,0)" paint-order="fill" d="M 37.5 373.5 L 41.5 373.5 M 37.5 357.5 L 41.5 357.5 M 37.5 340.5 L 41.5 340.5 M 37.5 324.5 L 41.5 324.5 M 37.5 308.5 L 41.5 308.5 M 37.5 292.5 L 41.5 292.5 M 37.5 275.5 L 41.5 275.5 M 37.5 259.5 L 41.5 259.5 M 37.5 243.5 L 41.5 243.5 M 37.5 227.5 L 41.5 227.5 M 37.5 210.5 L 41.5 210.5 M 37.5 194.5 L 41.5 194.5 M 37.5 178.5 L 41.5 178.5 M 37.5 162.5 L 41.5 162.5 M 37.5 145.5 L 41.5 145.5 M 37.5 129.5 L 41.5 129.5 M 37.5 113.5 L 41.5 113.5 M 37.5 97.5 L 41.5 97.5 M 37.5 80.5 L 41.5 80.5 M 37.5 64.5 L 41.5 64.5 M 37.5 48.5 L 41.5 48.5 M 37.5 32.5 L 41.5 32.5" stroke-opacity="1" stroke-linejoin="bevel" stroke-miterlimit="10"/><text fill="rgb(68,68,68)" stroke="none" font-family="helvetica" font-size="11px" font-style="normal" font-weight="normal" text-decoration="normal" x="28" y="377" text-anchor="start" dominant-baseline="alphabetic" transform="matrix(1, 0, 0, 1, 0.5, 0.5)" fill-opacity="1">0</text><text fill="none" stroke="rgb(0,0,0)" font-family="helvetica" font-size="11px" font-style="normal" font-weight="normal" text-decoration="normal" x="28" y="377" text-anchor="start" dominant-baseline="alphabetic" transform="matrix(1, 0, 0, 1, 0.5, 0.5)" stroke-opacity="0" stroke-linejoin="bevel" stroke-miterlimit="10">0</text><text fill="rgb(68,68,68)" stroke="none" font-family="helvetica" font-size="11px" font-style="normal" font-weight="normal" text-decoration="normal" x="28" y="295.6988220214844" text-anchor="start" dominant-baseline="alphabetic" transform="matrix(1, 0, 0, 1, 0.5, 0.5)" fill-opacity="1">2</text><text fill="none" stroke="rgb(0,0,0)" font-family="helvetica" font-size="11px" font-style="normal" font-weight="normal" text-decoration="normal" x="28" y="295.6988220214844" text-anchor="start" dominant-baseline="alphabetic" transform="matrix(1, 0, 0, 1, 0.5, 0.5)" stroke-opacity="0" stroke-linejoin="bevel" stroke-miterlimit="10">2</text><text fill="rgb(68,68,68)" stroke="none" font-family="helvetica" font-size="11px" font-style="normal" font-weight="normal" text-decoration="normal" x="28" y="214.3976593017578" text-anchor="start" dominant-baseline="alphabetic" transform="matrix(1, 0, 0, 1, 0.5, 0.5)" fill-opacity="1">4</text><text fill="none" stroke="rgb(0,0,0)" font-family="helvetica" font-size="11px" font-style="normal" font-weight="normal" text-decoration="normal" x="28" y="214.3976593017578" text-anchor="start" dominant-baseline="alphabetic" transform="matrix(1, 0, 0, 1, 0.5, 0.5)" stroke-opacity="0" stroke-linejoin="bevel" stroke-miterlimit="10">4</text><text fill="rgb(68,68,68)" stroke="none" font-family="helvetica" font-size="11px" font-style="normal" font-weight="normal" text-decoration="normal" x="28" y="133.09649658203125" text-anchor="start" dominant-baseline="alphabetic" transform="matrix(1, 0, 0, 1, 0.5, 0.5)" fill-opacity="1">6</text><text fill="none" stroke="rgb(0,0,0)" font-family="helvetica" font-size="11px" font-style="normal" font-weight="normal" text-decoration="normal" x="28" y="133.09649658203125" text-anchor="start" dominant-baseline="alphabetic" transform="matrix(1, 0, 0, 1, 0.5, 0.5)" stroke-opacity="0" stroke-linejoin="bevel" stroke-miterlimit="10">6</text><text fill="rgb(68,68,68)" stroke="none" font-family="helvetica" font-size="11px" font-style="normal" font-weight="normal" text-decoration="normal" x="28" y="51.795326232910156" text-anchor="start" dominant-baseline="alphabetic" transform="matrix(1, 0, 0, 1, 0.5, 0.5)" fill-opacity="1">8</text><text fill="none" stroke="rgb(0,0,0)" font-family="helvetica" font-size="11px" font-style="normal" font-weight="normal" text-decoration="normal" x="28" y="51.795326232910156" text-anchor="start" dominant-baseline="alphabetic" transform="matrix(1, 0, 0, 1, 0.5, 0.5)" stroke-opacity="0" stroke-linejoin="bevel" stroke-miterlimit="10">8</text><text fill="rgb(68,68,68)" stroke="none" font-family="helvetica" font-size="13px" font-style="italic" font-weight="normal" text-decoration="normal" x="-17.208332061767578" y="197" text-anchor="start" dominant-baseline="alphabetic" transform="matrix(6.123233995736766e-17, -1, 1, 6.123233995736766e-17, -180.5, 221.5)" fill-opacity="1">Percentage</text><text fill="none" stroke="rgb(0,0,0)" font-family="helvetica" font-size="13px" font-style="italic" font-weight="normal" text-decoration="normal" x="-17.208332061767578" y="197" text-anchor="start" dominant-baseline="alphabetic" transform="matrix(6.123233995736766e-17, -1, 1, 6.123233995736766e-17, -180.5, 221.5)" stroke-opacity="0" stroke-linejoin="bevel" stroke-miterlimit="10">Percentage</text><text fill="rgb(68,68,68)" stroke="none" font-family="helvetica" font-size="13px" font-style="normal" font-weight="bold" text-decoration="normal" x="0" y="13" text-anchor="start" dominant-baseline="alphabetic" transform="matrix(1, 0, 0, 1, 41.5, 7.5)" fill-opacity="1">Length Distrubution</text><text fill="none" stroke="rgb(0,0,0)" font-family="helvetica" font-size="13px" font-style="normal" font-weight="bold" text-decoration="normal" x="0" y="13" text-anchor="start" dominant-baseline="alphabetic" transform="matrix(1, 0, 0, 1, 41.5, 7.5)" stroke-opacity="0" stroke-miterlimit="10" stroke-dasharray="">Length Distrubution</text></svg>