<svg version="1.1" xmlns="http://www.w3.org/2000/svg" width="910" height="450"><defs><clipPath id="hNpwwfJbewmB"><path fill="none" stroke="none" d="M 0.5 0.5 L 910.5 0.5 L 910.5 450.5 L 0.5 450.5 L 0.5 0.5 Z M 44.5 27.5 L 905.5 27.5 L 905.5 375.5 L 44.5 375.5 L 44.5 27.5 Z" clip-rule="evenodd"/></clipPath><clipPath id="JqpDsceSLTXs"><path fill="none" stroke="none" d="M 44.5 27.5 L 905.5 27.5 L 905.5 375.5 L 44.5 375.5 L 44.5 27.5 Z"/></clipPath><clipPath id="LkOkmgadtxhL"><path fill="none" stroke="none" d="M 44.5 27.5 L 905.5 27.5 L 905.5 375.5 L 44.5 375.5 L 44.5 27.5 Z"/></clipPath><clipPath id="qXXbICzwwatM"><path fill="none" stroke="none" d="M 44.5 27.5 L 905.5 27.5 L 905.5 375.5 L 44.5 375.5 L 44.5 27.5 Z"/></clipPath></defs><path fill="#ffffff" stroke="none" paint-order="stroke" d="M 0.5 0.5 L 910.5 0.5 L 910.5 450.5 L 0.5 450.5 L 0.5 0.5 Z" fill-rule="nonzero" clip-path="url(#hNpwwfJbewmB)"/><path fill="#ffffff" stroke="none" paint-order="stroke" d="M 44.5 27.5 L 905.5 27.5 L 905.5 375.5 L 44.5 375.5 L 44.5 27.5 Z"/><path fill="none" stroke="#e5e5e5" paint-order="fill" d="M 44.5 27.5 L 905.5 27.5 L 905.5 375.5 L 44.5 375.5 L 44.5 27.5 Z" stroke-linejoin="bevel" stroke-miterlimit="10"/><path fill="rgb(3 102 102)" stroke="rgb(3 102 102)" paint-order="fill" d="M 44.5 363.2249755859375 L 47.96588897705078 363.2249755859375 L 47.96588897705078 375.5 L 44.5 375.5 L 44.5 363.2249755859375 Z" fill-rule="nonzero" clip-path="url(#LkOkmgadtxhL)" stroke-linejoin="bevel" stroke-miterlimit="10"/><path fill="rgb(3 102 102)" stroke="rgb(3 102 102)" paint-order="fill" d="M 48.33072280883789 348.7926940917969 L 55.26250076293945 348.7926940917969 L 55.26250076293945 375.5 L 48.33072280883789 375.5 L 48.33072280883789 348.7926940917969 Z" fill-rule="nonzero" clip-path="url(#LkOkmgadtxhL)" stroke-linejoin="bevel" stroke-miterlimit="10"/><path fill="rgb(3 102 102)" stroke="rgb(3 102 102)" paint-order="fill" d="M 55.6273307800293 348.630859375 L 62.55910873413086 348.630859375 L 62.55910873413086 375.5 L 55.6273307800293 375.5 L 55.6273307800293 348.630859375 Z" fill-rule="nonzero" clip-path="url(#LkOkmgadtxhL)" stroke-linejoin="bevel" stroke-miterlimit="10"/><path fill="rgb(3 102 102)" stroke="rgb(3 102 102)" paint-order="fill" d="M 62.92394256591797 333.7353820800781 L 69.85572052001953 333.7353820800781 L 69.85572052001953 375.5 L 62.92394256591797 375.5 L 62.92394256591797 333.7353820800781 Z" fill-rule="nonzero" clip-path="url(#LkOkmgadtxhL)" stroke-linejoin="bevel" stroke-miterlimit="10"/><path fill="rgb(3 102 102)" stroke="rgb(3 102 102)" paint-order="fill" d="M 70.22055053710938 314.4137268066406 L 77.15232849121094 314.4137268066406 L 77.15232849121094 375.5 L 70.22055053710938 375.5 L 70.22055053710938 314.4137268066406 Z" fill-rule="nonzero" clip-path="url(#LkOkmgadtxhL)" stroke-linejoin="bevel" stroke-miterlimit="10"/><path fill="rgb(3 102 102)" stroke="rgb(3 102 102)" paint-order="fill" d="M 77.51715850830078 316.0453796386719 L 84.44893646240234 316.0453796386719 L 84.44893646240234 375.5 L 77.51715850830078 375.5 L 77.51715850830078 316.0453796386719 Z" fill-rule="nonzero" clip-path="url(#LkOkmgadtxhL)" stroke-linejoin="bevel" stroke-miterlimit="10"/><path fill="rgb(3 102 102)" stroke="rgb(3 102 102)" paint-order="fill" d="M 84.81377410888672 328.6462707519531 L 91.74555206298828 328.6462707519531 L 91.74555206298828 375.5 L 84.81377410888672 375.5 L 84.81377410888672 328.6462707519531 Z" fill-rule="nonzero" clip-path="url(#LkOkmgadtxhL)" stroke-linejoin="bevel" stroke-miterlimit="10"/><path fill="rgb(3 102 102)" stroke="rgb(3 102 102)" paint-order="fill" d="M 92.11038208007812 317.3035583496094 L 99.04216003417969 317.3035583496094 L 99.04216003417969 375.5 L 92.11038208007812 375.5 L 92.11038208007812 317.3035583496094 Z" fill-rule="nonzero" clip-path="url(#LkOkmgadtxhL)" stroke-linejoin="bevel" stroke-miterlimit="10"/><path fill="rgb(3 102 102)" stroke="rgb(3 102 102)" paint-order="fill" d="M 99.40699005126953 252.42625427246094 L 106.3387680053711 252.42625427246094 L 106.3387680053711 375.5 L 99.40699005126953 375.5 L 99.40699005126953 252.42625427246094 Z" fill-rule="nonzero" clip-path="url(#LkOkmgadtxhL)" stroke-linejoin="bevel" stroke-miterlimit="10"/><path fill="rgb(3 102 102)" stroke="rgb(3 102 102)" paint-order="fill" d="M 106.70360565185547 68.78699493408203 L 113.63538360595703 68.78699493408203 L 113.63538360595703 375.5 L 106.70360565185547 375.5 L 106.70360565185547 68.78699493408203 Z" fill-rule="nonzero" clip-path="url(#LkOkmgadtxhL)" stroke-linejoin="bevel" stroke-miterlimit="10"/><path fill="rgb(3 102 102)" stroke="rgb(3 102 102)" paint-order="fill" d="M 114.00021362304688 30.945545196533203 L 120.93199157714844 30.945545196533203 L 120.93199157714844 375.5 L 114.00021362304688 375.5 L 114.00021362304688 30.945545196533203 Z" fill-rule="nonzero" clip-path="url(#LkOkmgadtxhL)" stroke-linejoin="bevel" stroke-miterlimit="10"/><path fill="rgb(3 102 102)" stroke="rgb(3 102 102)" paint-order="fill" d="M 121.29682159423828 223.72853088378906 L 128.22859954833984 223.72853088378906 L 128.22859954833984 375.5 L 121.29682159423828 375.5 L 121.29682159423828 223.72853088378906 Z" fill-rule="nonzero" clip-path="url(#LkOkmgadtxhL)" stroke-linejoin="bevel" stroke-miterlimit="10"/><path fill="rgb(3 102 102)" stroke="rgb(3 102 102)" paint-order="fill" d="M 128.5934295654297 338.7788391113281 L 135.5252227783203 338.7788391113281 L 135.5252227783203 375.5 L 128.5934295654297 375.5 L 128.5934295654297 338.7788391113281 Z" fill-rule="nonzero" clip-path="url(#LkOkmgadtxhL)" stroke-linejoin="bevel" stroke-miterlimit="10"/><path fill="rgb(3 102 102)" stroke="rgb(3 102 102)" paint-order="fill" d="M 135.89002990722656 364.10479736328125 L 142.8218231201172 364.10479736328125 L 142.8218231201172 375.5 L 135.89002990722656 375.5 L 135.89002990722656 364.10479736328125 Z" fill-rule="nonzero" clip-path="url(#LkOkmgadtxhL)" stroke-linejoin="bevel" stroke-miterlimit="10"/><path fill="rgb(3 102 102)" stroke="rgb(3 102 102)" paint-order="fill" d="M 143.1866455078125 368.1710205078125 L 150.11843872070312 368.1710205078125 L 150.11843872070312 375.5 L 143.1866455078125 375.5 L 143.1866455078125 368.1710205078125 Z" fill-rule="nonzero" clip-path="url(#LkOkmgadtxhL)" stroke-linejoin="bevel" stroke-miterlimit="10"/><path fill="rgb(3 102 102)" stroke="rgb(3 102 102)" paint-order="fill" d="M 150.48326110839844 368.89459228515625 L 157.41505432128906 368.89459228515625 L 157.41505432128906 375.5 L 150.48326110839844 375.5 L 150.48326110839844 368.89459228515625 Z" fill-rule="nonzero" clip-path="url(#LkOkmgadtxhL)" stroke-linejoin="bevel" stroke-miterlimit="10"/><path fill="rgb(3 102 102)" stroke="rgb(3 102 102)" paint-order="fill" d="M 157.7798614501953 368.9829406738281 L 164.71165466308594 368.9829406738281 L 164.71165466308594 375.5 L 157.7798614501953 375.5 L 157.7798614501953 368.9829406738281 Z" fill-rule="nonzero" clip-path="url(#LkOkmgadtxhL)" stroke-linejoin="bevel" stroke-miterlimit="10"/><path fill="rgb(3 102 102)" stroke="rgb(3 102 102)" paint-order="fill" d="M 165.07647705078125 369.4693603515625 L 172.00827026367188 369.4693603515625 L 172.00827026367188 375.5 L 165.07647705078125 375.5 L 165.07647705078125 369.4693603515625 Z" fill-rule="nonzero" clip-path="url(#LkOkmgadtxhL)" stroke-linejoin="bevel" stroke-miterlimit="10"/><path fill="rgb(3 102 102)" stroke="rgb(3 102 102)" paint-order="fill" d="M 172.3730926513672 369.580810546875 L 179.3048858642578 369.580810546875 L 179.3048858642578 375.5 L 172.3730926513672 375.5 L 172.3730926513672 369.580810546875 Z" fill-rule="nonzero" clip-path="url(#LkOkmgadtxhL)" stroke-linejoin="bevel" stroke-miterlimit="10"/><path fill="rgb(3 102 102)" stroke="rgb(3 102 102)" paint-order="fill" d="M 179.66969299316406 369.6821594238281 L 186.6014862060547 369.6821594238281 L 186.6014862060547 375.5 L 179.66969299316406 375.5 L 179.66969299316406 369.6821594238281 Z" fill-rule="nonzero" clip-path="url(#LkOkmgadtxhL)" stroke-linejoin="bevel" stroke-miterlimit="10"/><path fill="rgb(3 102 102)" stroke="rgb(3 102 102)" paint-order="fill" d="M 186.96630859375 369.8968811035156 L 193.89810180664062 369.8968811035156 L 193.89810180664062 375.5 L 186.96630859375 375.5 L 186.96630859375 369.8968811035156 Z" fill-rule="nonzero" clip-path="url(#LkOkmgadtxhL)" stroke-linejoin="bevel" stroke-miterlimit="10"/><path fill="rgb(3 102 102)" stroke="rgb(3 102 102)" paint-order="fill" d="M 194.26292419433594 370.080810546875 L 201.19471740722656 370.080810546875 L 201.19471740722656 375.5 L 194.26292419433594 375.5 L 194.26292419433594 370.080810546875 Z" fill-rule="nonzero" clip-path="url(#LkOkmgadtxhL)" stroke-linejoin="bevel" stroke-miterlimit="10"/><path fill="rgb(3 102 102)" stroke="rgb(3 102 102)" paint-order="fill" d="M 201.5595245361328 370.30535888671875 L 208.49131774902344 370.30535888671875 L 208.49131774902344 375.5 L 201.5595245361328 375.5 L 201.5595245361328 370.30535888671875 Z" fill-rule="nonzero" clip-path="url(#LkOkmgadtxhL)" stroke-linejoin="bevel" stroke-miterlimit="10"/><path fill="rgb(3 102 102)" stroke="rgb(3 102 102)" paint-order="fill" d="M 208.85614013671875 370.5893859863281 L 215.78793334960938 370.5893859863281 L 215.78793334960938 375.5 L 208.85614013671875 375.5 L 208.85614013671875 370.5893859863281 Z" fill-rule="nonzero" clip-path="url(#LkOkmgadtxhL)" stroke-linejoin="bevel" stroke-miterlimit="10"/><path fill="rgb(3 102 102)" stroke="rgb(3 102 102)" paint-order="fill" d="M 216.15274047851562 370.83868408203125 L 223.08453369140625 370.83868408203125 L 223.08453369140625 375.5 L 216.15274047851562 375.5 L 216.15274047851562 370.83868408203125 Z" fill-rule="nonzero" clip-path="url(#LkOkmgadtxhL)" stroke-linejoin="bevel" stroke-miterlimit="10"/><path fill="rgb(3 102 102)" stroke="rgb(3 102 102)" paint-order="fill" d="M 223.44935607910156 370.9107971191406 L 230.3811492919922 370.9107971191406 L 230.3811492919922 375.5 L 223.44935607910156 375.5 L 223.44935607910156 370.9107971191406 Z" fill-rule="nonzero" clip-path="url(#LkOkmgadtxhL)" stroke-linejoin="bevel" stroke-miterlimit="10"/><path fill="rgb(3 102 102)" stroke="rgb(3 102 102)" paint-order="fill" d="M 230.7459716796875 371.0539855957031 L 237.67776489257812 371.0539855957031 L 237.67776489257812 375.5 L 230.7459716796875 375.5 L 230.7459716796875 371.0539855957031 Z" fill-rule="nonzero" clip-path="url(#LkOkmgadtxhL)" stroke-linejoin="bevel" stroke-miterlimit="10"/><path fill="rgb(3 102 102)" stroke="rgb(3 102 102)" paint-order="fill" d="M 238.04257202148438 371.249267578125 L 244.974365234375 371.249267578125 L 244.974365234375 375.5 L 238.04257202148438 375.5 L 238.04257202148438 371.249267578125 Z" fill-rule="nonzero" clip-path="url(#LkOkmgadtxhL)" stroke-linejoin="bevel" stroke-miterlimit="10"/><path fill="rgb(3 102 102)" stroke="rgb(3 102 102)" paint-order="fill" d="M 245.3391876220703 371.52825927734375 L 252.27098083496094 371.52825927734375 L 252.27098083496094 375.5 L 245.3391876220703 375.5 L 245.3391876220703 371.52825927734375 Z" fill-rule="nonzero" clip-path="url(#LkOkmgadtxhL)" stroke-linejoin="bevel" stroke-miterlimit="10"/><path fill="rgb(3 102 102)" stroke="rgb(3 102 102)" paint-order="fill" d="M 252.63580322265625 371.44775390625 L 259.5675964355469 371.44775390625 L 259.5675964355469 375.5 L 252.63580322265625 375.5 L 252.63580322265625 371.44775390625 Z" fill-rule="nonzero" clip-path="url(#LkOkmgadtxhL)" stroke-linejoin="bevel" stroke-miterlimit="10"/><path fill="rgb(3 102 102)" stroke="rgb(3 102 102)" paint-order="fill" d="M 259.93243408203125 371.597412109375 L 266.86419677734375 371.597412109375 L 266.86419677734375 375.5 L 259.93243408203125 375.5 L 259.93243408203125 371.597412109375 Z" fill-rule="nonzero" clip-path="url(#LkOkmgadtxhL)" stroke-linejoin="bevel" stroke-miterlimit="10"/><path fill="rgb(3 102 102)" stroke="rgb(3 102 102)" paint-order="fill" d="M 267.2290344238281 371.3774719238281 L 274.1607971191406 371.3774719238281 L 274.1607971191406 375.5 L 267.2290344238281 375.5 L 267.2290344238281 371.3774719238281 Z" fill-rule="nonzero" clip-path="url(#LkOkmgadtxhL)" stroke-linejoin="bevel" stroke-miterlimit="10"/><path fill="rgb(3 102 102)" stroke="rgb(3 102 102)" paint-order="fill" d="M 274.525634765625 371.7351379394531 L 281.4573974609375 371.7351379394531 L 281.4573974609375 375.5 L 274.525634765625 375.5 L 274.525634765625 371.7351379394531 Z" fill-rule="nonzero" clip-path="url(#LkOkmgadtxhL)" stroke-linejoin="bevel" stroke-miterlimit="10"/><path fill="rgb(3 102 102)" stroke="rgb(3 102 102)" paint-order="fill" d="M 281.822265625 371.4725341796875 L 288.7540283203125 371.4725341796875 L 288.7540283203125 375.5 L 281.822265625 375.5 L 281.822265625 371.4725341796875 Z" fill-rule="nonzero" clip-path="url(#LkOkmgadtxhL)" stroke-linejoin="bevel" stroke-miterlimit="10"/><path fill="rgb(3 102 102)" stroke="rgb(3 102 102)" paint-order="fill" d="M 289.1188659667969 370.9443664550781 L 296.0506286621094 370.9443664550781 L 296.0506286621094 375.5 L 289.1188659667969 375.5 L 289.1188659667969 370.9443664550781 Z" fill-rule="nonzero" clip-path="url(#LkOkmgadtxhL)" stroke-linejoin="bevel" stroke-miterlimit="10"/><path fill="rgb(3 102 102)" stroke="rgb(3 102 102)" paint-order="fill" d="M 296.41546630859375 371.2734680175781 L 303.34722900390625 371.2734680175781 L 303.34722900390625 375.5 L 296.41546630859375 375.5 L 296.41546630859375 371.2734680175781 Z" fill-rule="nonzero" clip-path="url(#LkOkmgadtxhL)" stroke-linejoin="bevel" stroke-miterlimit="10"/><path fill="rgb(3 102 102)" stroke="rgb(3 102 102)" paint-order="fill" d="M 303.71209716796875 371.1645812988281 L 310.64385986328125 371.1645812988281 L 310.64385986328125 375.5 L 303.71209716796875 375.5 L 303.71209716796875 371.1645812988281 Z" fill-rule="nonzero" clip-path="url(#LkOkmgadtxhL)" stroke-linejoin="bevel" stroke-miterlimit="10"/><path fill="rgb(3 102 102)" stroke="rgb(3 102 102)" paint-order="fill" d="M 311.0086975097656 370.6256408691406 L 317.9404602050781 370.6256408691406 L 317.9404602050781 375.5 L 311.0086975097656 375.5 L 311.0086975097656 370.6256408691406 Z" fill-rule="nonzero" clip-path="url(#LkOkmgadtxhL)" stroke-linejoin="bevel" stroke-miterlimit="10"/><path fill="rgb(3 102 102)" stroke="rgb(3 102 102)" paint-order="fill" d="M 318.3052978515625 369.8058776855469 L 325.237060546875 369.8058776855469 L 325.237060546875 375.5 L 318.3052978515625 375.5 L 318.3052978515625 369.8058776855469 Z" fill-rule="nonzero" clip-path="url(#LkOkmgadtxhL)" stroke-linejoin="bevel" stroke-miterlimit="10"/><path fill="rgb(3 102 102)" stroke="rgb(3 102 102)" paint-order="fill" d="M 325.6019287109375 366.6390380859375 L 332.53369140625 366.6390380859375 L 332.53369140625 375.5 L 325.6019287109375 375.5 L 325.6019287109375 366.6390380859375 Z" fill-rule="nonzero" clip-path="url(#LkOkmgadtxhL)" stroke-linejoin="bevel" stroke-miterlimit="10"/><path fill="rgb(3 102 102)" stroke="rgb(3 102 102)" paint-order="fill" d="M 332.8985290527344 365.8787841796875 L 339.8302917480469 365.8787841796875 L 339.8302917480469 375.5 L 332.8985290527344 375.5 L 332.8985290527344 365.8787841796875 Z" fill-rule="nonzero" clip-path="url(#LkOkmgadtxhL)" stroke-linejoin="bevel" stroke-miterlimit="10"/><path fill="rgb(3 102 102)" stroke="rgb(3 102 102)" paint-order="fill" d="M 340.19512939453125 367.9698791503906 L 347.12689208984375 367.9698791503906 L 347.12689208984375 375.5 L 340.19512939453125 375.5 L 340.19512939453125 367.9698791503906 Z" fill-rule="nonzero" clip-path="url(#LkOkmgadtxhL)" stroke-linejoin="bevel" stroke-miterlimit="10"/><path fill="rgb(3 102 102)" stroke="rgb(3 102 102)" paint-order="fill" d="M 347.49176025390625 365.55194091796875 L 354.42352294921875 365.55194091796875 L 354.42352294921875 375.5 L 347.49176025390625 375.5 L 347.49176025390625 365.55194091796875 Z" fill-rule="nonzero" clip-path="url(#LkOkmgadtxhL)" stroke-linejoin="bevel" stroke-miterlimit="10"/><path fill="rgb(3 102 102)" stroke="rgb(3 102 102)" paint-order="fill" d="M 354.7883605957031 365.21612548828125 L 361.7201232910156 365.21612548828125 L 361.7201232910156 375.5 L 354.7883605957031 375.5 L 354.7883605957031 365.21612548828125 Z" fill-rule="nonzero" clip-path="url(#LkOkmgadtxhL)" stroke-linejoin="bevel" stroke-miterlimit="10"/><path fill="rgb(3 102 102)" stroke="rgb(3 102 102)" paint-order="fill" d="M 362.0849609375 369.3951721191406 L 369.0167236328125 369.3951721191406 L 369.0167236328125 375.5 L 362.0849609375 375.5 L 362.0849609375 369.3951721191406 Z" fill-rule="nonzero" clip-path="url(#LkOkmgadtxhL)" stroke-linejoin="bevel" stroke-miterlimit="10"/><path fill="rgb(3 102 102)" stroke="rgb(3 102 102)" paint-order="fill" d="M 369.3815612792969 370.754150390625 L 376.3133239746094 370.754150390625 L 376.3133239746094 375.5 L 369.3815612792969 375.5 L 369.3815612792969 370.754150390625 Z" fill-rule="nonzero" clip-path="url(#LkOkmgadtxhL)" stroke-linejoin="bevel" stroke-miterlimit="10"/><path fill="rgb(3 102 102)" stroke="rgb(3 102 102)" paint-order="fill" d="M 376.6781921386719 371.38433837890625 L 383.6099548339844 371.38433837890625 L 383.6099548339844 375.5 L 376.6781921386719 375.5 L 376.6781921386719 371.38433837890625 Z" fill-rule="nonzero" clip-path="url(#LkOkmgadtxhL)" stroke-linejoin="bevel" stroke-miterlimit="10"/><path fill="rgb(3 102 102)" stroke="rgb(3 102 102)" paint-order="fill" d="M 383.97479248046875 372.997802734375 L 390.90655517578125 372.997802734375 L 390.90655517578125 375.5 L 383.97479248046875 375.5 L 383.97479248046875 372.997802734375 Z" fill-rule="nonzero" clip-path="url(#LkOkmgadtxhL)" stroke-linejoin="bevel" stroke-miterlimit="10"/><path fill="rgb(3 102 102)" stroke="rgb(3 102 102)" paint-order="fill" d="M 391.2713928222656 373.7292175292969 L 398.2031555175781 373.7292175292969 L 398.2031555175781 375.5 L 391.2713928222656 375.5 L 391.2713928222656 373.7292175292969 Z" fill-rule="nonzero" clip-path="url(#LkOkmgadtxhL)" stroke-linejoin="bevel" stroke-miterlimit="10"/><path fill="rgb(3 102 102)" stroke="rgb(3 102 102)" paint-order="fill" d="M 398.5680236816406 373.99127197265625 L 405.4997863769531 373.99127197265625 L 405.4997863769531 375.5 L 398.5680236816406 375.5 L 398.5680236816406 373.99127197265625 Z" fill-rule="nonzero" clip-path="url(#LkOkmgadtxhL)" stroke-linejoin="bevel" stroke-miterlimit="10"/><path fill="rgb(3 102 102)" stroke="rgb(3 102 102)" paint-order="fill" d="M 405.8646240234375 374.22601318359375 L 412.79638671875 374.22601318359375 L 412.79638671875 375.5 L 405.8646240234375 375.5 L 405.8646240234375 374.22601318359375 Z" fill-rule="nonzero" clip-path="url(#LkOkmgadtxhL)" stroke-linejoin="bevel" stroke-miterlimit="10"/><path fill="rgb(3 102 102)" stroke="rgb(3 102 102)" paint-order="fill" d="M 413.1612243652344 374.17938232421875 L 420.0929870605469 374.17938232421875 L 420.0929870605469 375.5 L 413.1612243652344 375.5 L 413.1612243652344 374.17938232421875 Z" fill-rule="nonzero" clip-path="url(#LkOkmgadtxhL)" stroke-linejoin="bevel" stroke-miterlimit="10"/><path fill="rgb(3 102 102)" stroke="rgb(3 102 102)" paint-order="fill" d="M 420.4578552246094 374.17742919921875 L 427.3896179199219 374.17742919921875 L 427.3896179199219 375.5 L 420.4578552246094 375.5 L 420.4578552246094 374.17742919921875 Z" fill-rule="nonzero" clip-path="url(#LkOkmgadtxhL)" stroke-linejoin="bevel" stroke-miterlimit="10"/><path fill="rgb(3 102 102)" stroke="rgb(3 102 102)" paint-order="fill" d="M 427.75445556640625 374.3993225097656 L 434.68621826171875 374.3993225097656 L 434.68621826171875 375.5 L 427.75445556640625 375.5 L 427.75445556640625 374.3993225097656 Z" fill-rule="nonzero" clip-path="url(#LkOkmgadtxhL)" stroke-linejoin="bevel" stroke-miterlimit="10"/><path fill="rgb(3 102 102)" stroke="rgb(3 102 102)" paint-order="fill" d="M 435.0510559082031 374.5090637207031 L 441.9828186035156 374.5090637207031 L 441.9828186035156 375.5 L 435.0510559082031 375.5 L 435.0510559082031 374.5090637207031 Z" fill-rule="nonzero" clip-path="url(#LkOkmgadtxhL)" stroke-linejoin="bevel" stroke-miterlimit="10"/><path fill="rgb(3 102 102)" stroke="rgb(3 102 102)" paint-order="fill" d="M 442.3476867675781 374.644287109375 L 449.2794494628906 374.644287109375 L 449.2794494628906 375.5 L 442.3476867675781 375.5 L 442.3476867675781 374.644287109375 Z" fill-rule="nonzero" clip-path="url(#LkOkmgadtxhL)" stroke-linejoin="bevel" stroke-miterlimit="10"/><path fill="rgb(3 102 102)" stroke="rgb(3 102 102)" paint-order="fill" d="M 449.644287109375 374.7141418457031 L 456.5760498046875 374.7141418457031 L 456.5760498046875 375.5 L 449.644287109375 375.5 L 449.644287109375 374.7141418457031 Z" fill-rule="nonzero" clip-path="url(#LkOkmgadtxhL)" stroke-linejoin="bevel" stroke-miterlimit="10"/><path fill="rgb(3 102 102)" stroke="rgb(3 102 102)" paint-order="fill" d="M 456.9408874511719 374.7925109863281 L 463.8726501464844 374.7925109863281 L 463.8726501464844 375.5 L 456.9408874511719 375.5 L 456.9408874511719 374.7925109863281 Z" fill-rule="nonzero" clip-path="url(#LkOkmgadtxhL)" stroke-linejoin="bevel" stroke-miterlimit="10"/><path fill="rgb(3 102 102)" stroke="rgb(3 102 102)" paint-order="fill" d="M 464.2375183105469 374.7796325683594 L 471.1692810058594 374.7796325683594 L 471.1692810058594 375.5 L 464.2375183105469 375.5 L 464.2375183105469 374.7796325683594 Z" fill-rule="nonzero" clip-path="url(#LkOkmgadtxhL)" stroke-linejoin="bevel" stroke-miterlimit="10"/><path fill="rgb(3 102 102)" stroke="rgb(3 102 102)" paint-order="fill" d="M 471.53411865234375 374.8773498535156 L 478.46588134765625 374.8773498535156 L 478.46588134765625 375.5 L 471.53411865234375 375.5 L 471.53411865234375 374.8773498535156 Z" fill-rule="nonzero" clip-path="url(#LkOkmgadtxhL)" stroke-linejoin="bevel" stroke-miterlimit="10"/><path fill="rgb(3 102 102)" stroke="rgb(3 102 102)" paint-order="fill" d="M 478.8307189941406 374.9570007324219 L 485.7624816894531 374.9570007324219 L 485.7624816894531 375.5 L 478.8307189941406 375.5 L 478.8307189941406 374.9570007324219 Z" fill-rule="nonzero" clip-path="url(#LkOkmgadtxhL)" stroke-linejoin="bevel" stroke-miterlimit="10"/><path fill="rgb(3 102 102)" stroke="rgb(3 102 102)" paint-order="fill" d="M 486.1273498535156 374.9715576171875 L 493.0591125488281 374.9715576171875 L 493.0591125488281 375.5 L 486.1273498535156 375.5 L 486.1273498535156 374.9715576171875 Z" fill-rule="nonzero" clip-path="url(#LkOkmgadtxhL)" stroke-linejoin="bevel" stroke-miterlimit="10"/><path fill="rgb(3 102 102)" stroke="rgb(3 102 102)" paint-order="fill" d="M 493.4239501953125 374.9388122558594 L 500.355712890625 374.9388122558594 L 500.355712890625 375.5 L 493.4239501953125 375.5 L 493.4239501953125 374.9388122558594 Z" fill-rule="nonzero" clip-path="url(#LkOkmgadtxhL)" stroke-linejoin="bevel" stroke-miterlimit="10"/><path fill="rgb(3 102 102)" stroke="rgb(3 102 102)" paint-order="fill" d="M 500.7205505371094 374.9836120605469 L 507.6523132324219 374.9836120605469 L 507.6523132324219 375.5 L 500.7205505371094 375.5 L 500.7205505371094 374.9836120605469 Z" fill-rule="nonzero" clip-path="url(#LkOkmgadtxhL)" stroke-linejoin="bevel" stroke-miterlimit="10"/><path fill="rgb(3 102 102)" stroke="rgb(3 102 102)" paint-order="fill" d="M 508.0171813964844 374.932373046875 L 514.948974609375 374.932373046875 L 514.948974609375 375.5 L 508.0171813964844 375.5 L 508.0171813964844 374.932373046875 Z" fill-rule="nonzero" clip-path="url(#LkOkmgadtxhL)" stroke-linejoin="bevel" stroke-miterlimit="10"/><path fill="rgb(3 102 102)" stroke="rgb(3 102 102)" paint-order="fill" d="M 515.3137817382812 375.0104675292969 L 522.2455444335938 375.0104675292969 L 522.2455444335938 375.5 L 515.3137817382812 375.5 L 515.3137817382812 375.0104675292969 Z" fill-rule="nonzero" clip-path="url(#LkOkmgadtxhL)" stroke-linejoin="bevel" stroke-miterlimit="10"/><path fill="rgb(3 102 102)" stroke="rgb(3 102 102)" paint-order="fill" d="M 522.6104125976562 375.0132751464844 L 529.5421752929688 375.0132751464844 L 529.5421752929688 375.5 L 522.6104125976562 375.5 L 522.6104125976562 375.0132751464844 Z" fill-rule="nonzero" clip-path="url(#LkOkmgadtxhL)" stroke-linejoin="bevel" stroke-miterlimit="10"/><path fill="rgb(3 102 102)" stroke="rgb(3 102 102)" paint-order="fill" d="M 529.906982421875 375.06451416015625 L 536.8387451171875 375.06451416015625 L 536.8387451171875 375.5 L 529.906982421875 375.5 L 529.906982421875 375.06451416015625 Z" fill-rule="nonzero" clip-path="url(#LkOkmgadtxhL)" stroke-linejoin="bevel" stroke-miterlimit="10"/><path fill="rgb(3 102 102)" stroke="rgb(3 102 102)" paint-order="fill" d="M 537.20361328125 374.9955139160156 L 544.1353759765625 374.9955139160156 L 544.1353759765625 375.5 L 537.20361328125 375.5 L 537.20361328125 374.9955139160156 Z" fill-rule="nonzero" clip-path="url(#LkOkmgadtxhL)" stroke-linejoin="bevel" stroke-miterlimit="10"/><path fill="rgb(3 102 102)" stroke="rgb(3 102 102)" paint-order="fill" d="M 544.500244140625 374.98638916015625 L 551.4320068359375 374.98638916015625 L 551.4320068359375 375.5 L 544.500244140625 375.5 L 544.500244140625 374.98638916015625 Z" fill-rule="nonzero" clip-path="url(#LkOkmgadtxhL)" stroke-linejoin="bevel" stroke-miterlimit="10"/><path fill="rgb(3 102 102)" stroke="rgb(3 102 102)" paint-order="fill" d="M 551.7968139648438 374.97686767578125 L 558.7285766601562 374.97686767578125 L 558.7285766601562 375.5 L 551.7968139648438 375.5 L 551.7968139648438 374.97686767578125 Z" fill-rule="nonzero" clip-path="url(#LkOkmgadtxhL)" stroke-linejoin="bevel" stroke-miterlimit="10"/><path fill="rgb(3 102 102)" stroke="rgb(3 102 102)" paint-order="fill" d="M 559.0934448242188 374.99591064453125 L 566.0252075195312 374.99591064453125 L 566.0252075195312 375.5 L 559.0934448242188 375.5 L 559.0934448242188 374.99591064453125 Z" fill-rule="nonzero" clip-path="url(#LkOkmgadtxhL)" stroke-linejoin="bevel" stroke-miterlimit="10"/><path fill="rgb(3 102 102)" stroke="rgb(3 102 102)" paint-order="fill" d="M 566.3900756835938 374.90716552734375 L 573.3218383789062 374.90716552734375 L 573.3218383789062 375.5 L 566.3900756835938 375.5 L 566.3900756835938 374.90716552734375 Z" fill-rule="nonzero" clip-path="url(#LkOkmgadtxhL)" stroke-linejoin="bevel" stroke-miterlimit="10"/><path fill="rgb(3 102 102)" stroke="rgb(3 102 102)" paint-order="fill" d="M 573.6866455078125 374.8682556152344 L 580.618408203125 374.8682556152344 L 580.618408203125 375.5 L 573.6866455078125 375.5 L 573.6866455078125 374.8682556152344 Z" fill-rule="nonzero" clip-path="url(#LkOkmgadtxhL)" stroke-linejoin="bevel" stroke-miterlimit="10"/><path fill="rgb(3 102 102)" stroke="rgb(3 102 102)" paint-order="fill" d="M 580.9832763671875 375.03875732421875 L 587.9150390625 375.03875732421875 L 587.9150390625 375.5 L 580.9832763671875 375.5 L 580.9832763671875 375.03875732421875 Z" fill-rule="nonzero" clip-path="url(#LkOkmgadtxhL)" stroke-linejoin="bevel" stroke-miterlimit="10"/><path fill="rgb(3 102 102)" stroke="rgb(3 102 102)" paint-order="fill" d="M 588.2799072265625 374.8836669921875 L 595.211669921875 374.8836669921875 L 595.211669921875 375.5 L 588.2799072265625 375.5 L 588.2799072265625 374.8836669921875 Z" fill-rule="nonzero" clip-path="url(#LkOkmgadtxhL)" stroke-linejoin="bevel" stroke-miterlimit="10"/><path fill="rgb(3 102 102)" stroke="rgb(3 102 102)" paint-order="fill" d="M 595.5764770507812 374.9336242675781 L 602.5082397460938 374.9336242675781 L 602.5082397460938 375.5 L 595.5764770507812 375.5 L 595.5764770507812 374.9336242675781 Z" fill-rule="nonzero" clip-path="url(#LkOkmgadtxhL)" stroke-linejoin="bevel" stroke-miterlimit="10"/><path fill="rgb(3 102 102)" stroke="rgb(3 102 102)" paint-order="fill" d="M 602.8731079101562 375.1557922363281 L 609.8048706054688 375.1557922363281 L 609.8048706054688 375.5 L 602.8731079101562 375.5 L 602.8731079101562 375.1557922363281 Z" fill-rule="nonzero" clip-path="url(#LkOkmgadtxhL)" stroke-linejoin="bevel" stroke-miterlimit="10"/><path fill="rgb(3 102 102)" stroke="rgb(3 102 102)" paint-order="fill" d="M 610.1697387695312 375.1487731933594 L 617.1015014648438 375.1487731933594 L 617.1015014648438 375.5 L 610.1697387695312 375.5 L 610.1697387695312 375.1487731933594 Z" fill-rule="nonzero" clip-path="url(#LkOkmgadtxhL)" stroke-linejoin="bevel" stroke-miterlimit="10"/><path fill="rgb(3 102 102)" stroke="rgb(3 102 102)" paint-order="fill" d="M 617.46630859375 375.180419921875 L 624.3980712890625 375.180419921875 L 624.3980712890625 375.5 L 617.46630859375 375.5 L 617.46630859375 375.180419921875 Z" fill-rule="nonzero" clip-path="url(#LkOkmgadtxhL)" stroke-linejoin="bevel" stroke-miterlimit="10"/><path fill="rgb(3 102 102)" stroke="rgb(3 102 102)" paint-order="fill" d="M 624.762939453125 375.2708435058594 L 631.6947021484375 375.2708435058594 L 631.6947021484375 375.5 L 624.762939453125 375.5 L 624.762939453125 375.2708435058594 Z" fill-rule="nonzero" clip-path="url(#LkOkmgadtxhL)" stroke-linejoin="bevel" stroke-miterlimit="10"/><path fill="rgb(3 102 102)" stroke="rgb(3 102 102)" paint-order="fill" d="M 632.0595703125 375.2842712402344 L 638.9913330078125 375.2842712402344 L 638.9913330078125 375.5 L 632.0595703125 375.5 L 632.0595703125 375.2842712402344 Z" fill-rule="nonzero" clip-path="url(#LkOkmgadtxhL)" stroke-linejoin="bevel" stroke-miterlimit="10"/><path fill="rgb(3 102 102)" stroke="rgb(3 102 102)" paint-order="fill" d="M 639.3561401367188 375.32781982421875 L 646.2879028320312 375.32781982421875 L 646.2879028320312 375.5 L 639.3561401367188 375.5 L 639.3561401367188 375.32781982421875 Z" fill-rule="nonzero" clip-path="url(#LkOkmgadtxhL)" stroke-linejoin="bevel" stroke-miterlimit="10"/><path fill="rgb(3 102 102)" stroke="rgb(3 102 102)" paint-order="fill" d="M 646.6527709960938 375.3022155761719 L 653.5845336914062 375.3022155761719 L 653.5845336914062 375.5 L 646.6527709960938 375.5 L 646.6527709960938 375.3022155761719 Z" fill-rule="nonzero" clip-path="url(#LkOkmgadtxhL)" stroke-linejoin="bevel" stroke-miterlimit="10"/><path fill="rgb(3 102 102)" stroke="rgb(3 102 102)" paint-order="fill" d="M 653.9494018554688 375.3381652832031 L 660.8811645507812 375.3381652832031 L 660.8811645507812 375.5 L 653.9494018554688 375.5 L 653.9494018554688 375.3381652832031 Z" fill-rule="nonzero" clip-path="url(#LkOkmgadtxhL)" stroke-linejoin="bevel" stroke-miterlimit="10"/><path fill="rgb(3 102 102)" stroke="rgb(3 102 102)" paint-order="fill" d="M 661.2459716796875 375.3836669921875 L 668.177734375 375.3836669921875 L 668.177734375 375.5 L 661.2459716796875 375.5 L 661.2459716796875 375.3836669921875 Z" fill-rule="nonzero" clip-path="url(#LkOkmgadtxhL)" stroke-linejoin="bevel" stroke-miterlimit="10"/><path fill="rgb(3 102 102)" stroke="rgb(3 102 102)" paint-order="fill" d="M 668.5426025390625 375.3846435546875 L 675.474365234375 375.3846435546875 L 675.474365234375 375.5 L 668.5426025390625 375.5 L 668.5426025390625 375.3846435546875 Z" fill-rule="nonzero" clip-path="url(#LkOkmgadtxhL)" stroke-linejoin="bevel" stroke-miterlimit="10"/><path fill="rgb(3 102 102)" stroke="rgb(3 102 102)" paint-order="fill" d="M 675.8392333984375 375.3702392578125 L 682.77099609375 375.3702392578125 L 682.77099609375 375.5 L 675.8392333984375 375.5 L 675.8392333984375 375.3702392578125 Z" fill-rule="nonzero" clip-path="url(#LkOkmgadtxhL)" stroke-linejoin="bevel" stroke-miterlimit="10"/><path fill="rgb(3 102 102)" stroke="rgb(3 102 102)" paint-order="fill" d="M 683.1358032226562 375.3933410644531 L 690.0675659179688 375.3933410644531 L 690.0675659179688 375.5 L 683.1358032226562 375.5 L 683.1358032226562 375.3933410644531 Z" fill-rule="nonzero" clip-path="url(#LkOkmgadtxhL)" stroke-linejoin="bevel" stroke-miterlimit="10"/><path fill="rgb(3 102 102)" stroke="rgb(3 102 102)" paint-order="fill" d="M 690.4324340820312 375.38311767578125 L 697.3641967773438 375.38311767578125 L 697.3641967773438 375.5 L 690.4324340820312 375.5 L 690.4324340820312 375.38311767578125 Z" fill-rule="nonzero" clip-path="url(#LkOkmgadtxhL)" stroke-linejoin="bevel" stroke-miterlimit="10"/><path fill="rgb(3 102 102)" stroke="rgb(3 102 102)" paint-order="fill" d="M 697.72900390625 375.41644287109375 L 704.6607666015625 375.41644287109375 L 704.6607666015625 375.5 L 697.72900390625 375.5 L 697.72900390625 375.41644287109375 Z" fill-rule="nonzero" clip-path="url(#LkOkmgadtxhL)" stroke-linejoin="bevel" stroke-miterlimit="10"/><path fill="rgb(3 102 102)" stroke="rgb(3 102 102)" paint-order="fill" d="M 705.025634765625 375.4266357421875 L 711.9573974609375 375.4266357421875 L 711.9573974609375 375.5 L 705.025634765625 375.5 L 705.025634765625 375.4266357421875 Z" fill-rule="nonzero" clip-path="url(#LkOkmgadtxhL)" stroke-linejoin="bevel" stroke-miterlimit="10"/><path fill="rgb(3 102 102)" stroke="rgb(3 102 102)" paint-order="fill" d="M 712.322265625 375.41937255859375 L 719.2540283203125 375.41937255859375 L 719.2540283203125 375.5 L 712.322265625 375.5 L 712.322265625 375.41937255859375 Z" fill-rule="nonzero" clip-path="url(#LkOkmgadtxhL)" stroke-linejoin="bevel" stroke-miterlimit="10"/><path fill="rgb(3 102 102)" stroke="rgb(3 102 102)" paint-order="fill" d="M 719.6188354492188 375.41461181640625 L 726.5505981445312 375.41461181640625 L 726.5505981445312 375.5 L 719.6188354492188 375.5 L 719.6188354492188 375.41461181640625 Z" fill-rule="nonzero" clip-path="url(#LkOkmgadtxhL)" stroke-linejoin="bevel" stroke-miterlimit="10"/><path fill="rgb(3 102 102)" stroke="rgb(3 102 102)" paint-order="fill" d="M 726.9154663085938 375.4262390136719 L 733.8472290039062 375.4262390136719 L 733.8472290039062 375.5 L 726.9154663085938 375.5 L 726.9154663085938 375.4262390136719 Z" fill-rule="nonzero" clip-path="url(#LkOkmgadtxhL)" stroke-linejoin="bevel" stroke-miterlimit="10"/><path fill="rgb(3 102 102)" stroke="rgb(3 102 102)" paint-order="fill" d="M 734.2120971679688 375.4272155761719 L 741.1438598632812 375.4272155761719 L 741.1438598632812 375.5 L 734.2120971679688 375.5 L 734.2120971679688 375.4272155761719 Z" fill-rule="nonzero" clip-path="url(#LkOkmgadtxhL)" stroke-linejoin="bevel" stroke-miterlimit="10"/><path fill="rgb(3 102 102)" stroke="rgb(3 102 102)" paint-order="fill" d="M 741.5086669921875 375.421875 L 748.4404296875 375.421875 L 748.4404296875 375.5 L 741.5086669921875 375.5 L 741.5086669921875 375.421875 Z" fill-rule="nonzero" clip-path="url(#LkOkmgadtxhL)" stroke-linejoin="bevel" stroke-miterlimit="10"/><path fill="rgb(3 102 102)" stroke="rgb(3 102 102)" paint-order="fill" d="M 748.8052978515625 375.4349060058594 L 755.737060546875 375.4349060058594 L 755.737060546875 375.5 L 748.8052978515625 375.5 L 748.8052978515625 375.4349060058594 Z" fill-rule="nonzero" clip-path="url(#LkOkmgadtxhL)" stroke-linejoin="bevel" stroke-miterlimit="10"/><path fill="rgb(3 102 102)" stroke="rgb(3 102 102)" paint-order="fill" d="M 756.1019287109375 375.41644287109375 L 763.03369140625 375.41644287109375 L 763.03369140625 375.5 L 756.1019287109375 375.5 L 756.1019287109375 375.41644287109375 Z" fill-rule="nonzero" clip-path="url(#LkOkmgadtxhL)" stroke-linejoin="bevel" stroke-miterlimit="10"/><path fill="rgb(3 102 102)" stroke="rgb(3 102 102)" paint-order="fill" d="M 763.3984985351562 375.43853759765625 L 770.3302612304688 375.43853759765625 L 770.3302612304688 375.5 L 763.3984985351562 375.5 L 763.3984985351562 375.43853759765625 Z" fill-rule="nonzero" clip-path="url(#LkOkmgadtxhL)" stroke-linejoin="bevel" stroke-miterlimit="10"/><path fill="rgb(3 102 102)" stroke="rgb(3 102 102)" paint-order="fill" d="M 770.6951293945312 375.44525146484375 L 777.6268920898438 375.44525146484375 L 777.6268920898438 375.5 L 770.6951293945312 375.5 L 770.6951293945312 375.44525146484375 Z" fill-rule="nonzero" clip-path="url(#LkOkmgadtxhL)" stroke-linejoin="bevel" stroke-miterlimit="10"/><path fill="rgb(3 102 102)" stroke="rgb(3 102 102)" paint-order="fill" d="M 777.9917602539062 375.45953369140625 L 784.9235229492188 375.45953369140625 L 784.9235229492188 375.5 L 777.9917602539062 375.5 L 777.9917602539062 375.45953369140625 Z" fill-rule="nonzero" clip-path="url(#LkOkmgadtxhL)" stroke-linejoin="bevel" stroke-miterlimit="10"/><path fill="rgb(3 102 102)" stroke="rgb(3 102 102)" paint-order="fill" d="M 785.288330078125 375.43463134765625 L 792.2200927734375 375.43463134765625 L 792.2200927734375 375.5 L 785.288330078125 375.5 L 785.288330078125 375.43463134765625 Z" fill-rule="nonzero" clip-path="url(#LkOkmgadtxhL)" stroke-linejoin="bevel" stroke-miterlimit="10"/><path fill="rgb(3 102 102)" stroke="rgb(3 102 102)" paint-order="fill" d="M 792.5849609375 375.4357604980469 L 799.5167236328125 375.4357604980469 L 799.5167236328125 375.5 L 792.5849609375 375.5 L 792.5849609375 375.4357604980469 Z" fill-rule="nonzero" clip-path="url(#LkOkmgadtxhL)" stroke-linejoin="bevel" stroke-miterlimit="10"/><path fill="rgb(3 102 102)" stroke="rgb(3 102 102)" paint-order="fill" d="M 799.881591796875 375.4273376464844 L 806.8133544921875 375.4273376464844 L 806.8133544921875 375.5 L 799.881591796875 375.5 L 799.881591796875 375.4273376464844 Z" fill-rule="nonzero" clip-path="url(#LkOkmgadtxhL)" stroke-linejoin="bevel" stroke-miterlimit="10"/><path fill="rgb(3 102 102)" stroke="rgb(3 102 102)" paint-order="fill" d="M 807.1781616210938 375.4406433105469 L 814.1099243164062 375.4406433105469 L 814.1099243164062 375.5 L 807.1781616210938 375.5 L 807.1781616210938 375.4406433105469 Z" fill-rule="nonzero" clip-path="url(#LkOkmgadtxhL)" stroke-linejoin="bevel" stroke-miterlimit="10"/><path fill="rgb(3 102 102)" stroke="rgb(3 102 102)" paint-order="fill" d="M 814.4747924804688 375.4648742675781 L 821.4065551757812 375.4648742675781 L 821.4065551757812 375.5 L 814.4747924804688 375.5 L 814.4747924804688 375.4648742675781 Z" fill-rule="nonzero" clip-path="url(#LkOkmgadtxhL)" stroke-linejoin="bevel" stroke-miterlimit="10"/><path fill="rgb(3 102 102)" stroke="rgb(3 102 102)" paint-order="fill" d="M 821.7714233398438 375.4510192871094 L 828.7031860351562 375.4510192871094 L 828.7031860351562 375.5 L 821.7714233398438 375.5 L 821.7714233398438 375.4510192871094 Z" fill-rule="nonzero" clip-path="url(#LkOkmgadtxhL)" stroke-linejoin="bevel" stroke-miterlimit="10"/><path fill="rgb(3 102 102)" stroke="rgb(3 102 102)" paint-order="fill" d="M 829.0679931640625 375.44708251953125 L 835.999755859375 375.44708251953125 L 835.999755859375 375.5 L 829.0679931640625 375.5 L 829.0679931640625 375.44708251953125 Z" fill-rule="nonzero" clip-path="url(#LkOkmgadtxhL)" stroke-linejoin="bevel" stroke-miterlimit="10"/><path fill="rgb(3 102 102)" stroke="rgb(3 102 102)" paint-order="fill" d="M 836.3646240234375 375.4525451660156 L 843.29638671875 375.4525451660156 L 843.29638671875 375.5 L 836.3646240234375 375.5 L 836.3646240234375 375.4525451660156 Z" fill-rule="nonzero" clip-path="url(#LkOkmgadtxhL)" stroke-linejoin="bevel" stroke-miterlimit="10"/><path fill="rgb(3 102 102)" stroke="rgb(3 102 102)" paint-order="fill" d="M 843.6612548828125 375.4512939453125 L 850.593017578125 375.4512939453125 L 850.593017578125 375.5 L 843.6612548828125 375.5 L 843.6612548828125 375.4512939453125 Z" fill-rule="nonzero" clip-path="url(#LkOkmgadtxhL)" stroke-linejoin="bevel" stroke-miterlimit="10"/><path fill="rgb(3 102 102)" stroke="rgb(3 102 102)" paint-order="fill" d="M 850.9578247070312 375.4587097167969 L 857.8895874023438 375.4587097167969 L 857.8895874023438 375.5 L 850.9578247070312 375.5 L 850.9578247070312 375.4587097167969 Z" fill-rule="nonzero" clip-path="url(#LkOkmgadtxhL)" stroke-linejoin="bevel" stroke-miterlimit="10"/><path fill="rgb(3 102 102)" stroke="rgb(3 102 102)" paint-order="fill" d="M 858.2544555664062 375.46795654296875 L 865.1862182617188 375.46795654296875 L 865.1862182617188 375.5 L 858.2544555664062 375.5 L 858.2544555664062 375.46795654296875 Z" fill-rule="nonzero" clip-path="url(#LkOkmgadtxhL)" stroke-linejoin="bevel" stroke-miterlimit="10"/><path fill="rgb(3 102 102)" stroke="rgb(3 102 102)" paint-order="fill" d="M 865.5510864257812 375.48626708984375 L 872.4828491210938 375.48626708984375 L 872.4828491210938 375.5 L 865.5510864257812 375.5 L 865.5510864257812 375.48626708984375 Z" fill-rule="nonzero" clip-path="url(#LkOkmgadtxhL)" stroke-linejoin="bevel" stroke-miterlimit="10"/><path fill="rgb(3 102 102)" stroke="rgb(3 102 102)" paint-order="fill" d="M 872.84765625 375.4822082519531 L 879.7794189453125 375.4822082519531 L 879.7794189453125 375.5 L 872.84765625 375.5 L 872.84765625 375.4822082519531 Z" fill-rule="nonzero" clip-path="url(#LkOkmgadtxhL)" stroke-linejoin="bevel" stroke-miterlimit="10"/><path fill="rgb(3 102 102)" stroke="rgb(3 102 102)" paint-order="fill" d="M 880.144287109375 375.4837646484375 L 887.0760498046875 375.4837646484375 L 887.0760498046875 375.5 L 880.144287109375 375.5 L 880.144287109375 375.4837646484375 Z" fill-rule="nonzero" clip-path="url(#LkOkmgadtxhL)" stroke-linejoin="bevel" stroke-miterlimit="10"/><path fill="rgb(3 102 102)" stroke="rgb(3 102 102)" paint-order="fill" d="M 887.44091796875 375.4850158691406 L 894.3726806640625 375.4850158691406 L 894.3726806640625 375.5 L 887.44091796875 375.5 L 887.44091796875 375.4850158691406 Z" fill-rule="nonzero" clip-path="url(#LkOkmgadtxhL)" stroke-linejoin="bevel" stroke-miterlimit="10"/><path fill="rgb(3 102 102)" stroke="rgb(3 102 102)" paint-order="fill" d="M 894.7374877929688 375.4847412109375 L 901.6692504882812 375.4847412109375 L 901.6692504882812 375.5 L 894.7374877929688 375.5 L 894.7374877929688 375.4847412109375 Z" fill-rule="nonzero" clip-path="url(#LkOkmgadtxhL)" stroke-linejoin="bevel" stroke-miterlimit="10"/><path fill="rgb(3 102 102)" stroke="rgb(3 102 102)" paint-order="fill" d="M 902.0341186523438 375.48626708984375 L 905.5 375.48626708984375 L 905.5 375.5 L 902.0341186523438 375.5 L 902.0341186523438 375.48626708984375 Z" fill-rule="nonzero" clip-path="url(#LkOkmgadtxhL)" stroke-linejoin="bevel" stroke-miterlimit="10"/><path fill="none" stroke="black" paint-order="fill" d="M 44.5 375.5 L 905.5 375.5" stroke-linejoin="bevel" stroke-miterlimit="10"/><path fill="none" stroke="black" paint-order="fill" d="M 44.5 381.5 L 44.5 373.5 M 80.5 381.5 L 80.5 373.5 M 117.5 381.5 L 117.5 373.5 M 153.5 381.5 L 153.5 373.5 M 190.5 381.5 L 190.5 373.5 M 226.5 381.5 L 226.5 373.5 M 263.5 381.5 L 263.5 373.5 M 299.5 381.5 L 299.5 373.5 M 336.5 381.5 L 336.5 373.5 M 372.5 381.5 L 372.5 373.5 M 409.5 381.5 L 409.5 373.5 M 445.5 381.5 L 445.5 373.5 M 482.5 381.5 L 482.5 373.5 M 518.5 381.5 L 518.5 373.5 M 555.5 381.5 L 555.5 373.5 M 591.5 381.5 L 591.5 373.5 M 628.5 381.5 L 628.5 373.5 M 664.5 381.5 L 664.5 373.5 M 701.5 381.5 L 701.5 373.5 M 737.5 381.5 L 737.5 373.5 M 774.5 381.5 L 774.5 373.5 M 810.5 381.5 L 810.5 373.5 M 847.5 381.5 L 847.5 373.5 M 883.5 381.5 L 883.5 373.5" stroke-linejoin="bevel" stroke-miterlimit="10"/><path fill="none" stroke="black" paint-order="fill" d="M 44.5 379.5 L 44.5 375.5 M 51.5 379.5 L 51.5 375.5 M 59.5 379.5 L 59.5 375.5 M 66.5 379.5 L 66.5 375.5 M 73.5 379.5 L 73.5 375.5 M 80.5 379.5 L 80.5 375.5 M 88.5 379.5 L 88.5 375.5 M 95.5 379.5 L 95.5 375.5 M 102.5 379.5 L 102.5 375.5 M 110.5 379.5 L 110.5 375.5 M 117.5 379.5 L 117.5 375.5 M 124.5 379.5 L 124.5 375.5 M 132.5 379.5 L 132.5 375.5 M 139.5 379.5 L 139.5 375.5 M 146.5 379.5 L 146.5 375.5 M 153.5 379.5 L 153.5 375.5 M 161.5 379.5 L 161.5 375.5 M 168.5 379.5 L 168.5 375.5 M 175.5 379.5 L 175.5 375.5 M 183.5 379.5 L 183.5 375.5 M 190.5 379.5 L 190.5 375.5 M 197.5 379.5 L 197.5 375.5 M 205.5 379.5 L 205.5 375.5 M 212.5 379.5 L 212.5 375.5 M 219.5 379.5 L 219.5 375.5 M 226.5 379.5 L 226.5 375.5 M 234.5 379.5 L 234.5 375.5 M 241.5 379.5 L 241.5 375.5 M 248.5 379.5 L 248.5 375.5 M 256.5 379.5 L 256.5 375.5 M 263.5 379.5 L 263.5 375.5 M 270.5 379.5 L 270.5 375.5 M 277.5 379.5 L 277.5 375.5 M 285.5 379.5 L 285.5 375.5 M 292.5 379.5 L 292.5 375.5 M 299.5 379.5 L 299.5 375.5 M 307.5 379.5 L 307.5 375.5 M 314.5 379.5 L 314.5 375.5 M 321.5 379.5 L 321.5 375.5 M 329.5 379.5 L 329.5 375.5 M 336.5 379.5 L 336.5 375.5 M 343.5 379.5 L 343.5 375.5 M 350.5 379.5 L 350.5 375.5 M 358.5 379.5 L 358.5 375.5 M 365.5 379.5 L 365.5 375.5 M 372.5 379.5 L 372.5 375.5 M 380.5 379.5 L 380.5 375.5 M 387.5 379.5 L 387.5 375.5 M 394.5 379.5 L 394.5 375.5 M 402.5 379.5 L 402.5 375.5 M 409.5 379.5 L 409.5 375.5 M 416.5 379.5 L 416.5 375.5 M 423.5 379.5 L 423.5 375.5 M 431.5 379.5 L 431.5 375.5 M 438.5 379.5 L 438.5 375.5 M 445.5 379.5 L 445.5 375.5 M 453.5 379.5 L 453.5 375.5 M 460.5 379.5 L 460.5 375.5 M 467.5 379.5 L 467.5 375.5 M 475.5 379.5 L 475.5 375.5 M 482.5 379.5 L 482.5 375.5 M 489.5 379.5 L 489.5 375.5 M 496.5 379.5 L 496.5 375.5 M 504.5 379.5 L 504.5 375.5 M 511.5 379.5 L 511.5 375.5 M 518.5 379.5 L 518.5 375.5 M 526.5 379.5 L 526.5 375.5 M 533.5 379.5 L 533.5 375.5 M 540.5 379.5 L 540.5 375.5 M 547.5 379.5 L 547.5 375.5 M 555.5 379.5 L 555.5 375.5 M 562.5 379.5 L 562.5 375.5 M 569.5 379.5 L 569.5 375.5 M 577.5 379.5 L 577.5 375.5 M 584.5 379.5 L 584.5 375.5 M 591.5 379.5 L 591.5 375.5 M 599.5 379.5 L 599.5 375.5 M 606.5 379.5 L 606.5 375.5 M 613.5 379.5 L 613.5 375.5 M 620.5 379.5 L 620.5 375.5 M 628.5 379.5 L 628.5 375.5 M 635.5 379.5 L 635.5 375.5 M 642.5 379.5 L 642.5 375.5 M 650.5 379.5 L 650.5 375.5 M 657.5 379.5 L 657.5 375.5 M 664.5 379.5 L 664.5 375.5 M 672.5 379.5 L 672.5 375.5 M 679.5 379.5 L 679.5 375.5 M 686.5 379.5 L 686.5 375.5 M 693.5 379.5 L 693.5 375.5 M 701.5 379.5 L 701.5 375.5 M 708.5 379.5 L 708.5 375.5 M 715.5 379.5 L 715.5 375.5 M 723.5 379.5 L 723.5 375.5 M 730.5 379.5 L 730.5 375.5 M 737.5 379.5 L 737.5 375.5 M 744.5 379.5 L 744.5 375.5 M 752.5 379.5 L 752.5 375.5 M 759.5 379.5 L 759.5 375.5 M 766.5 379.5 L 766.5 375.5 M 774.5 379.5 L 774.5 375.5 M 781.5 379.5 L 781.5 375.5 M 788.5 379.5 L 788.5 375.5 M 796.5 379.5 L 796.5 375.5 M 803.5 379.5 L 803.5 375.5 M 810.5 379.5 L 810.5 375.5 M 817.5 379.5 L 817.5 375.5 M 825.5 379.5 L 825.5 375.5 M 832.5 379.5 L 832.5 375.5 M 839.5 379.5 L 839.5 375.5 M 847.5 379.5 L 847.5 375.5 M 854.5 379.5 L 854.5 375.5 M 861.5 379.5 L 861.5 375.5 M 869.5 379.5 L 869.5 375.5 M 876.5 379.5 L 876.5 375.5 M 883.5 379.5 L 883.5 375.5 M 890.5 379.5 L 890.5 375.5 M 898.5 379.5 L 898.5 375.5 M 905.5 379.5 L 905.5 375.5" stroke-linejoin="bevel" stroke-miterlimit="10"/><text fill="#444444" stroke="none" font-family="helvetica" font-size="11px" font-style="normal" font-weight="normal" text-decoration="normal" x="37.88232421875" y="393.89013671875" text-anchor="start" dominant-baseline="alphabetic" transform="matrix(1, 0, 0, 1, 0.5, 0.5)">20</text><text fill="none" stroke="rgb(0 0 0 / 0)" font-family="helvetica" font-size="11px" font-style="normal" font-weight="normal" text-decoration="normal" x="37.88232421875" y="393.89013671875" text-anchor="start" dominant-baseline="alphabetic" transform="matrix(1, 0, 0, 1, 0.5, 0.5)" stroke-linejoin="bevel" stroke-miterlimit="10">20</text><text fill="#444444" stroke="none" font-family="helvetica" font-size="11px" font-style="normal" font-weight="normal" text-decoration="normal" x="74.36537170410156" y="393.89013671875" text-anchor="start" dominant-baseline="alphabetic" transform="matrix(1, 0, 0, 1, 0.5, 0.5)">25</text><text fill="none" stroke="rgb(0 0 0 / 0)" font-family="helvetica" font-size="11px" font-style="normal" font-weight="normal" text-decoration="normal" x="74.36537170410156" y="393.89013671875" text-anchor="start" dominant-baseline="alphabetic" transform="matrix(1, 0, 0, 1, 0.5, 0.5)" stroke-linejoin="bevel" stroke-miterlimit="10">25</text><text fill="#444444" stroke="none" font-family="helvetica" font-size="11px" font-style="normal" font-weight="normal" text-decoration="normal" x="110.84842681884766" y="393.89013671875" text-anchor="start" dominant-baseline="alphabetic" transform="matrix(1, 0, 0, 1, 0.5, 0.5)">30</text><text fill="none" stroke="rgb(0 0 0 / 0)" font-family="helvetica" font-size="11px" font-style="normal" font-weight="normal" text-decoration="normal" x="110.84842681884766" y="393.89013671875" text-anchor="start" dominant-baseline="alphabetic" transform="matrix(1, 0, 0, 1, 0.5, 0.5)" stroke-linejoin="bevel" stroke-miterlimit="10">30</text><text fill="#444444" stroke="none" font-family="helvetica" font-size="11px" font-style="normal" font-weight="normal" text-decoration="normal" x="147.33148193359375" y="393.89013671875" text-anchor="start" dominant-baseline="alphabetic" transform="matrix(1, 0, 0, 1, 0.5, 0.5)">35</text><text fill="none" stroke="rgb(0 0 0 / 0)" font-family="helvetica" font-size="11px" font-style="normal" font-weight="normal" text-decoration="normal" x="147.33148193359375" y="393.89013671875" text-anchor="start" dominant-baseline="alphabetic" transform="matrix(1, 0, 0, 1, 0.5, 0.5)" stroke-linejoin="bevel" stroke-miterlimit="10">35</text><text fill="#444444" stroke="none" font-family="helvetica" font-size="11px" font-style="normal" font-weight="normal" text-decoration="normal" x="183.8145294189453" y="393.89013671875" text-anchor="start" dominant-baseline="alphabetic" transform="matrix(1, 0, 0, 1, 0.5, 0.5)">40</text><text fill="none" stroke="rgb(0 0 0 / 0)" font-family="helvetica" font-size="11px" font-style="normal" font-weight="normal" text-decoration="normal" x="183.8145294189453" y="393.89013671875" text-anchor="start" dominant-baseline="alphabetic" transform="matrix(1, 0, 0, 1, 0.5, 0.5)" stroke-linejoin="bevel" stroke-miterlimit="10">40</text><text fill="#444444" stroke="none" font-family="helvetica" font-size="11px" font-style="normal" font-weight="normal" text-decoration="normal" x="220.29757690429688" y="393.89013671875" text-anchor="start" dominant-baseline="alphabetic" transform="matrix(1, 0, 0, 1, 0.5, 0.5)">45</text><text fill="none" stroke="rgb(0 0 0 / 0)" font-family="helvetica" font-size="11px" font-style="normal" font-weight="normal" text-decoration="normal" x="220.29757690429688" y="393.89013671875" text-anchor="start" dominant-baseline="alphabetic" transform="matrix(1, 0, 0, 1, 0.5, 0.5)" stroke-linejoin="bevel" stroke-miterlimit="10">45</text><text fill="#444444" stroke="none" font-family="helvetica" font-size="11px" font-style="normal" font-weight="normal" text-decoration="normal" x="256.7806396484375" y="393.89013671875" text-anchor="start" dominant-baseline="alphabetic" transform="matrix(1, 0, 0, 1, 0.5, 0.5)">50</text><text fill="none" stroke="rgb(0 0 0 / 0)" font-family="helvetica" font-size="11px" font-style="normal" font-weight="normal" text-decoration="normal" x="256.7806396484375" y="393.89013671875" text-anchor="start" dominant-baseline="alphabetic" transform="matrix(1, 0, 0, 1, 0.5, 0.5)" stroke-linejoin="bevel" stroke-miterlimit="10">50</text><text fill="#444444" stroke="none" font-family="helvetica" font-size="11px" font-style="normal" font-weight="normal" text-decoration="normal" x="293.263671875" y="393.89013671875" text-anchor="start" dominant-baseline="alphabetic" transform="matrix(1, 0, 0, 1, 0.5, 0.5)">55</text><text fill="none" stroke="rgb(0 0 0 / 0)" font-family="helvetica" font-size="11px" font-style="normal" font-weight="normal" text-decoration="normal" x="293.263671875" y="393.89013671875" text-anchor="start" dominant-baseline="alphabetic" transform="matrix(1, 0, 0, 1, 0.5, 0.5)" stroke-linejoin="bevel" stroke-miterlimit="10">55</text><text fill="#444444" stroke="none" font-family="helvetica" font-size="11px" font-style="normal" font-weight="normal" text-decoration="normal" x="329.7467346191406" y="393.89013671875" text-anchor="start" dominant-baseline="alphabetic" transform="matrix(1, 0, 0, 1, 0.5, 0.5)">60</text><text fill="none" stroke="rgb(0 0 0 / 0)" font-family="helvetica" font-size="11px" font-style="normal" font-weight="normal" text-decoration="normal" x="329.7467346191406" y="393.89013671875" text-anchor="start" dominant-baseline="alphabetic" transform="matrix(1, 0, 0, 1, 0.5, 0.5)" stroke-linejoin="bevel" stroke-miterlimit="10">60</text><text fill="#444444" stroke="none" font-family="helvetica" font-size="11px" font-style="normal" font-weight="normal" text-decoration="normal" x="366.2297668457031" y="393.89013671875" text-anchor="start" dominant-baseline="alphabetic" transform="matrix(1, 0, 0, 1, 0.5, 0.5)">65</text><text fill="none" stroke="rgb(0 0 0 / 0)" font-family="helvetica" font-size="11px" font-style="normal" font-weight="normal" text-decoration="normal" x="366.2297668457031" y="393.89013671875" text-anchor="start" dominant-baseline="alphabetic" transform="matrix(1, 0, 0, 1, 0.5, 0.5)" stroke-linejoin="bevel" stroke-miterlimit="10">65</text><text fill="#444444" stroke="none" font-family="helvetica" font-size="11px" font-style="normal" font-weight="normal" text-decoration="normal" x="402.71282958984375" y="393.89013671875" text-anchor="start" dominant-baseline="alphabetic" transform="matrix(1, 0, 0, 1, 0.5, 0.5)">70</text><text fill="none" stroke="rgb(0 0 0 / 0)" font-family="helvetica" font-size="11px" font-style="normal" font-weight="normal" text-decoration="normal" x="402.71282958984375" y="393.89013671875" text-anchor="start" dominant-baseline="alphabetic" transform="matrix(1, 0, 0, 1, 0.5, 0.5)" stroke-linejoin="bevel" stroke-miterlimit="10">70</text><text fill="#444444" stroke="none" font-family="helvetica" font-size="11px" font-style="normal" font-weight="normal" text-decoration="normal" x="439.1958923339844" y="393.89013671875" text-anchor="start" dominant-baseline="alphabetic" transform="matrix(1, 0, 0, 1, 0.5, 0.5)">75</text><text fill="none" stroke="rgb(0 0 0 / 0)" font-family="helvetica" font-size="11px" font-style="normal" font-weight="normal" text-decoration="normal" x="439.1958923339844" y="393.89013671875" text-anchor="start" dominant-baseline="alphabetic" transform="matrix(1, 0, 0, 1, 0.5, 0.5)" stroke-linejoin="bevel" stroke-miterlimit="10">75</text><text fill="#444444" stroke="none" font-family="helvetica" font-size="11px" font-style="normal" font-weight="normal" text-decoration="normal" x="475.6789245605469" y="393.89013671875" text-anchor="start" dominant-baseline="alphabetic" transform="matrix(1, 0, 0, 1, 0.5, 0.5)">80</text><text fill="none" stroke="rgb(0 0 0 / 0)" font-family="helvetica" font-size="11px" font-style="normal" font-weight="normal" text-decoration="normal" x="475.6789245605469" y="393.89013671875" text-anchor="start" dominant-baseline="alphabetic" transform="matrix(1, 0, 0, 1, 0.5, 0.5)" stroke-linejoin="bevel" stroke-miterlimit="10">80</text><text fill="#444444" stroke="none" font-family="helvetica" font-size="11px" font-style="normal" font-weight="normal" text-decoration="normal" x="512.1619873046875" y="393.89013671875" text-anchor="start" dominant-baseline="alphabetic" transform="matrix(1, 0, 0, 1, 0.5, 0.5)">85</text><text fill="none" stroke="rgb(0 0 0 / 0)" font-family="helvetica" font-size="11px" font-style="normal" font-weight="normal" text-decoration="normal" x="512.1619873046875" y="393.89013671875" text-anchor="start" dominant-baseline="alphabetic" transform="matrix(1, 0, 0, 1, 0.5, 0.5)" stroke-linejoin="bevel" stroke-miterlimit="10">85</text><text fill="#444444" stroke="none" font-family="helvetica" font-size="11px" font-style="normal" font-weight="normal" text-decoration="normal" x="548.64501953125" y="393.89013671875" text-anchor="start" dominant-baseline="alphabetic" transform="matrix(1, 0, 0, 1, 0.5, 0.5)">90</text><text fill="none" stroke="rgb(0 0 0 / 0)" font-family="helvetica" font-size="11px" font-style="normal" font-weight="normal" text-decoration="normal" x="548.64501953125" y="393.89013671875" text-anchor="start" dominant-baseline="alphabetic" transform="matrix(1, 0, 0, 1, 0.5, 0.5)" stroke-linejoin="bevel" stroke-miterlimit="10">90</text><text fill="#444444" stroke="none" font-family="helvetica" font-size="11px" font-style="normal" font-weight="normal" text-decoration="normal" x="585.1281127929688" y="393.89013671875" text-anchor="start" dominant-baseline="alphabetic" transform="matrix(1, 0, 0, 1, 0.5, 0.5)">95</text><text fill="none" stroke="rgb(0 0 0 / 0)" font-family="helvetica" font-size="11px" font-style="normal" font-weight="normal" text-decoration="normal" x="585.1281127929688" y="393.89013671875" text-anchor="start" dominant-baseline="alphabetic" transform="matrix(1, 0, 0, 1, 0.5, 0.5)" stroke-linejoin="bevel" stroke-miterlimit="10">95</text><text fill="#444444" stroke="none" font-family="helvetica" font-size="11px" font-style="normal" font-weight="normal" text-decoration="normal" x="618.5523071289062" y="393.89013671875" text-anchor="start" dominant-baseline="alphabetic" transform="matrix(1, 0, 0, 1, 0.5, 0.5)">100</text><text fill="none" stroke="rgb(0 0 0 / 0)" font-family="helvetica" font-size="11px" font-style="normal" font-weight="normal" text-decoration="normal" x="618.5523071289062" y="393.89013671875" text-anchor="start" dominant-baseline="alphabetic" transform="matrix(1, 0, 0, 1, 0.5, 0.5)" stroke-linejoin="bevel" stroke-miterlimit="10">100</text><text fill="#444444" stroke="none" font-family="helvetica" font-size="11px" font-style="normal" font-weight="normal" text-decoration="normal" x="655.0353393554688" y="393.89013671875" text-anchor="start" dominant-baseline="alphabetic" transform="matrix(1, 0, 0, 1, 0.5, 0.5)">105</text><text fill="none" stroke="rgb(0 0 0 / 0)" font-family="helvetica" font-size="11px" font-style="normal" font-weight="normal" text-decoration="normal" x="655.0353393554688" y="393.89013671875" text-anchor="start" dominant-baseline="alphabetic" transform="matrix(1, 0, 0, 1, 0.5, 0.5)" stroke-linejoin="bevel" stroke-miterlimit="10">105</text><text fill="#444444" stroke="none" font-family="helvetica" font-size="11px" font-style="normal" font-weight="normal" text-decoration="normal" x="691.9238891601562" y="393.89013671875" text-anchor="start" dominant-baseline="alphabetic" transform="matrix(1, 0, 0, 1, 0.5, 0.5)">110</text><text fill="none" stroke="rgb(0 0 0 / 0)" font-family="helvetica" font-size="11px" font-style="normal" font-weight="normal" text-decoration="normal" x="691.9238891601562" y="393.89013671875" text-anchor="start" dominant-baseline="alphabetic" transform="matrix(1, 0, 0, 1, 0.5, 0.5)" stroke-linejoin="bevel" stroke-miterlimit="10">110</text><text fill="#444444" stroke="none" font-family="helvetica" font-size="11px" font-style="normal" font-weight="normal" text-decoration="normal" x="728.406982421875" y="393.89013671875" text-anchor="start" dominant-baseline="alphabetic" transform="matrix(1, 0, 0, 1, 0.5, 0.5)">115</text><text fill="none" stroke="rgb(0 0 0 / 0)" font-family="helvetica" font-size="11px" font-style="normal" font-weight="normal" text-decoration="normal" x="728.406982421875" y="393.89013671875" text-anchor="start" dominant-baseline="alphabetic" transform="matrix(1, 0, 0, 1, 0.5, 0.5)" stroke-linejoin="bevel" stroke-miterlimit="10">115</text><text fill="#444444" stroke="none" font-family="helvetica" font-size="11px" font-style="normal" font-weight="normal" text-decoration="normal" x="764.4844970703125" y="393.89013671875" text-anchor="start" dominant-baseline="alphabetic" transform="matrix(1, 0, 0, 1, 0.5, 0.5)">120</text><text fill="none" stroke="rgb(0 0 0 / 0)" font-family="helvetica" font-size="11px" font-style="normal" font-weight="normal" text-decoration="normal" x="764.4844970703125" y="393.89013671875" text-anchor="start" dominant-baseline="alphabetic" transform="matrix(1, 0, 0, 1, 0.5, 0.5)" stroke-linejoin="bevel" stroke-miterlimit="10">120</text><text fill="#444444" stroke="none" font-family="helvetica" font-size="11px" font-style="normal" font-weight="normal" text-decoration="normal" x="800.967529296875" y="393.89013671875" text-anchor="start" dominant-baseline="alphabetic" transform="matrix(1, 0, 0, 1, 0.5, 0.5)">125</text><text fill="none" stroke="rgb(0 0 0 / 0)" font-family="helvetica" font-size="11px" font-style="normal" font-weight="normal" text-decoration="normal" x="800.967529296875" y="393.89013671875" text-anchor="start" dominant-baseline="alphabetic" transform="matrix(1, 0, 0, 1, 0.5, 0.5)" stroke-linejoin="bevel" stroke-miterlimit="10">125</text><text fill="#444444" stroke="none" font-family="helvetica" font-size="11px" font-style="normal" font-weight="normal" text-decoration="normal" x="837.4506225585938" y="393.89013671875" text-anchor="start" dominant-baseline="alphabetic" transform="matrix(1, 0, 0, 1, 0.5, 0.5)">130</text><text fill="none" stroke="rgb(0 0 0 / 0)" font-family="helvetica" font-size="11px" font-style="normal" font-weight="normal" text-decoration="normal" x="837.4506225585938" y="393.89013671875" text-anchor="start" dominant-baseline="alphabetic" transform="matrix(1, 0, 0, 1, 0.5, 0.5)" stroke-linejoin="bevel" stroke-miterlimit="10">130</text><text fill="#444444" stroke="none" font-family="helvetica" font-size="11px" font-style="normal" font-weight="normal" text-decoration="normal" x="873.9336547851562" y="393.89013671875" text-anchor="start" dominant-baseline="alphabetic" transform="matrix(1, 0, 0, 1, 0.5, 0.5)">135</text><text fill="none" stroke="rgb(0 0 0 / 0)" font-family="helvetica" font-size="11px" font-style="normal" font-weight="normal" text-decoration="normal" x="873.9336547851562" y="393.89013671875" text-anchor="start" dominant-baseline="alphabetic" transform="matrix(1, 0, 0, 1, 0.5, 0.5)" stroke-linejoin="bevel" stroke-miterlimit="10">135</text><text fill="#444444" stroke="none" font-family="helvetica" font-size="13px" font-style="italic" font-weight="normal" text-decoration="normal" x="437.274169921875" y="413.89013671875" text-anchor="start" dominant-baseline="alphabetic" transform="matrix(1, 0, 0, 1, 0.5, 0.5)">Read Length</text><text fill="none" stroke="rgb(0 0 0 / 0)" font-family="helvetica" font-size="13px" font-style="italic" font-weight="normal" text-decoration="normal" x="437.274169921875" y="413.89013671875" text-anchor="start" dominant-baseline="alphabetic" transform="matrix(1, 0, 0, 1, 0.5, 0.5)" stroke-linejoin="bevel" stroke-miterlimit="10">Read Length</text><path fill="none" stroke="black" paint-order="fill" d="M 40.5 375.5 L 44.5 375.5 M 40.5 360.5 L 44.5 360.5 M 40.5 345.5 L 44.5 345.5 M 40.5 329.5 L 44.5 329.5 M 40.5 314.5 L 44.5 314.5 M 40.5 299.5 L 44.5 299.5 M 40.5 284.5 L 44.5 284.5 M 40.5 268.5 L 44.5 268.5 M 40.5 253.5 L 44.5 253.5 M 40.5 238.5 L 44.5 238.5 M 40.5 223.5 L 44.5 223.5 M 40.5 208.5 L 44.5 208.5 M 40.5 192.5 L 44.5 192.5 M 40.5 177.5 L 44.5 177.5 M 40.5 162.5 L 44.5 162.5 M 40.5 147.5 L 44.5 147.5 M 40.5 131.5 L 44.5 131.5 M 40.5 116.5 L 44.5 116.5 M 40.5 101.5 L 44.5 101.5 M 40.5 86.5 L 44.5 86.5 M 40.5 71.5 L 44.5 71.5 M 40.5 55.5 L 44.5 55.5 M 40.5 40.5 L 44.5 40.5" stroke-linejoin="bevel" stroke-miterlimit="10"/><text fill="#444444" stroke="none" font-family="helvetica" font-size="11px" font-style="normal" font-weight="normal" text-decoration="normal" x="31.88232421875" y="378.945068359375" text-anchor="start" dominant-baseline="alphabetic" transform="matrix(1, 0, 0, 1, 0.5, 0.5)">0</text><text fill="none" stroke="rgb(0 0 0 / 0)" font-family="helvetica" font-size="11px" font-style="normal" font-weight="normal" text-decoration="normal" x="31.88232421875" y="378.945068359375" text-anchor="start" dominant-baseline="alphabetic" transform="matrix(1, 0, 0, 1, 0.5, 0.5)" stroke-linejoin="bevel" stroke-miterlimit="10">0</text><text fill="#444444" stroke="none" font-family="helvetica" font-size="11px" font-style="normal" font-weight="normal" text-decoration="normal" x="31.88232421875" y="302.8409423828125" text-anchor="start" dominant-baseline="alphabetic" transform="matrix(1, 0, 0, 1, 0.5, 0.5)">5</text><text fill="none" stroke="rgb(0 0 0 / 0)" font-family="helvetica" font-size="11px" font-style="normal" font-weight="normal" text-decoration="normal" x="31.88232421875" y="302.8409423828125" text-anchor="start" dominant-baseline="alphabetic" transform="matrix(1, 0, 0, 1, 0.5, 0.5)" stroke-linejoin="bevel" stroke-miterlimit="10">5</text><text fill="#444444" stroke="none" font-family="helvetica" font-size="11px" font-style="normal" font-weight="normal" text-decoration="normal" x="25.7646484375" y="226.73681640625" text-anchor="start" dominant-baseline="alphabetic" transform="matrix(1, 0, 0, 1, 0.5, 0.5)">10</text><text fill="none" stroke="rgb(0 0 0 / 0)" font-family="helvetica" font-size="11px" font-style="normal" font-weight="normal" text-decoration="normal" x="25.7646484375" y="226.73681640625" text-anchor="start" dominant-baseline="alphabetic" transform="matrix(1, 0, 0, 1, 0.5, 0.5)" stroke-linejoin="bevel" stroke-miterlimit="10">10</text><text fill="#444444" stroke="none" font-family="helvetica" font-size="11px" font-style="normal" font-weight="normal" text-decoration="normal" x="25.7646484375" y="150.63270568847656" text-anchor="start" dominant-baseline="alphabetic" transform="matrix(1, 0, 0, 1, 0.5, 0.5)">15</text><text fill="none" stroke="rgb(0 0 0 / 0)" font-family="helvetica" font-size="11px" font-style="normal" font-weight="normal" text-decoration="normal" x="25.7646484375" y="150.63270568847656" text-anchor="start" dominant-baseline="alphabetic" transform="matrix(1, 0, 0, 1, 0.5, 0.5)" stroke-linejoin="bevel" stroke-miterlimit="10">15</text><text fill="#444444" stroke="none" font-family="helvetica" font-size="11px" font-style="normal" font-weight="normal" text-decoration="normal" x="25.7646484375" y="74.52857208251953" text-anchor="start" dominant-baseline="alphabetic" transform="matrix(1, 0, 0, 1, 0.5, 0.5)">20</text><text fill="none" stroke="rgb(0 0 0 / 0)" font-family="helvetica" font-size="11px" font-style="normal" font-weight="normal" text-decoration="normal" x="25.7646484375" y="74.52857208251953" text-anchor="start" dominant-baseline="alphabetic" transform="matrix(1, 0, 0, 1, 0.5, 0.5)" stroke-linejoin="bevel" stroke-miterlimit="10">20</text><text fill="#444444" stroke="none" font-family="helvetica" font-size="13px" font-style="italic" font-weight="normal" text-decoration="normal" x="-15.481201171875" y="198" text-anchor="start" dominant-baseline="alphabetic" transform="matrix(6.123233995736766e-17, -1, 1, 6.123233995736766e-17, -182.7353515625, 219.2646484375)">Percentage</text><text fill="none" stroke="rgb(0 0 0 / 0)" font-family="helvetica" font-size="13px" font-style="italic" font-weight="normal" text-decoration="normal" x="-15.481201171875" y="198" text-anchor="start" dominant-baseline="alphabetic" transform="matrix(6.123233995736766e-17, -1, 1, 6.123233995736766e-17, -182.7353515625, 219.2646484375)" stroke-linejoin="bevel" stroke-miterlimit="10">Percentage</text><text fill="#444444" stroke="none" font-family="helvetica" font-size="13px" font-style="normal" font-weight="bold" text-decoration="normal" x="0" y="12" text-anchor="start" dominant-baseline="alphabetic" transform="matrix(1, 0, 0, 1, 44.5, 7.5)">Length Distrubution</text><text fill="none" stroke="rgb(0 0 0 / 0)" font-family="helvetica" font-size="13px" font-style="normal" font-weight="bold" text-decoration="normal" x="0" y="12" text-anchor="start" dominant-baseline="alphabetic" transform="matrix(1, 0, 0, 1, 44.5, 7.5)" stroke-miterlimit="10" stroke-dasharray="">Length Distrubution</text></svg>