<svg version="1.1" xmlns="http://www.w3.org/2000/svg" width="1260" height="450"><defs><clipPath id="CzabEBRQQbTb"><path fill="none" stroke="none" d="M 0.5 0.5 L 630.5 0.5 L 630.5 450.5 L 0.5 450.5 L 0.5 0.5 Z M 71.5 29.5 L 625.5 29.5 L 625.5 373.5 L 71.5 373.5 L 71.5 29.5 Z" clip-rule="evenodd"/></clipPath><clipPath id="HINtkTGFGogx"><path fill="none" stroke="none" d="M 71.5 29.5 L 625.5 29.5 L 625.5 373.5 L 71.5 373.5 L 71.5 29.5 Z"/></clipPath><clipPath id="PotliqGhldOw"><path fill="none" stroke="none" d="M 71.5 29.5 L 625.5 29.5 L 625.5 373.5 L 71.5 373.5 L 71.5 29.5 Z"/></clipPath><clipPath id="SqLnsKAdgtHd"><path fill="none" stroke="none" d="M 71.5 29.5 L 625.5 29.5 L 625.5 373.5 L 71.5 373.5 L 71.5 29.5 Z"/></clipPath><clipPath id="RTZgoCOESUQM"><path fill="none" stroke="none" d="M 71.5 29.5 L 625.5 29.5 L 625.5 373.5 L 71.5 373.5 L 71.5 29.5 Z"/></clipPath><clipPath id="KwPwMTvTXPoT"><path fill="none" stroke="none" d="M 0.5 0.5 L 630.5 0.5 L 630.5 450.5 L 0.5 450.5 L 0.5 0.5 Z M 5.5 29.5 L 559.5 29.5 L 559.5 373.5 L 5.5 373.5 L 5.5 29.5 Z" clip-rule="evenodd"/></clipPath><clipPath id="LauTeJvGSLaX"><path fill="none" stroke="none" d="M 5.5 29.5 L 559.5 29.5 L 559.5 373.5 L 5.5 373.5 L 5.5 29.5 Z"/></clipPath><clipPath id="EwzcxFmuTuww"><path fill="none" stroke="none" d="M 5.5 29.5 L 559.5 29.5 L 559.5 373.5 L 5.5 373.5 L 5.5 29.5 Z"/></clipPath><clipPath id="fkyWHzERmUQv"><path fill="none" stroke="none" d="M 5.5 29.5 L 559.5 29.5 L 559.5 373.5 L 5.5 373.5 L 5.5 29.5 Z"/></clipPath><clipPath id="ySnmCgZCfKuS"><path fill="none" stroke="none" d="M 5.5 29.5 L 559.5 29.5 L 559.5 373.5 L 5.5 373.5 L 5.5 29.5 Z"/></clipPath></defs><path fill="rgb(0,0,0)" stroke="none" paint-order="stroke" d="M 0 0 L 1260 0 L 1260 450 L 0 450 L 0 0 Z" fill-opacity="0"/><path fill="rgb(255,255,255)" stroke="none" paint-order="stroke" d="M 0.5 0.5 L 630.5 0.5 L 630.5 450.5 L 0.5 450.5 L 0.5 0.5 Z" fill-opacity="1" clip-path="url(#CzabEBRQQbTb)"/><path fill="rgb(255,255,255)" stroke="none" paint-order="stroke" d="M 71.5 29.5 L 625.5 29.5 L 625.5 373.5 L 71.5 373.5 L 71.5 29.5 Z" fill-opacity="1"/><path fill="none" stroke="rgb(229,229,229)" paint-order="fill" d="M 71.5 29.5 L 625.5 29.5 L 625.5 373.5 L 71.5 373.5 L 71.5 29.5 Z" stroke-opacity="1" stroke-linejoin="bevel" stroke-miterlimit="10"/><path fill="none" stroke="rgb(229,229,229)" paint-order="fill" d="M 166.5 373.5 L 166.5 29.5 M 179.5 373.5 L 179.5 29.5 M 193.5 373.5 L 193.5 29.5 M 206.5 373.5 L 206.5 29.5 M 220.5 373.5 L 220.5 29.5 M 233.5 373.5 L 233.5 29.5 M 247.5 373.5 L 247.5 29.5 M 260.5 373.5 L 260.5 29.5 M 274.5 373.5 L 274.5 29.5 M 287.5 373.5 L 287.5 29.5 M 301.5 373.5 L 301.5 29.5 M 314.5 373.5 L 314.5 29.5 M 328.5 373.5 L 328.5 29.5 M 341.5 373.5 L 341.5 29.5 M 355.5 373.5 L 355.5 29.5 M 368.5 373.5 L 368.5 29.5 M 382.5 373.5 L 382.5 29.5 M 395.5 373.5 L 395.5 29.5 M 409.5 373.5 L 409.5 29.5 M 422.5 373.5 L 422.5 29.5 M 436.5 373.5 L 436.5 29.5 M 449.5 373.5 L 449.5 29.5 M 463.5 373.5 L 463.5 29.5 M 476.5 373.5 L 476.5 29.5 M 490.5 373.5 L 490.5 29.5 M 503.5 373.5 L 503.5 29.5 M 517.5 373.5 L 517.5 29.5 M 530.5 373.5 L 530.5 29.5 M 544.5 373.5 L 544.5 29.5 M 557.5 373.5 L 557.5 29.5 M 571.5 373.5 L 571.5 29.5 M 584.5 373.5 L 584.5 29.5 M 598.5 373.5 L 598.5 29.5 M 611.5 373.5 L 611.5 29.5" stroke-opacity="1" stroke-linejoin="bevel" stroke-miterlimit="10" clip-path="url(#HINtkTGFGogx)"/><path fill="none" stroke="rgb(229,229,229)" paint-order="fill" d="M 71.5 290.5 L 625.5 290.5 M 71.5 208.5 L 625.5 208.5 M 71.5 125.5 L 625.5 125.5 M 71.5 43.5 L 625.5 43.5 M 71.5 -39.5 L 625.5 -39.5 M 71.5 -122.5 L 625.5 -122.5" stroke-opacity="1" stroke-linejoin="bevel" stroke-miterlimit="10" clip-path="url(#PotliqGhldOw)"/><path fill="none" stroke="rgb(0,68,27)" paint-order="fill" d="M -279.81707763671875 373.4909973144531 L -275.3130187988281 373.465087890625 L -270.8089294433594 373.479736328125 L -266.30487060546875 373.47747802734375 L -261.8008117675781 373.453857421875 L -257.2967529296875 373.47412109375 L -252.7926788330078 373.4144287109375 L -248.2886199951172 373.3514099121094 L -243.7845458984375 373.3626708984375 L -239.28048706054688 373.29736328125 L -234.77642822265625 373.2917175292969 L -230.27235412597656 373.3694152832031 L -225.76829528808594 373.21856689453125 L -221.26422119140625 373.3423767089844 L -216.76016235351562 373.28948974609375 L -212.256103515625 373.24896240234375 L -207.7520294189453 373.277099609375 L -203.2479705810547 373.30975341796875 L -198.743896484375 373.1093444824219 L -194.23983764648438 373.1453857421875 L -189.73577880859375 373.2230529785156 L -185.23170471191406 373.1622619628906 L -180.72764587402344 373.2196960449219 L -176.22357177734375 373.0958557128906 L -171.71951293945312 373.0755920410156 L -167.2154541015625 372.98663330078125 L -162.7113800048828 373.02154541015625 L -158.2073211669922 372.9900207519531 L -153.7032470703125 372.84368896484375 L -149.19918823242188 372.87408447265625 L -144.69512939453125 372.7007141113281 L -140.19105529785156 372.6275329589844 L -135.68699645996094 372.6601867675781 L -131.18292236328125 372.5239562988281 L -126.67886352539062 372.57122802734375 L -122.17479705810547 372.492431640625 L -117.67073059082031 372.113037109375 L -113.16666412353516 372.2537841796875 L -108.66260528564453 372.2785339355469 L -104.15853881835938 371.7899475097656 L -99.65447235107422 371.5343933105469 L -95.15040588378906 371.4882507324219 L -90.6463394165039 370.6529235839844 L -86.14227294921875 370.7418518066406 L -81.63821411132812 371.0424499511719 L -77.13414764404297 369.7117614746094 L -72.63008117675781 370.09454345703125 L -68.12601470947266 370.3219299316406 L -63.6219482421875 368.67718505859375 L -59.11788558959961 369.489990234375 L -54.61382293701172 369.65435791015625 L -50.10975646972656 368.37322998046875 L -45.605690002441406 368.75823974609375 L -41.101627349853516 368.8145446777344 L -36.59756088256836 367.8272399902344 L -32.0934944152832 367.9949645996094 L -27.589431762695312 368.3135681152344 L -23.085365295410156 366.3085632324219 L -18.581300735473633 367.04144287109375 L -14.07723617553711 366.9187316894531 L -9.57317066192627 365.49462890625 L -5.069105625152588 366.6429138183594 L -0.5650407075881958 366.9007263183594 L 3.9390244483947754 364.5895080566406 L 8.443089485168457 365.1794128417969 L 12.94715404510498 365.5813293457031 L 17.45121955871582 364.3913879394531 L 21.955284118652344 365.2525939941406 L 26.459348678588867 365.960693359375 L 30.963415145874023 363.78570556640625 L 35.46747970581055 363.0910949707031 L 39.9715461730957 362.7544860839844 L 44.475608825683594 358.9009704589844 L 48.97967529296875 361.4249572753906 L 53.48373794555664 361.98785400390625 L 57.9878044128418 360.12017822265625 L 62.49187088012695 360.3971252441406 L 66.99593353271484 357.4825134277344 L 71.5 350.0704040527344 L 76.00406646728516 350.59503173828125 L 80.50813293457031 350.937255859375 L 85.01219177246094 346.1560974121094 L 89.5162582397461 344.4696960449219 L 94.02032470703125 344.3379821777344 L 98.5243911743164 337.1859436035156 L 103.02845764160156 341.33441162109375 L 107.53252410888672 339.6097412109375 L 112.03658294677734 335.887939453125 L 116.5406494140625 338.9883117675781 L 121.04471588134766 341.8185119628906 L 125.54878234863281 336.8999938964844 L 130.05284118652344 335.9476013183594 L 134.55691528320312 337.45050048828125 L 139.06097412109375 325.92596435546875 L 143.56504821777344 326.0948486328125 L 148.06910705566406 336.86285400390625 L 152.5731658935547 326.02392578125 L 157.07723999023438 322.37078857421875 L 161.581298828125 266.4029846191406 L 166.0853729248047 60.772727966308594 L 170.5894317626953 212.8263397216797 L 175.09349060058594 300.7672119140625 L 179.59756469726562 234.54249572753906 L 184.10162353515625 277.88250732421875 L 188.60569763183594 315.72308349609375 L 193.10975646972656 187.8386993408203 L 197.6138153076172 264.0298767089844 L 202.11788940429688 294.9796142578125 L 206.6219482421875 141.14051818847656 L 211.1260223388672 273.3647766113281 L 215.6300811767578 305.46392822265625 L 220.13414001464844 98.67749786376953 L 224.63821411132812 197.44041442871094 L 229.14227294921875 211.13543701171875 L 233.64634704589844 89.43152618408203 L 238.15040588378906 261.0960998535156 L 242.6544647216797 269.6114501953125 L 247.15853881835938 114.02290344238281 L 251.66259765625 238.3881378173828 L 256.1666717529297 287.9221496582031 L 260.6707458496094 150.4382781982422 L 265.1748046875 234.1034393310547 L 269.6788635253906 290.493408203125 L 274.18292236328125 183.02488708496094 L 278.6869812011719 260.37786865234375 L 283.1910705566406 286.6972961425781 L 287.69512939453125 192.57144165039062 L 292.1991882324219 267.2979736328125 L 296.7032470703125 305.10479736328125 L 301.2073059082031 225.39671325683594 L 305.7113952636719 273.0247802734375 L 310.2154541015625 306.9308166503906 L 314.7195129394531 227.13829040527344 L 319.22357177734375 282.37884521484375 L 323.7276306152344 303.27093505859375 L 328.2317199707031 230.90512084960938 L 332.73577880859375 285.8844909667969 L 337.2398376464844 300.67376708984375 L 341.743896484375 200.6466064453125 L 346.2479553222656 274.6155090332031 L 350.7520446777344 308.7635803222656 L 355.256103515625 243.94720458984375 L 359.7601623535156 292.3655700683594 L 364.26422119140625 313.03363037109375 L 368.7682800292969 263.6358337402344 L 373.2723693847656 297.1512145996094 L 377.77642822265625 315.0915222167969 L 382.2804870605469 261.30548095703125 L 386.7845458984375 298.5741882324219 L 391.2886047363281 313.5030822753906 L 395.7926940917969 253.71102905273438 L 400.2967529296875 292.6717834472656 L 404.8008117675781 309.60113525390625 L 409.30487060546875 257.6197204589844 L 413.8089294433594 291.8848571777344 L 418.3130187988281 313.9342346191406 L 422.81707763671875 260.5669860839844 L 427.3211364746094 296.52642822265625 L 431.8251953125 313.3218078613281 L 436.3292541503906 260.2247619628906 L 440.8333435058594 291.2330322265625 L 445.33740234375 306.1011047363281 L 449.8414611816406 256.82830810546875 L 454.34552001953125 296.9789733886719 L 458.8495788574219 310.180908203125 L 463.3536682128906 248.80491638183594 L 467.85772705078125 286.0330810546875 L 472.3617858886719 303.6570739746094 L 476.8658447265625 239.60171508789062 L 481.3699035644531 276.86029052734375 L 485.8739929199219 305.0361328125 L 490.3780517578125 253.59170532226562 L 494.8821105957031 286.9697265625 L 499.38616943359375 305.06878662109375 L 503.8902587890625 244.0203857421875 L 508.3943176269531 282.806640625 L 512.8983764648438 311.46881103515625 L 517.4024658203125 245.2159423828125 L 521.906494140625 282.23699951171875 L 526.4105834960938 313.97589111328125 L 530.9146118164062 257.86175537109375 L 535.418701171875 296.47576904296875 L 539.9227905273438 317.8913269042969 L 544.4268188476562 265.1972961425781 L 548.930908203125 297.1658630371094 L 553.4349365234375 310.296875 L 557.9390258789062 254.6521759033203 L 562.443115234375 297.7557678222656 L 566.9471435546875 319.4786682128906 L 571.4512329101562 251.6598663330078 L 575.9552612304688 287.6159362792969 L 580.4593505859375 317.5333251953125 L 584.9634399414062 250.62416076660156 L 589.4674682617188 289.5826416015625 L 593.9715576171875 316.45709228515625 L 598.4755859375 262.664306640625 L 602.9796752929688 295.015625 L 607.4837646484375 316.9659423828125 L 611.98779296875 267.1358642578125 L 616.4918823242188 297.6319274902344" stroke-opacity="1" stroke-linejoin="bevel" stroke-miterlimit="10" stroke-width="2" clip-path="url(#SqLnsKAdgtHd)"/><path fill="none" stroke="rgb(0,0,0)" paint-order="fill" d="M 71.5 373.5 L 625.5 373.5" stroke-opacity="1" stroke-linejoin="bevel" stroke-miterlimit="10"/><path fill="none" stroke="rgb(0,0,0)" paint-order="fill" d="M 166.5 379.5 L 166.5 371.5 M 233.5 379.5 L 233.5 371.5 M 301.5 379.5 L 301.5 371.5 M 368.5 379.5 L 368.5 371.5 M 436.5 379.5 L 436.5 371.5 M 503.5 379.5 L 503.5 371.5 M 571.5 379.5 L 571.5 371.5" stroke-opacity="1" stroke-linejoin="bevel" stroke-miterlimit="10"/><path fill="none" stroke="rgb(0,0,0)" paint-order="fill" d="M 166.5 377.5 L 166.5 373.5 M 179.5 377.5 L 179.5 373.5 M 193.5 377.5 L 193.5 373.5 M 206.5 377.5 L 206.5 373.5 M 220.5 377.5 L 220.5 373.5 M 233.5 377.5 L 233.5 373.5 M 247.5 377.5 L 247.5 373.5 M 260.5 377.5 L 260.5 373.5 M 274.5 377.5 L 274.5 373.5 M 287.5 377.5 L 287.5 373.5 M 301.5 377.5 L 301.5 373.5 M 314.5 377.5 L 314.5 373.5 M 328.5 377.5 L 328.5 373.5 M 341.5 377.5 L 341.5 373.5 M 355.5 377.5 L 355.5 373.5 M 368.5 377.5 L 368.5 373.5 M 382.5 377.5 L 382.5 373.5 M 395.5 377.5 L 395.5 373.5 M 409.5 377.5 L 409.5 373.5 M 422.5 377.5 L 422.5 373.5 M 436.5 377.5 L 436.5 373.5 M 449.5 377.5 L 449.5 373.5 M 463.5 377.5 L 463.5 373.5 M 476.5 377.5 L 476.5 373.5 M 490.5 377.5 L 490.5 373.5 M 503.5 377.5 L 503.5 373.5 M 517.5 377.5 L 517.5 373.5 M 530.5 377.5 L 530.5 373.5 M 544.5 377.5 L 544.5 373.5 M 557.5 377.5 L 557.5 373.5 M 571.5 377.5 L 571.5 373.5 M 584.5 377.5 L 584.5 373.5 M 598.5 377.5 L 598.5 373.5 M 611.5 377.5 L 611.5 373.5" stroke-opacity="1" stroke-linejoin="bevel" stroke-miterlimit="10"/><text fill="rgb(68,68,68)" stroke="none" font-family="helvetica" font-size="11px" font-style="normal" font-weight="normal" text-decoration="normal" x="162.0853729248047" y="392" text-anchor="start" dominant-baseline="alphabetic" transform="matrix(1, 0, 0, 1, 0.5, 0.5)" fill-opacity="1">0</text><text fill="none" stroke="rgb(0,0,0)" font-family="helvetica" font-size="11px" font-style="normal" font-weight="normal" text-decoration="normal" x="162.0853729248047" y="392" text-anchor="start" dominant-baseline="alphabetic" transform="matrix(1, 0, 0, 1, 0.5, 0.5)" stroke-opacity="0" stroke-linejoin="bevel" stroke-miterlimit="10">0</text><text fill="rgb(68,68,68)" stroke="none" font-family="helvetica" font-size="11px" font-style="normal" font-weight="normal" text-decoration="normal" x="226.14634704589844" y="392" text-anchor="start" dominant-baseline="alphabetic" transform="matrix(1, 0, 0, 1, 0.5, 0.5)" fill-opacity="1">15</text><text fill="none" stroke="rgb(0,0,0)" font-family="helvetica" font-size="11px" font-style="normal" font-weight="normal" text-decoration="normal" x="226.14634704589844" y="392" text-anchor="start" dominant-baseline="alphabetic" transform="matrix(1, 0, 0, 1, 0.5, 0.5)" stroke-opacity="0" stroke-linejoin="bevel" stroke-miterlimit="10">15</text><text fill="rgb(68,68,68)" stroke="none" font-family="helvetica" font-size="11px" font-style="normal" font-weight="normal" text-decoration="normal" x="293.7073059082031" y="392" text-anchor="start" dominant-baseline="alphabetic" transform="matrix(1, 0, 0, 1, 0.5, 0.5)" fill-opacity="1">30</text><text fill="none" stroke="rgb(0,0,0)" font-family="helvetica" font-size="11px" font-style="normal" font-weight="normal" text-decoration="normal" x="293.7073059082031" y="392" text-anchor="start" dominant-baseline="alphabetic" transform="matrix(1, 0, 0, 1, 0.5, 0.5)" stroke-opacity="0" stroke-linejoin="bevel" stroke-miterlimit="10">30</text><text fill="rgb(68,68,68)" stroke="none" font-family="helvetica" font-size="11px" font-style="normal" font-weight="normal" text-decoration="normal" x="361.2682800292969" y="392" text-anchor="start" dominant-baseline="alphabetic" transform="matrix(1, 0, 0, 1, 0.5, 0.5)" fill-opacity="1">45</text><text fill="none" stroke="rgb(0,0,0)" font-family="helvetica" font-size="11px" font-style="normal" font-weight="normal" text-decoration="normal" x="361.2682800292969" y="392" text-anchor="start" dominant-baseline="alphabetic" transform="matrix(1, 0, 0, 1, 0.5, 0.5)" stroke-opacity="0" stroke-linejoin="bevel" stroke-miterlimit="10">45</text><text fill="rgb(68,68,68)" stroke="none" font-family="helvetica" font-size="11px" font-style="normal" font-weight="normal" text-decoration="normal" x="428.8292541503906" y="392" text-anchor="start" dominant-baseline="alphabetic" transform="matrix(1, 0, 0, 1, 0.5, 0.5)" fill-opacity="1">60</text><text fill="none" stroke="rgb(0,0,0)" font-family="helvetica" font-size="11px" font-style="normal" font-weight="normal" text-decoration="normal" x="428.8292541503906" y="392" text-anchor="start" dominant-baseline="alphabetic" transform="matrix(1, 0, 0, 1, 0.5, 0.5)" stroke-opacity="0" stroke-linejoin="bevel" stroke-miterlimit="10">60</text><text fill="rgb(68,68,68)" stroke="none" font-family="helvetica" font-size="11px" font-style="normal" font-weight="normal" text-decoration="normal" x="496.3902587890625" y="392" text-anchor="start" dominant-baseline="alphabetic" transform="matrix(1, 0, 0, 1, 0.5, 0.5)" fill-opacity="1">75</text><text fill="none" stroke="rgb(0,0,0)" font-family="helvetica" font-size="11px" font-style="normal" font-weight="normal" text-decoration="normal" x="496.3902587890625" y="392" text-anchor="start" dominant-baseline="alphabetic" transform="matrix(1, 0, 0, 1, 0.5, 0.5)" stroke-opacity="0" stroke-linejoin="bevel" stroke-miterlimit="10">75</text><text fill="rgb(68,68,68)" stroke="none" font-family="helvetica" font-size="11px" font-style="normal" font-weight="normal" text-decoration="normal" x="563.9512329101562" y="392" text-anchor="start" dominant-baseline="alphabetic" transform="matrix(1, 0, 0, 1, 0.5, 0.5)" fill-opacity="1">90</text><text fill="none" stroke="rgb(0,0,0)" font-family="helvetica" font-size="11px" font-style="normal" font-weight="normal" text-decoration="normal" x="563.9512329101562" y="392" text-anchor="start" dominant-baseline="alphabetic" transform="matrix(1, 0, 0, 1, 0.5, 0.5)" stroke-opacity="0" stroke-linejoin="bevel" stroke-miterlimit="10">90</text><text fill="rgb(68,68,68)" stroke="none" font-family="helvetica" font-size="13px" font-style="italic" font-weight="normal" text-decoration="normal" x="278.8916702270508" y="413" text-anchor="start" dominant-baseline="alphabetic" transform="matrix(1, 0, 0, 1, 0.5, 0.5)" fill-opacity="1">pSite from CDS start</text><text fill="none" stroke="rgb(0,0,0)" font-family="helvetica" font-size="13px" font-style="italic" font-weight="normal" text-decoration="normal" x="278.8916702270508" y="413" text-anchor="start" dominant-baseline="alphabetic" transform="matrix(1, 0, 0, 1, 0.5, 0.5)" stroke-opacity="0" stroke-linejoin="bevel" stroke-miterlimit="10">pSite from CDS start</text><path fill="none" stroke="rgb(0,0,0)" paint-order="fill" d="M 71.5 373.5 L 71.5 29.5" stroke-opacity="1" stroke-linejoin="bevel" stroke-miterlimit="10"/><path fill="none" stroke="rgb(0,0,0)" paint-order="fill" d="M 65.5 373.5 L 73.5 373.5 M 65.5 290.5 L 73.5 290.5 M 65.5 208.5 L 73.5 208.5 M 65.5 125.5 L 73.5 125.5 M 65.5 43.5 L 73.5 43.5" stroke-opacity="1" stroke-linejoin="bevel" stroke-miterlimit="10"/><path fill="none" stroke="rgb(0,0,0)" paint-order="fill" d="" stroke-opacity="1" stroke-linejoin="bevel" stroke-miterlimit="10"/><text fill="rgb(68,68,68)" stroke="none" font-family="helvetica" font-size="11px" font-style="normal" font-weight="normal" text-decoration="normal" x="53" y="377" text-anchor="start" dominant-baseline="alphabetic" transform="matrix(1, 0, 0, 1, 0.5, 0.5)" fill-opacity="1">0</text><text fill="none" stroke="rgb(0,0,0)" font-family="helvetica" font-size="11px" font-style="normal" font-weight="normal" text-decoration="normal" x="53" y="377" text-anchor="start" dominant-baseline="alphabetic" transform="matrix(1, 0, 0, 1, 0.5, 0.5)" stroke-opacity="0" stroke-linejoin="bevel" stroke-miterlimit="10">0</text><text fill="rgb(68,68,68)" stroke="none" font-family="helvetica" font-size="11px" font-style="normal" font-weight="normal" text-decoration="normal" x="28.5" y="294.3758544921875" text-anchor="start" dominant-baseline="alphabetic" transform="matrix(1, 0, 0, 1, 0.5, 0.5)" fill-opacity="1">0.001</text><text fill="none" stroke="rgb(0,0,0)" font-family="helvetica" font-size="11px" font-style="normal" font-weight="normal" text-decoration="normal" x="28.5" y="294.3758544921875" text-anchor="start" dominant-baseline="alphabetic" transform="matrix(1, 0, 0, 1, 0.5, 0.5)" stroke-opacity="0" stroke-linejoin="bevel" stroke-miterlimit="10">0.001</text><text fill="rgb(68,68,68)" stroke="none" font-family="helvetica" font-size="11px" font-style="normal" font-weight="normal" text-decoration="normal" x="28.5" y="211.75172424316406" text-anchor="start" dominant-baseline="alphabetic" transform="matrix(1, 0, 0, 1, 0.5, 0.5)" fill-opacity="1">0.002</text><text fill="none" stroke="rgb(0,0,0)" font-family="helvetica" font-size="11px" font-style="normal" font-weight="normal" text-decoration="normal" x="28.5" y="211.75172424316406" text-anchor="start" dominant-baseline="alphabetic" transform="matrix(1, 0, 0, 1, 0.5, 0.5)" stroke-opacity="0" stroke-linejoin="bevel" stroke-miterlimit="10">0.002</text><text fill="rgb(68,68,68)" stroke="none" font-family="helvetica" font-size="11px" font-style="normal" font-weight="normal" text-decoration="normal" x="28.5" y="129.12759399414062" text-anchor="start" dominant-baseline="alphabetic" transform="matrix(1, 0, 0, 1, 0.5, 0.5)" fill-opacity="1">0.003</text><text fill="none" stroke="rgb(0,0,0)" font-family="helvetica" font-size="11px" font-style="normal" font-weight="normal" text-decoration="normal" x="28.5" y="129.12759399414062" text-anchor="start" dominant-baseline="alphabetic" transform="matrix(1, 0, 0, 1, 0.5, 0.5)" stroke-opacity="0" stroke-linejoin="bevel" stroke-miterlimit="10">0.003</text><text fill="rgb(68,68,68)" stroke="none" font-family="helvetica" font-size="11px" font-style="normal" font-weight="normal" text-decoration="normal" x="28.5" y="46.50346374511719" text-anchor="start" dominant-baseline="alphabetic" transform="matrix(1, 0, 0, 1, 0.5, 0.5)" fill-opacity="1">0.004</text><text fill="none" stroke="rgb(0,0,0)" font-family="helvetica" font-size="11px" font-style="normal" font-weight="normal" text-decoration="normal" x="28.5" y="46.50346374511719" text-anchor="start" dominant-baseline="alphabetic" transform="matrix(1, 0, 0, 1, 0.5, 0.5)" stroke-opacity="0" stroke-linejoin="bevel" stroke-miterlimit="10">0.004</text><text fill="rgb(68,68,68)" stroke="none" font-family="helvetica" font-size="13px" font-style="italic" font-weight="normal" text-decoration="normal" x="-14.658332824707031" y="197" text-anchor="start" dominant-baseline="alphabetic" transform="matrix(6.123233995736766e-17, -1, 1, 6.123233995736766e-17, -180, 222)" fill-opacity="1">Frequency</text><text fill="none" stroke="rgb(0,0,0)" font-family="helvetica" font-size="13px" font-style="italic" font-weight="normal" text-decoration="normal" x="-14.658332824707031" y="197" text-anchor="start" dominant-baseline="alphabetic" transform="matrix(6.123233995736766e-17, -1, 1, 6.123233995736766e-17, -180, 222)" stroke-opacity="0" stroke-linejoin="bevel" stroke-miterlimit="10">Frequency</text><path fill="none" stroke="rgb(255,0,0)" paint-order="fill" d="M 166.08536585365852 29.5 L 166.08536585365852 373.5" stroke-opacity="1" stroke-linejoin="bevel" stroke-miterlimit="10" stroke-width="3" stroke-dasharray="6" clip-path="url(#RTZgoCOESUQM)"/><text fill="rgb(68,68,68)" stroke="none" font-family="helvetica" font-size="13px" font-style="normal" font-weight="bold" text-decoration="normal" x="0" y="13" text-anchor="start" dominant-baseline="alphabetic" transform="matrix(1, 0, 0, 1, 71.5, 7.5)" fill-opacity="1">Metaprofile</text><text fill="none" stroke="rgb(0,0,0)" font-family="helvetica" font-size="13px" font-style="normal" font-weight="bold" text-decoration="normal" x="0" y="13" text-anchor="start" dominant-baseline="alphabetic" transform="matrix(1, 0, 0, 1, 71.5, 7.5)" stroke-opacity="0" stroke-miterlimit="10" stroke-dasharray="">Metaprofile</text><g transform="matrix(1, 0, 0, 1, 630, 0)"><path fill="rgb(255,255,255)" stroke="none" paint-order="stroke" d="M 0.5 0.5 L 630.5 0.5 L 630.5 450.5 L 0.5 450.5 L 0.5 0.5 Z" fill-opacity="1" clip-path="url(#KwPwMTvTXPoT)"/><path fill="rgb(255,255,255)" stroke="none" paint-order="stroke" d="M 5.5 29.5 L 559.5 29.5 L 559.5 373.5 L 5.5 373.5 L 5.5 29.5 Z" fill-opacity="1"/><path fill="none" stroke="rgb(229,229,229)" paint-order="fill" d="M 5.5 29.5 L 559.5 29.5 L 559.5 373.5 L 5.5 373.5 L 5.5 29.5 Z" stroke-opacity="1" stroke-linejoin="bevel" stroke-miterlimit="10"/><path fill="none" stroke="rgb(229,229,229)" paint-order="fill" d="M 19.5 373.5 L 19.5 29.5 M 32.5 373.5 L 32.5 29.5 M 46.5 373.5 L 46.5 29.5 M 59.5 373.5 L 59.5 29.5 M 73.5 373.5 L 73.5 29.5 M 86.5 373.5 L 86.5 29.5 M 100.5 373.5 L 100.5 29.5 M 113.5 373.5 L 113.5 29.5 M 127.5 373.5 L 127.5 29.5 M 140.5 373.5 L 140.5 29.5 M 154.5 373.5 L 154.5 29.5 M 167.5 373.5 L 167.5 29.5 M 181.5 373.5 L 181.5 29.5 M 194.5 373.5 L 194.5 29.5 M 208.5 373.5 L 208.5 29.5 M 221.5 373.5 L 221.5 29.5 M 235.5 373.5 L 235.5 29.5 M 248.5 373.5 L 248.5 29.5 M 262.5 373.5 L 262.5 29.5 M 275.5 373.5 L 275.5 29.5 M 289.5 373.5 L 289.5 29.5 M 302.5 373.5 L 302.5 29.5 M 316.5 373.5 L 316.5 29.5 M 329.5 373.5 L 329.5 29.5 M 343.5 373.5 L 343.5 29.5 M 356.5 373.5 L 356.5 29.5 M 370.5 373.5 L 370.5 29.5 M 383.5 373.5 L 383.5 29.5 M 397.5 373.5 L 397.5 29.5 M 410.5 373.5 L 410.5 29.5 M 424.5 373.5 L 424.5 29.5 M 437.5 373.5 L 437.5 29.5 M 451.5 373.5 L 451.5 29.5 M 464.5 373.5 L 464.5 29.5" stroke-opacity="1" stroke-linejoin="bevel" stroke-miterlimit="10" clip-path="url(#LauTeJvGSLaX)"/><path fill="none" stroke="rgb(229,229,229)" paint-order="fill" d="M 5.5 290.5 L 559.5 290.5 M 5.5 208.5 L 559.5 208.5 M 5.5 125.5 L 559.5 125.5 M 5.5 43.5 L 559.5 43.5 M 5.5 -39.5 L 559.5 -39.5 M 5.5 -122.5 L 559.5 -122.5" stroke-opacity="1" stroke-linejoin="bevel" stroke-miterlimit="10" clip-path="url(#EwzcxFmuTuww)"/><path fill="none" stroke="rgb(0,68,27)" paint-order="fill" d="M 14.508130073547363 306.9837341308594 L 19.012195587158203 236.97303771972656 L 23.516260147094727 283.1961364746094 L 28.02032470703125 308.4731140136719 L 32.524391174316406 245.67076110839844 L 37.0284538269043 288.3195495605469 L 41.53252029418945 312.1791687011719 L 46.03658676147461 237.8263702392578 L 50.5406494140625 275.0399169921875 L 55.044715881347656 304.7513122558594 L 59.54878234863281 203.65467834472656 L 64.0528450012207 271.07720947265625 L 68.5569076538086 310.2653503417969 L 73.06097412109375 247.0757293701172 L 77.5650405883789 293.4237976074219 L 82.06910705566406 309.1136779785156 L 86.57317352294922 245.3138885498047 L 91.07723236083984 293.3584899902344 L 95.581298828125 315.0296325683594 L 100.08536529541016 255.3557891845703 L 104.58943176269531 291.0045166015625 L 109.09349822998047 312.55291748046875 L 113.59756469726562 256.08641052246094 L 118.10162353515625 289.2876892089844 L 122.6056900024414 309.0708923339844 L 127.10975646972656 256.6706848144531 L 131.6138153076172 290.0419616699219 L 136.11788940429688 310.9002685546875 L 140.6219482421875 250.41026306152344 L 145.1260223388672 293.4969482421875 L 149.6300811767578 310.8192138671875 L 154.13414001464844 247.19505310058594 L 158.63821411132812 295.5706481933594 L 163.14227294921875 309.30731201171875 L 167.64634704589844 240.42578125 L 172.15040588378906 286.9505920410156 L 176.6544647216797 306.8125915527344 L 181.15853881835938 243.78396606445312 L 185.66259765625 282.56683349609375 L 190.1666717529297 303.7200927734375 L 194.6707305908203 217.92047119140625 L 199.17478942871094 258.13983154296875 L 203.67886352539062 289.02764892578125 L 208.18292236328125 204.43258666992188 L 212.68699645996094 275.5195007324219 L 217.19105529785156 296.4937744140625 L 221.69512939453125 226.3795166015625 L 226.19918823242188 266.7699890136719 L 230.7032470703125 283.2693176269531 L 235.2073211669922 194.71153259277344 L 239.7113800048828 283.2850646972656 L 244.2154541015625 304.002685546875 L 248.71951293945312 226.27932739257812 L 253.22357177734375 268.26953125 L 257.7276306152344 301.73760986328125 L 262.2317199707031 232.3562469482422 L 266.73577880859375 294.63623046875 L 271.2398376464844 313.8002624511719 L 275.743896484375 254.06564331054688 L 280.2479553222656 292.0920104980469 L 284.7520446777344 317.8429260253906 L 289.256103515625 265.25469970703125 L 293.7601623535156 306.20806884765625 L 298.26422119140625 319.51580810546875 L 302.7682800292969 273.22406005859375 L 307.2723693847656 311.11981201171875 L 311.77642822265625 320.1417541503906 L 316.2804870605469 277.3736572265625 L 320.7845458984375 308.4708557128906 L 325.2886047363281 319.0677490234375 L 329.7926940917969 282.32818603515625 L 334.2967529296875 307.4317626953125 L 338.8008117675781 317.65716552734375 L 343.30487060546875 264.7041931152344 L 347.8089294433594 304.48675537109375 L 352.3130187988281 323.5899963378906 L 356.81707763671875 284.8285217285156 L 361.3211364746094 310.7134094238281 L 365.8251953125 321.568115234375 L 370.3292541503906 278.1549377441406 L 374.8333435058594 309.61126708984375 L 379.33740234375 327.99176025390625 L 383.8414611816406 297.7940368652344 L 388.34552001953125 325.28204345703125 L 392.8495788574219 334.0788269042969 L 397.3536682128906 302.1890563964844 L 401.85772705078125 325.27752685546875 L 406.3617858886719 337.7229309082031 L 410.8658447265625 313.85882568359375 L 415.3699035644531 332.8460998535156 L 419.8739929199219 338.59765625 L 424.3780517578125 316.7576904296875 L 428.8821105957031 330.2658386230469 L 433.38616943359375 333.45965576171875 L 437.8902587890625 282.8223876953125 L 442.3943176269531 316.6101989746094 L 446.89837646484375 352.3760070800781 L 451.4024353027344 357.75494384765625 L 455.906494140625 356.5616149902344 L 460.41058349609375 357.2044372558594 L 464.9146423339844 359.84100341796875 L 469.418701171875 357.2145690917969 L 473.9227600097656 355.7353210449219 L 478.42681884765625 357.71893310546875 L 482.930908203125 355.15777587890625 L 487.4349670410156 353.6830139160156 L 491.93902587890625 358.84130859375 L 496.4430847167969 358.9944152832031 L 500.9471435546875 357.5433044433594 L 505.45123291015625 358.253662109375 L 509.9552917480469 351.9380798339844 L 514.4593505859375 348.1172180175781 L 518.9634399414062 358.45068359375 L 523.4674682617188 372.73333740234375 L 527.9715576171875 372.709716796875 L 532.4755859375 372.7423400878906 L 536.9796752929688 372.81439208984375 L 541.4837646484375 372.6275329589844 L 545.98779296875 372.59375 L 550.4918823242188 372.79412841796875 L 554.9959106445312 372.8909606933594 L 559.5 372.91009521484375 L 564.0040893554688 372.93487548828125 L 568.5081176757812 372.90447998046875 L 573.01220703125 372.9371032714844 L 577.5162353515625 373.04632568359375 L 582.0203247070312 373.0879821777344 L 586.5244140625 373.05194091796875 L 591.0284423828125 373.033935546875 L 595.5325317382812 373.0857238769531 L 600.0365600585938 373.100341796875 L 604.5406494140625 373.0204162597656 L 609.0447387695312 372.7919006347656 L 613.5487670898438 372.7468566894531 L 618.0528564453125 372.5216979980469 L 622.556884765625 372.6354064941406 L 627.0609741210938 373.1589050292969 L 631.5650634765625 373.4966125488281 L 640.5731811523438 373.4988708496094" stroke-opacity="1" stroke-linejoin="bevel" stroke-miterlimit="10" stroke-width="2" clip-path="url(#fkyWHzERmUQv)"/><path fill="none" stroke="rgb(0,0,0)" paint-order="fill" d="M 5.5 373.5 L 559.5 373.5" stroke-opacity="1" stroke-linejoin="bevel" stroke-miterlimit="10"/><path fill="none" stroke="rgb(0,0,0)" paint-order="fill" d="M 59.5 379.5 L 59.5 371.5 M 127.5 379.5 L 127.5 371.5 M 194.5 379.5 L 194.5 371.5 M 262.5 379.5 L 262.5 371.5 M 329.5 379.5 L 329.5 371.5 M 397.5 379.5 L 397.5 371.5" stroke-opacity="1" stroke-linejoin="bevel" stroke-miterlimit="10"/><path fill="none" stroke="rgb(0,0,0)" paint-order="fill" d="M 59.5 377.5 L 59.5 373.5 M 73.5 377.5 L 73.5 373.5 M 86.5 377.5 L 86.5 373.5 M 100.5 377.5 L 100.5 373.5 M 113.5 377.5 L 113.5 373.5 M 127.5 377.5 L 127.5 373.5 M 140.5 377.5 L 140.5 373.5 M 154.5 377.5 L 154.5 373.5 M 167.5 377.5 L 167.5 373.5 M 181.5 377.5 L 181.5 373.5 M 194.5 377.5 L 194.5 373.5 M 208.5 377.5 L 208.5 373.5 M 221.5 377.5 L 221.5 373.5 M 235.5 377.5 L 235.5 373.5 M 248.5 377.5 L 248.5 373.5 M 262.5 377.5 L 262.5 373.5 M 275.5 377.5 L 275.5 373.5 M 289.5 377.5 L 289.5 373.5 M 302.5 377.5 L 302.5 373.5 M 316.5 377.5 L 316.5 373.5 M 329.5 377.5 L 329.5 373.5 M 343.5 377.5 L 343.5 373.5 M 356.5 377.5 L 356.5 373.5 M 370.5 377.5 L 370.5 373.5 M 383.5 377.5 L 383.5 373.5 M 397.5 377.5 L 397.5 373.5 M 410.5 377.5 L 410.5 373.5 M 424.5 377.5 L 424.5 373.5 M 437.5 377.5 L 437.5 373.5 M 451.5 377.5 L 451.5 373.5" stroke-opacity="1" stroke-linejoin="bevel" stroke-miterlimit="10"/><text fill="rgb(68,68,68)" stroke="none" font-family="helvetica" font-size="11px" font-style="normal" font-weight="normal" text-decoration="normal" x="47.44044876098633" y="392" text-anchor="start" dominant-baseline="alphabetic" transform="matrix(1, 0, 0, 1, 0.5, 0.5)" fill-opacity="1">−90</text><text fill="none" stroke="rgb(0,0,0)" font-family="helvetica" font-size="11px" font-style="normal" font-weight="normal" text-decoration="normal" x="47.44044876098633" y="392" text-anchor="start" dominant-baseline="alphabetic" transform="matrix(1, 0, 0, 1, 0.5, 0.5)" stroke-opacity="0" stroke-linejoin="bevel" stroke-miterlimit="10">−90</text><text fill="rgb(68,68,68)" stroke="none" font-family="helvetica" font-size="11px" font-style="normal" font-weight="normal" text-decoration="normal" x="115.00142288208008" y="392" text-anchor="start" dominant-baseline="alphabetic" transform="matrix(1, 0, 0, 1, 0.5, 0.5)" fill-opacity="1">−75</text><text fill="none" stroke="rgb(0,0,0)" font-family="helvetica" font-size="11px" font-style="normal" font-weight="normal" text-decoration="normal" x="115.00142288208008" y="392" text-anchor="start" dominant-baseline="alphabetic" transform="matrix(1, 0, 0, 1, 0.5, 0.5)" stroke-opacity="0" stroke-linejoin="bevel" stroke-miterlimit="10">−75</text><text fill="rgb(68,68,68)" stroke="none" font-family="helvetica" font-size="11px" font-style="normal" font-weight="normal" text-decoration="normal" x="182.56239700317383" y="392" text-anchor="start" dominant-baseline="alphabetic" transform="matrix(1, 0, 0, 1, 0.5, 0.5)" fill-opacity="1">−60</text><text fill="none" stroke="rgb(0,0,0)" font-family="helvetica" font-size="11px" font-style="normal" font-weight="normal" text-decoration="normal" x="182.56239700317383" y="392" text-anchor="start" dominant-baseline="alphabetic" transform="matrix(1, 0, 0, 1, 0.5, 0.5)" stroke-opacity="0" stroke-linejoin="bevel" stroke-miterlimit="10">−60</text><text fill="rgb(68,68,68)" stroke="none" font-family="helvetica" font-size="11px" font-style="normal" font-weight="normal" text-decoration="normal" x="250.12338638305664" y="392" text-anchor="start" dominant-baseline="alphabetic" transform="matrix(1, 0, 0, 1, 0.5, 0.5)" fill-opacity="1">−45</text><text fill="none" stroke="rgb(0,0,0)" font-family="helvetica" font-size="11px" font-style="normal" font-weight="normal" text-decoration="normal" x="250.12338638305664" y="392" text-anchor="start" dominant-baseline="alphabetic" transform="matrix(1, 0, 0, 1, 0.5, 0.5)" stroke-opacity="0" stroke-linejoin="bevel" stroke-miterlimit="10">−45</text><text fill="rgb(68,68,68)" stroke="none" font-family="helvetica" font-size="11px" font-style="normal" font-weight="normal" text-decoration="normal" x="317.6843605041504" y="392" text-anchor="start" dominant-baseline="alphabetic" transform="matrix(1, 0, 0, 1, 0.5, 0.5)" fill-opacity="1">−30</text><text fill="none" stroke="rgb(0,0,0)" font-family="helvetica" font-size="11px" font-style="normal" font-weight="normal" text-decoration="normal" x="317.6843605041504" y="392" text-anchor="start" dominant-baseline="alphabetic" transform="matrix(1, 0, 0, 1, 0.5, 0.5)" stroke-opacity="0" stroke-linejoin="bevel" stroke-miterlimit="10">−30</text><text fill="rgb(68,68,68)" stroke="none" font-family="helvetica" font-size="11px" font-style="normal" font-weight="normal" text-decoration="normal" x="385.24533462524414" y="392" text-anchor="start" dominant-baseline="alphabetic" transform="matrix(1, 0, 0, 1, 0.5, 0.5)" fill-opacity="1">−15</text><text fill="none" stroke="rgb(0,0,0)" font-family="helvetica" font-size="11px" font-style="normal" font-weight="normal" text-decoration="normal" x="385.24533462524414" y="392" text-anchor="start" dominant-baseline="alphabetic" transform="matrix(1, 0, 0, 1, 0.5, 0.5)" stroke-opacity="0" stroke-linejoin="bevel" stroke-miterlimit="10">−15</text><text fill="rgb(68,68,68)" stroke="none" font-family="helvetica" font-size="13px" font-style="italic" font-weight="normal" text-decoration="normal" x="214.40833282470703" y="413" text-anchor="start" dominant-baseline="alphabetic" transform="matrix(1, 0, 0, 1, 0.5, 0.5)" fill-opacity="1">pSite from CDS stop</text><text fill="none" stroke="rgb(0,0,0)" font-family="helvetica" font-size="13px" font-style="italic" font-weight="normal" text-decoration="normal" x="214.40833282470703" y="413" text-anchor="start" dominant-baseline="alphabetic" transform="matrix(1, 0, 0, 1, 0.5, 0.5)" stroke-opacity="0" stroke-linejoin="bevel" stroke-miterlimit="10">pSite from CDS stop</text><path fill="none" stroke="rgb(0,0,0)" paint-order="fill" d="M 559.5 373.5 L 559.5 29.5" stroke-opacity="1" stroke-linejoin="bevel" stroke-miterlimit="10"/><path fill="none" stroke="rgb(0,0,0)" paint-order="fill" d="M 565.5 373.5 L 557.5 373.5 M 565.5 290.5 L 557.5 290.5 M 565.5 208.5 L 557.5 208.5 M 565.5 125.5 L 557.5 125.5 M 565.5 43.5 L 557.5 43.5" stroke-opacity="1" stroke-linejoin="bevel" stroke-miterlimit="10"/><path fill="none" stroke="rgb(0,0,0)" paint-order="fill" d="" stroke-opacity="1" stroke-linejoin="bevel" stroke-miterlimit="10"/><text fill="rgb(68,68,68)" stroke="none" font-family="helvetica" font-size="11px" font-style="normal" font-weight="normal" text-decoration="normal" x="570" y="377" text-anchor="start" dominant-baseline="alphabetic" transform="matrix(1, 0, 0, 1, 0.5, 0.5)" fill-opacity="1">0</text><text fill="none" stroke="rgb(0,0,0)" font-family="helvetica" font-size="11px" font-style="normal" font-weight="normal" text-decoration="normal" x="570" y="377" text-anchor="start" dominant-baseline="alphabetic" transform="matrix(1, 0, 0, 1, 0.5, 0.5)" stroke-opacity="0" stroke-linejoin="bevel" stroke-miterlimit="10">0</text><text fill="rgb(68,68,68)" stroke="none" font-family="helvetica" font-size="11px" font-style="normal" font-weight="normal" text-decoration="normal" x="570" y="294.3758544921875" text-anchor="start" dominant-baseline="alphabetic" transform="matrix(1, 0, 0, 1, 0.5, 0.5)" fill-opacity="1">0.001</text><text fill="none" stroke="rgb(0,0,0)" font-family="helvetica" font-size="11px" font-style="normal" font-weight="normal" text-decoration="normal" x="570" y="294.3758544921875" text-anchor="start" dominant-baseline="alphabetic" transform="matrix(1, 0, 0, 1, 0.5, 0.5)" stroke-opacity="0" stroke-linejoin="bevel" stroke-miterlimit="10">0.001</text><text fill="rgb(68,68,68)" stroke="none" font-family="helvetica" font-size="11px" font-style="normal" font-weight="normal" text-decoration="normal" x="570" y="211.75172424316406" text-anchor="start" dominant-baseline="alphabetic" transform="matrix(1, 0, 0, 1, 0.5, 0.5)" fill-opacity="1">0.002</text><text fill="none" stroke="rgb(0,0,0)" font-family="helvetica" font-size="11px" font-style="normal" font-weight="normal" text-decoration="normal" x="570" y="211.75172424316406" text-anchor="start" dominant-baseline="alphabetic" transform="matrix(1, 0, 0, 1, 0.5, 0.5)" stroke-opacity="0" stroke-linejoin="bevel" stroke-miterlimit="10">0.002</text><text fill="rgb(68,68,68)" stroke="none" font-family="helvetica" font-size="11px" font-style="normal" font-weight="normal" text-decoration="normal" x="570" y="129.12759399414062" text-anchor="start" dominant-baseline="alphabetic" transform="matrix(1, 0, 0, 1, 0.5, 0.5)" fill-opacity="1">0.003</text><text fill="none" stroke="rgb(0,0,0)" font-family="helvetica" font-size="11px" font-style="normal" font-weight="normal" text-decoration="normal" x="570" y="129.12759399414062" text-anchor="start" dominant-baseline="alphabetic" transform="matrix(1, 0, 0, 1, 0.5, 0.5)" stroke-opacity="0" stroke-linejoin="bevel" stroke-miterlimit="10">0.003</text><text fill="rgb(68,68,68)" stroke="none" font-family="helvetica" font-size="11px" font-style="normal" font-weight="normal" text-decoration="normal" x="570" y="46.50346374511719" text-anchor="start" dominant-baseline="alphabetic" transform="matrix(1, 0, 0, 1, 0.5, 0.5)" fill-opacity="1">0.004</text><text fill="none" stroke="rgb(0,0,0)" font-family="helvetica" font-size="11px" font-style="normal" font-weight="normal" text-decoration="normal" x="570" y="46.50346374511719" text-anchor="start" dominant-baseline="alphabetic" transform="matrix(1, 0, 0, 1, 0.5, 0.5)" stroke-opacity="0" stroke-linejoin="bevel" stroke-miterlimit="10">0.004</text><text fill="rgb(68,68,68)" stroke="none" font-family="helvetica" font-size="13px" font-style="italic" font-weight="normal" text-decoration="normal" x="574.341667175293" y="197" text-anchor="start" dominant-baseline="alphabetic" transform="matrix(6.123233995736766e-17, 1, -1, 6.123233995736766e-17, 811, -408)" fill-opacity="1">Frequency</text><text fill="none" stroke="rgb(0,0,0)" font-family="helvetica" font-size="13px" font-style="italic" font-weight="normal" text-decoration="normal" x="574.341667175293" y="197" text-anchor="start" dominant-baseline="alphabetic" transform="matrix(6.123233995736766e-17, 1, -1, 6.123233995736766e-17, 811, -408)" stroke-opacity="0" stroke-linejoin="bevel" stroke-miterlimit="10">Frequency</text><path fill="none" stroke="rgb(255,0,0)" paint-order="fill" d="M 464.9146341463414 29.5 L 464.9146341463414 373.5" stroke-opacity="1" stroke-linejoin="bevel" stroke-miterlimit="10" stroke-width="3" stroke-dasharray="6" clip-path="url(#ySnmCgZCfKuS)"/></g></svg>