<svg version="1.1" xmlns="http://www.w3.org/2000/svg" width="600" height="450"><defs><clipPath id="FEXXrpWbkKkJ"><path fill="none" stroke="none" d="M 0.5 0.5 L 600.5 0.5 L 600.5 450.5 L 0.5 450.5 L 0.5 0.5 Z M 5.5 27.5 L 535.5 27.5 L 535.5 375.5 L 5.5 375.5 L 5.5 27.5 Z" clip-rule="evenodd"/></clipPath><clipPath id="TVXxxDdbmXvV"><path fill="none" stroke="none" d="M 5.5 27.5 L 535.5 27.5 L 535.5 375.5 L 5.5 375.5 L 5.5 27.5 Z"/></clipPath><clipPath id="wMFTDEilAFZV"><path fill="none" stroke="none" d="M 5.5 27.5 L 535.5 27.5 L 535.5 375.5 L 5.5 375.5 L 5.5 27.5 Z"/></clipPath><clipPath id="nkTCLqZcIVJO"><path fill="none" stroke="none" d="M 5.5 27.5 L 535.5 27.5 L 535.5 375.5 L 5.5 375.5 L 5.5 27.5 Z"/></clipPath><clipPath id="zLudJITmUcKb"><path fill="none" stroke="none" d="M 5.5 27.5 L 535.5 27.5 L 535.5 375.5 L 5.5 375.5 L 5.5 27.5 Z"/></clipPath></defs><path fill="#ffffff" stroke="none" paint-order="stroke" d="M 0.5 0.5 L 600.5 0.5 L 600.5 450.5 L 0.5 450.5 L 0.5 0.5 Z" fill-rule="nonzero" clip-path="url(#FEXXrpWbkKkJ)"/><path fill="#ffffff" stroke="none" paint-order="stroke" d="M 5.5 27.5 L 535.5 27.5 L 535.5 375.5 L 5.5 375.5 L 5.5 27.5 Z"/><path fill="none" stroke="#e5e5e5" paint-order="fill" d="M 5.5 27.5 L 535.5 27.5 L 535.5 375.5 L 5.5 375.5 L 5.5 27.5 Z" stroke-linejoin="bevel" stroke-miterlimit="10"/><path fill="none" stroke="#e5e5e5" paint-order="fill" d="M 18.5 375.5 L 18.5 27.5 M 31.5 375.5 L 31.5 27.5 M 44.5 375.5 L 44.5 27.5 M 57.5 375.5 L 57.5 27.5 M 70.5 375.5 L 70.5 27.5 M 83.5 375.5 L 83.5 27.5 M 95.5 375.5 L 95.5 27.5 M 108.5 375.5 L 108.5 27.5 M 121.5 375.5 L 121.5 27.5 M 134.5 375.5 L 134.5 27.5 M 147.5 375.5 L 147.5 27.5 M 160.5 375.5 L 160.5 27.5 M 173.5 375.5 L 173.5 27.5 M 186.5 375.5 L 186.5 27.5 M 199.5 375.5 L 199.5 27.5 M 212.5 375.5 L 212.5 27.5 M 225.5 375.5 L 225.5 27.5 M 238.5 375.5 L 238.5 27.5 M 251.5 375.5 L 251.5 27.5 M 264.5 375.5 L 264.5 27.5 M 276.5 375.5 L 276.5 27.5 M 289.5 375.5 L 289.5 27.5 M 302.5 375.5 L 302.5 27.5 M 315.5 375.5 L 315.5 27.5 M 328.5 375.5 L 328.5 27.5 M 341.5 375.5 L 341.5 27.5 M 354.5 375.5 L 354.5 27.5 M 367.5 375.5 L 367.5 27.5 M 380.5 375.5 L 380.5 27.5 M 393.5 375.5 L 393.5 27.5 M 406.5 375.5 L 406.5 27.5 M 419.5 375.5 L 419.5 27.5 M 432.5 375.5 L 432.5 27.5 M 445.5 375.5 L 445.5 27.5" stroke-linejoin="bevel" stroke-miterlimit="10" clip-path="url(#TVXxxDdbmXvV)"/><path fill="none" stroke="#e5e5e5" paint-order="fill" d="M 5.5 321.5 L 535.5 321.5 M 5.5 267.5 L 535.5 267.5 M 5.5 213.5 L 535.5 213.5 M 5.5 159.5 L 535.5 159.5 M 5.5 105.5 L 535.5 105.5 M 5.5 51.5 L 535.5 51.5 M 5.5 -2.5 L 535.5 -2.5 M 5.5 -57.5 L 535.5 -57.5" stroke-linejoin="bevel" stroke-miterlimit="10" clip-path="url(#wMFTDEilAFZV)"/><path fill="none" stroke="#00441b" paint-order="fill" d="M 14.117886543273926 330.39215087890625 L 18.426828384399414 225.79017639160156 L 22.73577308654785 348.33697509765625 L 27.044715881347656 335.039306640625 L 31.35365867614746 231.97076416015625 L 35.662601470947266 348.3954772949219 L 39.9715461730957 334.0326232910156 L 44.280487060546875 226.83197021484375 L 48.58943176269531 347.3595275878906 L 52.898372650146484 331.32275390625 L 57.20731735229492 213.82696533203125 L 61.51626205444336 347.6170654296875 L 65.82520294189453 334.2784423828125 L 70.13414764404297 248.37628173828125 L 74.4430923461914 348.0677185058594 L 78.75202941894531 331.48663330078125 L 83.06097412109375 242.71658325195312 L 87.36991882324219 348.0735778808594 L 91.67886352539062 335.3787841796875 L 95.98780822753906 237.77679443359375 L 100.29674530029297 346.91473388671875 L 104.6056900024414 334.9456481933594 L 108.91463470458984 231.4498748779297 L 113.22357940673828 346.2943115234375 L 117.53252410888672 333.7575378417969 L 121.84146118164062 248.78013610839844 L 126.15040588378906 350.83612060546875 L 130.4593505859375 335.2265930175781 L 134.76829528808594 254.80856323242188 L 139.07723999023438 350.9239196777344 L 143.3861846923828 332.6747741699219 L 147.69512939453125 258.4607238769531 L 152.00405883789062 350.8009948730469 L 156.31300354003906 331.6739196777344 L 160.6219482421875 248.001708984375 L 164.93089294433594 348.22576904296875 L 169.23983764648438 334.0618896484375 L 173.5487823486328 239.62628173828125 L 177.85772705078125 344.5443115234375 L 182.1666717529297 323.4858093261719 L 186.47561645507812 208.17311096191406 L 190.7845458984375 335.1680603027344 L 195.09349060058594 310.50421142578125 L 199.40243530273438 167.96409606933594 L 203.7113800048828 339.3352966308594 L 208.02032470703125 311.3118896484375 L 212.3292694091797 189.39134216308594 L 216.63821411132812 338.2408142089844 L 220.94715881347656 295.9013671875 L 225.256103515625 156.21743774414062 L 229.56504821777344 342.255859375 L 233.8739776611328 321.74749755859375 L 238.18292236328125 205.0945281982422 L 242.4918670654297 344.43310546875 L 246.80081176757812 309.5852966308594 L 251.10975646972656 221.3888397216797 L 255.418701171875 344.7901306152344 L 259.7276306152344 328.6011962890625 L 264.0365905761719 223.42562866210938 L 268.34552001953125 343.8653869628906 L 272.65447998046875 331.6797790527344 L 276.9634094238281 226.3052215576172 L 281.2723693847656 344.1931457519531 L 285.581298828125 334.7466735839844 L 289.8902587890625 257.6471862792969 L 294.1991882324219 347.6463317871094 L 298.50811767578125 335.5719299316406 L 302.81707763671875 263.6697692871094 L 307.1260070800781 347.4005126953125 L 311.4349670410156 337.94818115234375 L 315.743896484375 246.6438446044922 L 320.0528564453125 351.1287536621094 L 324.3617858886719 336.1689147949219 L 328.6707458496094 241.92059326171875 L 332.97967529296875 349.1387939453125 L 337.2886047363281 341.7993469238281 L 341.5975646972656 263.8746032714844 L 345.906494140625 348.12042236328125 L 350.2154541015625 337.49749755859375 L 354.5243835449219 264.9339599609375 L 358.8333435058594 349.2909851074219 L 363.14227294921875 340.1546936035156 L 367.45123291015625 284.0669250488281 L 371.7601623535156 355.8988342285156 L 376.069091796875 349.7123718261719 L 380.3780517578125 297.4991760253906 L 384.6869812011719 355.9983215332031 L 388.9959411621094 347.505859375 L 393.30487060546875 313.612060546875 L 397.61383056640625 357.5844421386719 L 401.9227600097656 350.4908142089844 L 406.2317199707031 290.8796081542969 L 410.5406494140625 360.19482421875 L 414.8495788574219 345.8787841796875 L 419.1585388183594 192.3411865234375 L 423.46746826171875 360.2299499511719 L 427.77642822265625 366.69146728515625 L 432.0853576660156 370.75335693359375 L 436.3943176269531 366.3929748535156 L 440.7032470703125 366.8553466796875 L 445.01220703125 372.222412109375 L 449.3211364746094 367.18310546875 L 453.6300964355469 365.0409851074219 L 457.93902587890625 371.9005126953125 L 462.2479553222656 365.5501708984375 L 466.5569152832031 366.1354675292969 L 470.8658447265625 371.3678894042969 L 475.1748046875 365.0351257324219 L 479.4837341308594 366.960693359375 L 483.7926940917969 372.45068359375 L 488.10162353515625 365.82525634765625 L 492.41058349609375 368.77508544921875 L 496.7195129394531 374.90301513671875 L 501.0284423828125 374.7098693847656 L 505.33740234375 374.79180908203125 L 509.6463317871094 374.6571960449219 L 513.9552612304688 375.0844421386719 L 518.2642211914062 375.0376281738281 L 522.5731811523438 375.2424621582031 L 526.8821411132812 375.1605224609375 L 531.1910400390625 375.0961608886719 L 535.5 375.21905517578125 L 539.8089599609375 374.9381408691406 L 544.1178588867188 375.1839599609375 L 548.4268188476562 375.1371154785156 L 552.7357788085938 375.1488342285156 L 557.0447387695312 375.1371154785156 L 561.3536376953125 375.12542724609375 L 565.66259765625 375.23663330078125 L 569.9715576171875 375.3185729980469 L 574.280517578125 375.3653869628906 L 578.5894165039062 375.3887939453125 L 582.8983764648438 375.3127136230469 L 587.2073364257812 375.2424621582031 L 591.5162353515625 375.4005126953125 L 595.8251953125 375.3829345703125 L 600.1341552734375 375.494140625 L 604.443115234375 375.494140625 L 608.7520141601562 375.494140625 L 613.0609741210938 375.48828125 L 617.3699340820312 375.45318603515625 L 621.6788330078125 375.494140625 L 630.2967529296875 375.4765930175781 L 634.605712890625 375.4063415527344 L 638.9146118164062 375.494140625 L 643.2235717773438 375.4765930175781 L 647.5325317382812 375.494140625 L 656.150390625 375.494140625 L 664.768310546875 375.494140625 L 677.6951293945312 375.494140625 L 682.0040893554688 375.45318603515625 L 686.31298828125 375.48828125 L 690.6219482421875 375.494140625 L 694.930908203125 375.4824523925781 L 699.2398071289062 375.494140625 L 703.5487670898438 375.4590148925781 L 746.63818359375 375.494140625" stroke-linejoin="bevel" stroke-miterlimit="10" stroke-width="2" clip-path="url(#nkTCLqZcIVJO)"/><path fill="none" stroke="black" paint-order="fill" d="M 5.5 375.5 L 535.5 375.5" stroke-linejoin="bevel" stroke-miterlimit="10"/><path fill="none" stroke="black" paint-order="fill" d="M 57.5 381.5 L 57.5 373.5 M 121.5 381.5 L 121.5 373.5 M 186.5 381.5 L 186.5 373.5 M 251.5 381.5 L 251.5 373.5 M 315.5 381.5 L 315.5 373.5 M 380.5 381.5 L 380.5 373.5" stroke-linejoin="bevel" stroke-miterlimit="10"/><path fill="none" stroke="black" paint-order="fill" d="M 57.5 379.5 L 57.5 375.5 M 70.5 379.5 L 70.5 375.5 M 83.5 379.5 L 83.5 375.5 M 95.5 379.5 L 95.5 375.5 M 108.5 379.5 L 108.5 375.5 M 121.5 379.5 L 121.5 375.5 M 134.5 379.5 L 134.5 375.5 M 147.5 379.5 L 147.5 375.5 M 160.5 379.5 L 160.5 375.5 M 173.5 379.5 L 173.5 375.5 M 186.5 379.5 L 186.5 375.5 M 199.5 379.5 L 199.5 375.5 M 212.5 379.5 L 212.5 375.5 M 225.5 379.5 L 225.5 375.5 M 238.5 379.5 L 238.5 375.5 M 251.5 379.5 L 251.5 375.5 M 264.5 379.5 L 264.5 375.5 M 276.5 379.5 L 276.5 375.5 M 289.5 379.5 L 289.5 375.5 M 302.5 379.5 L 302.5 375.5 M 315.5 379.5 L 315.5 375.5 M 328.5 379.5 L 328.5 375.5 M 341.5 379.5 L 341.5 375.5 M 354.5 379.5 L 354.5 375.5 M 367.5 379.5 L 367.5 375.5 M 380.5 379.5 L 380.5 375.5 M 393.5 379.5 L 393.5 375.5 M 406.5 379.5 L 406.5 375.5 M 419.5 379.5 L 419.5 375.5 M 432.5 379.5 L 432.5 375.5" stroke-linejoin="bevel" stroke-miterlimit="10"/><text fill="#444444" stroke="none" font-family="helvetica" font-size="11px" font-style="normal" font-weight="normal" text-decoration="normal" x="47.37772750854492" y="393.89013671875" text-anchor="start" dominant-baseline="alphabetic" transform="matrix(1, 0, 0, 1, 0.5, 0.5)">−90</text><text fill="none" stroke="rgb(0 0 0 / 0)" font-family="helvetica" font-size="11px" font-style="normal" font-weight="normal" text-decoration="normal" x="47.37772750854492" y="393.89013671875" text-anchor="start" dominant-baseline="alphabetic" transform="matrix(1, 0, 0, 1, 0.5, 0.5)" stroke-linejoin="bevel" stroke-miterlimit="10">−90</text><text fill="#444444" stroke="none" font-family="helvetica" font-size="11px" font-style="normal" font-weight="normal" text-decoration="normal" x="112.01187133789062" y="393.89013671875" text-anchor="start" dominant-baseline="alphabetic" transform="matrix(1, 0, 0, 1, 0.5, 0.5)">−75</text><text fill="none" stroke="rgb(0 0 0 / 0)" font-family="helvetica" font-size="11px" font-style="normal" font-weight="normal" text-decoration="normal" x="112.01187133789062" y="393.89013671875" text-anchor="start" dominant-baseline="alphabetic" transform="matrix(1, 0, 0, 1, 0.5, 0.5)" stroke-linejoin="bevel" stroke-miterlimit="10">−75</text><text fill="#444444" stroke="none" font-family="helvetica" font-size="11px" font-style="normal" font-weight="normal" text-decoration="normal" x="176.64602661132812" y="393.89013671875" text-anchor="start" dominant-baseline="alphabetic" transform="matrix(1, 0, 0, 1, 0.5, 0.5)">−60</text><text fill="none" stroke="rgb(0 0 0 / 0)" font-family="helvetica" font-size="11px" font-style="normal" font-weight="normal" text-decoration="normal" x="176.64602661132812" y="393.89013671875" text-anchor="start" dominant-baseline="alphabetic" transform="matrix(1, 0, 0, 1, 0.5, 0.5)" stroke-linejoin="bevel" stroke-miterlimit="10">−60</text><text fill="#444444" stroke="none" font-family="helvetica" font-size="11px" font-style="normal" font-weight="normal" text-decoration="normal" x="241.28016662597656" y="393.89013671875" text-anchor="start" dominant-baseline="alphabetic" transform="matrix(1, 0, 0, 1, 0.5, 0.5)">−45</text><text fill="none" stroke="rgb(0 0 0 / 0)" font-family="helvetica" font-size="11px" font-style="normal" font-weight="normal" text-decoration="normal" x="241.28016662597656" y="393.89013671875" text-anchor="start" dominant-baseline="alphabetic" transform="matrix(1, 0, 0, 1, 0.5, 0.5)" stroke-linejoin="bevel" stroke-miterlimit="10">−45</text><text fill="#444444" stroke="none" font-family="helvetica" font-size="11px" font-style="normal" font-weight="normal" text-decoration="normal" x="305.914306640625" y="393.89013671875" text-anchor="start" dominant-baseline="alphabetic" transform="matrix(1, 0, 0, 1, 0.5, 0.5)">−30</text><text fill="none" stroke="rgb(0 0 0 / 0)" font-family="helvetica" font-size="11px" font-style="normal" font-weight="normal" text-decoration="normal" x="305.914306640625" y="393.89013671875" text-anchor="start" dominant-baseline="alphabetic" transform="matrix(1, 0, 0, 1, 0.5, 0.5)" stroke-linejoin="bevel" stroke-miterlimit="10">−30</text><text fill="#444444" stroke="none" font-family="helvetica" font-size="11px" font-style="normal" font-weight="normal" text-decoration="normal" x="370.5484619140625" y="393.89013671875" text-anchor="start" dominant-baseline="alphabetic" transform="matrix(1, 0, 0, 1, 0.5, 0.5)">−15</text><text fill="none" stroke="rgb(0 0 0 / 0)" font-family="helvetica" font-size="11px" font-style="normal" font-weight="normal" text-decoration="normal" x="370.5484619140625" y="393.89013671875" text-anchor="start" dominant-baseline="alphabetic" transform="matrix(1, 0, 0, 1, 0.5, 0.5)" stroke-linejoin="bevel" stroke-miterlimit="10">−15</text><text fill="#444444" stroke="none" font-family="helvetica" font-size="13px" font-style="italic" font-weight="normal" text-decoration="normal" x="210.75732421875" y="413.89013671875" text-anchor="start" dominant-baseline="alphabetic" transform="matrix(1, 0, 0, 1, 0.5, 0.5)">pSite from CDS stop</text><text fill="none" stroke="rgb(0 0 0 / 0)" font-family="helvetica" font-size="13px" font-style="italic" font-weight="normal" text-decoration="normal" x="210.75732421875" y="413.89013671875" text-anchor="start" dominant-baseline="alphabetic" transform="matrix(1, 0, 0, 1, 0.5, 0.5)" stroke-linejoin="bevel" stroke-miterlimit="10">pSite from CDS stop</text><path fill="none" stroke="black" paint-order="fill" d="M 535.5 375.5 L 535.5 27.5" stroke-linejoin="bevel" stroke-miterlimit="10"/><path fill="none" stroke="black" paint-order="fill" d="M 541.5 375.5 L 533.5 375.5 M 541.5 321.5 L 533.5 321.5 M 541.5 267.5 L 533.5 267.5 M 541.5 213.5 L 533.5 213.5 M 541.5 159.5 L 533.5 159.5 M 541.5 105.5 L 533.5 105.5 M 541.5 51.5 L 533.5 51.5" stroke-linejoin="bevel" stroke-miterlimit="10"/><path fill="none" stroke="black" paint-order="fill" d="" stroke-linejoin="bevel" stroke-miterlimit="10"/><text fill="#444444" stroke="none" font-family="helvetica" font-size="11px" font-style="normal" font-weight="normal" text-decoration="normal" x="546" y="378.945068359375" text-anchor="start" dominant-baseline="alphabetic" transform="matrix(1, 0, 0, 1, 0.5, 0.5)">0</text><text fill="none" stroke="rgb(0 0 0 / 0)" font-family="helvetica" font-size="11px" font-style="normal" font-weight="normal" text-decoration="normal" x="546" y="378.945068359375" text-anchor="start" dominant-baseline="alphabetic" transform="matrix(1, 0, 0, 1, 0.5, 0.5)" stroke-linejoin="bevel" stroke-miterlimit="10">0</text><text fill="#444444" stroke="none" font-family="helvetica" font-size="11px" font-style="normal" font-weight="normal" text-decoration="normal" x="546" y="324.8770751953125" text-anchor="start" dominant-baseline="alphabetic" transform="matrix(1, 0, 0, 1, 0.5, 0.5)">0.001</text><text fill="none" stroke="rgb(0 0 0 / 0)" font-family="helvetica" font-size="11px" font-style="normal" font-weight="normal" text-decoration="normal" x="546" y="324.8770751953125" text-anchor="start" dominant-baseline="alphabetic" transform="matrix(1, 0, 0, 1, 0.5, 0.5)" stroke-linejoin="bevel" stroke-miterlimit="10">0.001</text><text fill="#444444" stroke="none" font-family="helvetica" font-size="11px" font-style="normal" font-weight="normal" text-decoration="normal" x="546" y="270.8091125488281" text-anchor="start" dominant-baseline="alphabetic" transform="matrix(1, 0, 0, 1, 0.5, 0.5)">0.002</text><text fill="none" stroke="rgb(0 0 0 / 0)" font-family="helvetica" font-size="11px" font-style="normal" font-weight="normal" text-decoration="normal" x="546" y="270.8091125488281" text-anchor="start" dominant-baseline="alphabetic" transform="matrix(1, 0, 0, 1, 0.5, 0.5)" stroke-linejoin="bevel" stroke-miterlimit="10">0.002</text><text fill="#444444" stroke="none" font-family="helvetica" font-size="11px" font-style="normal" font-weight="normal" text-decoration="normal" x="546" y="216.74111938476562" text-anchor="start" dominant-baseline="alphabetic" transform="matrix(1, 0, 0, 1, 0.5, 0.5)">0.003</text><text fill="none" stroke="rgb(0 0 0 / 0)" font-family="helvetica" font-size="11px" font-style="normal" font-weight="normal" text-decoration="normal" x="546" y="216.74111938476562" text-anchor="start" dominant-baseline="alphabetic" transform="matrix(1, 0, 0, 1, 0.5, 0.5)" stroke-linejoin="bevel" stroke-miterlimit="10">0.003</text><text fill="#444444" stroke="none" font-family="helvetica" font-size="11px" font-style="normal" font-weight="normal" text-decoration="normal" x="546" y="162.6731414794922" text-anchor="start" dominant-baseline="alphabetic" transform="matrix(1, 0, 0, 1, 0.5, 0.5)">0.004</text><text fill="none" stroke="rgb(0 0 0 / 0)" font-family="helvetica" font-size="11px" font-style="normal" font-weight="normal" text-decoration="normal" x="546" y="162.6731414794922" text-anchor="start" dominant-baseline="alphabetic" transform="matrix(1, 0, 0, 1, 0.5, 0.5)" stroke-linejoin="bevel" stroke-miterlimit="10">0.004</text><text fill="#444444" stroke="none" font-family="helvetica" font-size="11px" font-style="normal" font-weight="normal" text-decoration="normal" x="546" y="108.60516357421875" text-anchor="start" dominant-baseline="alphabetic" transform="matrix(1, 0, 0, 1, 0.5, 0.5)">0.005</text><text fill="none" stroke="rgb(0 0 0 / 0)" font-family="helvetica" font-size="11px" font-style="normal" font-weight="normal" text-decoration="normal" x="546" y="108.60516357421875" text-anchor="start" dominant-baseline="alphabetic" transform="matrix(1, 0, 0, 1, 0.5, 0.5)" stroke-linejoin="bevel" stroke-miterlimit="10">0.005</text><text fill="#444444" stroke="none" font-family="helvetica" font-size="11px" font-style="normal" font-weight="normal" text-decoration="normal" x="546" y="54.53718185424805" text-anchor="start" dominant-baseline="alphabetic" transform="matrix(1, 0, 0, 1, 0.5, 0.5)">0.006</text><text fill="none" stroke="rgb(0 0 0 / 0)" font-family="helvetica" font-size="11px" font-style="normal" font-weight="normal" text-decoration="normal" x="546" y="54.53718185424805" text-anchor="start" dominant-baseline="alphabetic" transform="matrix(1, 0, 0, 1, 0.5, 0.5)" stroke-linejoin="bevel" stroke-miterlimit="10">0.006</text><text fill="#444444" stroke="none" font-family="helvetica" font-size="13px" font-style="italic" font-weight="normal" text-decoration="normal" x="550.81689453125" y="198" text-anchor="start" dominant-baseline="alphabetic" transform="matrix(6.123233995736766e-17, 1, -1, 6.123233995736766e-17, 783.02685546875, -380.02685546875)">Frequency</text><text fill="none" stroke="rgb(0 0 0 / 0)" font-family="helvetica" font-size="13px" font-style="italic" font-weight="normal" text-decoration="normal" x="550.81689453125" y="198" text-anchor="start" dominant-baseline="alphabetic" transform="matrix(6.123233995736766e-17, 1, -1, 6.123233995736766e-17, 783.02685546875, -380.02685546875)" stroke-linejoin="bevel" stroke-miterlimit="10">Frequency</text><path fill="none" stroke="red" paint-order="fill" d="M 445.0121951219512 27.5 L 445.0121951219512 375.5" stroke-linejoin="bevel" stroke-miterlimit="10" stroke-width="3" stroke-dasharray="6" clip-path="url(#zLudJITmUcKb)"/></svg>