<svg version="1.1" xmlns="http://www.w3.org/2000/svg" width="1200" height="600"><defs><clipPath id="bpHhUCOufGzW"><path fill="none" stroke="none" d="M 0.5 0.5 L 1200.5 0.5 L 1200.5 600.5 L 0.5 600.5 L 0.5 0.5 Z M 74.5 27.5 L 1195.5 27.5 L 1195.5 525.5 L 74.5 525.5 L 74.5 27.5 Z" clip-rule="evenodd"/></clipPath><clipPath id="LDvklOtRStIG"><path fill="none" stroke="none" d="M 74.5 27.5 L 1195.5 27.5 L 1195.5 525.5 L 74.5 525.5 L 74.5 27.5 Z"/></clipPath><clipPath id="AOMacDtKcJDd"><path fill="none" stroke="none" d="M 74.5 27.5 L 1195.5 27.5 L 1195.5 525.5 L 74.5 525.5 L 74.5 27.5 Z"/></clipPath><clipPath id="rBxTWrQIxkKG"><path fill="none" stroke="none" d="M 74.5 27.5 L 1195.5 27.5 L 1195.5 525.5 L 74.5 525.5 L 74.5 27.5 Z"/></clipPath><clipPath id="FCAtgyEmHRPb"><path fill="none" stroke="none" d="M 74.5 27.5 L 1195.5 27.5 L 1195.5 525.5 L 74.5 525.5 L 74.5 27.5 Z"/></clipPath></defs><path fill="rgb(255,255,255)" stroke="none" paint-order="stroke" d="M 0.5 0.5 L 1200.5 0.5 L 1200.5 600.5 L 0.5 600.5 L 0.5 0.5 Z" fill-opacity="1" clip-path="url(#bpHhUCOufGzW)"/><path fill="rgb(255,255,255)" stroke="none" paint-order="stroke" d="M 74.5 27.5 L 1195.5 27.5 L 1195.5 525.5 L 74.5 525.5 L 74.5 27.5 Z" fill-opacity="1"/><path fill="none" stroke="rgb(229,229,229)" paint-order="fill" d="M 74.5 27.5 L 1195.5 27.5 L 1195.5 525.5 L 74.5 525.5 L 74.5 27.5 Z" stroke-opacity="1" stroke-linejoin="bevel" stroke-miterlimit="10"/><path fill="none" stroke="rgb(229,229,229)" paint-order="fill" d="M 318.5 525.5 L 318.5 27.5 M 635.5 525.5 L 635.5 27.5 M 951.5 525.5 L 951.5 27.5" stroke-opacity="1" stroke-linejoin="bevel" stroke-miterlimit="10" clip-path="url(#LDvklOtRStIG)"/><path fill="none" stroke="rgb(229,229,229)" paint-order="fill" d="M 74.5 416.5 L 1195.5 416.5 M 74.5 276.5 L 1195.5 276.5 M 74.5 136.5 L 1195.5 136.5" stroke-opacity="1" stroke-linejoin="bevel" stroke-miterlimit="10" clip-path="url(#AOMacDtKcJDd)"/><path fill="rgb(119,170,221)" stroke="rgb(119,170,221)" paint-order="fill" d="M 504.0344543457031 291.1136474609375 A 8 8 0 0 1 488.0344543457031 291.1136474609375 A 8 8 0 0 1 504.0344543457031 291.1136474609375" fill-opacity="0.8" clip-path="url(#rBxTWrQIxkKG)" stroke-opacity="0.8" stroke-linejoin="bevel" stroke-miterlimit="10"/><path fill="rgb(238,136,102)" stroke="rgb(238,136,102)" paint-order="fill" d="M 630.3821411132812 239.86293029785156 A 8 8 0 0 1 614.3821411132812 239.86293029785156 A 8 8 0 0 1 630.3821411132812 239.86293029785156" fill-opacity="0.8" clip-path="url(#rBxTWrQIxkKG)" stroke-opacity="0.8" stroke-linejoin="bevel" stroke-miterlimit="10"/><path fill="rgb(119,170,221)" stroke="rgb(119,170,221)" paint-order="fill" d="M 1110.0833740234375 289.6568908691406 A 8 8 0 0 1 1094.0833740234375 289.6568908691406 A 8 8 0 0 1 1110.0833740234375 289.6568908691406" fill-opacity="0.8" clip-path="url(#rBxTWrQIxkKG)" stroke-opacity="0.8" stroke-linejoin="bevel" stroke-miterlimit="10"/><path fill="rgb(238,136,102)" stroke="rgb(238,136,102)" paint-order="fill" d="M 635.5753173828125 260.55615234375 A 8 8 0 0 1 619.5753173828125 260.55615234375 A 8 8 0 0 1 635.5753173828125 260.55615234375" fill-opacity="0.8" clip-path="url(#rBxTWrQIxkKG)" stroke-opacity="0.8" stroke-linejoin="bevel" stroke-miterlimit="10"/><path fill="rgb(119,170,221)" stroke="rgb(119,170,221)" paint-order="fill" d="M 465.96929931640625 307.89990234375 A 8 8 0 0 1 449.96929931640625 307.89990234375 A 8 8 0 0 1 465.96929931640625 307.89990234375" fill-opacity="0.8" clip-path="url(#rBxTWrQIxkKG)" stroke-opacity="0.8" stroke-linejoin="bevel" stroke-miterlimit="10"/><path fill="rgb(238,136,102)" stroke="rgb(238,136,102)" paint-order="fill" d="M 511.9554138183594 269.9104919433594 A 8 8 0 0 1 495.9554138183594 269.9104919433594 A 8 8 0 0 1 511.9554138183594 269.9104919433594" fill-opacity="0.8" clip-path="url(#rBxTWrQIxkKG)" stroke-opacity="0.8" stroke-linejoin="bevel" stroke-miterlimit="10"/><path fill="none" stroke="rgb(0,0,0)" paint-order="fill" d="M 74.5 525.5 L 1195.5 525.5" stroke-opacity="1" stroke-linejoin="bevel" stroke-miterlimit="10"/><path fill="none" stroke="rgb(0,0,0)" paint-order="fill" d="M 318.5 531.5 L 318.5 523.5 M 635.5 531.5 L 635.5 523.5 M 951.5 531.5 L 951.5 523.5" stroke-opacity="1" stroke-linejoin="bevel" stroke-miterlimit="10"/><path fill="none" stroke="rgb(0,0,0)" paint-order="fill" d="M 255.5 529.5 L 255.5 525.5 M 192.5 529.5 L 192.5 525.5 M 129.5 529.5 L 129.5 525.5 M 318.5 529.5 L 318.5 525.5 M 382.5 529.5 L 382.5 525.5 M 445.5 529.5 L 445.5 525.5 M 508.5 529.5 L 508.5 525.5 M 571.5 529.5 L 571.5 525.5 M 635.5 529.5 L 635.5 525.5 M 698.5 529.5 L 698.5 525.5 M 761.5 529.5 L 761.5 525.5 M 824.5 529.5 L 824.5 525.5 M 887.5 529.5 L 887.5 525.5 M 951.5 529.5 L 951.5 525.5 M 1014.5 529.5 L 1014.5 525.5 M 1077.5 529.5 L 1077.5 525.5 M 1140.5 529.5 L 1140.5 525.5" stroke-opacity="1" stroke-linejoin="bevel" stroke-miterlimit="10"/><text fill="rgb(68,68,68)" stroke="none" font-family="helvetica" font-size="11px" font-style="normal" font-weight="normal" text-decoration="normal" x="299.8036804199219" y="543.875" text-anchor="start" dominant-baseline="alphabetic" transform="matrix(1, 0, 0, 1, 0.5, 0.5)" fill-opacity="1">−50000</text><text fill="none" stroke="rgb(0,0,0)" font-family="helvetica" font-size="11px" font-style="normal" font-weight="normal" text-decoration="normal" x="299.8036804199219" y="543.875" text-anchor="start" dominant-baseline="alphabetic" transform="matrix(1, 0, 0, 1, 0.5, 0.5)" stroke-opacity="0" stroke-linejoin="bevel" stroke-miterlimit="10">−50000</text><text fill="rgb(68,68,68)" stroke="none" font-family="helvetica" font-size="11px" font-style="normal" font-weight="normal" text-decoration="normal" x="631.441162109375" y="543.875" text-anchor="start" dominant-baseline="alphabetic" transform="matrix(1, 0, 0, 1, 0.5, 0.5)" fill-opacity="1">0</text><text fill="none" stroke="rgb(0,0,0)" font-family="helvetica" font-size="11px" font-style="normal" font-weight="normal" text-decoration="normal" x="631.441162109375" y="543.875" text-anchor="start" dominant-baseline="alphabetic" transform="matrix(1, 0, 0, 1, 0.5, 0.5)" stroke-opacity="0" stroke-linejoin="bevel" stroke-miterlimit="10">0</text><text fill="rgb(68,68,68)" stroke="none" font-family="helvetica" font-size="11px" font-style="normal" font-weight="normal" text-decoration="normal" x="935.39599609375" y="543.875" text-anchor="start" dominant-baseline="alphabetic" transform="matrix(1, 0, 0, 1, 0.5, 0.5)" fill-opacity="1">50000</text><text fill="none" stroke="rgb(0,0,0)" font-family="helvetica" font-size="11px" font-style="normal" font-weight="normal" text-decoration="normal" x="935.39599609375" y="543.875" text-anchor="start" dominant-baseline="alphabetic" transform="matrix(1, 0, 0, 1, 0.5, 0.5)" stroke-opacity="0" stroke-linejoin="bevel" stroke-miterlimit="10">50000</text><text fill="rgb(68,68,68)" stroke="none" font-family="helvetica" font-size="13px" font-style="italic" font-weight="normal" text-decoration="normal" x="598.004150390625" y="563.875" text-anchor="start" dominant-baseline="alphabetic" transform="matrix(1, 0, 0, 1, 0.5, 0.5)" fill-opacity="1">PC1 92.48%</text><text fill="none" stroke="rgb(0,0,0)" font-family="helvetica" font-size="13px" font-style="italic" font-weight="normal" text-decoration="normal" x="598.004150390625" y="563.875" text-anchor="start" dominant-baseline="alphabetic" transform="matrix(1, 0, 0, 1, 0.5, 0.5)" stroke-opacity="0" stroke-linejoin="bevel" stroke-miterlimit="10">PC1 92.48%</text><path fill="none" stroke="rgb(0,0,0)" paint-order="fill" d="M 74.5 525.5 L 74.5 27.5" stroke-opacity="1" stroke-linejoin="bevel" stroke-miterlimit="10"/><path fill="none" stroke="rgb(0,0,0)" paint-order="fill" d="M 68.5 416.5 L 76.5 416.5 M 68.5 276.5 L 76.5 276.5 M 68.5 136.5 L 76.5 136.5" stroke-opacity="1" stroke-linejoin="bevel" stroke-miterlimit="10"/><path fill="none" stroke="rgb(0,0,0)" paint-order="fill" d="M 70.5 445.5 L 74.5 445.5 M 70.5 473.5 L 74.5 473.5 M 70.5 501.5 L 74.5 501.5 M 70.5 416.5 L 74.5 416.5 M 70.5 388.5 L 74.5 388.5 M 70.5 360.5 L 74.5 360.5 M 70.5 332.5 L 74.5 332.5 M 70.5 304.5 L 74.5 304.5 M 70.5 276.5 L 74.5 276.5 M 70.5 248.5 L 74.5 248.5 M 70.5 220.5 L 74.5 220.5 M 70.5 192.5 L 74.5 192.5 M 70.5 164.5 L 74.5 164.5 M 70.5 136.5 L 74.5 136.5 M 70.5 107.5 L 74.5 107.5 M 70.5 79.5 L 74.5 79.5 M 70.5 51.5 L 74.5 51.5" stroke-opacity="1" stroke-linejoin="bevel" stroke-miterlimit="10"/><text fill="rgb(68,68,68)" stroke="none" font-family="helvetica" font-size="11px" font-style="normal" font-weight="normal" text-decoration="normal" x="25.98779296875" y="420.40380859375" text-anchor="start" dominant-baseline="alphabetic" transform="matrix(1, 0, 0, 1, 0.5, 0.5)" fill-opacity="1">−50000</text><text fill="none" stroke="rgb(0,0,0)" font-family="helvetica" font-size="11px" font-style="normal" font-weight="normal" text-decoration="normal" x="25.98779296875" y="420.40380859375" text-anchor="start" dominant-baseline="alphabetic" transform="matrix(1, 0, 0, 1, 0.5, 0.5)" stroke-opacity="0" stroke-linejoin="bevel" stroke-miterlimit="10">−50000</text><text fill="rgb(68,68,68)" stroke="none" font-family="helvetica" font-size="11px" font-style="normal" font-weight="normal" text-decoration="normal" x="56.88232421875" y="279.9375" text-anchor="start" dominant-baseline="alphabetic" transform="matrix(1, 0, 0, 1, 0.5, 0.5)" fill-opacity="1">0</text><text fill="none" stroke="rgb(0,0,0)" font-family="helvetica" font-size="11px" font-style="normal" font-weight="normal" text-decoration="normal" x="56.88232421875" y="279.9375" text-anchor="start" dominant-baseline="alphabetic" transform="matrix(1, 0, 0, 1, 0.5, 0.5)" stroke-opacity="0" stroke-linejoin="bevel" stroke-miterlimit="10">0</text><text fill="rgb(68,68,68)" stroke="none" font-family="helvetica" font-size="11px" font-style="normal" font-weight="normal" text-decoration="normal" x="32.41162109375" y="139.47120666503906" text-anchor="start" dominant-baseline="alphabetic" transform="matrix(1, 0, 0, 1, 0.5, 0.5)" fill-opacity="1">50000</text><text fill="none" stroke="rgb(0,0,0)" font-family="helvetica" font-size="11px" font-style="normal" font-weight="normal" text-decoration="normal" x="32.41162109375" y="139.47120666503906" text-anchor="start" dominant-baseline="alphabetic" transform="matrix(1, 0, 0, 1, 0.5, 0.5)" stroke-opacity="0" stroke-linejoin="bevel" stroke-miterlimit="10">50000</text><text fill="rgb(68,68,68)" stroke="none" font-family="helvetica" font-size="13px" font-style="italic" font-weight="normal" text-decoration="normal" x="-14.89306640625" y="273" text-anchor="start" dominant-baseline="alphabetic" transform="matrix(6.123233995736766e-17, -1, 1, 6.123233995736766e-17, -257.51220703125, 294.48779296875)" fill-opacity="1">PC2 4.93%</text><text fill="none" stroke="rgb(0,0,0)" font-family="helvetica" font-size="13px" font-style="italic" font-weight="normal" text-decoration="normal" x="-14.89306640625" y="273" text-anchor="start" dominant-baseline="alphabetic" transform="matrix(6.123233995736766e-17, -1, 1, 6.123233995736766e-17, -257.51220703125, 294.48779296875)" stroke-opacity="0" stroke-linejoin="bevel" stroke-miterlimit="10">PC2 4.93%</text><path fill="rgb(255,255,255)" stroke="rgb(229,229,229)" paint-order="fill" d="M 1081.5 37.5 L 1185.5 37.5 L 1185.5 100.5 L 1081.5 100.5 L 1081.5 37.5 Z" fill-opacity="0.9490196078431372" clip-path="url(#FCAtgyEmHRPb)" stroke-opacity="0.5019607843137255" stroke-linejoin="bevel" stroke-miterlimit="10"/><path fill="rgb(119,170,221)" stroke="rgb(119,170,221)" paint-order="fill" d="M 1105.5 57.5 A 4 4 0 0 1 1097.5 57.5 A 4 4 0 0 1 1105.5 57.5" fill-opacity="0.8" clip-path="url(#FCAtgyEmHRPb)" stroke-opacity="0.8" stroke-linejoin="bevel" stroke-miterlimit="10"/><g clip-path="url(#FCAtgyEmHRPb)"><text fill="rgb(68,68,68)" stroke="none" font-family="helvetica" font-size="13px" font-style="normal" font-weight="normal" text-decoration="normal" x="0" y="4.5" text-anchor="start" dominant-baseline="alphabetic" transform="matrix(1, 0, 0, 1, 1116.5, 57.5)" fill-opacity="1">Control</text></g><g clip-path="url(#FCAtgyEmHRPb)"><text fill="none" stroke="rgb(0,0,0)" font-family="helvetica" font-size="13px" font-style="normal" font-weight="normal" text-decoration="normal" x="0" y="4.5" text-anchor="start" dominant-baseline="alphabetic" transform="matrix(1, 0, 0, 1, 1116.5, 57.5)" stroke-opacity="0" stroke-linejoin="bevel" stroke-miterlimit="10">Control</text></g><path fill="rgb(238,136,102)" stroke="rgb(238,136,102)" paint-order="fill" d="M 1105.5 80.5 A 4 4 0 0 1 1097.5 80.5 A 4 4 0 0 1 1105.5 80.5" fill-opacity="0.8" clip-path="url(#FCAtgyEmHRPb)" stroke-opacity="0.8" stroke-linejoin="bevel" stroke-miterlimit="10"/><g clip-path="url(#FCAtgyEmHRPb)"><text fill="rgb(68,68,68)" stroke="none" font-family="helvetica" font-size="13px" font-style="normal" font-weight="normal" text-decoration="normal" x="0" y="4.5" text-anchor="start" dominant-baseline="alphabetic" transform="matrix(1, 0, 0, 1, 1116.5, 80.5)" fill-opacity="1">Treatment</text></g><g clip-path="url(#FCAtgyEmHRPb)"><text fill="none" stroke="rgb(0,0,0)" font-family="helvetica" font-size="13px" font-style="normal" font-weight="normal" text-decoration="normal" x="0" y="4.5" text-anchor="start" dominant-baseline="alphabetic" transform="matrix(1, 0, 0, 1, 1116.5, 80.5)" stroke-opacity="0" stroke-linejoin="bevel" stroke-miterlimit="10">Treatment</text></g><text fill="rgb(68,68,68)" stroke="none" font-family="helvetica" font-size="13px" font-style="normal" font-weight="bold" text-decoration="normal" x="0" y="12" text-anchor="start" dominant-baseline="alphabetic" transform="matrix(1, 0, 0, 1, 74.5, 7.5)" fill-opacity="1">PCA Plot</text><text fill="none" stroke="rgb(0,0,0)" font-family="helvetica" font-size="13px" font-style="normal" font-weight="bold" text-decoration="normal" x="0" y="12" text-anchor="start" dominant-baseline="alphabetic" transform="matrix(1, 0, 0, 1, 74.5, 7.5)" stroke-opacity="0" stroke-miterlimit="10" stroke-dasharray="">PCA Plot</text></svg>