<svg version="1.1" xmlns="http://www.w3.org/2000/svg" width="1200" height="600"><defs><clipPath id="txdipScLNSBW"><path fill="none" stroke="none" d="M 0.5 0.5 L 1200.5 0.5 L 1200.5 600.5 L 0.5 600.5 L 0.5 0.5 Z M 49.5 27.5 L 1170.5 27.5 L 1170.5 555.5 L 49.5 555.5 L 49.5 27.5 Z" clip-rule="evenodd"/></clipPath><clipPath id="pUtFzybxbXRc"><path fill="none" stroke="none" d="M 49.5 27.5 L 1170.5 27.5 L 1170.5 555.5 L 49.5 555.5 L 49.5 27.5 Z"/></clipPath><clipPath id="PTuImFIWsNXn"><path fill="none" stroke="none" d="M 49.5 27.5 L 1170.5 27.5 L 1170.5 555.5 L 49.5 555.5 L 49.5 27.5 Z"/></clipPath><clipPath id="OBZiuECEsObP"><path fill="none" stroke="none" d="M 49.5 27.5 L 1170.5 27.5 L 1170.5 555.5 L 49.5 555.5 L 49.5 27.5 Z"/></clipPath><clipPath id="oLvBfvmNrSMT"><path fill="none" stroke="none" d="M 49.5 27.5 L 1170.5 27.5 L 1170.5 555.5 L 49.5 555.5 L 49.5 27.5 Z"/></clipPath><clipPath id="OMwKlvyiCiiw"><path fill="none" stroke="none" d="M 49.5 27.5 L 1170.5 27.5 L 1170.5 555.5 L 49.5 555.5 L 49.5 27.5 Z"/></clipPath><clipPath id="xvHSQwAuGvnl"><path fill="none" stroke="none" d="M 49.5 27.5 L 1170.5 27.5 L 1170.5 555.5 L 49.5 555.5 L 49.5 27.5 Z"/></clipPath><clipPath id="iKoDTsQmzcBv"><path fill="none" stroke="none" d="M 49.5 27.5 L 1170.5 27.5 L 1170.5 555.5 L 49.5 555.5 L 49.5 27.5 Z"/></clipPath><clipPath id="umBMyeIAgBPf"><path fill="none" stroke="none" d="M 49.5 27.5 L 1170.5 27.5 L 1170.5 555.5 L 49.5 555.5 L 49.5 27.5 Z"/></clipPath><clipPath id="XAmCTNKPEIcl"><path fill="none" stroke="none" d="M 49.5 27.5 L 1170.5 27.5 L 1170.5 555.5 L 49.5 555.5 L 49.5 27.5 Z"/></clipPath></defs><path fill="rgb(255,255,255)" stroke="none" paint-order="stroke" d="M 0.5 0.5 L 1200.5 0.5 L 1200.5 600.5 L 0.5 600.5 L 0.5 0.5 Z" fill-opacity="1" clip-path="url(#txdipScLNSBW)"/><path fill="rgb(255,255,255)" stroke="none" paint-order="stroke" d="M 49.5 27.5 L 1170.5 27.5 L 1170.5 555.5 L 49.5 555.5 L 49.5 27.5 Z" fill-opacity="1"/><path fill="none" stroke="rgb(229,229,229)" paint-order="fill" d="M 49.5 27.5 L 1170.5 27.5 L 1170.5 555.5 L 49.5 555.5 L 49.5 27.5 Z" stroke-opacity="1" stroke-linejoin="bevel" stroke-miterlimit="10"/><path fill="none" stroke="rgb(229,229,229)" paint-order="fill" d="M 273.5 555.5 L 273.5 27.5 M 497.5 555.5 L 497.5 27.5 M 722.5 555.5 L 722.5 27.5 M 946.5 555.5 L 946.5 27.5" stroke-opacity="1" stroke-linejoin="bevel" stroke-miterlimit="10" clip-path="url(#pUtFzybxbXRc)"/><path fill="none" stroke="rgb(229,229,229)" paint-order="fill" d="M 49.5 531.5 L 1170.5 531.5 M 49.5 406.5 L 1170.5 406.5 M 49.5 280.5 L 1170.5 280.5 M 49.5 155.5 L 1170.5 155.5 M 49.5 29.5 L 1170.5 29.5" stroke-opacity="1" stroke-linejoin="bevel" stroke-miterlimit="10" clip-path="url(#PTuImFIWsNXn)"/><path fill="rgb(119,170,221)" stroke="none" paint-order="stroke" d="M 678.5055541992188 531.5 L 679.6038208007812 531.5 L 680.7021484375 531.5 L 681.8004150390625 531.5 L 682.898681640625 531.5 L 683.9970092773438 531.5 L 685.0952758789062 531.5 L 686.1935424804688 531.5 L 687.2918090820312 531.5 L 688.39013671875 531.5 L 689.4884033203125 531.5 L 690.586669921875 531.5 L 691.6849975585938 531.5 L 692.7832641601562 531.5 L 693.8815307617188 531.5 L 694.9798583984375 531.5 L 696.078125 531.5 L 697.1763916015625 531.5 L 698.2747192382812 531.5 L 699.3729858398438 531.5 L 700.4712524414062 531.5 L 701.569580078125 531.5 L 702.6678466796875 531.5 L 703.76611328125 531.5 L 704.8643798828125 531.5 L 705.9627075195312 531.5 L 707.0609741210938 531.5 L 708.1592407226562 531.5 L 709.257568359375 531.5 L 710.3558349609375 531.5 L 711.4541015625 531.5 L 712.5524291992188 531.5 L 713.6506958007812 531.5 L 714.7489624023438 531.5 L 715.8472900390625 531.5 L 716.945556640625 531.5 L 718.0438232421875 531.5 L 719.14208984375 531.5 L 720.2404174804688 531.5 L 721.3386840820312 531.5 L 722.4369506835938 531.5 L 723.5352783203125 531.5 L 724.633544921875 531.5 L 725.7318115234375 531.5 L 726.8301391601562 531.5 L 727.9284057617188 531.5 L 729.0266723632812 531.5 L 730.125 531.5 L 731.2232666015625 531.5 L 732.321533203125 531.5 L 733.4197998046875 531.5 L 734.5181274414062 531.5 L 735.6163940429688 531.5 L 736.7146606445312 531.5 L 737.81298828125 531.5 L 738.9112548828125 531.5 L 740.009521484375 531.5 L 741.1078491210938 531.5 L 742.2061157226562 531.5 L 743.3043823242188 531.5 L 744.4027099609375 531.5 L 745.5009765625 531.5 L 746.5992431640625 531.5 L 747.697509765625 531.5 L 748.7958374023438 531.5 L 749.8941040039062 531.5 L 750.9923706054688 531.5 L 752.0906982421875 531.5 L 753.18896484375 531.5 L 754.2872314453125 531.5 L 755.3855590820312 531.5 L 756.4838256835938 531.5 L 757.5820922851562 531.5 L 758.680419921875 531.5 L 759.7786865234375 531.5 L 760.876953125 531.5 L 761.9752807617188 531.5 L 763.0735473632812 531.5 L 764.1718139648438 531.5 L 765.2700805664062 531.5 L 766.368408203125 531.5 L 767.4666748046875 531.5 L 768.56494140625 531.5 L 769.6632690429688 531.5 L 770.7615356445312 531.5 L 771.8598022460938 531.5 L 772.9581298828125 531.5 L 774.056396484375 531.5 L 775.1546630859375 531.5 L 776.2529907226562 531.5 L 777.3512573242188 531.5 L 778.4495239257812 531.5 L 779.5477905273438 531.5 L 780.6461181640625 531.5 L 781.744384765625 531.5 L 782.8426513671875 531.5 L 783.9409790039062 531.5 L 785.0392456054688 531.5 L 786.1375122070312 531.5 L 787.23583984375 531.5 L 788.3341064453125 531.5 L 789.432373046875 531.5 L 790.5307006835938 531.5 L 791.6289672851562 531.5 L 792.7272338867188 531.5 L 793.8255004882812 531.5 L 794.923828125 531.5 L 796.0220947265625 531.5 L 797.120361328125 531.5 L 798.2186889648438 531.5 L 799.3169555664062 531.5 L 800.4152221679688 531.5 L 801.5135498046875 531.5 L 802.61181640625 531.5 L 803.7100830078125 531.5 L 804.8084106445312 531.5 L 805.9066772460938 531.5 L 807.0049438476562 531.5 L 808.1032104492188 531.5 L 809.2015380859375 531.5 L 810.2998046875 531.5 L 811.3980712890625 531.5 L 812.4963989257812 531.5 L 813.5946655273438 531.5 L 814.6929321289062 531.5 L 815.791259765625 531.5 L 816.8895263671875 531.5 L 817.98779296875 531.5 L 819.0861206054688 531.5 L 820.1843872070312 531.5 L 821.2826538085938 531.5 L 822.3809204101562 531.5 L 823.479248046875 531.5 L 824.5775146484375 531.5 L 825.67578125 531.5 L 826.7741088867188 531.5 L 827.8723754882812 531.5 L 828.9706420898438 531.5 L 830.0689697265625 531.5 L 831.167236328125 531.5 L 832.2655029296875 531.5 L 833.3638305664062 531.5 L 834.4620971679688 531.5 L 835.5603637695312 531.5 L 836.65869140625 531.5 L 837.7569580078125 531.5 L 838.855224609375 531.5 L 839.9534912109375 531.5 L 841.0518188476562 531.5 L 842.1500854492188 531.5 L 843.2483520507812 531.5 L 844.3466796875 531.5 L 845.4449462890625 531.5 L 846.543212890625 531.5 L 847.6415405273438 531.5 L 848.7398071289062 531.5 L 849.8380737304688 531.5 L 850.9364013671875 531.5 L 852.03466796875 531.5 L 853.1329345703125 531.5 L 854.231201171875 531.5 L 855.3295288085938 531.5 L 856.4277954101562 531.5 L 857.5260620117188 531.5 L 858.6243896484375 531.5 L 859.72265625 531.5 L 860.8209228515625 531.5 L 861.9192504882812 531.5 L 863.0175170898438 531.5 L 864.1157836914062 531.5 L 865.214111328125 531.5 L 866.3123779296875 531.5 L 867.41064453125 531.5 L 868.5089111328125 531.5 L 869.6072387695312 531.5 L 870.7055053710938 531.5 L 871.8037719726562 531.5 L 872.902099609375 531.5 L 874.0003662109375 531.5 L 875.0986328125 531.5 L 876.1969604492188 531.5 L 877.2952270507812 531.5 L 878.3934936523438 531.5 L 879.4918212890625 531.5 L 880.590087890625 531.5 L 881.6883544921875 531.5 L 882.78662109375 531.5 L 883.8849487304688 531.5 L 884.9832153320312 531.5 L 886.0814819335938 531.5 L 887.1798095703125 531.5 L 888.278076171875 531.5 L 889.3763427734375 531.5 L 890.4746704101562 531.5 L 891.5729370117188 531.5 L 892.6712036132812 531.5 L 893.76953125 531.5 L 894.8677978515625 531.5 L 895.966064453125 531.5 L 897.0643920898438 531.5 L 898.1626586914062 531.5 L 899.2609252929688 531.5 L 900.3591918945312 531.5 L 901.45751953125 531.5 L 902.5557861328125 531.5 L 903.654052734375 531.5 L 904.7523803710938 531.5 L 905.8506469726562 531.5 L 906.9489135742188 531.5 L 908.0472412109375 531.5 L 909.1455078125 531.5 L 910.2437744140625 531.5 L 911.3421020507812 531.5 L 912.4403686523438 531.5 L 913.5386352539062 531.5 L 914.6369018554688 531.5 L 915.7352294921875 531.5 L 916.83349609375 531.5 L 917.9317626953125 531.5 L 919.0300903320312 531.5 L 920.1283569335938 531.5 L 921.2266235351562 531.5 L 922.324951171875 531.5 L 923.4232177734375 531.5 L 924.521484375 531.5 L 925.6198120117188 531.5 L 926.7180786132812 531.5 L 927.8163452148438 531.5 L 928.9146118164062 531.5 L 930.012939453125 531.5 L 931.1112060546875 531.5 L 932.20947265625 531.5 L 933.3078002929688 531.5 L 934.4060668945312 531.5 L 935.5043334960938 531.5 L 936.6026611328125 531.5 L 937.700927734375 531.5 L 938.7991943359375 531.5 L 939.8975219726562 531.5 L 940.9957885742188 531.5 L 942.0940551757812 531.5 L 943.1923217773438 531.5 L 944.2906494140625 531.5 L 945.388916015625 531.5 L 946.4871826171875 531.5 L 947.5855102539062 531.5 L 948.6837768554688 531.5 L 949.7820434570312 531.5 L 950.88037109375 531.5 L 951.9786376953125 531.5 L 953.076904296875 531.5 L 954.1752319335938 531.5 L 955.2734985351562 531.5 L 956.3717651367188 531.5 L 957.4700927734375 531.5 L 958.568359375 531.5 L 959.6666259765625 531.5 L 960.764892578125 531.5 L 961.8632202148438 531.5 L 962.9614868164062 531.5 L 964.0597534179688 531.5 L 965.1580810546875 531.5 L 966.25634765625 531.5 L 967.3546142578125 531.5 L 968.4529418945312 531.5 L 969.5512084960938 531.5 L 970.6494750976562 531.5 L 971.747802734375 531.5 L 972.8460693359375 531.5 L 973.9443359375 531.5 L 975.0426025390625 531.5 L 976.1409301757812 531.5 L 977.2391967773438 531.5 L 978.3374633789062 531.5 L 979.435791015625 531.5 L 980.5340576171875 531.5 L 981.63232421875 531.5 L 982.7306518554688 531.5 L 983.8289184570312 531.5 L 984.9271850585938 531.5 L 986.0255126953125 531.5 L 987.123779296875 531.5 L 988.2220458984375 531.5 L 989.3203125 531.5 L 990.4186401367188 531.5 L 991.5169067382812 531.5 L 992.6151733398438 531.5 L 993.7135009765625 531.5 L 994.811767578125 531.5 L 995.9100341796875 531.5 L 997.0083618164062 531.5 L 998.1066284179688 531.5 L 999.2048950195312 531.5 L 1000.30322265625 531.5 L 1001.4014892578125 531.5 L 1002.499755859375 531.5 L 1003.5980224609375 531.5 L 1004.6963500976562 531.5 L 1005.7946166992188 531.5 L 1006.8928833007812 531.5 L 1007.9912109375 531.5 L 1009.0894775390625 531.5 L 1010.187744140625 531.5 L 1011.2860717773438 531.5 L 1012.3843383789062 531.5 L 1013.4826049804688 531.5 L 1014.5809326171875 531.5 L 1015.67919921875 531.5 L 1016.7774658203125 531.5 L 1017.875732421875 531.5 L 1018.9740600585938 531.5 L 1020.0723266601562 531.5 L 1021.1705932617188 531.5 L 1022.2689208984375 531.5 L 1023.3671875 531.5 L 1024.4654541015625 531.5 L 1025.563720703125 531.5 L 1026.6619873046875 531.5 L 1027.7603759765625 531.5 L 1028.858642578125 531.5 L 1029.9569091796875 531.5 L 1031.05517578125 531.5 L 1032.1534423828125 531.5 L 1033.251708984375 531.5 L 1034.35009765625 531.5 L 1035.4483642578125 531.5 L 1036.546630859375 531.5 L 1037.6448974609375 531.5 L 1038.7431640625 531.5 L 1039.8414306640625 531.5 L 1040.939697265625 531.5 L 1042.0380859375 531.5 L 1043.1363525390625 531.5 L 1044.234619140625 531.5 L 1045.3328857421875 531.5 L 1046.43115234375 531.5 L 1047.5294189453125 531.5 L 1048.6278076171875 531.5 L 1049.72607421875 531.5 L 1050.8243408203125 531.5 L 1051.922607421875 531.5 L 1053.0208740234375 531.5 L 1054.119140625 531.5 L 1055.217529296875 531.5 L 1056.3157958984375 531.5 L 1057.4140625 531.5 L 1058.5123291015625 531.5 L 1059.610595703125 531.5 L 1060.7088623046875 531.5 L 1061.80712890625 531.5 L 1062.905517578125 531.5 L 1064.0037841796875 531.5 L 1065.10205078125 531.5 L 1066.2003173828125 531.5 L 1067.298583984375 531.5 L 1068.3968505859375 531.5 L 1069.4952392578125 531.5 L 1070.593505859375 531.5 L 1071.6917724609375 531.5 L 1072.7900390625 531.5 L 1073.8883056640625 531.5 L 1074.986572265625 531.5 L 1076.0848388671875 531.5 L 1077.1832275390625 531.5 L 1078.281494140625 531.5 L 1079.3797607421875 531.5 L 1080.47802734375 531.5 L 1081.5762939453125 531.5 L 1082.674560546875 531.5 L 1083.77294921875 531.5 L 1084.8712158203125 531.5 L 1085.969482421875 531.5 L 1087.0677490234375 531.5 L 1088.166015625 531.5 L 1089.2642822265625 531.5 L 1090.362548828125 531.5 L 1091.4609375 531.5 L 1092.5592041015625 531.5 L 1093.657470703125 531.5 L 1094.7557373046875 531.5 L 1095.85400390625 531.5 L 1096.9522705078125 531.5 L 1098.0506591796875 531.5 L 1099.14892578125 531.5 L 1100.2471923828125 531.5 L 1101.345458984375 531.5 L 1102.4437255859375 531.5 L 1103.5419921875 531.5 L 1104.6402587890625 531.5 L 1105.7386474609375 531.5 L 1106.8369140625 531.5 L 1107.9351806640625 531.5 L 1109.033447265625 531.5 L 1110.1317138671875 531.5 L 1111.22998046875 531.5 L 1112.328369140625 531.5 L 1113.4266357421875 531.5 L 1114.52490234375 531.5 L 1115.6231689453125 531.5 L 1116.721435546875 531.5 L 1117.8197021484375 531.5 L 1118.91796875 531.5 L 1120.016357421875 531.5 L 1121.1146240234375 531.5 L 1122.212890625 531.5 L 1123.3111572265625 531.5 L 1124.409423828125 531.5 L 1125.5076904296875 531.5 L 1126.6060791015625 531.5 L 1127.704345703125 531.5 L 1128.8026123046875 531.5 L 1129.90087890625 531.5 L 1130.9991455078125 531.5 L 1132.097412109375 531.5 L 1133.1956787109375 531.5 L 1134.2940673828125 531.5 L 1135.392333984375 531.5 L 1136.4906005859375 531.5 L 1137.5888671875 531.5 L 1138.6871337890625 531.5 L 1139.785400390625 531.5 L 1140.8837890625 531.5 L 1141.9820556640625 531.5 L 1143.080322265625 531.5 L 1144.1785888671875 531.5 L 1145.27685546875 531.5 L 1146.3751220703125 531.5 L 1147.473388671875 531.5 L 1148.57177734375 531.5 L 1149.6700439453125 531.5 L 1150.768310546875 531.5 L 1151.8665771484375 531.5 L 1152.96484375 531.5 L 1154.0631103515625 531.5 L 1155.1614990234375 531.5 L 1156.259765625 531.5 L 1157.3580322265625 531.5 L 1158.456298828125 531.5 L 1159.5545654296875 531.5 L 1160.65283203125 531.5 L 1161.7510986328125 531.5 L 1162.8494873046875 531.5 L 1163.94775390625 531.5 L 1165.0460205078125 531.5 L 1166.144287109375 531.5 L 1167.2425537109375 531.5 L 1168.3408203125 531.5 L 1169.439208984375 531.5 L 1170.5374755859375 531.5 L 1171.6357421875 531.5 L 1172.7340087890625 531.5 L 1173.832275390625 531.5 L 1174.9305419921875 531.5 L 1176.02880859375 531.5 L 1177.127197265625 531.5 L 1178.2254638671875 531.5 L 1179.32373046875 531.5 L 1180.4219970703125 531.5 L 1181.520263671875 531.5 L 1182.6185302734375 531.5 L 1183.7169189453125 531.5 L 1184.815185546875 531.5 L 1185.9134521484375 531.5 L 1187.01171875 531.5 L 1188.1099853515625 531.5 L 1189.208251953125 531.5 L 1190.306640625 531.5 L 1191.4049072265625 531.5 L 1192.503173828125 531.5 L 1193.6014404296875 531.5 L 1194.69970703125 531.5 L 1195.7979736328125 531.5 L 1196.896240234375 531.5 L 1197.99462890625 531.5 L 1199.0928955078125 531.5 L 1200.191162109375 531.5 L 1201.2894287109375 531.5 L 1202.3876953125 531.5 L 1203.4859619140625 531.5 L 1204.5843505859375 531.5 L 1205.6826171875 531.5 L 1206.7808837890625 531.5 L 1207.879150390625 531.5 L 1208.9774169921875 531.5 L 1210.07568359375 531.5 L 1211.1739501953125 531.5 L 1212.2723388671875 531.5 L 1213.37060546875 531.5 L 1214.4688720703125 531.5 L 1215.567138671875 531.5 L 1216.6654052734375 531.5 L 1217.763671875 531.5 L 1218.862060546875 531.5 L 1219.9603271484375 531.5 L 1221.05859375 531.5 L 1222.1568603515625 531.5 L 1223.255126953125 531.5 L 1224.3533935546875 531.5 L 1225.45166015625 531.5 L 1226.550048828125 531.5 L 1226.550048828125 531.5 L 1225.45166015625 531.5 L 1224.3533935546875 531.5 L 1223.255126953125 531.5 L 1222.1568603515625 531.5 L 1221.05859375 531.5 L 1219.9603271484375 531.5 L 1218.862060546875 531.5 L 1217.763671875 531.5 L 1216.6654052734375 531.5 L 1215.567138671875 531.5 L 1214.4688720703125 531.5 L 1213.37060546875 531.5 L 1212.2723388671875 531.5 L 1211.1739501953125 531.5 L 1210.07568359375 531.5 L 1208.9774169921875 531.5 L 1207.879150390625 531.5 L 1206.7808837890625 531.5 L 1205.6826171875 531.5 L 1204.5843505859375 531.5 L 1203.4859619140625 531.5 L 1202.3876953125 531.5 L 1201.2894287109375 531.5 L 1200.191162109375 531.5 L 1199.0928955078125 531.5 L 1197.99462890625 531.5 L 1196.896240234375 531.5 L 1195.7979736328125 531.5 L 1194.69970703125 531.5 L 1193.6014404296875 531.5 L 1192.503173828125 531.5 L 1191.4049072265625 531.5 L 1190.306640625 531.5 L 1189.208251953125 531.5 L 1188.1099853515625 531.5 L 1187.01171875 531.4999389648438 L 1185.9134521484375 531.4994506835938 L 1184.815185546875 531.4971923828125 L 1183.7169189453125 531.4866943359375 L 1182.6185302734375 531.4448852539062 L 1181.520263671875 531.2976684570312 L 1180.4219970703125 530.8438720703125 L 1179.32373046875 529.619140625 L 1178.2254638671875 526.7342529296875 L 1177.127197265625 520.8260498046875 L 1176.02880859375 510.36865234375 L 1174.9305419921875 494.5210876464844 L 1173.832275390625 474.2952880859375 L 1172.7340087890625 453.25946044921875 L 1171.6357421875 436.8451843261719 L 1170.5374755859375 430.0960388183594 L 1169.439208984375 435.0185546875 L 1168.3408203125 449.356689453125 L 1167.2425537109375 467.75335693359375 L 1166.144287109375 484.5240478515625 L 1165.0460205078125 496.1987609863281 L 1163.94775390625 502.41400146484375 L 1162.8494873046875 505.03924560546875 L 1161.7510986328125 506.4481506347656 L 1160.65283203125 508.0481872558594 L 1159.5545654296875 509.7551574707031 L 1158.456298828125 510.4732360839844 L 1157.3580322265625 509.1341552734375 L 1156.259765625 505.63616943359375 L 1155.1614990234375 501.13458251953125 L 1154.0631103515625 497.50628662109375 L 1152.96484375 496.28668212890625 L 1151.8665771484375 497.725341796875 L 1150.768310546875 500.5805358886719 L 1149.6700439453125 502.82122802734375 L 1148.57177734375 502.81988525390625 L 1147.473388671875 500.312255859375 L 1146.3751220703125 496.5565185546875 L 1145.27685546875 493.60321044921875 L 1144.1785888671875 493.1059265136719 L 1143.080322265625 495.37774658203125 L 1141.9820556640625 499.25762939453125 L 1140.8837890625 502.84320068359375 L 1139.785400390625 504.6063232421875 L 1138.6871337890625 504.2091979980469 L 1137.5888671875 502.5833435058594 L 1136.4906005859375 501.2973937988281 L 1135.392333984375 501.6283264160156 L 1134.2940673828125 503.8778381347656 L 1133.1956787109375 507.299072265625 L 1132.097412109375 510.61761474609375 L 1130.9991455078125 512.7809448242188 L 1129.90087890625 513.4826049804688 L 1128.8026123046875 513.2050170898438 L 1127.704345703125 512.8302612304688 L 1126.6060791015625 513.0874633789062 L 1125.5076904296875 514.1559448242188 L 1124.409423828125 515.62548828125 L 1123.3111572265625 516.8023071289062 L 1122.212890625 517.155517578125 L 1121.1146240234375 516.6409912109375 L 1120.016357421875 515.7313842773438 L 1118.91796875 515.1492309570312 L 1117.8197021484375 515.45556640625 L 1116.721435546875 516.712646484375 L 1115.6231689453125 518.381103515625 L 1114.52490234375 519.4490966796875 L 1113.4266357421875 518.6593627929688 L 1112.328369140625 514.7092895507812 L 1111.22998046875 506.4090270996094 L 1110.1317138671875 492.81976318359375 L 1109.033447265625 473.2852783203125 L 1107.9351806640625 447.219482421875 L 1106.8369140625 413.8305969238281 L 1105.7386474609375 372.482421875 L 1104.6402587890625 324.3121643066406 L 1103.5419921875 274.45556640625 L 1102.4437255859375 232.6962432861328 L 1101.345458984375 210.58534240722656 L 1100.2471923828125 215.7677001953125 L 1099.14892578125 247.16909790039062 L 1098.0506591796875 294.720947265625 L 1096.9522705078125 344.0590515136719 L 1095.85400390625 383.09771728515625 L 1094.7557373046875 406.53106689453125 L 1093.657470703125 416.257080078125 L 1092.5592041015625 418.3613586425781 L 1091.4609375 418.835693359375 L 1090.362548828125 420.3027038574219 L 1089.2642822265625 421.1822509765625 L 1088.166015625 417.4926452636719 L 1087.0677490234375 406.20233154296875 L 1085.969482421875 388.15765380859375 L 1084.8712158203125 368.6471252441406 L 1083.77294921875 354.9164123535156 L 1082.674560546875 351.9206237792969 L 1081.5762939453125 358.985107421875 L 1080.47802734375 369.6993408203125 L 1079.3797607421875 375.38568115234375 L 1078.281494140625 370.193359375 L 1077.1832275390625 354.7477722167969 L 1076.0848388671875 335.9960632324219 L 1074.986572265625 323.0759582519531 L 1073.8883056640625 321.52874755859375 L 1072.7900390625 329.4372863769531 L 1071.6917724609375 338.103271484375 L 1070.593505859375 337.1340637207031 L 1069.4952392578125 321.0038757324219 L 1068.3968505859375 293.01953125 L 1067.298583984375 263.8779602050781 L 1066.2003173828125 245.14053344726562 L 1065.10205078125 241.34725952148438 L 1064.0037841796875 245.9324188232422 L 1062.905517578125 244.1989288330078 L 1061.80712890625 222.23789978027344 L 1060.7088623046875 176.6275177001953 L 1059.610595703125 118.70550537109375 L 1058.5123291015625 70.08787536621094 L 1057.4140625 51.5 L 1056.3157958984375 71.58003997802734 L 1055.217529296875 122.63925170898438 L 1054.119140625 185.7477264404297 L 1053.0208740234375 241.3446044921875 L 1051.922607421875 278.521484375 L 1050.8243408203125 297.9501953125 L 1049.72607421875 307.9925842285156 L 1048.6278076171875 317.4470520019531 L 1047.5294189453125 329.64117431640625 L 1046.43115234375 341.079833984375 L 1045.3328857421875 344.84185791015625 L 1044.234619140625 336.1627502441406 L 1043.1363525390625 316.5816650390625 L 1042.0380859375 294.0458984375 L 1040.939697265625 278.8172607421875 L 1039.8414306640625 277.6063232421875 L 1038.7431640625 289.5753173828125 L 1037.6448974609375 306.7746887207031 L 1036.546630859375 318.78594970703125 L 1035.4483642578125 318.72503662109375 L 1034.35009765625 307.0386657714844 L 1033.251708984375 290.97430419921875 L 1032.1534423828125 280.1795349121094 L 1031.05517578125 281.1153564453125 L 1029.9569091796875 293.6271057128906 L 1028.858642578125 311.627685546875 L 1027.7603759765625 327.2080993652344 L 1026.6619873046875 335.3819580078125 L 1025.563720703125 336.5372009277344 L 1024.4654541015625 335.397216796875 L 1023.3671875 337.4909362792969 L 1022.2689208984375 345.41650390625 L 1021.1705932617188 357.05303955078125 L 1020.0723266601562 366.6512451171875 L 1018.9740600585938 368.1446838378906 L 1017.875732421875 358.8503112792969 L 1016.7774658203125 341.5036926269531 L 1015.67919921875 323.40472412109375 L 1014.5809326171875 312.9881286621094 L 1013.4826049804688 315.6596984863281 L 1012.3843383789062 331.2924499511719 L 1011.2860717773438 354.79107666015625 L 1010.187744140625 379.1570739746094 L 1009.0894775390625 398.9970397949219 L 1007.9912109375 412.4765625 L 1006.8928833007812 421.0264892578125 L 1005.7946166992188 427.49798583984375 L 1004.6963500976562 434.09375 L 1003.5980224609375 441.2010192871094 L 1002.499755859375 447.5537109375 L 1001.4014892578125 451.384765625 L 1000.30322265625 451.7741394042969 L 999.2048950195312 449.41607666015625 L 998.1066284179688 446.41168212890625 L 997.0083618164062 445.214111328125 L 995.9100341796875 447.3126220703125 L 994.811767578125 452.42236328125 L 993.7135009765625 458.67425537109375 L 992.6151733398438 463.6917419433594 L 991.5169067382812 465.9107666015625 L 990.4186401367188 465.39276123046875 L 989.3203125 463.7093505859375 L 988.2220458984375 462.9994812011719 L 987.123779296875 464.7481689453125 L 986.0255126953125 468.9861755371094 L 984.9271850585938 474.3548889160156 L 983.8289184570312 478.954833984375 L 982.7306518554688 481.4422607421875 L 981.63232421875 481.7367248535156 L 980.5340576171875 480.9663391113281 L 979.435791015625 480.72393798828125 L 978.3374633789062 482.09210205078125 L 977.2391967773438 485.0192565917969 L 976.1409301757812 488.4117126464844 L 975.0426025390625 490.86175537109375 L 973.9443359375 491.5433349609375 L 972.8460693359375 490.7209777832031 L 971.747802734375 489.5717468261719 L 970.6494750976562 489.44586181640625 L 969.5512084960938 491.0329895019531 L 968.4529418945312 493.9535217285156 L 967.3546142578125 497.0171203613281 L 966.25634765625 498.9674072265625 L 965.1580810546875 499.2408447265625 L 964.0597534179688 498.28790283203125 L 962.9614868164062 497.28997802734375 L 961.8632202148438 497.4666442871094 L 960.764892578125 499.3980407714844 L 959.6666259765625 502.7587585449219 L 958.568359375 506.5870666503906 L 957.4700927734375 509.8724670410156 L 956.3717651367188 512.0776062011719 L 955.2734985351562 513.308349609375 L 954.1752319335938 514.1021728515625 L 953.076904296875 515.022216796875 L 951.9786376953125 516.3138427734375 L 950.88037109375 517.803955078125 L 949.7820434570312 519.0676879882812 L 948.6837768554688 519.7338256835938 L 947.5855102539062 519.7330932617188 L 946.4871826171875 519.345458984375 L 945.388916015625 519.03076171875 L 944.2906494140625 519.1576538085938 L 943.1923217773438 519.7999267578125 L 942.0940551757812 520.72119140625 L 940.9957885742188 521.5472412109375 L 939.8975219726562 522.0059814453125 L 938.7991943359375 522.0828247070312 L 937.700927734375 522.0066528320312 L 936.6026611328125 522.0919189453125 L 935.5043334960938 522.5452270507812 L 934.4060668945312 523.35205078125 L 933.3078002929688 524.3013305664062 L 932.20947265625 525.12060546875 L 931.1112060546875 525.6317749023438 L 930.012939453125 525.8370361328125 L 928.9146118164062 525.8950805664062 L 927.8163452148438 526.014892578125 L 926.7180786132812 526.3370971679688 L 925.6198120117188 526.86962890625 L 924.521484375 527.5050048828125 L 923.4232177734375 528.0980834960938 L 922.324951171875 528.5487670898438 L 921.2266235351562 528.8419799804688 L 920.1283569335938 529.0300903320312 L 919.0300903320312 529.1768798828125 L 917.9317626953125 529.3013916015625 L 916.83349609375 529.3527221679688 L 915.7352294921875 529.2294921875 L 914.6369018554688 528.8397216796875 L 913.5386352539062 528.1754760742188 L 912.4403686523438 527.3619995117188 L 911.3421020507812 526.639404296875 L 910.2437744140625 526.2650146484375 L 909.1455078125 526.38037109375 L 908.0472412109375 526.9258422851562 L 906.9489135742188 527.66650390625 L 905.8506469726562 528.3179321289062 L 904.7523803710938 528.69140625 L 903.654052734375 528.7711181640625 L 902.5557861328125 528.6856689453125 L 901.45751953125 528.5992431640625 L 900.3591918945312 528.5897827148438 L 899.2609252929688 528.5828247070312 L 898.1626586914062 528.3823852539062 L 897.0643920898438 527.7915649414062 L 895.966064453125 526.7625122070312 L 894.8677978515625 525.4877319335938 L 893.76953125 524.3580322265625 L 892.6712036132812 523.78271484375 L 891.5729370117188 523.9647216796875 L 890.4746704101562 524.7765502929688 L 889.3763427734375 525.8265991210938 L 888.278076171875 526.6771240234375 L 887.1798095703125 527.0737915039062 L 886.0814819335938 527.049072265625 L 884.9832153320312 526.8529052734375 L 883.8849487304688 526.7667846679688 L 882.78662109375 526.9159545898438 L 881.6883544921875 527.1851806640625 L 880.590087890625 527.2865600585938 L 879.4918212890625 526.9407348632812 L 878.3934936523438 526.070556640625 L 877.2952270507812 524.89013671875 L 876.1969604492188 523.81787109375 L 875.0986328125 523.2376098632812 L 874.0003662109375 523.2379150390625 L 872.902099609375 523.5020751953125 L 871.8037719726562 523.4478149414062 L 870.7055053710938 522.566162109375 L 869.6072387695312 520.7710571289062 L 868.5089111328125 518.5426025390625 L 867.41064453125 516.7428588867188 L 866.3123779296875 516.1758422851562 L 865.214111328125 517.1444702148438 L 864.1157836914062 519.2870483398438 L 863.0175170898438 521.797119140625 L 861.9192504882812 523.8701171875 L 860.8209228515625 525.0860595703125 L 859.72265625 525.5210571289062 L 858.6243896484375 525.5750732421875 L 857.5260620117188 525.66162109375 L 856.4277954101562 525.949462890625 L 855.3295288085938 526.2882080078125 L 854.231201171875 526.3389892578125 L 853.1329345703125 525.8235473632812 L 852.03466796875 524.7454223632812 L 850.9364013671875 523.4505004882812 L 849.8380737304688 522.4766845703125 L 848.7398071289062 522.2664184570312 L 847.6415405273438 522.91162109375 L 846.543212890625 524.09765625 L 845.4449462890625 525.2846069335938 L 844.3466796875 526.0090942382812 L 843.2483520507812 526.1204223632812 L 842.1500854492188 525.821533203125 L 841.0518188476562 525.5100708007812 L 839.9534912109375 525.525390625 L 838.855224609375 525.950439453125 L 837.7569580078125 526.5796508789062 L 836.65869140625 527.0609741210938 L 835.5603637695312 527.1194458007812 L 834.4620971679688 526.7269287109375 L 833.3638305664062 526.1240234375 L 832.2655029296875 525.6830444335938 L 831.167236328125 525.6946411132812 L 830.0689697265625 526.204833984375 L 828.9706420898438 527.0006103515625 L 827.8723754882812 527.746337890625 L 826.7741088867188 528.177978515625 L 825.67578125 528.2371215820312 L 824.5775146484375 528.0755615234375 L 823.479248046875 527.9439086914062 L 822.3809204101562 528.0386352539062 L 821.2826538085938 528.3975219726562 L 820.1843872070312 528.8983764648438 L 819.0861206054688 529.3482055664062 L 817.98779296875 529.6011962890625 L 816.8895263671875 529.6334228515625 L 815.791259765625 529.5394897460938 L 814.6929321289062 529.4639892578125 L 813.5946655273438 529.5122680664062 L 812.4963989257812 529.6929321289062 L 811.3980712890625 529.92236328125 L 810.2998046875 530.082763671875 L 809.2015380859375 530.096435546875 L 808.1032104492188 529.97265625 L 807.0049438476562 529.8014526367188 L 805.9066772460938 529.7011108398438 L 804.8084106445312 529.7506713867188 L 803.7100830078125 529.9479370117188 L 802.61181640625 530.2164306640625 L 801.5135498046875 530.4542846679688 L 800.4152221679688 530.5911254882812 L 799.3169555664062 530.61962890625 L 798.2186889648438 530.5884399414062 L 797.120361328125 530.564697265625 L 796.0220947265625 530.592041015625 L 794.923828125 530.666259765625 L 793.8255004882812 530.7417602539062 L 792.7272338867188 530.763427734375 L 791.6289672851562 530.7026977539062 L 790.5307006835938 530.578857421875 L 789.432373046875 530.4515380859375 L 788.3341064453125 530.3885498046875 L 787.23583984375 530.4280395507812 L 786.1375122070312 530.5575561523438 L 785.0392456054688 530.7229614257812 L 783.9409790039062 530.8607177734375 L 782.8426513671875 530.931640625 L 781.744384765625 530.9375610351562 L 780.6461181640625 530.9132690429688 L 779.5477905273438 530.9020385742188 L 778.4495239257812 530.929931640625 L 777.3512573242188 530.9931030273438 L 776.2529907226562 531.0635986328125 L 775.1546630859375 531.1088256835938 L 774.056396484375 531.11181640625 L 772.9581298828125 531.0805053710938 L 771.8598022460938 531.042236328125 L 770.7615356445312 531.0272827148438 L 769.6632690429688 531.0513916015625 L 768.56494140625 531.10791015625 L 767.4666748046875 531.1734008789062 L 766.368408203125 531.22216796875 L 765.2700805664062 531.24072265625 L 764.1718139648438 531.2335205078125 L 763.0735473632812 531.21826171875 L 761.9752807617188 531.2144775390625 L 760.876953125 531.2326049804688 L 759.7786865234375 531.26904296875 L 758.680419921875 531.3101806640625 L 757.5820922851562 531.3411865234375 L 756.4838256835938 531.3546142578125 L 755.3855590820312 531.35302734375 L 754.2872314453125 531.3464965820312 L 753.18896484375 531.3458862304688 L 752.0906982421875 531.3569946289062 L 750.9923706054688 531.378173828125 L 749.8941040039062 531.4024047851562 L 748.7958374023438 531.4220581054688 L 747.697509765625 531.4329833984375 L 746.5992431640625 531.4359741210938 L 745.5009765625 531.4354248046875 L 744.4027099609375 531.4364013671875 L 743.3043823242188 531.4419555664062 L 742.2061157226562 531.451904296875 L 741.1078491210938 531.4639282226562 L 740.009521484375 531.4749145507812 L 738.9112548828125 531.4828491210938 L 737.81298828125 531.4872436523438 L 736.7146606445312 531.4888305664062 L 735.6163940429688 531.4890747070312 L 734.5181274414062 531.4893188476562 L 733.4197998046875 531.4902954101562 L 732.321533203125 531.4920043945312 L 731.2232666015625 531.4942016601562 L 730.125 531.4962768554688 L 729.0266723632812 531.4978637695312 L 727.9284057617188 531.4989013671875 L 726.8301391601562 531.49951171875 L 725.7318115234375 531.4998168945312 L 724.633544921875 531.4999389648438 L 723.5352783203125 531.5 L 722.4369506835938 531.5 L 721.3386840820312 531.5 L 720.2404174804688 531.5 L 719.14208984375 531.5 L 718.0438232421875 531.5 L 716.945556640625 531.5 L 715.8472900390625 531.5 L 714.7489624023438 531.5 L 713.6506958007812 531.5 L 712.5524291992188 531.5 L 711.4541015625 531.5 L 710.3558349609375 531.5 L 709.257568359375 531.5 L 708.1592407226562 531.5 L 707.0609741210938 531.5 L 705.9627075195312 531.5 L 704.8643798828125 531.5 L 703.76611328125 531.5 L 702.6678466796875 531.5 L 701.569580078125 531.5 L 700.4712524414062 531.5 L 699.3729858398438 531.5 L 698.2747192382812 531.5 L 697.1763916015625 531.5 L 696.078125 531.5 L 694.9798583984375 531.5 L 693.8815307617188 531.5 L 692.7832641601562 531.5 L 691.6849975585938 531.5 L 690.586669921875 531.5 L 689.4884033203125 531.5 L 688.39013671875 531.5 L 687.2918090820312 531.5 L 686.1935424804688 531.5 L 685.0952758789062 531.5 L 683.9970092773438 531.5 L 682.898681640625 531.5 L 681.8004150390625 531.5 L 680.7021484375 531.5 L 679.6038208007812 531.5 L 678.5055541992188 531.5 Z" fill-opacity="0.8" clip-path="url(#OBZiuECEsObP)"/><path fill="none" stroke="rgb(119,170,221)" paint-order="fill" d="M 678.5055541992188 531.5 L 679.6038208007812 531.5 L 680.7021484375 531.5 L 681.8004150390625 531.5 L 682.898681640625 531.5 L 683.9970092773438 531.5 L 685.0952758789062 531.5 L 686.1935424804688 531.5 L 687.2918090820312 531.5 L 688.39013671875 531.5 L 689.4884033203125 531.5 L 690.586669921875 531.5 L 691.6849975585938 531.5 L 692.7832641601562 531.5 L 693.8815307617188 531.5 L 694.9798583984375 531.5 L 696.078125 531.5 L 697.1763916015625 531.5 L 698.2747192382812 531.5 L 699.3729858398438 531.5 L 700.4712524414062 531.5 L 701.569580078125 531.5 L 702.6678466796875 531.5 L 703.76611328125 531.5 L 704.8643798828125 531.5 L 705.9627075195312 531.5 L 707.0609741210938 531.5 L 708.1592407226562 531.5 L 709.257568359375 531.5 L 710.3558349609375 531.5 L 711.4541015625 531.5 L 712.5524291992188 531.5 L 713.6506958007812 531.5 L 714.7489624023438 531.5 L 715.8472900390625 531.5 L 716.945556640625 531.5 L 718.0438232421875 531.5 L 719.14208984375 531.5 L 720.2404174804688 531.5 L 721.3386840820312 531.5 L 722.4369506835938 531.5 L 723.5352783203125 531.5 L 724.633544921875 531.4999389648438 L 725.7318115234375 531.4998168945312 L 726.8301391601562 531.49951171875 L 727.9284057617188 531.4989013671875 L 729.0266723632812 531.4978637695312 L 730.125 531.4962768554688 L 731.2232666015625 531.4942016601562 L 732.321533203125 531.4920043945312 L 733.4197998046875 531.4902954101562 L 734.5181274414062 531.4893188476562 L 735.6163940429688 531.4890747070312 L 736.7146606445312 531.4888305664062 L 737.81298828125 531.4872436523438 L 738.9112548828125 531.4828491210938 L 740.009521484375 531.4749145507812 L 741.1078491210938 531.4639282226562 L 742.2061157226562 531.451904296875 L 743.3043823242188 531.4419555664062 L 744.4027099609375 531.4364013671875 L 745.5009765625 531.4354248046875 L 746.5992431640625 531.4359741210938 L 747.697509765625 531.4329833984375 L 748.7958374023438 531.4220581054688 L 749.8941040039062 531.4024047851562 L 750.9923706054688 531.378173828125 L 752.0906982421875 531.3569946289062 L 753.18896484375 531.3458862304688 L 754.2872314453125 531.3464965820312 L 755.3855590820312 531.35302734375 L 756.4838256835938 531.3546142578125 L 757.5820922851562 531.3411865234375 L 758.680419921875 531.3101806640625 L 759.7786865234375 531.26904296875 L 760.876953125 531.2326049804688 L 761.9752807617188 531.2144775390625 L 763.0735473632812 531.21826171875 L 764.1718139648438 531.2335205078125 L 765.2700805664062 531.24072265625 L 766.368408203125 531.22216796875 L 767.4666748046875 531.1734008789062 L 768.56494140625 531.10791015625 L 769.6632690429688 531.0513916015625 L 770.7615356445312 531.0272827148438 L 771.8598022460938 531.042236328125 L 772.9581298828125 531.0805053710938 L 774.056396484375 531.11181640625 L 775.1546630859375 531.1088256835938 L 776.2529907226562 531.0635986328125 L 777.3512573242188 530.9931030273438 L 778.4495239257812 530.929931640625 L 779.5477905273438 530.9020385742188 L 780.6461181640625 530.9132690429688 L 781.744384765625 530.9375610351562 L 782.8426513671875 530.931640625 L 783.9409790039062 530.8607177734375 L 785.0392456054688 530.7229614257812 L 786.1375122070312 530.5575561523438 L 787.23583984375 530.4280395507812 L 788.3341064453125 530.3885498046875 L 789.432373046875 530.4515380859375 L 790.5307006835938 530.578857421875 L 791.6289672851562 530.7026977539062 L 792.7272338867188 530.763427734375 L 793.8255004882812 530.7417602539062 L 794.923828125 530.666259765625 L 796.0220947265625 530.592041015625 L 797.120361328125 530.564697265625 L 798.2186889648438 530.5884399414062 L 799.3169555664062 530.61962890625 L 800.4152221679688 530.5911254882812 L 801.5135498046875 530.4542846679688 L 802.61181640625 530.2164306640625 L 803.7100830078125 529.9479370117188 L 804.8084106445312 529.7506713867188 L 805.9066772460938 529.7011108398438 L 807.0049438476562 529.8014526367188 L 808.1032104492188 529.97265625 L 809.2015380859375 530.096435546875 L 810.2998046875 530.082763671875 L 811.3980712890625 529.92236328125 L 812.4963989257812 529.6929321289062 L 813.5946655273438 529.5122680664062 L 814.6929321289062 529.4639892578125 L 815.791259765625 529.5394897460938 L 816.8895263671875 529.6334228515625 L 817.98779296875 529.6011962890625 L 819.0861206054688 529.3482055664062 L 820.1843872070312 528.8983764648438 L 821.2826538085938 528.3975219726562 L 822.3809204101562 528.0386352539062 L 823.479248046875 527.9439086914062 L 824.5775146484375 528.0755615234375 L 825.67578125 528.2371215820312 L 826.7741088867188 528.177978515625 L 827.8723754882812 527.746337890625 L 828.9706420898438 527.0006103515625 L 830.0689697265625 526.204833984375 L 831.167236328125 525.6946411132812 L 832.2655029296875 525.6830444335938 L 833.3638305664062 526.1240234375 L 834.4620971679688 526.7269287109375 L 835.5603637695312 527.1194458007812 L 836.65869140625 527.0609741210938 L 837.7569580078125 526.5796508789062 L 838.855224609375 525.950439453125 L 839.9534912109375 525.525390625 L 841.0518188476562 525.5100708007812 L 842.1500854492188 525.821533203125 L 843.2483520507812 526.1204223632812 L 844.3466796875 526.0090942382812 L 845.4449462890625 525.2846069335938 L 846.543212890625 524.09765625 L 847.6415405273438 522.91162109375 L 848.7398071289062 522.2664184570312 L 849.8380737304688 522.4766845703125 L 850.9364013671875 523.4505004882812 L 852.03466796875 524.7454223632812 L 853.1329345703125 525.8235473632812 L 854.231201171875 526.3389892578125 L 855.3295288085938 526.2882080078125 L 856.4277954101562 525.949462890625 L 857.5260620117188 525.66162109375 L 858.6243896484375 525.5750732421875 L 859.72265625 525.5210571289062 L 860.8209228515625 525.0860595703125 L 861.9192504882812 523.8701171875 L 863.0175170898438 521.797119140625 L 864.1157836914062 519.2870483398438 L 865.214111328125 517.1444702148438 L 866.3123779296875 516.1758422851562 L 867.41064453125 516.7428588867188 L 868.5089111328125 518.5426025390625 L 869.6072387695312 520.7710571289062 L 870.7055053710938 522.566162109375 L 871.8037719726562 523.4478149414062 L 872.902099609375 523.5020751953125 L 874.0003662109375 523.2379150390625 L 875.0986328125 523.2376098632812 L 876.1969604492188 523.81787109375 L 877.2952270507812 524.89013671875 L 878.3934936523438 526.070556640625 L 879.4918212890625 526.9407348632812 L 880.590087890625 527.2865600585938 L 881.6883544921875 527.1851806640625 L 882.78662109375 526.9159545898438 L 883.8849487304688 526.7667846679688 L 884.9832153320312 526.8529052734375 L 886.0814819335938 527.049072265625 L 887.1798095703125 527.0737915039062 L 888.278076171875 526.6771240234375 L 889.3763427734375 525.8265991210938 L 890.4746704101562 524.7765502929688 L 891.5729370117188 523.9647216796875 L 892.6712036132812 523.78271484375 L 893.76953125 524.3580322265625 L 894.8677978515625 525.4877319335938 L 895.966064453125 526.7625122070312 L 897.0643920898438 527.7915649414062 L 898.1626586914062 528.3823852539062 L 899.2609252929688 528.5828247070312 L 900.3591918945312 528.5897827148438 L 901.45751953125 528.5992431640625 L 902.5557861328125 528.6856689453125 L 903.654052734375 528.7711181640625 L 904.7523803710938 528.69140625 L 905.8506469726562 528.3179321289062 L 906.9489135742188 527.66650390625 L 908.0472412109375 526.9258422851562 L 909.1455078125 526.38037109375 L 910.2437744140625 526.2650146484375 L 911.3421020507812 526.639404296875 L 912.4403686523438 527.3619995117188 L 913.5386352539062 528.1754760742188 L 914.6369018554688 528.8397216796875 L 915.7352294921875 529.2294921875 L 916.83349609375 529.3527221679688 L 917.9317626953125 529.3013916015625 L 919.0300903320312 529.1768798828125 L 920.1283569335938 529.0300903320312 L 921.2266235351562 528.8419799804688 L 922.324951171875 528.5487670898438 L 923.4232177734375 528.0980834960938 L 924.521484375 527.5050048828125 L 925.6198120117188 526.86962890625 L 926.7180786132812 526.3370971679688 L 927.8163452148438 526.014892578125 L 928.9146118164062 525.8950805664062 L 930.012939453125 525.8370361328125 L 931.1112060546875 525.6317749023438 L 932.20947265625 525.12060546875 L 933.3078002929688 524.3013305664062 L 934.4060668945312 523.35205078125 L 935.5043334960938 522.5452270507812 L 936.6026611328125 522.0919189453125 L 937.700927734375 522.0066528320312 L 938.7991943359375 522.0828247070312 L 939.8975219726562 522.0059814453125 L 940.9957885742188 521.5472412109375 L 942.0940551757812 520.72119140625 L 943.1923217773438 519.7999267578125 L 944.2906494140625 519.1576538085938 L 945.388916015625 519.03076171875 L 946.4871826171875 519.345458984375 L 947.5855102539062 519.7330932617188 L 948.6837768554688 519.7338256835938 L 949.7820434570312 519.0676879882812 L 950.88037109375 517.803955078125 L 951.9786376953125 516.3138427734375 L 953.076904296875 515.022216796875 L 954.1752319335938 514.1021728515625 L 955.2734985351562 513.308349609375 L 956.3717651367188 512.0776062011719 L 957.4700927734375 509.8724670410156 L 958.568359375 506.5870666503906 L 959.6666259765625 502.7587585449219 L 960.764892578125 499.3980407714844 L 961.8632202148438 497.4666442871094 L 962.9614868164062 497.28997802734375 L 964.0597534179688 498.28790283203125 L 965.1580810546875 499.2408447265625 L 966.25634765625 498.9674072265625 L 967.3546142578125 497.0171203613281 L 968.4529418945312 493.9535217285156 L 969.5512084960938 491.0329895019531 L 970.6494750976562 489.44586181640625 L 971.747802734375 489.5717468261719 L 972.8460693359375 490.7209777832031 L 973.9443359375 491.5433349609375 L 975.0426025390625 490.86175537109375 L 976.1409301757812 488.4117126464844 L 977.2391967773438 485.0192565917969 L 978.3374633789062 482.09210205078125 L 979.435791015625 480.72393798828125 L 980.5340576171875 480.9663391113281 L 981.63232421875 481.7367248535156 L 982.7306518554688 481.4422607421875 L 983.8289184570312 478.954833984375 L 984.9271850585938 474.3548889160156 L 986.0255126953125 468.9861755371094 L 987.123779296875 464.7481689453125 L 988.2220458984375 462.9994812011719 L 989.3203125 463.7093505859375 L 990.4186401367188 465.39276123046875 L 991.5169067382812 465.9107666015625 L 992.6151733398438 463.6917419433594 L 993.7135009765625 458.67425537109375 L 994.811767578125 452.42236328125 L 995.9100341796875 447.3126220703125 L 997.0083618164062 445.214111328125 L 998.1066284179688 446.41168212890625 L 999.2048950195312 449.41607666015625 L 1000.30322265625 451.7741394042969 L 1001.4014892578125 451.384765625 L 1002.499755859375 447.5537109375 L 1003.5980224609375 441.2010192871094 L 1004.6963500976562 434.09375 L 1005.7946166992188 427.49798583984375 L 1006.8928833007812 421.0264892578125 L 1007.9912109375 412.4765625 L 1009.0894775390625 398.9970397949219 L 1010.187744140625 379.1570739746094 L 1011.2860717773438 354.79107666015625 L 1012.3843383789062 331.2924499511719 L 1013.4826049804688 315.6596984863281 L 1014.5809326171875 312.9881286621094 L 1015.67919921875 323.40472412109375 L 1016.7774658203125 341.5036926269531 L 1017.875732421875 358.8503112792969 L 1018.9740600585938 368.1446838378906 L 1020.0723266601562 366.6512451171875 L 1021.1705932617188 357.05303955078125 L 1022.2689208984375 345.41650390625 L 1023.3671875 337.4909362792969 L 1024.4654541015625 335.397216796875 L 1025.563720703125 336.5372009277344 L 1026.6619873046875 335.3819580078125 L 1027.7603759765625 327.2080993652344 L 1028.858642578125 311.627685546875 L 1029.9569091796875 293.6271057128906 L 1031.05517578125 281.1153564453125 L 1032.1534423828125 280.1795349121094 L 1033.251708984375 290.97430419921875 L 1034.35009765625 307.0386657714844 L 1035.4483642578125 318.72503662109375 L 1036.546630859375 318.78594970703125 L 1037.6448974609375 306.7746887207031 L 1038.7431640625 289.5753173828125 L 1039.8414306640625 277.6063232421875 L 1040.939697265625 278.8172607421875 L 1042.0380859375 294.0458984375 L 1043.1363525390625 316.5816650390625 L 1044.234619140625 336.1627502441406 L 1045.3328857421875 344.84185791015625 L 1046.43115234375 341.079833984375 L 1047.5294189453125 329.64117431640625 L 1048.6278076171875 317.4470520019531 L 1049.72607421875 307.9925842285156 L 1050.8243408203125 297.9501953125 L 1051.922607421875 278.521484375 L 1053.0208740234375 241.3446044921875 L 1054.119140625 185.7477264404297 L 1055.217529296875 122.63925170898438 L 1056.3157958984375 71.58003997802734 L 1057.4140625 51.5 L 1058.5123291015625 70.08787536621094 L 1059.610595703125 118.70550537109375 L 1060.7088623046875 176.6275177001953 L 1061.80712890625 222.23789978027344 L 1062.905517578125 244.1989288330078 L 1064.0037841796875 245.9324188232422 L 1065.10205078125 241.34725952148438 L 1066.2003173828125 245.14053344726562 L 1067.298583984375 263.8779602050781 L 1068.3968505859375 293.01953125 L 1069.4952392578125 321.0038757324219 L 1070.593505859375 337.1340637207031 L 1071.6917724609375 338.103271484375 L 1072.7900390625 329.4372863769531 L 1073.8883056640625 321.52874755859375 L 1074.986572265625 323.0759582519531 L 1076.0848388671875 335.9960632324219 L 1077.1832275390625 354.7477722167969 L 1078.281494140625 370.193359375 L 1079.3797607421875 375.38568115234375 L 1080.47802734375 369.6993408203125 L 1081.5762939453125 358.985107421875 L 1082.674560546875 351.9206237792969 L 1083.77294921875 354.9164123535156 L 1084.8712158203125 368.6471252441406 L 1085.969482421875 388.15765380859375 L 1087.0677490234375 406.20233154296875 L 1088.166015625 417.4926452636719 L 1089.2642822265625 421.1822509765625 L 1090.362548828125 420.3027038574219 L 1091.4609375 418.835693359375 L 1092.5592041015625 418.3613586425781 L 1093.657470703125 416.257080078125 L 1094.7557373046875 406.53106689453125 L 1095.85400390625 383.09771728515625 L 1096.9522705078125 344.0590515136719 L 1098.0506591796875 294.720947265625 L 1099.14892578125 247.16909790039062 L 1100.2471923828125 215.7677001953125 L 1101.345458984375 210.58534240722656 L 1102.4437255859375 232.6962432861328 L 1103.5419921875 274.45556640625 L 1104.6402587890625 324.3121643066406 L 1105.7386474609375 372.482421875 L 1106.8369140625 413.8305969238281 L 1107.9351806640625 447.219482421875 L 1109.033447265625 473.2852783203125 L 1110.1317138671875 492.81976318359375 L 1111.22998046875 506.4090270996094 L 1112.328369140625 514.7092895507812 L 1113.4266357421875 518.6593627929688 L 1114.52490234375 519.4490966796875 L 1115.6231689453125 518.381103515625 L 1116.721435546875 516.712646484375 L 1117.8197021484375 515.45556640625 L 1118.91796875 515.1492309570312 L 1120.016357421875 515.7313842773438 L 1121.1146240234375 516.6409912109375 L 1122.212890625 517.155517578125 L 1123.3111572265625 516.8023071289062 L 1124.409423828125 515.62548828125 L 1125.5076904296875 514.1559448242188 L 1126.6060791015625 513.0874633789062 L 1127.704345703125 512.8302612304688 L 1128.8026123046875 513.2050170898438 L 1129.90087890625 513.4826049804688 L 1130.9991455078125 512.7809448242188 L 1132.097412109375 510.61761474609375 L 1133.1956787109375 507.299072265625 L 1134.2940673828125 503.8778381347656 L 1135.392333984375 501.6283264160156 L 1136.4906005859375 501.2973937988281 L 1137.5888671875 502.5833435058594 L 1138.6871337890625 504.2091979980469 L 1139.785400390625 504.6063232421875 L 1140.8837890625 502.84320068359375 L 1141.9820556640625 499.25762939453125 L 1143.080322265625 495.37774658203125 L 1144.1785888671875 493.1059265136719 L 1145.27685546875 493.60321044921875 L 1146.3751220703125 496.5565185546875 L 1147.473388671875 500.312255859375 L 1148.57177734375 502.81988525390625 L 1149.6700439453125 502.82122802734375 L 1150.768310546875 500.5805358886719 L 1151.8665771484375 497.725341796875 L 1152.96484375 496.28668212890625 L 1154.0631103515625 497.50628662109375 L 1155.1614990234375 501.13458251953125 L 1156.259765625 505.63616943359375 L 1157.3580322265625 509.1341552734375 L 1158.456298828125 510.4732360839844 L 1159.5545654296875 509.7551574707031 L 1160.65283203125 508.0481872558594 L 1161.7510986328125 506.4481506347656 L 1162.8494873046875 505.03924560546875 L 1163.94775390625 502.41400146484375 L 1165.0460205078125 496.1987609863281 L 1166.144287109375 484.5240478515625 L 1167.2425537109375 467.75335693359375 L 1168.3408203125 449.356689453125 L 1169.439208984375 435.0185546875 L 1170.5374755859375 430.0960388183594 L 1171.6357421875 436.8451843261719 L 1172.7340087890625 453.25946044921875 L 1173.832275390625 474.2952880859375 L 1174.9305419921875 494.5210876464844 L 1176.02880859375 510.36865234375 L 1177.127197265625 520.8260498046875 L 1178.2254638671875 526.7342529296875 L 1179.32373046875 529.619140625 L 1180.4219970703125 530.8438720703125 L 1181.520263671875 531.2976684570312 L 1182.6185302734375 531.4448852539062 L 1183.7169189453125 531.4866943359375 L 1184.815185546875 531.4971923828125 L 1185.9134521484375 531.4994506835938 L 1187.01171875 531.4999389648438 L 1188.1099853515625 531.5 L 1189.208251953125 531.5 L 1190.306640625 531.5 L 1191.4049072265625 531.5 L 1192.503173828125 531.5 L 1193.6014404296875 531.5 L 1194.69970703125 531.5 L 1195.7979736328125 531.5 L 1196.896240234375 531.5 L 1197.99462890625 531.5 L 1199.0928955078125 531.5 L 1200.191162109375 531.5 L 1201.2894287109375 531.5 L 1202.3876953125 531.5 L 1203.4859619140625 531.5 L 1204.5843505859375 531.5 L 1205.6826171875 531.5 L 1206.7808837890625 531.5 L 1207.879150390625 531.5 L 1208.9774169921875 531.5 L 1210.07568359375 531.5 L 1211.1739501953125 531.5 L 1212.2723388671875 531.5 L 1213.37060546875 531.5 L 1214.4688720703125 531.5 L 1215.567138671875 531.5 L 1216.6654052734375 531.5 L 1217.763671875 531.5 L 1218.862060546875 531.5 L 1219.9603271484375 531.5 L 1221.05859375 531.5 L 1222.1568603515625 531.5 L 1223.255126953125 531.5 L 1224.3533935546875 531.5 L 1225.45166015625 531.5 L 1226.550048828125 531.5" stroke-opacity="1" stroke-linejoin="bevel" stroke-miterlimit="10" stroke-width="3" clip-path="url(#oLvBfvmNrSMT)"/><path fill="none" stroke="rgb(0,0,0)" paint-order="fill" d="M 49.5 555.5 L 1170.5 555.5" stroke-opacity="1" stroke-linejoin="bevel" stroke-miterlimit="10"/><path fill="none" stroke="rgb(0,0,0)" paint-order="fill" d="M 49.5 561.5 L 49.5 553.5 M 273.5 561.5 L 273.5 553.5 M 497.5 561.5 L 497.5 553.5 M 722.5 561.5 L 722.5 553.5 M 946.5 561.5 L 946.5 553.5 M 1170.5 561.5 L 1170.5 553.5" stroke-opacity="1" stroke-linejoin="bevel" stroke-miterlimit="10"/><path fill="none" stroke="rgb(0,0,0)" paint-order="fill" d="M 49.5 559.5 L 49.5 555.5 M 94.5 559.5 L 94.5 555.5 M 139.5 559.5 L 139.5 555.5 M 184.5 559.5 L 184.5 555.5 M 228.5 559.5 L 228.5 555.5 M 273.5 559.5 L 273.5 555.5 M 318.5 559.5 L 318.5 555.5 M 363.5 559.5 L 363.5 555.5 M 408.5 559.5 L 408.5 555.5 M 453.5 559.5 L 453.5 555.5 M 497.5 559.5 L 497.5 555.5 M 542.5 559.5 L 542.5 555.5 M 587.5 559.5 L 587.5 555.5 M 632.5 559.5 L 632.5 555.5 M 677.5 559.5 L 677.5 555.5 M 722.5 559.5 L 722.5 555.5 M 766.5 559.5 L 766.5 555.5 M 811.5 559.5 L 811.5 555.5 M 856.5 559.5 L 856.5 555.5 M 901.5 559.5 L 901.5 555.5 M 946.5 559.5 L 946.5 555.5 M 991.5 559.5 L 991.5 555.5 M 1035.5 559.5 L 1035.5 555.5 M 1080.5 559.5 L 1080.5 555.5 M 1125.5 559.5 L 1125.5 555.5 M 1170.5 559.5 L 1170.5 555.5" stroke-opacity="1" stroke-linejoin="bevel" stroke-miterlimit="10"/><text fill="rgb(68,68,68)" stroke="none" font-family="helvetica" font-size="11px" font-style="normal" font-weight="normal" text-decoration="normal" x="45.941162109375" y="573.875" text-anchor="start" dominant-baseline="alphabetic" transform="matrix(1, 0, 0, 1, 0.5, 0.5)" fill-opacity="1">0</text><text fill="none" stroke="rgb(0,0,0)" font-family="helvetica" font-size="11px" font-style="normal" font-weight="normal" text-decoration="normal" x="45.941162109375" y="573.875" text-anchor="start" dominant-baseline="alphabetic" transform="matrix(1, 0, 0, 1, 0.5, 0.5)" stroke-opacity="0" stroke-linejoin="bevel" stroke-miterlimit="10">0</text><text fill="rgb(68,68,68)" stroke="none" font-family="helvetica" font-size="11px" font-style="normal" font-weight="normal" text-decoration="normal" x="265.55426025390625" y="573.875" text-anchor="start" dominant-baseline="alphabetic" transform="matrix(1, 0, 0, 1, 0.5, 0.5)" fill-opacity="1">0.2</text><text fill="none" stroke="rgb(0,0,0)" font-family="helvetica" font-size="11px" font-style="normal" font-weight="normal" text-decoration="normal" x="265.55426025390625" y="573.875" text-anchor="start" dominant-baseline="alphabetic" transform="matrix(1, 0, 0, 1, 0.5, 0.5)" stroke-opacity="0" stroke-linejoin="bevel" stroke-miterlimit="10">0.2</text><text fill="rgb(68,68,68)" stroke="none" font-family="helvetica" font-size="11px" font-style="normal" font-weight="normal" text-decoration="normal" x="489.7542419433594" y="573.875" text-anchor="start" dominant-baseline="alphabetic" transform="matrix(1, 0, 0, 1, 0.5, 0.5)" fill-opacity="1">0.4</text><text fill="none" stroke="rgb(0,0,0)" font-family="helvetica" font-size="11px" font-style="normal" font-weight="normal" text-decoration="normal" x="489.7542419433594" y="573.875" text-anchor="start" dominant-baseline="alphabetic" transform="matrix(1, 0, 0, 1, 0.5, 0.5)" stroke-opacity="0" stroke-linejoin="bevel" stroke-miterlimit="10">0.4</text><text fill="rgb(68,68,68)" stroke="none" font-family="helvetica" font-size="11px" font-style="normal" font-weight="normal" text-decoration="normal" x="713.9542236328125" y="573.875" text-anchor="start" dominant-baseline="alphabetic" transform="matrix(1, 0, 0, 1, 0.5, 0.5)" fill-opacity="1">0.6</text><text fill="none" stroke="rgb(0,0,0)" font-family="helvetica" font-size="11px" font-style="normal" font-weight="normal" text-decoration="normal" x="713.9542236328125" y="573.875" text-anchor="start" dominant-baseline="alphabetic" transform="matrix(1, 0, 0, 1, 0.5, 0.5)" stroke-opacity="0" stroke-linejoin="bevel" stroke-miterlimit="10">0.6</text><text fill="rgb(68,68,68)" stroke="none" font-family="helvetica" font-size="11px" font-style="normal" font-weight="normal" text-decoration="normal" x="938.1542358398438" y="573.875" text-anchor="start" dominant-baseline="alphabetic" transform="matrix(1, 0, 0, 1, 0.5, 0.5)" fill-opacity="1">0.8</text><text fill="none" stroke="rgb(0,0,0)" font-family="helvetica" font-size="11px" font-style="normal" font-weight="normal" text-decoration="normal" x="938.1542358398438" y="573.875" text-anchor="start" dominant-baseline="alphabetic" transform="matrix(1, 0, 0, 1, 0.5, 0.5)" stroke-opacity="0" stroke-linejoin="bevel" stroke-miterlimit="10">0.8</text><text fill="rgb(68,68,68)" stroke="none" font-family="helvetica" font-size="11px" font-style="normal" font-weight="normal" text-decoration="normal" x="1166.941162109375" y="573.875" text-anchor="start" dominant-baseline="alphabetic" transform="matrix(1, 0, 0, 1, 0.5, 0.5)" fill-opacity="1">1</text><text fill="none" stroke="rgb(0,0,0)" font-family="helvetica" font-size="11px" font-style="normal" font-weight="normal" text-decoration="normal" x="1166.941162109375" y="573.875" text-anchor="start" dominant-baseline="alphabetic" transform="matrix(1, 0, 0, 1, 0.5, 0.5)" stroke-opacity="0" stroke-linejoin="bevel" stroke-miterlimit="10">1</text><text fill="rgb(68,68,68)" stroke="none" font-family="helvetica" font-size="13px" font-style="italic" font-weight="normal" text-decoration="normal" x="517.728759765625" y="593.875" text-anchor="start" dominant-baseline="alphabetic" transform="matrix(1, 0, 0, 1, 0.5, 0.5)" fill-opacity="1">Proportion of Reads Alignments</text><text fill="none" stroke="rgb(0,0,0)" font-family="helvetica" font-size="13px" font-style="italic" font-weight="normal" text-decoration="normal" x="517.728759765625" y="593.875" text-anchor="start" dominant-baseline="alphabetic" transform="matrix(1, 0, 0, 1, 0.5, 0.5)" stroke-opacity="0" stroke-linejoin="bevel" stroke-miterlimit="10">Proportion of Reads Alignments</text><path fill="none" stroke="rgb(0,0,0)" paint-order="fill" d="M 49.5 555.5 L 49.5 27.5" stroke-opacity="1" stroke-linejoin="bevel" stroke-miterlimit="10"/><path fill="none" stroke="rgb(0,0,0)" paint-order="fill" d="M 43.5 531.5 L 51.5 531.5 M 43.5 406.5 L 51.5 406.5 M 43.5 280.5 L 51.5 280.5 M 43.5 155.5 L 51.5 155.5 M 43.5 29.5 L 51.5 29.5" stroke-opacity="1" stroke-linejoin="bevel" stroke-miterlimit="10"/><path fill="none" stroke="rgb(0,0,0)" paint-order="fill" d="M 45.5 531.5 L 49.5 531.5 M 45.5 506.5 L 49.5 506.5 M 45.5 481.5 L 49.5 481.5 M 45.5 456.5 L 49.5 456.5 M 45.5 431.5 L 49.5 431.5 M 45.5 406.5 L 49.5 406.5 M 45.5 380.5 L 49.5 380.5 M 45.5 355.5 L 49.5 355.5 M 45.5 330.5 L 49.5 330.5 M 45.5 305.5 L 49.5 305.5 M 45.5 280.5 L 49.5 280.5 M 45.5 255.5 L 49.5 255.5 M 45.5 230.5 L 49.5 230.5 M 45.5 205.5 L 49.5 205.5 M 45.5 180.5 L 49.5 180.5 M 45.5 155.5 L 49.5 155.5 M 45.5 129.5 L 49.5 129.5 M 45.5 104.5 L 49.5 104.5 M 45.5 79.5 L 49.5 79.5 M 45.5 54.5 L 49.5 54.5 M 45.5 29.5 L 49.5 29.5" stroke-opacity="1" stroke-linejoin="bevel" stroke-miterlimit="10"/><text fill="rgb(68,68,68)" stroke="none" font-family="helvetica" font-size="11px" font-style="normal" font-weight="normal" text-decoration="normal" x="31.88232421875" y="534.9375" text-anchor="start" dominant-baseline="alphabetic" transform="matrix(1, 0, 0, 1, 0.5, 0.5)" fill-opacity="1">0</text><text fill="none" stroke="rgb(0,0,0)" font-family="helvetica" font-size="11px" font-style="normal" font-weight="normal" text-decoration="normal" x="31.88232421875" y="534.9375" text-anchor="start" dominant-baseline="alphabetic" transform="matrix(1, 0, 0, 1, 0.5, 0.5)" stroke-opacity="0" stroke-linejoin="bevel" stroke-miterlimit="10">0</text><text fill="rgb(68,68,68)" stroke="none" font-family="helvetica" font-size="11px" font-style="normal" font-weight="normal" text-decoration="normal" x="31.88232421875" y="409.45684814453125" text-anchor="start" dominant-baseline="alphabetic" transform="matrix(1, 0, 0, 1, 0.5, 0.5)" fill-opacity="1">5</text><text fill="none" stroke="rgb(0,0,0)" font-family="helvetica" font-size="11px" font-style="normal" font-weight="normal" text-decoration="normal" x="31.88232421875" y="409.45684814453125" text-anchor="start" dominant-baseline="alphabetic" transform="matrix(1, 0, 0, 1, 0.5, 0.5)" stroke-opacity="0" stroke-linejoin="bevel" stroke-miterlimit="10">5</text><text fill="rgb(68,68,68)" stroke="none" font-family="helvetica" font-size="11px" font-style="normal" font-weight="normal" text-decoration="normal" x="25.7646484375" y="283.9762268066406" text-anchor="start" dominant-baseline="alphabetic" transform="matrix(1, 0, 0, 1, 0.5, 0.5)" fill-opacity="1">10</text><text fill="none" stroke="rgb(0,0,0)" font-family="helvetica" font-size="11px" font-style="normal" font-weight="normal" text-decoration="normal" x="25.7646484375" y="283.9762268066406" text-anchor="start" dominant-baseline="alphabetic" transform="matrix(1, 0, 0, 1, 0.5, 0.5)" stroke-opacity="0" stroke-linejoin="bevel" stroke-miterlimit="10">10</text><text fill="rgb(68,68,68)" stroke="none" font-family="helvetica" font-size="11px" font-style="normal" font-weight="normal" text-decoration="normal" x="25.7646484375" y="158.49557495117188" text-anchor="start" dominant-baseline="alphabetic" transform="matrix(1, 0, 0, 1, 0.5, 0.5)" fill-opacity="1">15</text><text fill="none" stroke="rgb(0,0,0)" font-family="helvetica" font-size="11px" font-style="normal" font-weight="normal" text-decoration="normal" x="25.7646484375" y="158.49557495117188" text-anchor="start" dominant-baseline="alphabetic" transform="matrix(1, 0, 0, 1, 0.5, 0.5)" stroke-opacity="0" stroke-linejoin="bevel" stroke-miterlimit="10">15</text><text fill="rgb(68,68,68)" stroke="none" font-family="helvetica" font-size="11px" font-style="normal" font-weight="normal" text-decoration="normal" x="25.7646484375" y="33.014936447143555" text-anchor="start" dominant-baseline="alphabetic" transform="matrix(1, 0, 0, 1, 0.5, 0.5)" fill-opacity="1">20</text><text fill="none" stroke="rgb(0,0,0)" font-family="helvetica" font-size="11px" font-style="normal" font-weight="normal" text-decoration="normal" x="25.7646484375" y="33.014936447143555" text-anchor="start" dominant-baseline="alphabetic" transform="matrix(1, 0, 0, 1, 0.5, 0.5)" stroke-opacity="0" stroke-linejoin="bevel" stroke-miterlimit="10">20</text><text fill="rgb(68,68,68)" stroke="none" font-family="helvetica" font-size="13px" font-style="italic" font-weight="normal" text-decoration="normal" x="-3.909423828125" y="288" text-anchor="start" dominant-baseline="alphabetic" transform="matrix(6.123233995736766e-17, -1, 1, 6.123233995736766e-17, -272.7353515625, 309.2646484375)" fill-opacity="1">Density</text><text fill="none" stroke="rgb(0,0,0)" font-family="helvetica" font-size="13px" font-style="italic" font-weight="normal" text-decoration="normal" x="-3.909423828125" y="288" text-anchor="start" dominant-baseline="alphabetic" transform="matrix(6.123233995736766e-17, -1, 1, 6.123233995736766e-17, -272.7353515625, 309.2646484375)" stroke-opacity="0" stroke-linejoin="bevel" stroke-miterlimit="10">Density</text><path fill="none" stroke="rgb(0,0,0)" paint-order="fill" d="M 1051.520627270859 27.5 L 1051.520627270859 555.5" stroke-opacity="1" stroke-linejoin="bevel" stroke-miterlimit="10" stroke-width="2" stroke-dasharray="6" clip-path="url(#OMwKlvyiCiiw)"/><path fill="none" stroke="rgb(155,85,0)" paint-order="fill" d="M 1056.6484375 27.5 L 1056.6484375 555.5" stroke-opacity="1" stroke-linejoin="bevel" stroke-miterlimit="10" stroke-width="2" stroke-dasharray="2,4" clip-path="url(#xvHSQwAuGvnl)"/><g clip-path="url(#iKoDTsQmzcBv)"><text fill="rgb(0,0,0)" stroke="none" font-family="helvetica" font-size="10pt" font-style="normal" font-weight="normal" text-decoration="normal" x="0" y="12" text-anchor="start" dominant-baseline="alphabetic" transform="matrix(1, 0, 0, 1, 1056.520627270859, 60.500000000000114)" fill-opacity="1">Mean</text></g><g clip-path="url(#iKoDTsQmzcBv)"><text fill="none" stroke="rgb(0,0,0)" font-family="helvetica" font-size="10pt" font-style="normal" font-weight="normal" text-decoration="normal" x="0" y="12" text-anchor="start" dominant-baseline="alphabetic" transform="matrix(1, 0, 0, 1, 1056.520627270859, 60.500000000000114)" stroke-opacity="0" stroke-miterlimit="10" stroke-dasharray="">Mean</text></g><g clip-path="url(#umBMyeIAgBPf)"><text fill="rgb(155,85,0)" stroke="none" font-family="helvetica" font-size="10pt" font-style="normal" font-weight="normal" text-decoration="normal" x="0" y="12" text-anchor="start" dominant-baseline="alphabetic" transform="matrix(1, 0, 0, 1, 1061.6484375, 108.50000000000011)" fill-opacity="1">Median</text></g><g clip-path="url(#umBMyeIAgBPf)"><text fill="none" stroke="rgb(0,0,0)" font-family="helvetica" font-size="10pt" font-style="normal" font-weight="normal" text-decoration="normal" x="0" y="12" text-anchor="start" dominant-baseline="alphabetic" transform="matrix(1, 0, 0, 1, 1061.6484375, 108.50000000000011)" stroke-opacity="0" stroke-miterlimit="10" stroke-dasharray="">Median</text></g><text fill="rgb(68,68,68)" stroke="none" font-family="helvetica" font-size="13px" font-style="normal" font-weight="bold" text-decoration="normal" x="0" y="12" text-anchor="start" dominant-baseline="alphabetic" transform="matrix(1, 0, 0, 1, 49.5, 7.5)" fill-opacity="1">Density of Read Alignment Proportions in Control</text><text fill="none" stroke="rgb(0,0,0)" font-family="helvetica" font-size="13px" font-style="normal" font-weight="bold" text-decoration="normal" x="0" y="12" text-anchor="start" dominant-baseline="alphabetic" transform="matrix(1, 0, 0, 1, 49.5, 7.5)" stroke-opacity="0" stroke-miterlimit="10" stroke-dasharray="">Density of Read Alignment Proportions in Control</text></svg>