<svg version="1.1" xmlns="http://www.w3.org/2000/svg" width="900" height="450"><defs><clipPath id="CnKtZZHdhFbL"><path fill="none" stroke="none" d="M 0.5 0.5 L 900.5 0.5 L 900.5 450.5 L 0.5 450.5 L 0.5 0.5 Z M 5.5 5.5 L 895.5 5.5 L 895.5 420.5 L 5.5 420.5 L 5.5 5.5 Z" clip-rule="evenodd"/></clipPath><clipPath id="HwwwOGClMzGy"><path fill="none" stroke="none" d="M 5.5 5.5 L 895.5 5.5 L 895.5 420.5 L 5.5 420.5 L 5.5 5.5 Z"/></clipPath><clipPath id="wIHFUpJaIaAe"><path fill="none" stroke="none" d="M 5.5 5.5 L 895.5 5.5 L 895.5 420.5 L 5.5 420.5 L 5.5 5.5 Z"/></clipPath><clipPath id="FIIlOOpGwEcq"><path fill="none" stroke="none" d="M 5.5 5.5 L 895.5 5.5 L 895.5 420.5 L 5.5 420.5 L 5.5 5.5 Z"/></clipPath><clipPath id="sHJCpiTMNkPS"><path fill="none" stroke="none" d="M 5.5 5.5 L 895.5 5.5 L 895.5 420.5 L 5.5 420.5 L 5.5 5.5 Z"/></clipPath><clipPath id="WTvIBJfcOLpH"><path fill="none" stroke="none" d="M 5.5 5.5 L 895.5 5.5 L 895.5 420.5 L 5.5 420.5 L 5.5 5.5 Z"/></clipPath><clipPath id="VhkkkyqQZxAi"><path fill="none" stroke="none" d="M 5.5 5.5 L 895.5 5.5 L 895.5 420.5 L 5.5 420.5 L 5.5 5.5 Z"/></clipPath></defs><path fill="#ffffff" stroke="none" paint-order="stroke" d="M 0.5 0.5 L 900.5 0.5 L 900.5 450.5 L 0.5 450.5 L 0.5 0.5 Z" fill-rule="nonzero" clip-path="url(#CnKtZZHdhFbL)"/><path fill="#ffffff" stroke="none" paint-order="stroke" d="M 5.5 5.5 L 895.5 5.5 L 895.5 420.5 L 5.5 420.5 L 5.5 5.5 Z"/><path fill="none" stroke="#e5e5e5" paint-order="fill" d="M 5.5 5.5 L 895.5 5.5 L 895.5 420.5 L 5.5 420.5 L 5.5 5.5 Z" stroke-linejoin="bevel" stroke-miterlimit="10"/><path fill="rgb(3 102 102 / 0.8)" stroke="rgb(255 255 255)" paint-order="fill" d="M 5.5 5.5 L 531.862060546875 5.5 L 531.862060546875 420.5 L 5.5 420.5 L 5.5 5.5 Z" fill-rule="nonzero" clip-path="url(#FIIlOOpGwEcq)" stroke-linejoin="bevel" stroke-miterlimit="10"/><path fill="rgb(3 102 102 / 0.8)" stroke="rgb(255 255 255)" paint-order="fill" d="M 531.862060546875 170.83152770996094 L 758.912841796875 170.83152770996094 L 758.912841796875 420.5 L 531.862060546875 420.5 L 531.862060546875 170.83152770996094 Z" fill-rule="nonzero" clip-path="url(#FIIlOOpGwEcq)" stroke-linejoin="bevel" stroke-miterlimit="10"/><path fill="rgb(3 102 102 / 0.8)" stroke="rgb(255 255 255)" paint-order="fill" d="M 531.862060546875 5.5 L 758.912841796875 5.5 L 758.912841796875 170.83152770996094 L 531.862060546875 170.83152770996094 L 531.862060546875 5.5 Z" fill-rule="nonzero" clip-path="url(#FIIlOOpGwEcq)" stroke-linejoin="bevel" stroke-miterlimit="10"/><path fill="rgb(240 96 96 / 0.8)" stroke="rgb(255 255 255)" paint-order="fill" d="M 758.912841796875 313.3583068847656 L 895.5 313.3583068847656 L 895.5 420.5 L 758.912841796875 420.5 L 758.912841796875 313.3583068847656 Z" fill-rule="nonzero" clip-path="url(#FIIlOOpGwEcq)" stroke-linejoin="bevel" stroke-miterlimit="10"/><path fill="rgb(240 96 96 / 0.8)" stroke="rgb(255 255 255)" paint-order="fill" d="M 758.912841796875 214.76034545898438 L 895.5 214.76034545898438 L 895.5 313.3583068847656 L 758.912841796875 313.3583068847656 L 758.912841796875 214.76034545898438 Z" fill-rule="nonzero" clip-path="url(#FIIlOOpGwEcq)" stroke-linejoin="bevel" stroke-miterlimit="10"/><path fill="rgb(240 96 96 / 0.8)" stroke="rgb(255 255 255)" paint-order="fill" d="M 758.912841796875 148.4854736328125 L 895.5 148.4854736328125 L 895.5 214.76034545898438 L 758.912841796875 214.76034545898438 L 758.912841796875 148.4854736328125 Z" fill-rule="nonzero" clip-path="url(#FIIlOOpGwEcq)" stroke-linejoin="bevel" stroke-miterlimit="10"/><path fill="rgb(243 181 98 / 0.8)" stroke="rgb(255 255 255)" paint-order="fill" d="M 758.912841796875 81.9603271484375 L 895.5 81.9603271484375 L 895.5 148.4854736328125 L 758.912841796875 148.4854736328125 L 758.912841796875 81.9603271484375 Z" fill-rule="nonzero" clip-path="url(#FIIlOOpGwEcq)" stroke-linejoin="bevel" stroke-miterlimit="10"/><path fill="rgb(243 181 98 / 0.8)" stroke="rgb(255 255 255)" paint-order="fill" d="M 758.912841796875 5.5 L 829.9497680664062 5.5 L 829.9497680664062 81.9603271484375 L 758.912841796875 81.9603271484375 L 758.912841796875 5.5 Z" fill-rule="nonzero" clip-path="url(#FIIlOOpGwEcq)" stroke-linejoin="bevel" stroke-miterlimit="10"/><path fill="rgb(243 181 98 / 0.8)" stroke="rgb(255 255 255)" paint-order="fill" d="M 829.9497680664062 5.5 L 895.5 5.5 L 895.5 81.9603271484375 L 829.9497680664062 81.9603271484375 L 829.9497680664062 5.5 Z" fill-rule="nonzero" clip-path="url(#FIIlOOpGwEcq)" stroke-linejoin="bevel" stroke-miterlimit="10"/><g clip-path="url(#sHJCpiTMNkPS)"><text fill="rgb(255 255 255)" stroke="none" font-family="helvetica" font-size="6pt" font-style="normal" font-weight="normal" text-decoration="normal" x="0" y="7" text-anchor="start" dominant-baseline="alphabetic" transform="matrix(1, 0, 0, 1, 10.5, 10.5)">Frame 0</text></g><g clip-path="url(#sHJCpiTMNkPS)"><text fill="none" stroke="rgb(0 0 0 / 0)" font-family="helvetica" font-size="6pt" font-style="normal" font-weight="normal" text-decoration="normal" x="0" y="7" text-anchor="start" dominant-baseline="alphabetic" transform="matrix(1, 0, 0, 1, 10.5, 10.5)" stroke-miterlimit="10" stroke-dasharray="">Frame 0</text></g><g clip-path="url(#sHJCpiTMNkPS)"><text fill="rgb(255 255 255)" stroke="none" font-family="helvetica" font-size="6pt" font-style="normal" font-weight="normal" text-decoration="normal" x="0" y="7" text-anchor="start" dominant-baseline="alphabetic" transform="matrix(1, 0, 0, 1, 536.862060546875, 175.83152770996094)">Frame 2</text></g><g clip-path="url(#sHJCpiTMNkPS)"><text fill="none" stroke="rgb(0 0 0 / 0)" font-family="helvetica" font-size="6pt" font-style="normal" font-weight="normal" text-decoration="normal" x="0" y="7" text-anchor="start" dominant-baseline="alphabetic" transform="matrix(1, 0, 0, 1, 536.862060546875, 175.83152770996094)" stroke-miterlimit="10" stroke-dasharray="">Frame 2</text></g><g clip-path="url(#sHJCpiTMNkPS)"><text fill="rgb(255 255 255)" stroke="none" font-family="helvetica" font-size="6pt" font-style="normal" font-weight="normal" text-decoration="normal" x="0" y="7" text-anchor="start" dominant-baseline="alphabetic" transform="matrix(1, 0, 0, 1, 536.862060546875, 10.5)">Frame 1</text></g><g clip-path="url(#sHJCpiTMNkPS)"><text fill="none" stroke="rgb(0 0 0 / 0)" font-family="helvetica" font-size="6pt" font-style="normal" font-weight="normal" text-decoration="normal" x="0" y="7" text-anchor="start" dominant-baseline="alphabetic" transform="matrix(1, 0, 0, 1, 536.862060546875, 10.5)" stroke-miterlimit="10" stroke-dasharray="">Frame 1</text></g><g clip-path="url(#sHJCpiTMNkPS)"><text fill="rgb(255 255 255)" stroke="none" font-family="helvetica" font-size="6pt" font-style="normal" font-weight="normal" text-decoration="normal" x="0" y="7" text-anchor="start" dominant-baseline="alphabetic" transform="matrix(1, 0, 0, 1, 763.912841796875, 318.3583068847656)">Frame 1</text></g><g clip-path="url(#sHJCpiTMNkPS)"><text fill="none" stroke="rgb(0 0 0 / 0)" font-family="helvetica" font-size="6pt" font-style="normal" font-weight="normal" text-decoration="normal" x="0" y="7" text-anchor="start" dominant-baseline="alphabetic" transform="matrix(1, 0, 0, 1, 763.912841796875, 318.3583068847656)" stroke-miterlimit="10" stroke-dasharray="">Frame 1</text></g><g clip-path="url(#sHJCpiTMNkPS)"><text fill="rgb(255 255 255)" stroke="none" font-family="helvetica" font-size="6pt" font-style="normal" font-weight="normal" text-decoration="normal" x="0" y="7" text-anchor="start" dominant-baseline="alphabetic" transform="matrix(1, 0, 0, 1, 763.912841796875, 219.76034545898438)">Frame 2</text></g><g clip-path="url(#sHJCpiTMNkPS)"><text fill="none" stroke="rgb(0 0 0 / 0)" font-family="helvetica" font-size="6pt" font-style="normal" font-weight="normal" text-decoration="normal" x="0" y="7" text-anchor="start" dominant-baseline="alphabetic" transform="matrix(1, 0, 0, 1, 763.912841796875, 219.76034545898438)" stroke-miterlimit="10" stroke-dasharray="">Frame 2</text></g><g clip-path="url(#sHJCpiTMNkPS)"><text fill="rgb(255 255 255)" stroke="none" font-family="helvetica" font-size="6pt" font-style="normal" font-weight="normal" text-decoration="normal" x="0" y="7" text-anchor="start" dominant-baseline="alphabetic" transform="matrix(1, 0, 0, 1, 763.912841796875, 153.4854736328125)">Frame 0</text></g><g clip-path="url(#sHJCpiTMNkPS)"><text fill="none" stroke="rgb(0 0 0 / 0)" font-family="helvetica" font-size="6pt" font-style="normal" font-weight="normal" text-decoration="normal" x="0" y="7" text-anchor="start" dominant-baseline="alphabetic" transform="matrix(1, 0, 0, 1, 763.912841796875, 153.4854736328125)" stroke-miterlimit="10" stroke-dasharray="">Frame 0</text></g><g clip-path="url(#sHJCpiTMNkPS)"><text fill="rgb(255 255 255)" stroke="none" font-family="helvetica" font-size="6pt" font-style="normal" font-weight="normal" text-decoration="normal" x="0" y="7" text-anchor="start" dominant-baseline="alphabetic" transform="matrix(1, 0, 0, 1, 763.912841796875, 86.9603271484375)">Frame 0</text></g><g clip-path="url(#sHJCpiTMNkPS)"><text fill="none" stroke="rgb(0 0 0 / 0)" font-family="helvetica" font-size="6pt" font-style="normal" font-weight="normal" text-decoration="normal" x="0" y="7" text-anchor="start" dominant-baseline="alphabetic" transform="matrix(1, 0, 0, 1, 763.912841796875, 86.9603271484375)" stroke-miterlimit="10" stroke-dasharray="">Frame 0</text></g><g clip-path="url(#sHJCpiTMNkPS)"><text fill="rgb(255 255 255)" stroke="none" font-family="helvetica" font-size="6pt" font-style="normal" font-weight="normal" text-decoration="normal" x="0" y="7" text-anchor="start" dominant-baseline="alphabetic" transform="matrix(1, 0, 0, 1, 763.912841796875, 10.5)">Frame 2</text></g><g clip-path="url(#sHJCpiTMNkPS)"><text fill="none" stroke="rgb(0 0 0 / 0)" font-family="helvetica" font-size="6pt" font-style="normal" font-weight="normal" text-decoration="normal" x="0" y="7" text-anchor="start" dominant-baseline="alphabetic" transform="matrix(1, 0, 0, 1, 763.912841796875, 10.5)" stroke-miterlimit="10" stroke-dasharray="">Frame 2</text></g><g clip-path="url(#sHJCpiTMNkPS)"><text fill="rgb(255 255 255)" stroke="none" font-family="helvetica" font-size="6pt" font-style="normal" font-weight="normal" text-decoration="normal" x="0" y="7" text-anchor="start" dominant-baseline="alphabetic" transform="matrix(1, 0, 0, 1, 834.9497680664062, 10.5)">Frame 1</text></g><g clip-path="url(#sHJCpiTMNkPS)"><text fill="none" stroke="rgb(0 0 0 / 0)" font-family="helvetica" font-size="6pt" font-style="normal" font-weight="normal" text-decoration="normal" x="0" y="7" text-anchor="start" dominant-baseline="alphabetic" transform="matrix(1, 0, 0, 1, 834.9497680664062, 10.5)" stroke-miterlimit="10" stroke-dasharray="">Frame 1</text></g><g clip-path="url(#WTvIBJfcOLpH)"><text fill="rgb(255 255 255)" stroke="none" font-family="helvetica" font-size="8pt" font-style="normal" font-weight="normal" text-decoration="normal" x="0" y="10" text-anchor="start" dominant-baseline="alphabetic" transform="matrix(1, 0, 0, 1, 499.63621520996094, 406.5)">59.1%</text></g><g clip-path="url(#WTvIBJfcOLpH)"><text fill="none" stroke="rgb(0 0 0 / 0)" font-family="helvetica" font-size="8pt" font-style="normal" font-weight="normal" text-decoration="normal" x="0" y="10" text-anchor="start" dominant-baseline="alphabetic" transform="matrix(1, 0, 0, 1, 499.63621520996094, 406.5)" stroke-miterlimit="10" stroke-dasharray="">59.1%</text></g><g clip-path="url(#WTvIBJfcOLpH)"><text fill="rgb(255 255 255)" stroke="none" font-family="helvetica" font-size="8pt" font-style="normal" font-weight="normal" text-decoration="normal" x="0" y="10" text-anchor="start" dominant-baseline="alphabetic" transform="matrix(1, 0, 0, 1, 726.6869964599609, 406.5)">15.3%</text></g><g clip-path="url(#WTvIBJfcOLpH)"><text fill="none" stroke="rgb(0 0 0 / 0)" font-family="helvetica" font-size="8pt" font-style="normal" font-weight="normal" text-decoration="normal" x="0" y="10" text-anchor="start" dominant-baseline="alphabetic" transform="matrix(1, 0, 0, 1, 726.6869964599609, 406.5)" stroke-miterlimit="10" stroke-dasharray="">15.3%</text></g><g clip-path="url(#WTvIBJfcOLpH)"><text fill="rgb(255 255 255)" stroke="none" font-family="helvetica" font-size="8pt" font-style="normal" font-weight="normal" text-decoration="normal" x="0" y="10" text-anchor="start" dominant-baseline="alphabetic" transform="matrix(1, 0, 0, 1, 726.6869964599609, 156.83152770996094)">10.2%</text></g><g clip-path="url(#WTvIBJfcOLpH)"><text fill="none" stroke="rgb(0 0 0 / 0)" font-family="helvetica" font-size="8pt" font-style="normal" font-weight="normal" text-decoration="normal" x="0" y="10" text-anchor="start" dominant-baseline="alphabetic" transform="matrix(1, 0, 0, 1, 726.6869964599609, 156.83152770996094)" stroke-miterlimit="10" stroke-dasharray="">10.2%</text></g><g clip-path="url(#WTvIBJfcOLpH)"><text fill="rgb(255 255 255)" stroke="none" font-family="helvetica" font-size="8pt" font-style="normal" font-weight="normal" text-decoration="normal" x="0" y="10" text-anchor="start" dominant-baseline="alphabetic" transform="matrix(1, 0, 0, 1, 869.2027282714844, 406.5)">4.0%</text></g><g clip-path="url(#WTvIBJfcOLpH)"><text fill="none" stroke="rgb(0 0 0 / 0)" font-family="helvetica" font-size="8pt" font-style="normal" font-weight="normal" text-decoration="normal" x="0" y="10" text-anchor="start" dominant-baseline="alphabetic" transform="matrix(1, 0, 0, 1, 869.2027282714844, 406.5)" stroke-miterlimit="10" stroke-dasharray="">4.0%</text></g><g clip-path="url(#WTvIBJfcOLpH)"><text fill="rgb(255 255 255)" stroke="none" font-family="helvetica" font-size="8pt" font-style="normal" font-weight="normal" text-decoration="normal" x="0" y="10" text-anchor="start" dominant-baseline="alphabetic" transform="matrix(1, 0, 0, 1, 869.2027282714844, 299.3583068847656)">3.6%</text></g><g clip-path="url(#WTvIBJfcOLpH)"><text fill="none" stroke="rgb(0 0 0 / 0)" font-family="helvetica" font-size="8pt" font-style="normal" font-weight="normal" text-decoration="normal" x="0" y="10" text-anchor="start" dominant-baseline="alphabetic" transform="matrix(1, 0, 0, 1, 869.2027282714844, 299.3583068847656)" stroke-miterlimit="10" stroke-dasharray="">3.6%</text></g><g clip-path="url(#WTvIBJfcOLpH)"><text fill="rgb(255 255 255)" stroke="none" font-family="helvetica" font-size="8pt" font-style="normal" font-weight="normal" text-decoration="normal" x="0" y="10" text-anchor="start" dominant-baseline="alphabetic" transform="matrix(1, 0, 0, 1, 869.2027282714844, 200.76034545898438)">2.5%</text></g><g clip-path="url(#WTvIBJfcOLpH)"><text fill="none" stroke="rgb(0 0 0 / 0)" font-family="helvetica" font-size="8pt" font-style="normal" font-weight="normal" text-decoration="normal" x="0" y="10" text-anchor="start" dominant-baseline="alphabetic" transform="matrix(1, 0, 0, 1, 869.2027282714844, 200.76034545898438)" stroke-miterlimit="10" stroke-dasharray="">2.5%</text></g><g clip-path="url(#WTvIBJfcOLpH)"><text fill="rgb(255 255 255)" stroke="none" font-family="helvetica" font-size="8pt" font-style="normal" font-weight="normal" text-decoration="normal" x="0" y="10" text-anchor="start" dominant-baseline="alphabetic" transform="matrix(1, 0, 0, 1, 869.2027282714844, 134.4854736328125)">2.5%</text></g><g clip-path="url(#WTvIBJfcOLpH)"><text fill="none" stroke="rgb(0 0 0 / 0)" font-family="helvetica" font-size="8pt" font-style="normal" font-weight="normal" text-decoration="normal" x="0" y="10" text-anchor="start" dominant-baseline="alphabetic" transform="matrix(1, 0, 0, 1, 869.2027282714844, 134.4854736328125)" stroke-miterlimit="10" stroke-dasharray="">2.5%</text></g><g clip-path="url(#WTvIBJfcOLpH)"><text fill="rgb(255 255 255)" stroke="none" font-family="helvetica" font-size="8pt" font-style="normal" font-weight="normal" text-decoration="normal" x="0" y="10" text-anchor="start" dominant-baseline="alphabetic" transform="matrix(1, 0, 0, 1, 803.6524963378906, 67.9603271484375)">1.5%</text></g><g clip-path="url(#WTvIBJfcOLpH)"><text fill="none" stroke="rgb(0 0 0 / 0)" font-family="helvetica" font-size="8pt" font-style="normal" font-weight="normal" text-decoration="normal" x="0" y="10" text-anchor="start" dominant-baseline="alphabetic" transform="matrix(1, 0, 0, 1, 803.6524963378906, 67.9603271484375)" stroke-miterlimit="10" stroke-dasharray="">1.5%</text></g><g clip-path="url(#WTvIBJfcOLpH)"><text fill="rgb(255 255 255)" stroke="none" font-family="helvetica" font-size="8pt" font-style="normal" font-weight="normal" text-decoration="normal" x="0" y="10" text-anchor="start" dominant-baseline="alphabetic" transform="matrix(1, 0, 0, 1, 869.2027282714844, 67.9603271484375)">1.4%</text></g><g clip-path="url(#WTvIBJfcOLpH)"><text fill="none" stroke="rgb(0 0 0 / 0)" font-family="helvetica" font-size="8pt" font-style="normal" font-weight="normal" text-decoration="normal" x="0" y="10" text-anchor="start" dominant-baseline="alphabetic" transform="matrix(1, 0, 0, 1, 869.2027282714844, 67.9603271484375)" stroke-miterlimit="10" stroke-dasharray="">1.4%</text></g><path fill="rgb(255 255 255 / 0.9490196078431372)" stroke="rgb(229 229 229 / 0.5019607843137255)" paint-order="fill" d="M 15.5 324.5 L 94.5 324.5 L 94.5 410.5 L 15.5 410.5 L 15.5 324.5 Z" fill-rule="nonzero" clip-path="url(#VhkkkyqQZxAi)" stroke-linejoin="bevel" stroke-miterlimit="10"/><path fill="rgb(3 102 102 / 0.8)" stroke="rgb(255 255 255)" paint-order="fill" d="M 27.5 336.5 L 43.5 336.5 L 43.5 352.5 L 27.5 352.5 L 27.5 336.5 Z" fill-rule="nonzero" clip-path="url(#VhkkkyqQZxAi)" stroke-linejoin="bevel" stroke-miterlimit="10"/><g clip-path="url(#VhkkkyqQZxAi)"><text fill="#444444" stroke="none" font-family="helvetica" font-size="13px" font-style="normal" font-weight="normal" text-decoration="normal" x="0" y="4.5" text-anchor="start" dominant-baseline="alphabetic" transform="matrix(1, 0, 0, 1, 50.5, 344.5)">CDS</text></g><g clip-path="url(#VhkkkyqQZxAi)"><text fill="none" stroke="rgb(0 0 0 / 0)" font-family="helvetica" font-size="13px" font-style="normal" font-weight="normal" text-decoration="normal" x="0" y="4.5" text-anchor="start" dominant-baseline="alphabetic" transform="matrix(1, 0, 0, 1, 50.5, 344.5)" stroke-linejoin="bevel" stroke-miterlimit="10">CDS</text></g><path fill="rgb(240 96 96 / 0.8)" stroke="rgb(255 255 255)" paint-order="fill" d="M 27.5 359.5 L 43.5 359.5 L 43.5 375.5 L 27.5 375.5 L 27.5 359.5 Z" fill-rule="nonzero" clip-path="url(#VhkkkyqQZxAi)" stroke-linejoin="bevel" stroke-miterlimit="10"/><g clip-path="url(#VhkkkyqQZxAi)"><text fill="#444444" stroke="none" font-family="helvetica" font-size="13px" font-style="normal" font-weight="normal" text-decoration="normal" x="0" y="4.5" text-anchor="start" dominant-baseline="alphabetic" transform="matrix(1, 0, 0, 1, 50.5, 367.5)">UTR3</text></g><g clip-path="url(#VhkkkyqQZxAi)"><text fill="none" stroke="rgb(0 0 0 / 0)" font-family="helvetica" font-size="13px" font-style="normal" font-weight="normal" text-decoration="normal" x="0" y="4.5" text-anchor="start" dominant-baseline="alphabetic" transform="matrix(1, 0, 0, 1, 50.5, 367.5)" stroke-linejoin="bevel" stroke-miterlimit="10">UTR3</text></g><path fill="rgb(243 181 98 / 0.8)" stroke="rgb(255 255 255)" paint-order="fill" d="M 27.5 382.5 L 43.5 382.5 L 43.5 398.5 L 27.5 398.5 L 27.5 382.5 Z" fill-rule="nonzero" clip-path="url(#VhkkkyqQZxAi)" stroke-linejoin="bevel" stroke-miterlimit="10"/><g clip-path="url(#VhkkkyqQZxAi)"><text fill="#444444" stroke="none" font-family="helvetica" font-size="13px" font-style="normal" font-weight="normal" text-decoration="normal" x="0" y="4.5" text-anchor="start" dominant-baseline="alphabetic" transform="matrix(1, 0, 0, 1, 50.5, 390.5)">UTR5</text></g><g clip-path="url(#VhkkkyqQZxAi)"><text fill="none" stroke="rgb(0 0 0 / 0)" font-family="helvetica" font-size="13px" font-style="normal" font-weight="normal" text-decoration="normal" x="0" y="4.5" text-anchor="start" dominant-baseline="alphabetic" transform="matrix(1, 0, 0, 1, 50.5, 390.5)" stroke-linejoin="bevel" stroke-miterlimit="10">UTR5</text></g></svg>