<svg version="1.1" xmlns="http://www.w3.org/2000/svg" width="810" height="400"><defs><clipPath id="amkTpPPlxCdW"><path fill="none" stroke="none" d="M 0.5 0.5 L 810.5 0.5 L 810.5 400.5 L 0.5 400.5 L 0.5 0.5 Z M 5.5 5.5 L 805.5 5.5 L 805.5 370.5 L 5.5 370.5 L 5.5 5.5 Z" clip-rule="evenodd"/></clipPath><clipPath id="KekbnTkyyVyw"><path fill="none" stroke="none" d="M 5.5 5.5 L 805.5 5.5 L 805.5 370.5 L 5.5 370.5 L 5.5 5.5 Z"/></clipPath><clipPath id="iFuJgyxmAARg"><path fill="none" stroke="none" d="M 5.5 5.5 L 805.5 5.5 L 805.5 370.5 L 5.5 370.5 L 5.5 5.5 Z"/></clipPath><clipPath id="nZMBtyoyrXGe"><path fill="none" stroke="none" d="M 5.5 5.5 L 805.5 5.5 L 805.5 370.5 L 5.5 370.5 L 5.5 5.5 Z"/></clipPath><clipPath id="utUKFVHRRsNN"><path fill="none" stroke="none" d="M 5.5 5.5 L 805.5 5.5 L 805.5 370.5 L 5.5 370.5 L 5.5 5.5 Z"/></clipPath><clipPath id="plqKKSRQGATu"><path fill="none" stroke="none" d="M 5.5 5.5 L 805.5 5.5 L 805.5 370.5 L 5.5 370.5 L 5.5 5.5 Z"/></clipPath><clipPath id="PopDQPmZznzi"><path fill="none" stroke="none" d="M 5.5 5.5 L 805.5 5.5 L 805.5 370.5 L 5.5 370.5 L 5.5 5.5 Z"/></clipPath></defs><path fill="rgb(255,255,255)" stroke="none" paint-order="stroke" d="M 0.5 0.5 L 810.5 0.5 L 810.5 400.5 L 0.5 400.5 L 0.5 0.5 Z" fill-opacity="1" clip-path="url(#amkTpPPlxCdW)"/><path fill="rgb(255,255,255)" stroke="none" paint-order="stroke" d="M 5.5 5.5 L 805.5 5.5 L 805.5 370.5 L 5.5 370.5 L 5.5 5.5 Z" fill-opacity="1"/><path fill="none" stroke="rgb(229,229,229)" paint-order="fill" d="M 5.5 5.5 L 805.5 5.5 L 805.5 370.5 L 5.5 370.5 L 5.5 5.5 Z" stroke-opacity="1" stroke-linejoin="bevel" stroke-miterlimit="10"/><path fill="rgb(3,102,102)" stroke="rgb(255,255,255)" paint-order="fill" d="M 5.5 5.5 L 294.21527099609375 5.5 L 294.21527099609375 370.5 L 5.5 370.5 L 5.5 5.5 Z" fill-opacity="0.8" clip-path="url(#nZMBtyoyrXGe)" stroke-opacity="1" stroke-linejoin="bevel" stroke-miterlimit="10"/><path fill="rgb(3,102,102)" stroke="rgb(255,255,255)" paint-order="fill" d="M 294.21527099609375 164.4064178466797 L 637.8038940429688 164.4064178466797 L 637.8038940429688 370.5 L 294.21527099609375 370.5 L 294.21527099609375 164.4064178466797 Z" fill-opacity="0.8" clip-path="url(#nZMBtyoyrXGe)" stroke-opacity="1" stroke-linejoin="bevel" stroke-miterlimit="10"/><path fill="rgb(3,102,102)" stroke="rgb(255,255,255)" paint-order="fill" d="M 294.21527099609375 5.5 L 637.8038940429688 5.5 L 637.8038940429688 164.4064178466797 L 294.21527099609375 164.4064178466797 L 294.21527099609375 5.5 Z" fill-opacity="0.8" clip-path="url(#nZMBtyoyrXGe)" stroke-opacity="1" stroke-linejoin="bevel" stroke-miterlimit="10"/><path fill="rgb(240,96,96)" stroke="rgb(255,255,255)" paint-order="fill" d="M 637.8038940429688 273.0414733886719 L 805.5 273.0414733886719 L 805.5 370.5 L 637.8038940429688 370.5 L 637.8038940429688 273.0414733886719 Z" fill-opacity="0.8" clip-path="url(#nZMBtyoyrXGe)" stroke-opacity="1" stroke-linejoin="bevel" stroke-miterlimit="10"/><path fill="rgb(240,96,96)" stroke="rgb(255,255,255)" paint-order="fill" d="M 637.8038940429688 177.4556884765625 L 805.5 177.4556884765625 L 805.5 273.0414733886719 L 637.8038940429688 273.0414733886719 L 637.8038940429688 177.4556884765625 Z" fill-opacity="0.8" clip-path="url(#nZMBtyoyrXGe)" stroke-opacity="1" stroke-linejoin="bevel" stroke-miterlimit="10"/><path fill="rgb(240,96,96)" stroke="rgb(255,255,255)" paint-order="fill" d="M 637.8038940429688 88.84146118164062 L 805.5 88.84146118164062 L 805.5 177.4556884765625 L 637.8038940429688 177.4556884765625 L 637.8038940429688 88.84146118164062 Z" fill-opacity="0.8" clip-path="url(#nZMBtyoyrXGe)" stroke-opacity="1" stroke-linejoin="bevel" stroke-miterlimit="10"/><path fill="rgb(243,181,98)" stroke="rgb(255,255,255)" paint-order="fill" d="M 637.8038940429688 5.5 L 697.435302734375 5.5 L 697.435302734375 88.84146881103516 L 637.8038940429688 88.84146881103516 L 637.8038940429688 5.5 Z" fill-opacity="0.8" clip-path="url(#nZMBtyoyrXGe)" stroke-opacity="1" stroke-linejoin="bevel" stroke-miterlimit="10"/><path fill="rgb(243,181,98)" stroke="rgb(255,255,255)" paint-order="fill" d="M 697.435302734375 5.5 L 752.3599853515625 5.5 L 752.3599853515625 88.84146881103516 L 697.435302734375 88.84146881103516 L 697.435302734375 5.5 Z" fill-opacity="0.8" clip-path="url(#nZMBtyoyrXGe)" stroke-opacity="1" stroke-linejoin="bevel" stroke-miterlimit="10"/><path fill="rgb(243,181,98)" stroke="rgb(255,255,255)" paint-order="fill" d="M 752.3599853515625 5.5 L 805.5 5.5 L 805.5 88.84146881103516 L 752.3599853515625 88.84146881103516 L 752.3599853515625 5.5 Z" fill-opacity="0.8" clip-path="url(#nZMBtyoyrXGe)" stroke-opacity="1" stroke-linejoin="bevel" stroke-miterlimit="10"/><g clip-path="url(#utUKFVHRRsNN)"><text fill="rgb(255,255,255)" stroke="none" font-family="helvetica" font-size="6pt" font-style="normal" font-weight="normal" text-decoration="normal" x="0" y="8" text-anchor="start" dominant-baseline="alphabetic" transform="matrix(1, 0, 0, 1, 10.5, 10.5)" fill-opacity="1">Frame 0</text></g><g clip-path="url(#utUKFVHRRsNN)"><text fill="none" stroke="rgb(0,0,0)" font-family="helvetica" font-size="6pt" font-style="normal" font-weight="normal" text-decoration="normal" x="0" y="8" text-anchor="start" dominant-baseline="alphabetic" transform="matrix(1, 0, 0, 1, 10.5, 10.5)" stroke-opacity="0" stroke-miterlimit="10" stroke-dasharray="">Frame 0</text></g><g clip-path="url(#utUKFVHRRsNN)"><text fill="rgb(255,255,255)" stroke="none" font-family="helvetica" font-size="6pt" font-style="normal" font-weight="normal" text-decoration="normal" x="0" y="8" text-anchor="start" dominant-baseline="alphabetic" transform="matrix(1, 0, 0, 1, 299.21527099609375, 169.4064178466797)" fill-opacity="1">Frame 1</text></g><g clip-path="url(#utUKFVHRRsNN)"><text fill="none" stroke="rgb(0,0,0)" font-family="helvetica" font-size="6pt" font-style="normal" font-weight="normal" text-decoration="normal" x="0" y="8" text-anchor="start" dominant-baseline="alphabetic" transform="matrix(1, 0, 0, 1, 299.21527099609375, 169.4064178466797)" stroke-opacity="0" stroke-miterlimit="10" stroke-dasharray="">Frame 1</text></g><g clip-path="url(#utUKFVHRRsNN)"><text fill="rgb(255,255,255)" stroke="none" font-family="helvetica" font-size="6pt" font-style="normal" font-weight="normal" text-decoration="normal" x="0" y="8" text-anchor="start" dominant-baseline="alphabetic" transform="matrix(1, 0, 0, 1, 299.21527099609375, 10.5)" fill-opacity="1">Frame 2</text></g><g clip-path="url(#utUKFVHRRsNN)"><text fill="none" stroke="rgb(0,0,0)" font-family="helvetica" font-size="6pt" font-style="normal" font-weight="normal" text-decoration="normal" x="0" y="8" text-anchor="start" dominant-baseline="alphabetic" transform="matrix(1, 0, 0, 1, 299.21527099609375, 10.5)" stroke-opacity="0" stroke-miterlimit="10" stroke-dasharray="">Frame 2</text></g><g clip-path="url(#utUKFVHRRsNN)"><text fill="rgb(255,255,255)" stroke="none" font-family="helvetica" font-size="6pt" font-style="normal" font-weight="normal" text-decoration="normal" x="0" y="8" text-anchor="start" dominant-baseline="alphabetic" transform="matrix(1, 0, 0, 1, 642.8038940429688, 278.0414733886719)" fill-opacity="1">Frame 2</text></g><g clip-path="url(#utUKFVHRRsNN)"><text fill="none" stroke="rgb(0,0,0)" font-family="helvetica" font-size="6pt" font-style="normal" font-weight="normal" text-decoration="normal" x="0" y="8" text-anchor="start" dominant-baseline="alphabetic" transform="matrix(1, 0, 0, 1, 642.8038940429688, 278.0414733886719)" stroke-opacity="0" stroke-miterlimit="10" stroke-dasharray="">Frame 2</text></g><g clip-path="url(#utUKFVHRRsNN)"><text fill="rgb(255,255,255)" stroke="none" font-family="helvetica" font-size="6pt" font-style="normal" font-weight="normal" text-decoration="normal" x="0" y="8" text-anchor="start" dominant-baseline="alphabetic" transform="matrix(1, 0, 0, 1, 642.8038940429688, 182.4556884765625)" fill-opacity="1">Frame 1</text></g><g clip-path="url(#utUKFVHRRsNN)"><text fill="none" stroke="rgb(0,0,0)" font-family="helvetica" font-size="6pt" font-style="normal" font-weight="normal" text-decoration="normal" x="0" y="8" text-anchor="start" dominant-baseline="alphabetic" transform="matrix(1, 0, 0, 1, 642.8038940429688, 182.4556884765625)" stroke-opacity="0" stroke-miterlimit="10" stroke-dasharray="">Frame 1</text></g><g clip-path="url(#utUKFVHRRsNN)"><text fill="rgb(255,255,255)" stroke="none" font-family="helvetica" font-size="6pt" font-style="normal" font-weight="normal" text-decoration="normal" x="0" y="8" text-anchor="start" dominant-baseline="alphabetic" transform="matrix(1, 0, 0, 1, 642.8038940429688, 93.84146881103516)" fill-opacity="1">Frame 0</text></g><g clip-path="url(#utUKFVHRRsNN)"><text fill="none" stroke="rgb(0,0,0)" font-family="helvetica" font-size="6pt" font-style="normal" font-weight="normal" text-decoration="normal" x="0" y="8" text-anchor="start" dominant-baseline="alphabetic" transform="matrix(1, 0, 0, 1, 642.8038940429688, 93.84146881103516)" stroke-opacity="0" stroke-miterlimit="10" stroke-dasharray="">Frame 0</text></g><g clip-path="url(#utUKFVHRRsNN)"><text fill="rgb(255,255,255)" stroke="none" font-family="helvetica" font-size="6pt" font-style="normal" font-weight="normal" text-decoration="normal" x="0" y="8" text-anchor="start" dominant-baseline="alphabetic" transform="matrix(1, 0, 0, 1, 642.8038940429688, 10.5)" fill-opacity="1">Frame 0</text></g><g clip-path="url(#utUKFVHRRsNN)"><text fill="none" stroke="rgb(0,0,0)" font-family="helvetica" font-size="6pt" font-style="normal" font-weight="normal" text-decoration="normal" x="0" y="8" text-anchor="start" dominant-baseline="alphabetic" transform="matrix(1, 0, 0, 1, 642.8038940429688, 10.5)" stroke-opacity="0" stroke-miterlimit="10" stroke-dasharray="">Frame 0</text></g><g clip-path="url(#utUKFVHRRsNN)"><text fill="rgb(255,255,255)" stroke="none" font-family="helvetica" font-size="6pt" font-style="normal" font-weight="normal" text-decoration="normal" x="0" y="8" text-anchor="start" dominant-baseline="alphabetic" transform="matrix(1, 0, 0, 1, 702.435302734375, 10.5)" fill-opacity="1">Frame 1</text></g><g clip-path="url(#utUKFVHRRsNN)"><text fill="none" stroke="rgb(0,0,0)" font-family="helvetica" font-size="6pt" font-style="normal" font-weight="normal" text-decoration="normal" x="0" y="8" text-anchor="start" dominant-baseline="alphabetic" transform="matrix(1, 0, 0, 1, 702.435302734375, 10.5)" stroke-opacity="0" stroke-miterlimit="10" stroke-dasharray="">Frame 1</text></g><g clip-path="url(#utUKFVHRRsNN)"><text fill="rgb(255,255,255)" stroke="none" font-family="helvetica" font-size="6pt" font-style="normal" font-weight="normal" text-decoration="normal" x="0" y="8" text-anchor="start" dominant-baseline="alphabetic" transform="matrix(1, 0, 0, 1, 757.3599853515625, 10.5)" fill-opacity="1">Frame 2</text></g><g clip-path="url(#utUKFVHRRsNN)"><text fill="none" stroke="rgb(0,0,0)" font-family="helvetica" font-size="6pt" font-style="normal" font-weight="normal" text-decoration="normal" x="0" y="8" text-anchor="start" dominant-baseline="alphabetic" transform="matrix(1, 0, 0, 1, 757.3599853515625, 10.5)" stroke-opacity="0" stroke-miterlimit="10" stroke-dasharray="">Frame 2</text></g><g clip-path="url(#plqKKSRQGATu)"><text fill="rgb(255,255,255)" stroke="none" font-family="helvetica" font-size="8pt" font-style="normal" font-weight="normal" text-decoration="normal" x="0" y="10" text-anchor="start" dominant-baseline="alphabetic" transform="matrix(1, 0, 0, 1, 258.4152717590332, 355.5)" fill-opacity="1">36.1%</text></g><g clip-path="url(#plqKKSRQGATu)"><text fill="none" stroke="rgb(0,0,0)" font-family="helvetica" font-size="8pt" font-style="normal" font-weight="normal" text-decoration="normal" x="0" y="10" text-anchor="start" dominant-baseline="alphabetic" transform="matrix(1, 0, 0, 1, 258.4152717590332, 355.5)" stroke-opacity="0" stroke-miterlimit="10" stroke-dasharray="">36.1%</text></g><g clip-path="url(#plqKKSRQGATu)"><text fill="rgb(255,255,255)" stroke="none" font-family="helvetica" font-size="8pt" font-style="normal" font-weight="normal" text-decoration="normal" x="0" y="10" text-anchor="start" dominant-baseline="alphabetic" transform="matrix(1, 0, 0, 1, 602.0038948059082, 355.5)" fill-opacity="1">24.3%</text></g><g clip-path="url(#plqKKSRQGATu)"><text fill="none" stroke="rgb(0,0,0)" font-family="helvetica" font-size="8pt" font-style="normal" font-weight="normal" text-decoration="normal" x="0" y="10" text-anchor="start" dominant-baseline="alphabetic" transform="matrix(1, 0, 0, 1, 602.0038948059082, 355.5)" stroke-opacity="0" stroke-miterlimit="10" stroke-dasharray="">24.3%</text></g><g clip-path="url(#plqKKSRQGATu)"><text fill="rgb(255,255,255)" stroke="none" font-family="helvetica" font-size="8pt" font-style="normal" font-weight="normal" text-decoration="normal" x="0" y="10" text-anchor="start" dominant-baseline="alphabetic" transform="matrix(1, 0, 0, 1, 602.0038948059082, 149.4064178466797)" fill-opacity="1">18.7%</text></g><g clip-path="url(#plqKKSRQGATu)"><text fill="none" stroke="rgb(0,0,0)" font-family="helvetica" font-size="8pt" font-style="normal" font-weight="normal" text-decoration="normal" x="0" y="10" text-anchor="start" dominant-baseline="alphabetic" transform="matrix(1, 0, 0, 1, 602.0038948059082, 149.4064178466797)" stroke-opacity="0" stroke-miterlimit="10" stroke-dasharray="">18.7%</text></g><g clip-path="url(#plqKKSRQGATu)"><text fill="rgb(255,255,255)" stroke="none" font-family="helvetica" font-size="8pt" font-style="normal" font-weight="normal" text-decoration="normal" x="0" y="10" text-anchor="start" dominant-baseline="alphabetic" transform="matrix(1, 0, 0, 1, 776.466667175293, 355.5)" fill-opacity="1">5.6%</text></g><g clip-path="url(#plqKKSRQGATu)"><text fill="none" stroke="rgb(0,0,0)" font-family="helvetica" font-size="8pt" font-style="normal" font-weight="normal" text-decoration="normal" x="0" y="10" text-anchor="start" dominant-baseline="alphabetic" transform="matrix(1, 0, 0, 1, 776.466667175293, 355.5)" stroke-opacity="0" stroke-miterlimit="10" stroke-dasharray="">5.6%</text></g><g clip-path="url(#plqKKSRQGATu)"><text fill="rgb(255,255,255)" stroke="none" font-family="helvetica" font-size="8pt" font-style="normal" font-weight="normal" text-decoration="normal" x="0" y="10" text-anchor="start" dominant-baseline="alphabetic" transform="matrix(1, 0, 0, 1, 776.466667175293, 258.0414733886719)" fill-opacity="1">5.5%</text></g><g clip-path="url(#plqKKSRQGATu)"><text fill="none" stroke="rgb(0,0,0)" font-family="helvetica" font-size="8pt" font-style="normal" font-weight="normal" text-decoration="normal" x="0" y="10" text-anchor="start" dominant-baseline="alphabetic" transform="matrix(1, 0, 0, 1, 776.466667175293, 258.0414733886719)" stroke-opacity="0" stroke-miterlimit="10" stroke-dasharray="">5.5%</text></g><g clip-path="url(#plqKKSRQGATu)"><text fill="rgb(255,255,255)" stroke="none" font-family="helvetica" font-size="8pt" font-style="normal" font-weight="normal" text-decoration="normal" x="0" y="10" text-anchor="start" dominant-baseline="alphabetic" transform="matrix(1, 0, 0, 1, 776.466667175293, 162.4556884765625)" fill-opacity="1">5.1%</text></g><g clip-path="url(#plqKKSRQGATu)"><text fill="none" stroke="rgb(0,0,0)" font-family="helvetica" font-size="8pt" font-style="normal" font-weight="normal" text-decoration="normal" x="0" y="10" text-anchor="start" dominant-baseline="alphabetic" transform="matrix(1, 0, 0, 1, 776.466667175293, 162.4556884765625)" stroke-opacity="0" stroke-miterlimit="10" stroke-dasharray="">5.1%</text></g><g clip-path="url(#plqKKSRQGATu)"><text fill="rgb(255,255,255)" stroke="none" font-family="helvetica" font-size="8pt" font-style="normal" font-weight="normal" text-decoration="normal" x="0" y="10" text-anchor="start" dominant-baseline="alphabetic" transform="matrix(1, 0, 0, 1, 668.401969909668, 73.84146881103516)" fill-opacity="1">1.7%</text></g><g clip-path="url(#plqKKSRQGATu)"><text fill="none" stroke="rgb(0,0,0)" font-family="helvetica" font-size="8pt" font-style="normal" font-weight="normal" text-decoration="normal" x="0" y="10" text-anchor="start" dominant-baseline="alphabetic" transform="matrix(1, 0, 0, 1, 668.401969909668, 73.84146881103516)" stroke-opacity="0" stroke-miterlimit="10" stroke-dasharray="">1.7%</text></g><g clip-path="url(#plqKKSRQGATu)"><text fill="rgb(255,255,255)" stroke="none" font-family="helvetica" font-size="8pt" font-style="normal" font-weight="normal" text-decoration="normal" x="0" y="10" text-anchor="start" dominant-baseline="alphabetic" transform="matrix(1, 0, 0, 1, 723.3266525268555, 73.84146881103516)" fill-opacity="1">1.6%</text></g><g clip-path="url(#plqKKSRQGATu)"><text fill="none" stroke="rgb(0,0,0)" font-family="helvetica" font-size="8pt" font-style="normal" font-weight="normal" text-decoration="normal" x="0" y="10" text-anchor="start" dominant-baseline="alphabetic" transform="matrix(1, 0, 0, 1, 723.3266525268555, 73.84146881103516)" stroke-opacity="0" stroke-miterlimit="10" stroke-dasharray="">1.6%</text></g><g clip-path="url(#plqKKSRQGATu)"><text fill="rgb(255,255,255)" stroke="none" font-family="helvetica" font-size="8pt" font-style="normal" font-weight="normal" text-decoration="normal" x="0" y="10" text-anchor="start" dominant-baseline="alphabetic" transform="matrix(1, 0, 0, 1, 776.466667175293, 73.84146881103516)" fill-opacity="1">1.5%</text></g><g clip-path="url(#plqKKSRQGATu)"><text fill="none" stroke="rgb(0,0,0)" font-family="helvetica" font-size="8pt" font-style="normal" font-weight="normal" text-decoration="normal" x="0" y="10" text-anchor="start" dominant-baseline="alphabetic" transform="matrix(1, 0, 0, 1, 776.466667175293, 73.84146881103516)" stroke-opacity="0" stroke-miterlimit="10" stroke-dasharray="">1.5%</text></g><path fill="rgb(255,255,255)" stroke="rgb(229,229,229)" paint-order="fill" d="M 15.5 274.5 L 98.5 274.5 L 98.5 360.5 L 15.5 360.5 L 15.5 274.5 Z" fill-opacity="0.9490196078431372" clip-path="url(#PopDQPmZznzi)" stroke-opacity="0.5019607843137255" stroke-linejoin="bevel" stroke-miterlimit="10"/><path fill="rgb(3,102,102)" stroke="rgb(255,255,255)" paint-order="fill" d="M 27.5 286.5 L 43.5 286.5 L 43.5 302.5 L 27.5 302.5 L 27.5 286.5 Z" fill-opacity="0.8" clip-path="url(#PopDQPmZznzi)" stroke-opacity="1" stroke-linejoin="bevel" stroke-miterlimit="10"/><g clip-path="url(#PopDQPmZznzi)"><text fill="rgb(68,68,68)" stroke="none" font-family="helvetica" font-size="13px" font-style="normal" font-weight="normal" text-decoration="normal" x="0" y="4.5" text-anchor="start" dominant-baseline="alphabetic" transform="matrix(1, 0, 0, 1, 50.5, 294.5)" fill-opacity="1">CDS</text></g><g clip-path="url(#PopDQPmZznzi)"><text fill="none" stroke="rgb(0,0,0)" font-family="helvetica" font-size="13px" font-style="normal" font-weight="normal" text-decoration="normal" x="0" y="4.5" text-anchor="start" dominant-baseline="alphabetic" transform="matrix(1, 0, 0, 1, 50.5, 294.5)" stroke-opacity="0" stroke-linejoin="bevel" stroke-miterlimit="10">CDS</text></g><path fill="rgb(240,96,96)" stroke="rgb(255,255,255)" paint-order="fill" d="M 27.5 309.5 L 43.5 309.5 L 43.5 325.5 L 27.5 325.5 L 27.5 309.5 Z" fill-opacity="0.8" clip-path="url(#PopDQPmZznzi)" stroke-opacity="1" stroke-linejoin="bevel" stroke-miterlimit="10"/><g clip-path="url(#PopDQPmZznzi)"><text fill="rgb(68,68,68)" stroke="none" font-family="helvetica" font-size="13px" font-style="normal" font-weight="normal" text-decoration="normal" x="0" y="4.5" text-anchor="start" dominant-baseline="alphabetic" transform="matrix(1, 0, 0, 1, 50.5, 317.5)" fill-opacity="1">UTR3</text></g><g clip-path="url(#PopDQPmZznzi)"><text fill="none" stroke="rgb(0,0,0)" font-family="helvetica" font-size="13px" font-style="normal" font-weight="normal" text-decoration="normal" x="0" y="4.5" text-anchor="start" dominant-baseline="alphabetic" transform="matrix(1, 0, 0, 1, 50.5, 317.5)" stroke-opacity="0" stroke-linejoin="bevel" stroke-miterlimit="10">UTR3</text></g><path fill="rgb(243,181,98)" stroke="rgb(255,255,255)" paint-order="fill" d="M 27.5 332.5 L 43.5 332.5 L 43.5 348.5 L 27.5 348.5 L 27.5 332.5 Z" fill-opacity="0.8" clip-path="url(#PopDQPmZznzi)" stroke-opacity="1" stroke-linejoin="bevel" stroke-miterlimit="10"/><g clip-path="url(#PopDQPmZznzi)"><text fill="rgb(68,68,68)" stroke="none" font-family="helvetica" font-size="13px" font-style="normal" font-weight="normal" text-decoration="normal" x="0" y="4.5" text-anchor="start" dominant-baseline="alphabetic" transform="matrix(1, 0, 0, 1, 50.5, 340.5)" fill-opacity="1">UTR5</text></g><g clip-path="url(#PopDQPmZznzi)"><text fill="none" stroke="rgb(0,0,0)" font-family="helvetica" font-size="13px" font-style="normal" font-weight="normal" text-decoration="normal" x="0" y="4.5" text-anchor="start" dominant-baseline="alphabetic" transform="matrix(1, 0, 0, 1, 50.5, 340.5)" stroke-opacity="0" stroke-linejoin="bevel" stroke-miterlimit="10">UTR5</text></g></svg>