<svg version="1.1" xmlns="http://www.w3.org/2000/svg" width="1200" height="800"><defs><clipPath id="hNCLhKNFoTcD"><path fill="none" stroke="none" d="M 0.5 0.5 L 1200.5 0.5 L 1200.5 800.5 L 0.5 800.5 L 0.5 0.5 Z M 86.5 27.5 L 1195.5 27.5 L 1195.5 707.5 L 86.5 707.5 L 86.5 27.5 Z" clip-rule="evenodd"/></clipPath><clipPath id="mPpRhfHtSkQW"><path fill="none" stroke="none" d="M 86.5 27.5 L 1195.5 27.5 L 1195.5 707.5 L 86.5 707.5 L 86.5 27.5 Z"/></clipPath><clipPath id="ycQvfKfpbMMA"><path fill="none" stroke="none" d="M 86.5 27.5 L 1195.5 27.5 L 1195.5 707.5 L 86.5 707.5 L 86.5 27.5 Z"/></clipPath><clipPath id="EBydwbNsxGkK"><path fill="none" stroke="none" d="M 86.5 27.5 L 1195.5 27.5 L 1195.5 707.5 L 86.5 707.5 L 86.5 27.5 Z"/></clipPath><clipPath id="rGIJRoAJdXur"><path fill="none" stroke="none" d="M 86.5 27.5 L 1195.5 27.5 L 1195.5 707.5 L 86.5 707.5 L 86.5 27.5 Z"/></clipPath><clipPath id="uRMKgclRADNb"><path fill="none" stroke="none" d="M 86.5 27.5 L 1195.5 27.5 L 1195.5 707.5 L 86.5 707.5 L 86.5 27.5 Z"/></clipPath></defs><path fill="rgb(255,255,255)" stroke="none" paint-order="stroke" d="M 0.5 0.5 L 1200.5 0.5 L 1200.5 800.5 L 0.5 800.5 L 0.5 0.5 Z" fill-opacity="1" clip-path="url(#hNCLhKNFoTcD)"/><path fill="rgb(255,255,255)" stroke="none" paint-order="stroke" d="M 86.5 27.5 L 1195.5 27.5 L 1195.5 707.5 L 86.5 707.5 L 86.5 27.5 Z" fill-opacity="1"/><path fill="none" stroke="rgb(229,229,229)" paint-order="fill" d="M 86.5 27.5 L 1195.5 27.5 L 1195.5 707.5 L 86.5 707.5 L 86.5 27.5 Z" stroke-opacity="1" stroke-linejoin="bevel" stroke-miterlimit="10"/><path fill="none" stroke="rgb(229,229,229)" paint-order="fill" d="M 129.5 707.5 L 129.5 27.5 M 302.5 707.5 L 302.5 27.5 M 474.5 707.5 L 474.5 27.5 M 647.5 707.5 L 647.5 27.5 M 819.5 707.5 L 819.5 27.5 M 992.5 707.5 L 992.5 27.5 M 1164.5 707.5 L 1164.5 27.5" stroke-opacity="1" stroke-linejoin="bevel" stroke-miterlimit="10" clip-path="url(#mPpRhfHtSkQW)"/><path fill="none" stroke="rgb(229,229,229)" paint-order="fill" d="M 86.5 680.5 L 1195.5 680.5 M 86.5 568.5 L 1195.5 568.5 M 86.5 455.5 L 1195.5 455.5 M 86.5 343.5 L 1195.5 343.5 M 86.5 231.5 L 1195.5 231.5 M 86.5 118.5 L 1195.5 118.5" stroke-opacity="1" stroke-linejoin="bevel" stroke-miterlimit="10" clip-path="url(#ycQvfKfpbMMA)"/><path fill="rgb(49,21,66)" stroke="rgb(49,21,66)" paint-order="fill" d="M 386.1225280761719 473.93536376953125 A 8 8 0 0 1 370.1225280761719 473.93536376953125 A 8 8 0 0 1 386.1225280761719 473.93536376953125" fill-opacity="0.8" clip-path="url(#EBydwbNsxGkK)" stroke-opacity="0.8" stroke-linejoin="bevel" stroke-miterlimit="10"/><path fill="rgb(56,38,108)" stroke="rgb(56,38,108)" paint-order="fill" d="M 222.70591735839844 642.9218139648438 A 8 8 0 0 1 206.70591735839844 642.9218139648438 A 8 8 0 0 1 222.70591735839844 642.9218139648438" fill-opacity="0.8" clip-path="url(#EBydwbNsxGkK)" stroke-opacity="0.8" stroke-linejoin="bevel" stroke-miterlimit="10"/><path fill="rgb(56,38,108)" stroke="rgb(56,38,108)" paint-order="fill" d="M 342.8647766113281 501.804443359375 A 8 8 0 0 1 326.8647766113281 501.804443359375 A 8 8 0 0 1 342.8647766113281 501.804443359375" fill-opacity="0.8" clip-path="url(#EBydwbNsxGkK)" stroke-opacity="0.8" stroke-linejoin="bevel" stroke-miterlimit="10"/><path fill="rgb(56,38,108)" stroke="rgb(56,38,108)" paint-order="fill" d="M 175.55575561523438 656.1984252929688 A 8 8 0 0 1 159.55575561523438 656.1984252929688 A 8 8 0 0 1 175.55575561523438 656.1984252929688" fill-opacity="0.8" clip-path="url(#EBydwbNsxGkK)" stroke-opacity="0.8" stroke-linejoin="bevel" stroke-miterlimit="10"/><path fill="rgb(56,38,108)" stroke="rgb(56,38,108)" paint-order="fill" d="M 157.23211669921875 670.2210083007812 A 8 8 0 0 1 141.23211669921875 670.2210083007812 A 8 8 0 0 1 157.23211669921875 670.2210083007812" fill-opacity="0.8" clip-path="url(#EBydwbNsxGkK)" stroke-opacity="0.8" stroke-linejoin="bevel" stroke-miterlimit="10"/><path fill="rgb(57,41,114)" stroke="rgb(57,41,114)" paint-order="fill" d="M 210.75184631347656 644.6150512695312 A 8 8 0 0 1 194.75184631347656 644.6150512695312 A 8 8 0 0 1 210.75184631347656 644.6150512695312" fill-opacity="0.8" clip-path="url(#EBydwbNsxGkK)" stroke-opacity="0.8" stroke-linejoin="bevel" stroke-miterlimit="10"/><path fill="rgb(58,44,121)" stroke="rgb(58,44,121)" paint-order="fill" d="M 416.7827453613281 524.2373046875 A 8 8 0 0 1 400.7827453613281 524.2373046875 A 8 8 0 0 1 416.7827453613281 524.2373046875" fill-opacity="0.8" clip-path="url(#EBydwbNsxGkK)" stroke-opacity="0.8" stroke-linejoin="bevel" stroke-miterlimit="10"/><path fill="rgb(59,47,127)" stroke="rgb(59,47,127)" paint-order="fill" d="M 234.11199951171875 630.1482543945312 A 8 8 0 0 1 218.11199951171875 630.1482543945312 A 8 8 0 0 1 234.11199951171875 630.1482543945312" fill-opacity="0.8" clip-path="url(#EBydwbNsxGkK)" stroke-opacity="0.8" stroke-linejoin="bevel" stroke-miterlimit="10"/><path fill="rgb(60,50,133)" stroke="rgb(60,50,133)" paint-order="fill" d="M 301.3177185058594 574.953125 A 8 8 0 0 1 285.3177185058594 574.953125 A 8 8 0 0 1 301.3177185058594 574.953125" fill-opacity="0.8" clip-path="url(#EBydwbNsxGkK)" stroke-opacity="0.8" stroke-linejoin="bevel" stroke-miterlimit="10"/><path fill="rgb(61,55,145)" stroke="rgb(61,55,145)" paint-order="fill" d="M 1153.0909423828125 217.37252807617188 A 8 8 0 0 1 1137.0909423828125 217.37252807617188 A 8 8 0 0 1 1153.0909423828125 217.37252807617188" fill-opacity="0.8" clip-path="url(#EBydwbNsxGkK)" stroke-opacity="0.8" stroke-linejoin="bevel" stroke-miterlimit="10"/><path fill="rgb(61,55,145)" stroke="rgb(61,55,145)" paint-order="fill" d="M 165.21337890625 664.323974609375 A 8 8 0 0 1 149.21337890625 664.323974609375 A 8 8 0 0 1 165.21337890625 664.323974609375" fill-opacity="0.8" clip-path="url(#EBydwbNsxGkK)" stroke-opacity="0.8" stroke-linejoin="bevel" stroke-miterlimit="10"/><path fill="rgb(64,64,161)" stroke="rgb(64,64,161)" paint-order="fill" d="M 188.0877227783203 643.14697265625 A 8 8 0 0 1 172.0877227783203 643.14697265625 A 8 8 0 0 1 188.0877227783203 643.14697265625" fill-opacity="0.8" clip-path="url(#EBydwbNsxGkK)" stroke-opacity="0.8" stroke-linejoin="bevel" stroke-miterlimit="10"/><path fill="rgb(64,64,161)" stroke="rgb(64,64,161)" paint-order="fill" d="M 983.8687744140625 58.40909194946289 A 8 8 0 0 1 967.8687744140625 58.40909194946289 A 8 8 0 0 1 983.8687744140625 58.40909194946289" fill-opacity="0.8" clip-path="url(#EBydwbNsxGkK)" stroke-opacity="0.8" stroke-linejoin="bevel" stroke-miterlimit="10"/><path fill="rgb(64,64,161)" stroke="rgb(64,64,161)" paint-order="fill" d="M 239.14698791503906 605.6599731445312 A 8 8 0 0 1 223.14698791503906 605.6599731445312 A 8 8 0 0 1 239.14698791503906 605.6599731445312" fill-opacity="0.8" clip-path="url(#EBydwbNsxGkK)" stroke-opacity="0.8" stroke-linejoin="bevel" stroke-miterlimit="10"/><path fill="rgb(64,67,166)" stroke="rgb(64,67,166)" paint-order="fill" d="M 292.544677734375 573.6683349609375 A 8 8 0 0 1 276.544677734375 573.6683349609375 A 8 8 0 0 1 292.544677734375 573.6683349609375" fill-opacity="0.8" clip-path="url(#EBydwbNsxGkK)" stroke-opacity="0.8" stroke-linejoin="bevel" stroke-miterlimit="10"/><path fill="rgb(65,72,176)" stroke="rgb(65,72,176)" paint-order="fill" d="M 170.4883575439453 662.2003173828125 A 8 8 0 0 1 154.4883575439453 662.2003173828125 A 8 8 0 0 1 170.4883575439453 662.2003173828125" fill-opacity="0.8" clip-path="url(#EBydwbNsxGkK)" stroke-opacity="0.8" stroke-linejoin="bevel" stroke-miterlimit="10"/><path fill="rgb(65,72,176)" stroke="rgb(65,72,176)" paint-order="fill" d="M 144.90908813476562 676.5908813476562 A 8 8 0 0 1 128.90908813476562 676.5908813476562 A 8 8 0 0 1 144.90908813476562 676.5908813476562" fill-opacity="0.8" clip-path="url(#EBydwbNsxGkK)" stroke-opacity="0.8" stroke-linejoin="bevel" stroke-miterlimit="10"/><path fill="rgb(67,83,194)" stroke="rgb(67,83,194)" paint-order="fill" d="M 530.9908447265625 463.6455993652344 A 8 8 0 0 1 514.9908447265625 463.6455993652344 A 8 8 0 0 1 530.9908447265625 463.6455993652344" fill-opacity="0.8" clip-path="url(#EBydwbNsxGkK)" stroke-opacity="0.8" stroke-linejoin="bevel" stroke-miterlimit="10"/><path fill="rgb(67,83,194)" stroke="rgb(67,83,194)" paint-order="fill" d="M 187.62310791015625 631.5637817382812 A 8 8 0 0 1 171.62310791015625 631.5637817382812 A 8 8 0 0 1 187.62310791015625 631.5637817382812" fill-opacity="0.8" clip-path="url(#EBydwbNsxGkK)" stroke-opacity="0.8" stroke-linejoin="bevel" stroke-miterlimit="10"/><path fill="rgb(67,83,194)" stroke="rgb(67,83,194)" paint-order="fill" d="M 184.56639099121094 618.1288452148438 A 8 8 0 0 1 168.56639099121094 618.1288452148438 A 8 8 0 0 1 184.56639099121094 618.1288452148438" fill-opacity="0.8" clip-path="url(#EBydwbNsxGkK)" stroke-opacity="0.8" stroke-linejoin="bevel" stroke-miterlimit="10"/><path fill="rgb(67,83,194)" stroke="rgb(67,83,194)" paint-order="fill" d="M 182.353515625 656.2877807617188 A 8 8 0 0 1 166.353515625 656.2877807617188 A 8 8 0 0 1 182.353515625 656.2877807617188" fill-opacity="0.8" clip-path="url(#EBydwbNsxGkK)" stroke-opacity="0.8" stroke-linejoin="bevel" stroke-miterlimit="10"/><path fill="rgb(68,88,203)" stroke="rgb(68,88,203)" paint-order="fill" d="M 266.0074157714844 593.3145141601562 A 8 8 0 0 1 250.00741577148438 593.3145141601562 A 8 8 0 0 1 266.0074157714844 593.3145141601562" fill-opacity="0.8" clip-path="url(#EBydwbNsxGkK)" stroke-opacity="0.8" stroke-linejoin="bevel" stroke-miterlimit="10"/><path fill="rgb(68,88,203)" stroke="rgb(68,88,203)" paint-order="fill" d="M 171.14804077148438 663.5866088867188 A 8 8 0 0 1 155.14804077148438 663.5866088867188 A 8 8 0 0 1 171.14804077148438 663.5866088867188" fill-opacity="0.8" clip-path="url(#EBydwbNsxGkK)" stroke-opacity="0.8" stroke-linejoin="bevel" stroke-miterlimit="10"/><path fill="rgb(69,91,206)" stroke="rgb(69,91,206)" paint-order="fill" d="M 148.369140625 675.1407470703125 A 8 8 0 0 1 132.369140625 675.1407470703125 A 8 8 0 0 1 148.369140625 675.1407470703125" fill-opacity="0.8" clip-path="url(#EBydwbNsxGkK)" stroke-opacity="0.8" stroke-linejoin="bevel" stroke-miterlimit="10"/><path fill="rgb(69,94,210)" stroke="rgb(69,94,210)" paint-order="fill" d="M 169.5023956298828 665.0293579101562 A 8 8 0 0 1 153.5023956298828 665.0293579101562 A 8 8 0 0 1 169.5023956298828 665.0293579101562" fill-opacity="0.8" clip-path="url(#EBydwbNsxGkK)" stroke-opacity="0.8" stroke-linejoin="bevel" stroke-miterlimit="10"/><path fill="rgb(69,96,214)" stroke="rgb(69,96,214)" paint-order="fill" d="M 344.92974853515625 591.767333984375 A 8 8 0 0 1 328.92974853515625 591.767333984375 A 8 8 0 0 1 344.92974853515625 591.767333984375" fill-opacity="0.8" clip-path="url(#EBydwbNsxGkK)" stroke-opacity="0.8" stroke-linejoin="bevel" stroke-miterlimit="10"/><path fill="rgb(69,99,217)" stroke="rgb(69,99,217)" paint-order="fill" d="M 146.1782989501953 675.665283203125 A 8 8 0 0 1 130.1782989501953 675.665283203125 A 8 8 0 0 1 146.1782989501953 675.665283203125" fill-opacity="0.8" clip-path="url(#EBydwbNsxGkK)" stroke-opacity="0.8" stroke-linejoin="bevel" stroke-miterlimit="10"/><path fill="rgb(70,107,227)" stroke="rgb(70,107,227)" paint-order="fill" d="M 363.8800354003906 480.3354187011719 A 8 8 0 0 1 347.8800354003906 480.3354187011719 A 8 8 0 0 1 363.8800354003906 480.3354187011719" fill-opacity="0.8" clip-path="url(#EBydwbNsxGkK)" stroke-opacity="0.8" stroke-linejoin="bevel" stroke-miterlimit="10"/><path fill="rgb(70,107,227)" stroke="rgb(70,107,227)" paint-order="fill" d="M 171.04718017578125 653.6898193359375 A 8 8 0 0 1 155.04718017578125 653.6898193359375 A 8 8 0 0 1 171.04718017578125 653.6898193359375" fill-opacity="0.8" clip-path="url(#EBydwbNsxGkK)" stroke-opacity="0.8" stroke-linejoin="bevel" stroke-miterlimit="10"/><path fill="rgb(70,107,227)" stroke="rgb(70,107,227)" paint-order="fill" d="M 396.3791198730469 500.8809814453125 A 8 8 0 0 1 380.3791198730469 500.8809814453125 A 8 8 0 0 1 396.3791198730469 500.8809814453125" fill-opacity="0.8" clip-path="url(#EBydwbNsxGkK)" stroke-opacity="0.8" stroke-linejoin="bevel" stroke-miterlimit="10"/><path fill="rgb(70,117,237)" stroke="rgb(70,117,237)" paint-order="fill" d="M 179.42005920410156 642.385986328125 A 8 8 0 0 1 163.42005920410156 642.385986328125 A 8 8 0 0 1 179.42005920410156 642.385986328125" fill-opacity="0.8" clip-path="url(#EBydwbNsxGkK)" stroke-opacity="0.8" stroke-linejoin="bevel" stroke-miterlimit="10"/><path fill="rgb(70,117,237)" stroke="rgb(70,117,237)" paint-order="fill" d="M 153.13551330566406 669.0185546875 A 8 8 0 0 1 137.13551330566406 669.0185546875 A 8 8 0 0 1 153.13551330566406 669.0185546875" fill-opacity="0.8" clip-path="url(#EBydwbNsxGkK)" stroke-opacity="0.8" stroke-linejoin="bevel" stroke-miterlimit="10"/><path fill="rgb(70,117,237)" stroke="rgb(70,117,237)" paint-order="fill" d="M 179.0159149169922 659.3925170898438 A 8 8 0 0 1 163.0159149169922 659.3925170898438 A 8 8 0 0 1 179.0159149169922 659.3925170898438" fill-opacity="0.8" clip-path="url(#EBydwbNsxGkK)" stroke-opacity="0.8" stroke-linejoin="bevel" stroke-miterlimit="10"/><path fill="rgb(70,120,240)" stroke="rgb(70,120,240)" paint-order="fill" d="M 174.5300750732422 644.5933837890625 A 8 8 0 0 1 158.5300750732422 644.5933837890625 A 8 8 0 0 1 174.5300750732422 644.5933837890625" fill-opacity="0.8" clip-path="url(#EBydwbNsxGkK)" stroke-opacity="0.8" stroke-linejoin="bevel" stroke-miterlimit="10"/><path fill="rgb(70,125,244)" stroke="rgb(70,125,244)" paint-order="fill" d="M 158.9962921142578 672.8270874023438 A 8 8 0 0 1 142.9962921142578 672.8270874023438 A 8 8 0 0 1 158.9962921142578 672.8270874023438" fill-opacity="0.8" clip-path="url(#EBydwbNsxGkK)" stroke-opacity="0.8" stroke-linejoin="bevel" stroke-miterlimit="10"/><path fill="rgb(70,130,248)" stroke="rgb(70,130,248)" paint-order="fill" d="M 528.2026977539062 401.17718505859375 A 8 8 0 0 1 512.2026977539062 401.17718505859375 A 8 8 0 0 1 528.2026977539062 401.17718505859375" fill-opacity="0.8" clip-path="url(#EBydwbNsxGkK)" stroke-opacity="0.8" stroke-linejoin="bevel" stroke-miterlimit="10"/><path fill="rgb(70,130,248)" stroke="rgb(70,130,248)" paint-order="fill" d="M 159.77659606933594 669.4353637695312 A 8 8 0 0 1 143.77659606933594 669.4353637695312 A 8 8 0 0 1 159.77659606933594 669.4353637695312" fill-opacity="0.8" clip-path="url(#EBydwbNsxGkK)" stroke-opacity="0.8" stroke-linejoin="bevel" stroke-miterlimit="10"/><path fill="rgb(69,132,249)" stroke="rgb(69,132,249)" paint-order="fill" d="M 287.3713073730469 595.4818725585938 A 8 8 0 0 1 271.3713073730469 595.4818725585938 A 8 8 0 0 1 287.3713073730469 595.4818725585938" fill-opacity="0.8" clip-path="url(#EBydwbNsxGkK)" stroke-opacity="0.8" stroke-linejoin="bevel" stroke-miterlimit="10"/><path fill="none" stroke="rgb(0,0,0)" paint-order="fill" d="M 86.5 707.5 L 1195.5 707.5" stroke-opacity="1" stroke-linejoin="bevel" stroke-miterlimit="10"/><path fill="none" stroke="rgb(0,0,0)" paint-order="fill" d="M 129.5 713.5 L 129.5 705.5 M 302.5 713.5 L 302.5 705.5 M 474.5 713.5 L 474.5 705.5 M 647.5 713.5 L 647.5 705.5 M 819.5 713.5 L 819.5 705.5 M 992.5 713.5 L 992.5 705.5 M 1164.5 713.5 L 1164.5 705.5" stroke-opacity="1" stroke-linejoin="bevel" stroke-miterlimit="10"/><path fill="none" stroke="rgb(0,0,0)" paint-order="fill" d="M 95.5 711.5 L 95.5 707.5 M 129.5 711.5 L 129.5 707.5 M 164.5 711.5 L 164.5 707.5 M 198.5 711.5 L 198.5 707.5 M 233.5 711.5 L 233.5 707.5 M 267.5 711.5 L 267.5 707.5 M 302.5 711.5 L 302.5 707.5 M 336.5 711.5 L 336.5 707.5 M 371.5 711.5 L 371.5 707.5 M 405.5 711.5 L 405.5 707.5 M 440.5 711.5 L 440.5 707.5 M 474.5 711.5 L 474.5 707.5 M 509.5 711.5 L 509.5 707.5 M 543.5 711.5 L 543.5 707.5 M 578.5 711.5 L 578.5 707.5 M 612.5 711.5 L 612.5 707.5 M 647.5 711.5 L 647.5 707.5 M 681.5 711.5 L 681.5 707.5 M 716.5 711.5 L 716.5 707.5 M 750.5 711.5 L 750.5 707.5 M 785.5 711.5 L 785.5 707.5 M 819.5 711.5 L 819.5 707.5 M 854.5 711.5 L 854.5 707.5 M 888.5 711.5 L 888.5 707.5 M 923.5 711.5 L 923.5 707.5 M 957.5 711.5 L 957.5 707.5 M 992.5 711.5 L 992.5 707.5 M 1026.5 711.5 L 1026.5 707.5 M 1061.5 711.5 L 1061.5 707.5 M 1095.5 711.5 L 1095.5 707.5 M 1130.5 711.5 L 1130.5 707.5 M 1164.5 711.5 L 1164.5 707.5" stroke-opacity="1" stroke-linejoin="bevel" stroke-miterlimit="10"/><text fill="rgb(68,68,68)" stroke="none" font-family="helvetica" font-size="11px" font-style="normal" font-weight="normal" text-decoration="normal" x="126.42036437988281" y="725.875" text-anchor="start" dominant-baseline="alphabetic" transform="matrix(1, 0, 0, 1, 0.5, 0.5)" fill-opacity="1">0</text><text fill="none" stroke="rgb(0,0,0)" font-family="helvetica" font-size="11px" font-style="normal" font-weight="normal" text-decoration="normal" x="126.42036437988281" y="725.875" text-anchor="start" dominant-baseline="alphabetic" transform="matrix(1, 0, 0, 1, 0.5, 0.5)" stroke-opacity="0" stroke-linejoin="bevel" stroke-miterlimit="10">0</text><text fill="rgb(68,68,68)" stroke="none" font-family="helvetica" font-size="11px" font-style="normal" font-weight="normal" text-decoration="normal" x="286.6266784667969" y="725.875" text-anchor="start" dominant-baseline="alphabetic" transform="matrix(1, 0, 0, 1, 0.5, 0.5)" fill-opacity="1">10000</text><text fill="none" stroke="rgb(0,0,0)" font-family="helvetica" font-size="11px" font-style="normal" font-weight="normal" text-decoration="normal" x="286.6266784667969" y="725.875" text-anchor="start" dominant-baseline="alphabetic" transform="matrix(1, 0, 0, 1, 0.5, 0.5)" stroke-opacity="0" stroke-linejoin="bevel" stroke-miterlimit="10">10000</text><text fill="rgb(68,68,68)" stroke="none" font-family="helvetica" font-size="11px" font-style="normal" font-weight="normal" text-decoration="normal" x="459.068359375" y="725.875" text-anchor="start" dominant-baseline="alphabetic" transform="matrix(1, 0, 0, 1, 0.5, 0.5)" fill-opacity="1">20000</text><text fill="none" stroke="rgb(0,0,0)" font-family="helvetica" font-size="11px" font-style="normal" font-weight="normal" text-decoration="normal" x="459.068359375" y="725.875" text-anchor="start" dominant-baseline="alphabetic" transform="matrix(1, 0, 0, 1, 0.5, 0.5)" stroke-opacity="0" stroke-linejoin="bevel" stroke-miterlimit="10">20000</text><text fill="rgb(68,68,68)" stroke="none" font-family="helvetica" font-size="11px" font-style="normal" font-weight="normal" text-decoration="normal" x="631.510009765625" y="725.875" text-anchor="start" dominant-baseline="alphabetic" transform="matrix(1, 0, 0, 1, 0.5, 0.5)" fill-opacity="1">30000</text><text fill="none" stroke="rgb(0,0,0)" font-family="helvetica" font-size="11px" font-style="normal" font-weight="normal" text-decoration="normal" x="631.510009765625" y="725.875" text-anchor="start" dominant-baseline="alphabetic" transform="matrix(1, 0, 0, 1, 0.5, 0.5)" stroke-opacity="0" stroke-linejoin="bevel" stroke-miterlimit="10">30000</text><text fill="rgb(68,68,68)" stroke="none" font-family="helvetica" font-size="11px" font-style="normal" font-weight="normal" text-decoration="normal" x="803.95166015625" y="725.875" text-anchor="start" dominant-baseline="alphabetic" transform="matrix(1, 0, 0, 1, 0.5, 0.5)" fill-opacity="1">40000</text><text fill="none" stroke="rgb(0,0,0)" font-family="helvetica" font-size="11px" font-style="normal" font-weight="normal" text-decoration="normal" x="803.95166015625" y="725.875" text-anchor="start" dominant-baseline="alphabetic" transform="matrix(1, 0, 0, 1, 0.5, 0.5)" stroke-opacity="0" stroke-linejoin="bevel" stroke-miterlimit="10">40000</text><text fill="rgb(68,68,68)" stroke="none" font-family="helvetica" font-size="11px" font-style="normal" font-weight="normal" text-decoration="normal" x="976.3933715820312" y="725.875" text-anchor="start" dominant-baseline="alphabetic" transform="matrix(1, 0, 0, 1, 0.5, 0.5)" fill-opacity="1">50000</text><text fill="none" stroke="rgb(0,0,0)" font-family="helvetica" font-size="11px" font-style="normal" font-weight="normal" text-decoration="normal" x="976.3933715820312" y="725.875" text-anchor="start" dominant-baseline="alphabetic" transform="matrix(1, 0, 0, 1, 0.5, 0.5)" stroke-opacity="0" stroke-linejoin="bevel" stroke-miterlimit="10">50000</text><text fill="rgb(68,68,68)" stroke="none" font-family="helvetica" font-size="11px" font-style="normal" font-weight="normal" text-decoration="normal" x="1148.8350830078125" y="725.875" text-anchor="start" dominant-baseline="alphabetic" transform="matrix(1, 0, 0, 1, 0.5, 0.5)" fill-opacity="1">60000</text><text fill="none" stroke="rgb(0,0,0)" font-family="helvetica" font-size="11px" font-style="normal" font-weight="normal" text-decoration="normal" x="1148.8350830078125" y="725.875" text-anchor="start" dominant-baseline="alphabetic" transform="matrix(1, 0, 0, 1, 0.5, 0.5)" stroke-opacity="0" stroke-linejoin="bevel" stroke-miterlimit="10">60000</text><text fill="rgb(68,68,68)" stroke="none" font-family="helvetica" font-size="13px" font-style="italic" font-weight="normal" text-decoration="normal" x="536.8173828125" y="745.875" text-anchor="start" dominant-baseline="alphabetic" transform="matrix(1, 0, 0, 1, 0.5, 0.5)" fill-opacity="1">Mean Counts (DESeq2 Normalized)</text><text fill="none" stroke="rgb(0,0,0)" font-family="helvetica" font-size="13px" font-style="italic" font-weight="normal" text-decoration="normal" x="536.8173828125" y="745.875" text-anchor="start" dominant-baseline="alphabetic" transform="matrix(1, 0, 0, 1, 0.5, 0.5)" stroke-opacity="0" stroke-linejoin="bevel" stroke-miterlimit="10">Mean Counts (DESeq2 Normalized)</text><text fill="rgb(68,68,68)" stroke="none" font-family="helvetica" font-size="13px" font-style="italic" font-weight="normal" text-decoration="normal" x="578.010498046875" y="763.875" text-anchor="start" dominant-baseline="alphabetic" transform="matrix(1, 0, 0, 1, 0.5, 0.5)" fill-opacity="1">                       Control</text><text fill="none" stroke="rgb(0,0,0)" font-family="helvetica" font-size="13px" font-style="italic" font-weight="normal" text-decoration="normal" x="578.010498046875" y="763.875" text-anchor="start" dominant-baseline="alphabetic" transform="matrix(1, 0, 0, 1, 0.5, 0.5)" stroke-opacity="0" stroke-linejoin="bevel" stroke-miterlimit="10">                       Control</text><path fill="none" stroke="rgb(0,0,0)" paint-order="fill" d="M 86.5 707.5 L 86.5 27.5" stroke-opacity="1" stroke-linejoin="bevel" stroke-miterlimit="10"/><path fill="none" stroke="rgb(0,0,0)" paint-order="fill" d="M 80.5 680.5 L 88.5 680.5 M 80.5 568.5 L 88.5 568.5 M 80.5 455.5 L 88.5 455.5 M 80.5 343.5 L 88.5 343.5 M 80.5 231.5 L 88.5 231.5 M 80.5 118.5 L 88.5 118.5" stroke-opacity="1" stroke-linejoin="bevel" stroke-miterlimit="10"/><path fill="none" stroke="rgb(0,0,0)" paint-order="fill" d="M 82.5 703.5 L 86.5 703.5 M 82.5 680.5 L 86.5 680.5 M 82.5 658.5 L 86.5 658.5 M 82.5 635.5 L 86.5 635.5 M 82.5 613.5 L 86.5 613.5 M 82.5 590.5 L 86.5 590.5 M 82.5 568.5 L 86.5 568.5 M 82.5 545.5 L 86.5 545.5 M 82.5 523.5 L 86.5 523.5 M 82.5 500.5 L 86.5 500.5 M 82.5 478.5 L 86.5 478.5 M 82.5 455.5 L 86.5 455.5 M 82.5 433.5 L 86.5 433.5 M 82.5 411.5 L 86.5 411.5 M 82.5 388.5 L 86.5 388.5 M 82.5 366.5 L 86.5 366.5 M 82.5 343.5 L 86.5 343.5 M 82.5 321.5 L 86.5 321.5 M 82.5 298.5 L 86.5 298.5 M 82.5 276.5 L 86.5 276.5 M 82.5 253.5 L 86.5 253.5 M 82.5 231.5 L 86.5 231.5 M 82.5 208.5 L 86.5 208.5 M 82.5 186.5 L 86.5 186.5 M 82.5 163.5 L 86.5 163.5 M 82.5 141.5 L 86.5 141.5 M 82.5 118.5 L 86.5 118.5 M 82.5 96.5 L 86.5 96.5 M 82.5 74.5 L 86.5 74.5 M 82.5 51.5 L 86.5 51.5 M 82.5 29.5 L 86.5 29.5" stroke-opacity="1" stroke-linejoin="bevel" stroke-miterlimit="10"/><text fill="rgb(68,68,68)" stroke="none" font-family="helvetica" font-size="11px" font-style="normal" font-weight="normal" text-decoration="normal" x="68.88232421875" y="684.0653686523438" text-anchor="start" dominant-baseline="alphabetic" transform="matrix(1, 0, 0, 1, 0.5, 0.5)" fill-opacity="1">0</text><text fill="none" stroke="rgb(0,0,0)" font-family="helvetica" font-size="11px" font-style="normal" font-weight="normal" text-decoration="normal" x="68.88232421875" y="684.0653686523438" text-anchor="start" dominant-baseline="alphabetic" transform="matrix(1, 0, 0, 1, 0.5, 0.5)" stroke-opacity="0" stroke-linejoin="bevel" stroke-miterlimit="10">0</text><text fill="rgb(68,68,68)" stroke="none" font-family="helvetica" font-size="11px" font-style="normal" font-weight="normal" text-decoration="normal" x="44.41162109375" y="571.7288818359375" text-anchor="start" dominant-baseline="alphabetic" transform="matrix(1, 0, 0, 1, 0.5, 0.5)" fill-opacity="1">10000</text><text fill="none" stroke="rgb(0,0,0)" font-family="helvetica" font-size="11px" font-style="normal" font-weight="normal" text-decoration="normal" x="44.41162109375" y="571.7288818359375" text-anchor="start" dominant-baseline="alphabetic" transform="matrix(1, 0, 0, 1, 0.5, 0.5)" stroke-opacity="0" stroke-linejoin="bevel" stroke-miterlimit="10">10000</text><text fill="rgb(68,68,68)" stroke="none" font-family="helvetica" font-size="11px" font-style="normal" font-weight="normal" text-decoration="normal" x="44.41162109375" y="459.3923645019531" text-anchor="start" dominant-baseline="alphabetic" transform="matrix(1, 0, 0, 1, 0.5, 0.5)" fill-opacity="1">20000</text><text fill="none" stroke="rgb(0,0,0)" font-family="helvetica" font-size="11px" font-style="normal" font-weight="normal" text-decoration="normal" x="44.41162109375" y="459.3923645019531" text-anchor="start" dominant-baseline="alphabetic" transform="matrix(1, 0, 0, 1, 0.5, 0.5)" stroke-opacity="0" stroke-linejoin="bevel" stroke-miterlimit="10">20000</text><text fill="rgb(68,68,68)" stroke="none" font-family="helvetica" font-size="11px" font-style="normal" font-weight="normal" text-decoration="normal" x="44.41162109375" y="347.05584716796875" text-anchor="start" dominant-baseline="alphabetic" transform="matrix(1, 0, 0, 1, 0.5, 0.5)" fill-opacity="1">30000</text><text fill="none" stroke="rgb(0,0,0)" font-family="helvetica" font-size="11px" font-style="normal" font-weight="normal" text-decoration="normal" x="44.41162109375" y="347.05584716796875" text-anchor="start" dominant-baseline="alphabetic" transform="matrix(1, 0, 0, 1, 0.5, 0.5)" stroke-opacity="0" stroke-linejoin="bevel" stroke-miterlimit="10">30000</text><text fill="rgb(68,68,68)" stroke="none" font-family="helvetica" font-size="11px" font-style="normal" font-weight="normal" text-decoration="normal" x="44.41162109375" y="234.71934509277344" text-anchor="start" dominant-baseline="alphabetic" transform="matrix(1, 0, 0, 1, 0.5, 0.5)" fill-opacity="1">40000</text><text fill="none" stroke="rgb(0,0,0)" font-family="helvetica" font-size="11px" font-style="normal" font-weight="normal" text-decoration="normal" x="44.41162109375" y="234.71934509277344" text-anchor="start" dominant-baseline="alphabetic" transform="matrix(1, 0, 0, 1, 0.5, 0.5)" stroke-opacity="0" stroke-linejoin="bevel" stroke-miterlimit="10">40000</text><text fill="rgb(68,68,68)" stroke="none" font-family="helvetica" font-size="11px" font-style="normal" font-weight="normal" text-decoration="normal" x="44.41162109375" y="122.3828353881836" text-anchor="start" dominant-baseline="alphabetic" transform="matrix(1, 0, 0, 1, 0.5, 0.5)" fill-opacity="1">50000</text><text fill="none" stroke="rgb(0,0,0)" font-family="helvetica" font-size="11px" font-style="normal" font-weight="normal" text-decoration="normal" x="44.41162109375" y="122.3828353881836" text-anchor="start" dominant-baseline="alphabetic" transform="matrix(1, 0, 0, 1, 0.5, 0.5)" stroke-opacity="0" stroke-linejoin="bevel" stroke-miterlimit="10">50000</text><text fill="rgb(68,68,68)" stroke="none" font-family="helvetica" font-size="13px" font-style="italic" font-weight="normal" text-decoration="normal" x="-67.27099609375" y="346" text-anchor="start" dominant-baseline="alphabetic" transform="matrix(6.123233995736766e-17, -1, 1, 6.123233995736766e-17, -330.08837890625, 403.91162109375)" fill-opacity="1">Mean Counts (DESeq2 Normalized)</text><text fill="none" stroke="rgb(0,0,0)" font-family="helvetica" font-size="13px" font-style="italic" font-weight="normal" text-decoration="normal" x="-67.27099609375" y="346" text-anchor="start" dominant-baseline="alphabetic" transform="matrix(6.123233995736766e-17, -1, 1, 6.123233995736766e-17, -330.08837890625, 403.91162109375)" stroke-opacity="0" stroke-linejoin="bevel" stroke-miterlimit="10">Mean Counts (DESeq2 Normalized)</text><text fill="rgb(68,68,68)" stroke="none" font-family="helvetica" font-size="13px" font-style="italic" font-weight="normal" text-decoration="normal" x="-34.507568359375" y="364" text-anchor="start" dominant-baseline="alphabetic" transform="matrix(6.123233995736766e-17, -1, 1, 6.123233995736766e-17, -330.08837890625, 403.91162109375)" fill-opacity="1">                       Treatment</text><text fill="none" stroke="rgb(0,0,0)" font-family="helvetica" font-size="13px" font-style="italic" font-weight="normal" text-decoration="normal" x="-34.507568359375" y="364" text-anchor="start" dominant-baseline="alphabetic" transform="matrix(6.123233995736766e-17, -1, 1, 6.123233995736766e-17, -330.08837890625, 403.91162109375)" stroke-opacity="0" stroke-linejoin="bevel" stroke-miterlimit="10">                       Treatment</text><path fill="none" stroke="rgb(0,0,0)" paint-order="fill" d="M 92.87326439870236 707.5 L 1103.9845687320962 27.5" stroke-opacity="1" stroke-linejoin="bevel" stroke-miterlimit="10" stroke-width="4" stroke-dasharray="6" clip-path="url(#rGIJRoAJdXur)"/><path fill="rgb(255,255,255)" stroke="none" paint-order="stroke" d="M 85.5 57.5 L 211.3671875 57.5 L 211.3671875 75.5 L 85.5 75.5 L 85.5 57.5 Z" fill-opacity="1" clip-path="url(#uRMKgclRADNb)"/><g clip-path="url(#uRMKgclRADNb)"><text fill="rgb(68,68,68)" stroke="none" font-family="helvetica" font-size="16px" font-style="normal" font-weight="normal" text-decoration="normal" x="0" y="14" text-anchor="start" dominant-baseline="alphabetic" transform="matrix(1, 0, 0, 1, 85.5, 57.5)" fill-opacity="1">R Squared = 0.92</text></g><g clip-path="url(#uRMKgclRADNb)"><text fill="none" stroke="rgb(0,0,0)" font-family="helvetica" font-size="16px" font-style="normal" font-weight="normal" text-decoration="normal" x="0" y="14" text-anchor="start" dominant-baseline="alphabetic" transform="matrix(1, 0, 0, 1, 85.5, 57.5)" stroke-opacity="0" stroke-miterlimit="10" stroke-dasharray="">R Squared = 0.92</text></g><text fill="rgb(68,68,68)" stroke="none" font-family="helvetica" font-size="13px" font-style="normal" font-weight="bold" text-decoration="normal" x="0" y="12" text-anchor="start" dominant-baseline="alphabetic" transform="matrix(1, 0, 0, 1, 86.5, 7.5)" fill-opacity="1">Treatment.vs.Control for nuclear tRNAs</text><text fill="none" stroke="rgb(0,0,0)" font-family="helvetica" font-size="13px" font-style="normal" font-weight="bold" text-decoration="normal" x="0" y="12" text-anchor="start" dominant-baseline="alphabetic" transform="matrix(1, 0, 0, 1, 86.5, 7.5)" stroke-opacity="0" stroke-miterlimit="10" stroke-dasharray="">Treatment.vs.Control for nuclear tRNAs</text></svg>