<svg version="1.1" xmlns="http://www.w3.org/2000/svg" width="1200" height="600"><defs><clipPath id="qhnVhXnVXnVi"><path fill="none" stroke="none" d="M 0.5 0.5 L 1200.5 0.5 L 1200.5 600.5 L 0.5 600.5 L 0.5 0.5 Z M 54.5 27.5 L 1195.5 27.5 L 1195.5 522.5 L 54.5 522.5 L 54.5 27.5 Z" clip-rule="evenodd"/></clipPath><clipPath id="qxGEgghHFoFr"><path fill="none" stroke="none" d="M 54.5 27.5 L 1195.5 27.5 L 1195.5 522.5 L 54.5 522.5 L 54.5 27.5 Z"/></clipPath><clipPath id="CVBEvsTyhbbS"><path fill="none" stroke="none" d="M 54.5 27.5 L 1195.5 27.5 L 1195.5 522.5 L 54.5 522.5 L 54.5 27.5 Z"/></clipPath><clipPath id="JmmgmmdoezLw"><path fill="none" stroke="none" d="M 54.5 27.5 L 1195.5 27.5 L 1195.5 522.5 L 54.5 522.5 L 54.5 27.5 Z"/></clipPath><clipPath id="HqeSmfMVxesb"><path fill="none" stroke="none" d="M 54.5 27.5 L 1195.5 27.5 L 1195.5 522.5 L 54.5 522.5 L 54.5 27.5 Z"/></clipPath></defs><path fill="rgb(255,255,255)" stroke="none" paint-order="stroke" d="M 0.5 0.5 L 1200.5 0.5 L 1200.5 600.5 L 0.5 600.5 L 0.5 0.5 Z" fill-opacity="1" clip-path="url(#qhnVhXnVXnVi)"/><path fill="rgb(255,255,255)" stroke="none" paint-order="stroke" d="M 54.5 27.5 L 1195.5 27.5 L 1195.5 522.5 L 54.5 522.5 L 54.5 27.5 Z" fill-opacity="1"/><path fill="none" stroke="rgb(229,229,229)" paint-order="fill" d="M 54.5 27.5 L 1195.5 27.5 L 1195.5 522.5 L 54.5 522.5 L 54.5 27.5 Z" stroke-opacity="1" stroke-linejoin="bevel" stroke-miterlimit="10"/><path fill="none" stroke="rgb(229,229,229)" paint-order="fill" d="M 220.5 522.5 L 220.5 27.5 M 702.5 522.5 L 702.5 27.5 M 1184.5 522.5 L 1184.5 27.5" stroke-opacity="1" stroke-linejoin="bevel" stroke-miterlimit="10" clip-path="url(#qxGEgghHFoFr)"/><path fill="none" stroke="rgb(229,229,229)" paint-order="fill" d="M 54.5 403.5 L 1195.5 403.5 M 54.5 209.5 L 1195.5 209.5" stroke-opacity="1" stroke-linejoin="bevel" stroke-miterlimit="10" clip-path="url(#CVBEvsTyhbbS)"/><path fill="rgb(49,21,66)" stroke="rgb(49,21,66)" paint-order="fill" d="M 801.6472778320312 152.4890899658203 A 8 8 0 0 1 785.6472778320312 152.4890899658203 A 8 8 0 0 1 801.6472778320312 152.4890899658203" fill-opacity="0.8" clip-path="url(#JmmgmmdoezLw)" stroke-opacity="0.8" stroke-linejoin="bevel" stroke-miterlimit="10"/><path fill="rgb(56,38,108)" stroke="rgb(56,38,108)" paint-order="fill" d="M 708.1000366210938 301.998779296875 A 8 8 0 0 1 692.1000366210938 301.998779296875 A 8 8 0 0 1 708.1000366210938 301.998779296875" fill-opacity="0.8" clip-path="url(#JmmgmmdoezLw)" stroke-opacity="0.8" stroke-linejoin="bevel" stroke-miterlimit="10"/><path fill="rgb(56,38,108)" stroke="rgb(56,38,108)" paint-order="fill" d="M 906.5931396484375 156.67263793945312 A 8 8 0 0 1 890.5931396484375 156.67263793945312 A 8 8 0 0 1 906.5931396484375 156.67263793945312" fill-opacity="0.8" clip-path="url(#JmmgmmdoezLw)" stroke-opacity="0.8" stroke-linejoin="bevel" stroke-miterlimit="10"/><path fill="rgb(56,38,108)" stroke="rgb(56,38,108)" paint-order="fill" d="M 555.7222900390625 338.88525390625 A 8 8 0 0 1 539.7222900390625 338.88525390625 A 8 8 0 0 1 555.7222900390625 338.88525390625" fill-opacity="0.8" clip-path="url(#JmmgmmdoezLw)" stroke-opacity="0.8" stroke-linejoin="bevel" stroke-miterlimit="10"/><path fill="rgb(56,38,108)" stroke="rgb(56,38,108)" paint-order="fill" d="M 400.0458679199219 406.2698974609375 A 8 8 0 0 1 384.0458679199219 406.2698974609375 A 8 8 0 0 1 400.0458679199219 406.2698974609375" fill-opacity="0.8" clip-path="url(#JmmgmmdoezLw)" stroke-opacity="0.8" stroke-linejoin="bevel" stroke-miterlimit="10"/><path fill="rgb(57,41,114)" stroke="rgb(57,41,114)" paint-order="fill" d="M 656.3336791992188 293.2926330566406 A 8 8 0 0 1 640.3336791992188 293.2926330566406 A 8 8 0 0 1 656.3336791992188 293.2926330566406" fill-opacity="0.8" clip-path="url(#JmmgmmdoezLw)" stroke-opacity="0.8" stroke-linejoin="bevel" stroke-miterlimit="10"/><path fill="rgb(58,44,121)" stroke="rgb(58,44,121)" paint-order="fill" d="M 981.1416015625 173.43411254882812 A 8 8 0 0 1 965.1416015625 173.43411254882812 A 8 8 0 0 1 981.1416015625 173.43411254882812" fill-opacity="0.8" clip-path="url(#JmmgmmdoezLw)" stroke-opacity="0.8" stroke-linejoin="bevel" stroke-miterlimit="10"/><path fill="rgb(59,47,127)" stroke="rgb(59,47,127)" paint-order="fill" d="M 722.7507934570312 263.66033935546875 A 8 8 0 0 1 706.7507934570312 263.66033935546875 A 8 8 0 0 1 722.7507934570312 263.66033935546875" fill-opacity="0.8" clip-path="url(#JmmgmmdoezLw)" stroke-opacity="0.8" stroke-linejoin="bevel" stroke-miterlimit="10"/><path fill="rgb(60,50,133)" stroke="rgb(60,50,133)" paint-order="fill" d="M 800.37060546875 214.73802185058594 A 8 8 0 0 1 784.37060546875 214.73802185058594 A 8 8 0 0 1 800.37060546875 214.73802185058594" fill-opacity="0.8" clip-path="url(#JmmgmmdoezLw)" stroke-opacity="0.8" stroke-linejoin="bevel" stroke-miterlimit="10"/><path fill="rgb(61,55,145)" stroke="rgb(61,55,145)" paint-order="fill" d="M 1048.3294677734375 75.99930572509766 A 8 8 0 0 1 1032.3294677734375 75.99930572509766 A 8 8 0 0 1 1048.3294677734375 75.99930572509766" fill-opacity="0.8" clip-path="url(#JmmgmmdoezLw)" stroke-opacity="0.8" stroke-linejoin="bevel" stroke-miterlimit="10"/><path fill="rgb(61,55,145)" stroke="rgb(61,55,145)" paint-order="fill" d="M 409.5915222167969 379.8631591796875 A 8 8 0 0 1 393.5915222167969 379.8631591796875 A 8 8 0 0 1 409.5915222167969 379.8631591796875" fill-opacity="0.8" clip-path="url(#JmmgmmdoezLw)" stroke-opacity="0.8" stroke-linejoin="bevel" stroke-miterlimit="10"/><path fill="rgb(64,64,161)" stroke="rgb(64,64,161)" paint-order="fill" d="M 610.6013793945312 303.2138366699219 A 8 8 0 0 1 594.6013793945312 303.2138366699219 A 8 8 0 0 1 610.6013793945312 303.2138366699219" fill-opacity="0.8" clip-path="url(#JmmgmmdoezLw)" stroke-opacity="0.8" stroke-linejoin="bevel" stroke-miterlimit="10"/><path fill="rgb(64,64,161)" stroke="rgb(64,64,161)" paint-order="fill" d="M 1151.6363525390625 50 A 8 8 0 0 1 1135.6363525390625 50 A 8 8 0 0 1 1151.6363525390625 50" fill-opacity="0.8" clip-path="url(#JmmgmmdoezLw)" stroke-opacity="0.8" stroke-linejoin="bevel" stroke-miterlimit="10"/><path fill="rgb(64,64,161)" stroke="rgb(64,64,161)" paint-order="fill" d="M 674.7413940429688 235.24436950683594 A 8 8 0 0 1 658.7413940429688 235.24436950683594 A 8 8 0 0 1 674.7413940429688 235.24436950683594" fill-opacity="0.8" clip-path="url(#JmmgmmdoezLw)" stroke-opacity="0.8" stroke-linejoin="bevel" stroke-miterlimit="10"/><path fill="rgb(64,67,166)" stroke="rgb(64,67,166)" paint-order="fill" d="M 804.2310180664062 198.63330078125 A 8 8 0 0 1 788.2310180664062 198.63330078125 A 8 8 0 0 1 804.2310180664062 198.63330078125" fill-opacity="0.8" clip-path="url(#JmmgmmdoezLw)" stroke-opacity="0.8" stroke-linejoin="bevel" stroke-miterlimit="10"/><path fill="rgb(65,72,176)" stroke="rgb(65,72,176)" paint-order="fill" d="M 432.02642822265625 365.91668701171875 A 8 8 0 0 1 416.02642822265625 365.91668701171875 A 8 8 0 0 1 432.02642822265625 365.91668701171875" fill-opacity="0.8" clip-path="url(#JmmgmmdoezLw)" stroke-opacity="0.8" stroke-linejoin="bevel" stroke-miterlimit="10"/><path fill="rgb(65,72,176)" stroke="rgb(65,72,176)" paint-order="fill" d="M 114.36363983154297 500 A 8 8 0 0 1 98.36363983154297 500 A 8 8 0 0 1 114.36363983154297 500" fill-opacity="0.8" clip-path="url(#JmmgmmdoezLw)" stroke-opacity="0.8" stroke-linejoin="bevel" stroke-miterlimit="10"/><path fill="rgb(67,83,194)" stroke="rgb(67,83,194)" paint-order="fill" d="M 976.5577392578125 126.49397277832031 A 8 8 0 0 1 960.5577392578125 126.49397277832031 A 8 8 0 0 1 976.5577392578125 126.49397277832031" fill-opacity="0.8" clip-path="url(#JmmgmmdoezLw)" stroke-opacity="0.8" stroke-linejoin="bevel" stroke-miterlimit="10"/><path fill="rgb(67,83,194)" stroke="rgb(67,83,194)" paint-order="fill" d="M 521.376708984375 261.057373046875 A 8 8 0 0 1 505.376708984375 261.057373046875 A 8 8 0 0 1 521.376708984375 261.057373046875" fill-opacity="0.8" clip-path="url(#JmmgmmdoezLw)" stroke-opacity="0.8" stroke-linejoin="bevel" stroke-miterlimit="10"/><path fill="rgb(67,83,194)" stroke="rgb(67,83,194)" paint-order="fill" d="M 515.0886840820312 235.4718017578125 A 8 8 0 0 1 499.08868408203125 235.4718017578125 A 8 8 0 0 1 515.0886840820312 235.4718017578125" fill-opacity="0.8" clip-path="url(#JmmgmmdoezLw)" stroke-opacity="0.8" stroke-linejoin="bevel" stroke-miterlimit="10"/><path fill="rgb(67,83,194)" stroke="rgb(67,83,194)" paint-order="fill" d="M 501.6894836425781 326.27630615234375 A 8 8 0 0 1 485.6894836425781 326.27630615234375 A 8 8 0 0 1 501.6894836425781 326.27630615234375" fill-opacity="0.8" clip-path="url(#JmmgmmdoezLw)" stroke-opacity="0.8" stroke-linejoin="bevel" stroke-miterlimit="10"/><path fill="rgb(68,88,203)" stroke="rgb(68,88,203)" paint-order="fill" d="M 739.8355712890625 228.3464813232422 A 8 8 0 0 1 723.8355712890625 228.3464813232422 A 8 8 0 0 1 739.8355712890625 228.3464813232422" fill-opacity="0.8" clip-path="url(#JmmgmmdoezLw)" stroke-opacity="0.8" stroke-linejoin="bevel" stroke-miterlimit="10"/><path fill="rgb(68,88,203)" stroke="rgb(68,88,203)" paint-order="fill" d="M 450.0512390136719 378.9164123535156 A 8 8 0 0 1 434.0512390136719 378.9164123535156 A 8 8 0 0 1 450.0512390136719 378.9164123535156" fill-opacity="0.8" clip-path="url(#JmmgmmdoezLw)" stroke-opacity="0.8" stroke-linejoin="bevel" stroke-miterlimit="10"/><path fill="rgb(69,91,206)" stroke="rgb(69,91,206)" paint-order="fill" d="M 183.9532012939453 466.3675231933594 A 8 8 0 0 1 167.9532012939453 466.3675231933594 A 8 8 0 0 1 183.9532012939453 466.3675231933594" fill-opacity="0.8" clip-path="url(#JmmgmmdoezLw)" stroke-opacity="0.8" stroke-linejoin="bevel" stroke-miterlimit="10"/><path fill="rgb(69,94,210)" stroke="rgb(69,94,210)" paint-order="fill" d="M 295.3857421875 366.1859436035156 A 8 8 0 0 1 279.3857421875 366.1859436035156 A 8 8 0 0 1 295.3857421875 366.1859436035156" fill-opacity="0.8" clip-path="url(#JmmgmmdoezLw)" stroke-opacity="0.8" stroke-linejoin="bevel" stroke-miterlimit="10"/><path fill="rgb(69,96,214)" stroke="rgb(69,96,214)" paint-order="fill" d="M 903.635498046875 221.5078582763672 A 8 8 0 0 1 887.635498046875 221.5078582763672 A 8 8 0 0 1 903.635498046875 221.5078582763672" fill-opacity="0.8" clip-path="url(#JmmgmmdoezLw)" stroke-opacity="0.8" stroke-linejoin="bevel" stroke-miterlimit="10"/><path fill="rgb(69,99,217)" stroke="rgb(69,99,217)" paint-order="fill" d="M 237.3025360107422 451.8783874511719 A 8 8 0 0 1 221.3025360107422 451.8783874511719 A 8 8 0 0 1 237.3025360107422 451.8783874511719" fill-opacity="0.8" clip-path="url(#JmmgmmdoezLw)" stroke-opacity="0.8" stroke-linejoin="bevel" stroke-miterlimit="10"/><path fill="rgb(70,107,227)" stroke="rgb(70,107,227)" paint-order="fill" d="M 874.78759765625 147.0838165283203 A 8 8 0 0 1 858.78759765625 147.0838165283203 A 8 8 0 0 1 874.78759765625 147.0838165283203" fill-opacity="0.8" clip-path="url(#JmmgmmdoezLw)" stroke-opacity="0.8" stroke-linejoin="bevel" stroke-miterlimit="10"/><path fill="rgb(70,107,227)" stroke="rgb(70,107,227)" paint-order="fill" d="M 485.0538330078125 320.5698547363281 A 8 8 0 0 1 469.0538330078125 320.5698547363281 A 8 8 0 0 1 485.0538330078125 320.5698547363281" fill-opacity="0.8" clip-path="url(#JmmgmmdoezLw)" stroke-opacity="0.8" stroke-linejoin="bevel" stroke-miterlimit="10"/><path fill="rgb(70,107,227)" stroke="rgb(70,107,227)" paint-order="fill" d="M 938.4555053710938 157.53762817382812 A 8 8 0 0 1 922.4555053710938 157.53762817382812 A 8 8 0 0 1 938.4555053710938 157.53762817382812" fill-opacity="0.8" clip-path="url(#JmmgmmdoezLw)" stroke-opacity="0.8" stroke-linejoin="bevel" stroke-miterlimit="10"/><path fill="rgb(70,117,237)" stroke="rgb(70,117,237)" paint-order="fill" d="M 525.71923828125 290.1788330078125 A 8 8 0 0 1 509.71923828125 290.1788330078125 A 8 8 0 0 1 525.71923828125 290.1788330078125" fill-opacity="0.8" clip-path="url(#JmmgmmdoezLw)" stroke-opacity="0.8" stroke-linejoin="bevel" stroke-miterlimit="10"/><path fill="rgb(70,117,237)" stroke="rgb(70,117,237)" paint-order="fill" d="M 350.60076904296875 407.14349365234375 A 8 8 0 0 1 334.60076904296875 407.14349365234375 A 8 8 0 0 1 350.60076904296875 407.14349365234375" fill-opacity="0.8" clip-path="url(#JmmgmmdoezLw)" stroke-opacity="0.8" stroke-linejoin="bevel" stroke-miterlimit="10"/><path fill="rgb(70,117,237)" stroke="rgb(70,117,237)" paint-order="fill" d="M 555.5031127929688 343.5743103027344 A 8 8 0 0 1 539.5031127929688 343.5743103027344 A 8 8 0 0 1 555.5031127929688 343.5743103027344" fill-opacity="0.8" clip-path="url(#JmmgmmdoezLw)" stroke-opacity="0.8" stroke-linejoin="bevel" stroke-miterlimit="10"/><path fill="rgb(70,120,240)" stroke="rgb(70,120,240)" paint-order="fill" d="M 419.6460266113281 299.69342041015625 A 8 8 0 0 1 403.6460266113281 299.69342041015625 A 8 8 0 0 1 419.6460266113281 299.69342041015625" fill-opacity="0.8" clip-path="url(#JmmgmmdoezLw)" stroke-opacity="0.8" stroke-linejoin="bevel" stroke-miterlimit="10"/><path fill="rgb(70,125,244)" stroke="rgb(70,125,244)" paint-order="fill" d="M 360.4017028808594 439.13739013671875 A 8 8 0 0 1 344.4017028808594 439.13739013671875 A 8 8 0 0 1 360.4017028808594 439.13739013671875" fill-opacity="0.8" clip-path="url(#JmmgmmdoezLw)" stroke-opacity="0.8" stroke-linejoin="bevel" stroke-miterlimit="10"/><path fill="rgb(70,130,248)" stroke="rgb(70,130,248)" paint-order="fill" d="M 989.7047119140625 129.50201416015625 A 8 8 0 0 1 973.7047119140625 129.50201416015625 A 8 8 0 0 1 989.7047119140625 129.50201416015625" fill-opacity="0.8" clip-path="url(#JmmgmmdoezLw)" stroke-opacity="0.8" stroke-linejoin="bevel" stroke-miterlimit="10"/><path fill="rgb(70,130,248)" stroke="rgb(70,130,248)" paint-order="fill" d="M 367.5164794921875 403.44976806640625 A 8 8 0 0 1 351.5164794921875 403.44976806640625 A 8 8 0 0 1 367.5164794921875 403.44976806640625" fill-opacity="0.8" clip-path="url(#JmmgmmdoezLw)" stroke-opacity="0.8" stroke-linejoin="bevel" stroke-miterlimit="10"/><path fill="rgb(69,132,249)" stroke="rgb(69,132,249)" paint-order="fill" d="M 800.2343139648438 228.38833618164062 A 8 8 0 0 1 784.2343139648438 228.38833618164062 A 8 8 0 0 1 800.2343139648438 228.38833618164062" fill-opacity="0.8" clip-path="url(#JmmgmmdoezLw)" stroke-opacity="0.8" stroke-linejoin="bevel" stroke-miterlimit="10"/><path fill="none" stroke="rgb(0,0,0)" paint-order="fill" d="M 54.5 522.5 L 1195.5 522.5" stroke-opacity="1" stroke-linejoin="bevel" stroke-miterlimit="10"/><path fill="none" stroke="rgb(0,0,0)" paint-order="fill" d="M 220.5 528.5 L 220.5 520.5 M 702.5 528.5 L 702.5 520.5 M 1184.5 528.5 L 1184.5 520.5" stroke-opacity="1" stroke-linejoin="bevel" stroke-miterlimit="10"/><path fill="none" stroke="rgb(0,0,0)" paint-order="fill" d="M 74.5 526.5 L 74.5 522.5 M 113.5 526.5 L 113.5 522.5 M 145.5 526.5 L 145.5 522.5 M 173.5 526.5 L 173.5 522.5 M 198.5 526.5 L 198.5 522.5 M 220.5 526.5 L 220.5 522.5 M 220.5 526.5 L 220.5 522.5 M 365.5 526.5 L 365.5 522.5 M 450.5 526.5 L 450.5 522.5 M 510.5 526.5 L 510.5 522.5 M 557.5 526.5 L 557.5 522.5 M 595.5 526.5 L 595.5 522.5 M 627.5 526.5 L 627.5 522.5 M 655.5 526.5 L 655.5 522.5 M 680.5 526.5 L 680.5 522.5 M 702.5 526.5 L 702.5 522.5 M 702.5 526.5 L 702.5 522.5 M 847.5 526.5 L 847.5 522.5 M 932.5 526.5 L 932.5 522.5 M 992.5 526.5 L 992.5 522.5 M 1039.5 526.5 L 1039.5 522.5 M 1077.5 526.5 L 1077.5 522.5 M 1109.5 526.5 L 1109.5 522.5 M 1137.5 526.5 L 1137.5 522.5 M 1162.5 526.5 L 1162.5 522.5 M 1184.5 526.5 L 1184.5 522.5 M 1184.5 526.5 L 1184.5 522.5" stroke-opacity="1" stroke-linejoin="bevel" stroke-miterlimit="10"/><text fill="rgb(68,68,68)" stroke="none" font-family="helvetica" font-size="11px" font-style="normal" font-weight="normal" text-decoration="normal" x="0" y="11.265625" text-anchor="start" dominant-baseline="alphabetic" transform="matrix(1, 0, 0, 1, 211.8252899646759, 533.5)" fill-opacity="1">10</text><text fill="none" stroke="rgb(0,0,0)" font-family="helvetica" font-size="11px" font-style="normal" font-weight="normal" text-decoration="normal" x="0" y="11.265625" text-anchor="start" dominant-baseline="alphabetic" transform="matrix(1, 0, 0, 1, 211.8252899646759, 533.5)" stroke-opacity="0" stroke-linejoin="bevel" stroke-miterlimit="10">10</text><text fill="rgb(68,68,68)" stroke="none" font-family="helvetica" font-size="7.699999999999999px" font-style="normal" font-weight="normal" text-decoration="normal" x="12.2353515625" y="5.75" text-anchor="start" dominant-baseline="alphabetic" transform="matrix(1, 0, 0, 1, 211.8252899646759, 533.5)" fill-opacity="1">3</text><text fill="none" stroke="rgb(0,0,0)" font-family="helvetica" font-size="7.699999999999999px" font-style="normal" font-weight="normal" text-decoration="normal" x="12.2353515625" y="5.75" text-anchor="start" dominant-baseline="alphabetic" transform="matrix(1, 0, 0, 1, 211.8252899646759, 533.5)" stroke-opacity="0" stroke-linejoin="bevel" stroke-miterlimit="10">3</text><text fill="rgb(68,68,68)" stroke="none" font-family="helvetica" font-size="11px" font-style="normal" font-weight="normal" text-decoration="normal" x="0" y="11.265625" text-anchor="start" dominant-baseline="alphabetic" transform="matrix(1, 0, 0, 1, 694.0518066883087, 533.5)" fill-opacity="1">10</text><text fill="none" stroke="rgb(0,0,0)" font-family="helvetica" font-size="11px" font-style="normal" font-weight="normal" text-decoration="normal" x="0" y="11.265625" text-anchor="start" dominant-baseline="alphabetic" transform="matrix(1, 0, 0, 1, 694.0518066883087, 533.5)" stroke-opacity="0" stroke-linejoin="bevel" stroke-miterlimit="10">10</text><text fill="rgb(68,68,68)" stroke="none" font-family="helvetica" font-size="7.699999999999999px" font-style="normal" font-weight="normal" text-decoration="normal" x="12.2353515625" y="5.75" text-anchor="start" dominant-baseline="alphabetic" transform="matrix(1, 0, 0, 1, 694.0518066883087, 533.5)" fill-opacity="1">4</text><text fill="none" stroke="rgb(0,0,0)" font-family="helvetica" font-size="7.699999999999999px" font-style="normal" font-weight="normal" text-decoration="normal" x="12.2353515625" y="5.75" text-anchor="start" dominant-baseline="alphabetic" transform="matrix(1, 0, 0, 1, 694.0518066883087, 533.5)" stroke-opacity="0" stroke-linejoin="bevel" stroke-miterlimit="10">4</text><text fill="rgb(68,68,68)" stroke="none" font-family="helvetica" font-size="11px" font-style="normal" font-weight="normal" text-decoration="normal" x="0" y="11.265625" text-anchor="start" dominant-baseline="alphabetic" transform="matrix(1, 0, 0, 1, 1176.2782471179962, 533.5)" fill-opacity="1">10</text><text fill="none" stroke="rgb(0,0,0)" font-family="helvetica" font-size="11px" font-style="normal" font-weight="normal" text-decoration="normal" x="0" y="11.265625" text-anchor="start" dominant-baseline="alphabetic" transform="matrix(1, 0, 0, 1, 1176.2782471179962, 533.5)" stroke-opacity="0" stroke-linejoin="bevel" stroke-miterlimit="10">10</text><text fill="rgb(68,68,68)" stroke="none" font-family="helvetica" font-size="7.699999999999999px" font-style="normal" font-weight="normal" text-decoration="normal" x="12.2353515625" y="5.75" text-anchor="start" dominant-baseline="alphabetic" transform="matrix(1, 0, 0, 1, 1176.2782471179962, 533.5)" fill-opacity="1">5</text><text fill="none" stroke="rgb(0,0,0)" font-family="helvetica" font-size="7.699999999999999px" font-style="normal" font-weight="normal" text-decoration="normal" x="12.2353515625" y="5.75" text-anchor="start" dominant-baseline="alphabetic" transform="matrix(1, 0, 0, 1, 1176.2782471179962, 533.5)" stroke-opacity="0" stroke-linejoin="bevel" stroke-miterlimit="10">5</text><text fill="rgb(68,68,68)" stroke="none" font-family="helvetica" font-size="13px" font-style="italic" font-weight="normal" text-decoration="normal" x="588.369140625" y="564.265625" text-anchor="start" dominant-baseline="alphabetic" transform="matrix(1, 0, 0, 1, 0.5, 0.5)" fill-opacity="1">tRNA counts</text><text fill="none" stroke="rgb(0,0,0)" font-family="helvetica" font-size="13px" font-style="italic" font-weight="normal" text-decoration="normal" x="588.369140625" y="564.265625" text-anchor="start" dominant-baseline="alphabetic" transform="matrix(1, 0, 0, 1, 0.5, 0.5)" stroke-opacity="0" stroke-linejoin="bevel" stroke-miterlimit="10">tRNA counts</text><path fill="none" stroke="rgb(0,0,0)" paint-order="fill" d="M 54.5 522.5 L 54.5 27.5" stroke-opacity="1" stroke-linejoin="bevel" stroke-miterlimit="10"/><path fill="none" stroke="rgb(0,0,0)" paint-order="fill" d="M 48.5 403.5 L 56.5 403.5 M 48.5 209.5 L 56.5 209.5" stroke-opacity="1" stroke-linejoin="bevel" stroke-miterlimit="10"/><path fill="none" stroke="rgb(0,0,0)" paint-order="fill" d="M 50.5 504.5 L 54.5 504.5 M 50.5 480.5 L 54.5 480.5 M 50.5 461.5 L 54.5 461.5 M 50.5 446.5 L 54.5 446.5 M 50.5 433.5 L 54.5 433.5 M 50.5 422.5 L 54.5 422.5 M 50.5 412.5 L 54.5 412.5 M 50.5 403.5 L 54.5 403.5 M 50.5 403.5 L 54.5 403.5 M 50.5 345.5 L 54.5 345.5 M 50.5 311.5 L 54.5 311.5 M 50.5 286.5 L 54.5 286.5 M 50.5 268.5 L 54.5 268.5 M 50.5 252.5 L 54.5 252.5 M 50.5 239.5 L 54.5 239.5 M 50.5 228.5 L 54.5 228.5 M 50.5 218.5 L 54.5 218.5 M 50.5 209.5 L 54.5 209.5 M 50.5 209.5 L 54.5 209.5 M 50.5 151.5 L 54.5 151.5 M 50.5 117.5 L 54.5 117.5 M 50.5 93.5 L 54.5 93.5 M 50.5 74.5 L 54.5 74.5 M 50.5 59.5 L 54.5 59.5 M 50.5 46.5 L 54.5 46.5 M 50.5 35.5 L 54.5 35.5" stroke-opacity="1" stroke-linejoin="bevel" stroke-miterlimit="10"/><text fill="rgb(68,68,68)" stroke="none" font-family="helvetica" font-size="11px" font-style="normal" font-weight="normal" text-decoration="normal" x="0" y="11.265625" text-anchor="start" dominant-baseline="alphabetic" transform="matrix(1, 0, 0, 1, 26.98227548599243, 397.81695556640625)" fill-opacity="1">10</text><text fill="none" stroke="rgb(0,0,0)" font-family="helvetica" font-size="11px" font-style="normal" font-weight="normal" text-decoration="normal" x="0" y="11.265625" text-anchor="start" dominant-baseline="alphabetic" transform="matrix(1, 0, 0, 1, 26.98227548599243, 397.81695556640625)" stroke-opacity="0" stroke-linejoin="bevel" stroke-miterlimit="10">10</text><text fill="rgb(68,68,68)" stroke="none" font-family="helvetica" font-size="7.699999999999999px" font-style="normal" font-weight="normal" text-decoration="normal" x="12.2353515625" y="5.75" text-anchor="start" dominant-baseline="alphabetic" transform="matrix(1, 0, 0, 1, 26.98227548599243, 397.81695556640625)" fill-opacity="1">3</text><text fill="none" stroke="rgb(0,0,0)" font-family="helvetica" font-size="7.699999999999999px" font-style="normal" font-weight="normal" text-decoration="normal" x="12.2353515625" y="5.75" text-anchor="start" dominant-baseline="alphabetic" transform="matrix(1, 0, 0, 1, 26.98227548599243, 397.81695556640625)" stroke-opacity="0" stroke-linejoin="bevel" stroke-miterlimit="10">3</text><text fill="rgb(68,68,68)" stroke="none" font-family="helvetica" font-size="11px" font-style="normal" font-weight="normal" text-decoration="normal" x="0" y="11.265625" text-anchor="start" dominant-baseline="alphabetic" transform="matrix(1, 0, 0, 1, 26.98227548599243, 204.30653381347656)" fill-opacity="1">10</text><text fill="none" stroke="rgb(0,0,0)" font-family="helvetica" font-size="11px" font-style="normal" font-weight="normal" text-decoration="normal" x="0" y="11.265625" text-anchor="start" dominant-baseline="alphabetic" transform="matrix(1, 0, 0, 1, 26.98227548599243, 204.30653381347656)" stroke-opacity="0" stroke-linejoin="bevel" stroke-miterlimit="10">10</text><text fill="rgb(68,68,68)" stroke="none" font-family="helvetica" font-size="7.699999999999999px" font-style="normal" font-weight="normal" text-decoration="normal" x="12.2353515625" y="5.75" text-anchor="start" dominant-baseline="alphabetic" transform="matrix(1, 0, 0, 1, 26.98227548599243, 204.30653381347656)" fill-opacity="1">4</text><text fill="none" stroke="rgb(0,0,0)" font-family="helvetica" font-size="7.699999999999999px" font-style="normal" font-weight="normal" text-decoration="normal" x="12.2353515625" y="5.75" text-anchor="start" dominant-baseline="alphabetic" transform="matrix(1, 0, 0, 1, 26.98227548599243, 204.30653381347656)" stroke-opacity="0" stroke-linejoin="bevel" stroke-miterlimit="10">4</text><text fill="rgb(68,68,68)" stroke="none" font-family="helvetica" font-size="13px" font-style="italic" font-weight="normal" text-decoration="normal" x="-17.64858388900757" y="271.5" text-anchor="start" dominant-baseline="alphabetic" transform="matrix(6.123233995736766e-17, -1, 1, 6.123233995736766e-17, -255.51772451400757, 293.48227548599243)" fill-opacity="1">tRNA counts</text><text fill="none" stroke="rgb(0,0,0)" font-family="helvetica" font-size="13px" font-style="italic" font-weight="normal" text-decoration="normal" x="-17.64858388900757" y="271.5" text-anchor="start" dominant-baseline="alphabetic" transform="matrix(6.123233995736766e-17, -1, 1, 6.123233995736766e-17, -255.51772451400757, 293.48227548599243)" stroke-opacity="0" stroke-linejoin="bevel" stroke-miterlimit="10">tRNA counts</text><text fill="rgb(68,68,68)" stroke="none" font-family="helvetica" font-size="13px" font-style="normal" font-weight="bold" text-decoration="normal" x="0" y="12" text-anchor="start" dominant-baseline="alphabetic" transform="matrix(1, 0, 0, 1, 54.5, 7.5)" fill-opacity="1">Scatter plot of nuclear tRNAs</text><text fill="none" stroke="rgb(0,0,0)" font-family="helvetica" font-size="13px" font-style="normal" font-weight="bold" text-decoration="normal" x="0" y="12" text-anchor="start" dominant-baseline="alphabetic" transform="matrix(1, 0, 0, 1, 54.5, 7.5)" stroke-opacity="0" stroke-miterlimit="10" stroke-dasharray="">Scatter plot of nuclear tRNAs</text></svg>