<svg version="1.1" xmlns="http://www.w3.org/2000/svg" width="400" height="450"><defs><clipPath id="hCgddTMOqkgN"><path fill="none" stroke="none" d="M 0.5 0.5 L 400.5 0.5 L 400.5 450.5 L 0.5 450.5 L 0.5 0.5 Z M 49.5 44.5 L 395.5 44.5 L 395.5 354.5 L 49.5 354.5 L 49.5 44.5 Z" clip-rule="evenodd"/></clipPath><clipPath id="PKAeIssEyxGT"><path fill="none" stroke="none" d="M 49.5 44.5 L 395.5 44.5 L 395.5 354.5 L 49.5 354.5 L 49.5 44.5 Z"/></clipPath><clipPath id="LmBiarfTRJNk"><path fill="none" stroke="none" d="M 49.5 44.5 L 395.5 44.5 L 395.5 354.5 L 49.5 354.5 L 49.5 44.5 Z"/></clipPath><clipPath id="oQcNAdegLHQL"><path fill="none" stroke="none" d="M 49.5 44.5 L 395.5 44.5 L 395.5 354.5 L 49.5 354.5 L 49.5 44.5 Z"/></clipPath><clipPath id="RJCCcqvXvSuF"><path fill="none" stroke="none" d="M 49.5 44.5 L 395.5 44.5 L 395.5 354.5 L 49.5 354.5 L 49.5 44.5 Z"/></clipPath></defs><path fill="#ffffff" stroke="none" paint-order="stroke" d="M 0.5 0.5 L 400.5 0.5 L 400.5 450.5 L 0.5 450.5 L 0.5 0.5 Z" fill-rule="nonzero" clip-path="url(#hCgddTMOqkgN)"/><path fill="#ffffff" stroke="none" paint-order="stroke" d="M 49.5 44.5 L 395.5 44.5 L 395.5 354.5 L 49.5 354.5 L 49.5 44.5 Z"/><path fill="none" stroke="#e5e5e5" paint-order="fill" d="M 49.5 44.5 L 395.5 44.5 L 395.5 354.5 L 49.5 354.5 L 49.5 44.5 Z" stroke-linejoin="bevel" stroke-miterlimit="10"/><path fill="rgb(245 249 250)" stroke="none" paint-order="stroke" d="M 49.5 334.4129638671875 L 164.83333587646484 334.4129638671875 L 164.83333587646484 340.409095287323 L 49.5 340.409095287323 L 49.5 334.4129638671875 Z" fill-rule="nonzero" clip-path="url(#oQcNAdegLHQL)"/><path fill="rgb(245 249 250)" stroke="none" paint-order="stroke" d="M 164.8333282470703 334.4129638671875 L 280.16666412353516 334.4129638671875 L 280.16666412353516 340.409095287323 L 164.8333282470703 340.409095287323 L 164.8333282470703 334.4129638671875 Z" fill-rule="nonzero" clip-path="url(#oQcNAdegLHQL)"/><path fill="rgb(245 249 250)" stroke="none" paint-order="stroke" d="M 280.1666564941406 334.4129638671875 L 395.49999237060547 334.4129638671875 L 395.49999237060547 340.409095287323 L 280.1666564941406 340.409095287323 L 280.1666564941406 334.4129638671875 Z" fill-rule="nonzero" clip-path="url(#oQcNAdegLHQL)"/><path fill="rgb(245 249 250)" stroke="none" paint-order="stroke" d="M 49.5 328.4168395996094 L 164.83333587646484 328.4168395996094 L 164.83333587646484 334.4129710197449 L 49.5 334.4129710197449 L 49.5 328.4168395996094 Z" fill-rule="nonzero" clip-path="url(#oQcNAdegLHQL)"/><path fill="rgb(245 249 250)" stroke="none" paint-order="stroke" d="M 164.8333282470703 328.4168395996094 L 280.16666412353516 328.4168395996094 L 280.16666412353516 334.4129710197449 L 164.8333282470703 334.4129710197449 L 164.8333282470703 328.4168395996094 Z" fill-rule="nonzero" clip-path="url(#oQcNAdegLHQL)"/><path fill="rgb(245 249 250)" stroke="none" paint-order="stroke" d="M 280.1666564941406 328.4168395996094 L 395.49999237060547 328.4168395996094 L 395.49999237060547 334.4129710197449 L 280.1666564941406 334.4129710197449 L 280.1666564941406 328.4168395996094 Z" fill-rule="nonzero" clip-path="url(#oQcNAdegLHQL)"/><path fill="rgb(245 249 250)" stroke="none" paint-order="stroke" d="M 49.5 322.4206848144531 L 164.83333587646484 322.4206848144531 L 164.83333587646484 328.4168162345886 L 49.5 328.4168162345886 L 49.5 322.4206848144531 Z" fill-rule="nonzero" clip-path="url(#oQcNAdegLHQL)"/><path fill="rgb(245 249 250)" stroke="none" paint-order="stroke" d="M 164.8333282470703 322.4206848144531 L 280.16666412353516 322.4206848144531 L 280.16666412353516 328.4168162345886 L 164.8333282470703 328.4168162345886 L 164.8333282470703 322.4206848144531 Z" fill-rule="nonzero" clip-path="url(#oQcNAdegLHQL)"/><path fill="rgb(245 249 250)" stroke="none" paint-order="stroke" d="M 280.1666564941406 322.4206848144531 L 395.49999237060547 322.4206848144531 L 395.49999237060547 328.4168162345886 L 280.1666564941406 328.4168162345886 L 280.1666564941406 322.4206848144531 Z" fill-rule="nonzero" clip-path="url(#oQcNAdegLHQL)"/><path fill="rgb(245 249 250)" stroke="none" paint-order="stroke" d="M 49.5 316.424560546875 L 164.83333587646484 316.424560546875 L 164.83333587646484 322.4206919670105 L 49.5 322.4206919670105 L 49.5 316.424560546875 Z" fill-rule="nonzero" clip-path="url(#oQcNAdegLHQL)"/><path fill="rgb(245 249 250)" stroke="none" paint-order="stroke" d="M 164.8333282470703 316.424560546875 L 280.16666412353516 316.424560546875 L 280.16666412353516 322.4206919670105 L 164.8333282470703 322.4206919670105 L 164.8333282470703 316.424560546875 Z" fill-rule="nonzero" clip-path="url(#oQcNAdegLHQL)"/><path fill="rgb(245 249 250)" stroke="none" paint-order="stroke" d="M 280.1666564941406 316.424560546875 L 395.49999237060547 316.424560546875 L 395.49999237060547 322.4206919670105 L 280.1666564941406 322.4206919670105 L 280.1666564941406 316.424560546875 Z" fill-rule="nonzero" clip-path="url(#oQcNAdegLHQL)"/><path fill="rgb(245 249 250)" stroke="none" paint-order="stroke" d="M 49.5 310.4284362792969 L 164.83333587646484 310.4284362792969 L 164.83333587646484 316.4245676994324 L 49.5 316.4245676994324 L 49.5 310.4284362792969 Z" fill-rule="nonzero" clip-path="url(#oQcNAdegLHQL)"/><path fill="rgb(245 249 250)" stroke="none" paint-order="stroke" d="M 164.8333282470703 310.4284362792969 L 280.16666412353516 310.4284362792969 L 280.16666412353516 316.4245676994324 L 164.8333282470703 316.4245676994324 L 164.8333282470703 310.4284362792969 Z" fill-rule="nonzero" clip-path="url(#oQcNAdegLHQL)"/><path fill="rgb(245 249 250)" stroke="none" paint-order="stroke" d="M 280.1666564941406 310.4284362792969 L 395.49999237060547 310.4284362792969 L 395.49999237060547 316.4245676994324 L 280.1666564941406 316.4245676994324 L 280.1666564941406 310.4284362792969 Z" fill-rule="nonzero" clip-path="url(#oQcNAdegLHQL)"/><path fill="rgb(245 249 250)" stroke="none" paint-order="stroke" d="M 49.5 304.43231201171875 L 164.83333587646484 304.43231201171875 L 164.83333587646484 310.42844343185425 L 49.5 310.42844343185425 L 49.5 304.43231201171875 Z" fill-rule="nonzero" clip-path="url(#oQcNAdegLHQL)"/><path fill="rgb(245 249 250)" stroke="none" paint-order="stroke" d="M 164.8333282470703 304.43231201171875 L 280.16666412353516 304.43231201171875 L 280.16666412353516 310.42844343185425 L 164.8333282470703 310.42844343185425 L 164.8333282470703 304.43231201171875 Z" fill-rule="nonzero" clip-path="url(#oQcNAdegLHQL)"/><path fill="rgb(245 249 250)" stroke="none" paint-order="stroke" d="M 280.1666564941406 304.43231201171875 L 395.49999237060547 304.43231201171875 L 395.49999237060547 310.42844343185425 L 280.1666564941406 310.42844343185425 L 280.1666564941406 304.43231201171875 Z" fill-rule="nonzero" clip-path="url(#oQcNAdegLHQL)"/><path fill="rgb(245 249 250)" stroke="none" paint-order="stroke" d="M 49.5 298.4361572265625 L 164.83333587646484 298.4361572265625 L 164.83333587646484 304.432288646698 L 49.5 304.432288646698 L 49.5 298.4361572265625 Z" fill-rule="nonzero" clip-path="url(#oQcNAdegLHQL)"/><path fill="rgb(245 249 250)" stroke="none" paint-order="stroke" d="M 164.8333282470703 298.4361572265625 L 280.16666412353516 298.4361572265625 L 280.16666412353516 304.432288646698 L 164.8333282470703 304.432288646698 L 164.8333282470703 298.4361572265625 Z" fill-rule="nonzero" clip-path="url(#oQcNAdegLHQL)"/><path fill="rgb(245 249 250)" stroke="none" paint-order="stroke" d="M 280.1666564941406 298.4361572265625 L 395.49999237060547 298.4361572265625 L 395.49999237060547 304.432288646698 L 280.1666564941406 304.432288646698 L 280.1666564941406 298.4361572265625 Z" fill-rule="nonzero" clip-path="url(#oQcNAdegLHQL)"/><path fill="rgb(245 249 250)" stroke="none" paint-order="stroke" d="M 49.5 292.4400329589844 L 164.83333587646484 292.4400329589844 L 164.83333587646484 298.4361643791199 L 49.5 298.4361643791199 L 49.5 292.4400329589844 Z" fill-rule="nonzero" clip-path="url(#oQcNAdegLHQL)"/><path fill="rgb(245 249 250)" stroke="none" paint-order="stroke" d="M 164.8333282470703 292.4400329589844 L 280.16666412353516 292.4400329589844 L 280.16666412353516 298.4361643791199 L 164.8333282470703 298.4361643791199 L 164.8333282470703 292.4400329589844 Z" fill-rule="nonzero" clip-path="url(#oQcNAdegLHQL)"/><path fill="rgb(245 249 250)" stroke="none" paint-order="stroke" d="M 280.1666564941406 292.4400329589844 L 395.49999237060547 292.4400329589844 L 395.49999237060547 298.4361643791199 L 280.1666564941406 298.4361643791199 L 280.1666564941406 292.4400329589844 Z" fill-rule="nonzero" clip-path="url(#oQcNAdegLHQL)"/><path fill="rgb(242 247 248)" stroke="none" paint-order="stroke" d="M 49.5 286.44390869140625 L 164.83333587646484 286.44390869140625 L 164.83333587646484 292.44004011154175 L 49.5 292.44004011154175 L 49.5 286.44390869140625 Z" fill-rule="nonzero" clip-path="url(#oQcNAdegLHQL)"/><path fill="rgb(239 245 246)" stroke="none" paint-order="stroke" d="M 164.8333282470703 286.44390869140625 L 280.16666412353516 286.44390869140625 L 280.16666412353516 292.44004011154175 L 164.8333282470703 292.44004011154175 L 164.8333282470703 286.44390869140625 Z" fill-rule="nonzero" clip-path="url(#oQcNAdegLHQL)"/><path fill="rgb(242 247 248)" stroke="none" paint-order="stroke" d="M 280.1666564941406 286.44390869140625 L 395.49999237060547 286.44390869140625 L 395.49999237060547 292.44004011154175 L 280.1666564941406 292.44004011154175 L 280.1666564941406 286.44390869140625 Z" fill-rule="nonzero" clip-path="url(#oQcNAdegLHQL)"/><path fill="rgb(239 245 246)" stroke="none" paint-order="stroke" d="M 49.5 280.4477844238281 L 164.83333587646484 280.4477844238281 L 164.83333587646484 286.4439158439636 L 49.5 286.4439158439636 L 49.5 280.4477844238281 Z" fill-rule="nonzero" clip-path="url(#oQcNAdegLHQL)"/><path fill="rgb(230 240 241)" stroke="none" paint-order="stroke" d="M 164.8333282470703 280.4477844238281 L 280.16666412353516 280.4477844238281 L 280.16666412353516 286.4439158439636 L 164.8333282470703 286.4439158439636 L 164.8333282470703 280.4477844238281 Z" fill-rule="nonzero" clip-path="url(#oQcNAdegLHQL)"/><path fill="rgb(233 242 243)" stroke="none" paint-order="stroke" d="M 280.1666564941406 280.4477844238281 L 395.49999237060547 280.4477844238281 L 395.49999237060547 286.4439158439636 L 280.1666564941406 286.4439158439636 L 280.1666564941406 280.4477844238281 Z" fill-rule="nonzero" clip-path="url(#oQcNAdegLHQL)"/><path fill="rgb(236 243 245)" stroke="none" paint-order="stroke" d="M 49.5 274.4516296386719 L 164.83333587646484 274.4516296386719 L 164.83333587646484 280.4477610588074 L 49.5 280.4477610588074 L 49.5 274.4516296386719 Z" fill-rule="nonzero" clip-path="url(#oQcNAdegLHQL)"/><path fill="rgb(226 238 240)" stroke="none" paint-order="stroke" d="M 164.8333282470703 274.4516296386719 L 280.16666412353516 274.4516296386719 L 280.16666412353516 280.4477610588074 L 164.8333282470703 280.4477610588074 L 164.8333282470703 274.4516296386719 Z" fill-rule="nonzero" clip-path="url(#oQcNAdegLHQL)"/><path fill="rgb(230 240 241)" stroke="none" paint-order="stroke" d="M 280.1666564941406 274.4516296386719 L 395.49999237060547 274.4516296386719 L 395.49999237060547 280.4477610588074 L 280.1666564941406 280.4477610588074 L 280.1666564941406 274.4516296386719 Z" fill-rule="nonzero" clip-path="url(#oQcNAdegLHQL)"/><path fill="rgb(242 247 248)" stroke="none" paint-order="stroke" d="M 49.5 268.45550537109375 L 164.83333587646484 268.45550537109375 L 164.83333587646484 274.45163679122925 L 49.5 274.45163679122925 L 49.5 268.45550537109375 Z" fill-rule="nonzero" clip-path="url(#oQcNAdegLHQL)"/><path fill="rgb(239 245 246)" stroke="none" paint-order="stroke" d="M 164.8333282470703 268.45550537109375 L 280.16666412353516 268.45550537109375 L 280.16666412353516 274.45163679122925 L 164.8333282470703 274.45163679122925 L 164.8333282470703 268.45550537109375 Z" fill-rule="nonzero" clip-path="url(#oQcNAdegLHQL)"/><path fill="rgb(239 245 246)" stroke="none" paint-order="stroke" d="M 280.1666564941406 268.45550537109375 L 395.49999237060547 268.45550537109375 L 395.49999237060547 274.45163679122925 L 280.1666564941406 274.45163679122925 L 280.1666564941406 268.45550537109375 Z" fill-rule="nonzero" clip-path="url(#oQcNAdegLHQL)"/><path fill="rgb(245 249 250)" stroke="none" paint-order="stroke" d="M 49.5 262.4593811035156 L 164.83333587646484 262.4593811035156 L 164.83333587646484 268.4555125236511 L 49.5 268.4555125236511 L 49.5 262.4593811035156 Z" fill-rule="nonzero" clip-path="url(#oQcNAdegLHQL)"/><path fill="rgb(245 249 250)" stroke="none" paint-order="stroke" d="M 164.8333282470703 262.4593811035156 L 280.16666412353516 262.4593811035156 L 280.16666412353516 268.4555125236511 L 164.8333282470703 268.4555125236511 L 164.8333282470703 262.4593811035156 Z" fill-rule="nonzero" clip-path="url(#oQcNAdegLHQL)"/><path fill="rgb(245 249 250)" stroke="none" paint-order="stroke" d="M 280.1666564941406 262.4593811035156 L 395.49999237060547 262.4593811035156 L 395.49999237060547 268.4555125236511 L 280.1666564941406 268.4555125236511 L 280.1666564941406 262.4593811035156 Z" fill-rule="nonzero" clip-path="url(#oQcNAdegLHQL)"/><path fill="rgb(245 249 250)" stroke="none" paint-order="stroke" d="M 49.5 256.4632568359375 L 164.83333587646484 256.4632568359375 L 164.83333587646484 262.459388256073 L 49.5 262.459388256073 L 49.5 256.4632568359375 Z" fill-rule="nonzero" clip-path="url(#oQcNAdegLHQL)"/><path fill="rgb(245 249 250)" stroke="none" paint-order="stroke" d="M 164.8333282470703 256.4632568359375 L 280.16666412353516 256.4632568359375 L 280.16666412353516 262.459388256073 L 164.8333282470703 262.459388256073 L 164.8333282470703 256.4632568359375 Z" fill-rule="nonzero" clip-path="url(#oQcNAdegLHQL)"/><path fill="rgb(245 249 250)" stroke="none" paint-order="stroke" d="M 280.1666564941406 256.4632568359375 L 395.49999237060547 256.4632568359375 L 395.49999237060547 262.459388256073 L 280.1666564941406 262.459388256073 L 280.1666564941406 256.4632568359375 Z" fill-rule="nonzero" clip-path="url(#oQcNAdegLHQL)"/><path fill="rgb(245 249 250)" stroke="none" paint-order="stroke" d="M 49.5 250.4671173095703 L 164.83333587646484 250.4671173095703 L 164.83333587646484 256.4632487297058 L 49.5 256.4632487297058 L 49.5 250.4671173095703 Z" fill-rule="nonzero" clip-path="url(#oQcNAdegLHQL)"/><path fill="rgb(245 249 250)" stroke="none" paint-order="stroke" d="M 164.8333282470703 250.4671173095703 L 280.16666412353516 250.4671173095703 L 280.16666412353516 256.4632487297058 L 164.8333282470703 256.4632487297058 L 164.8333282470703 250.4671173095703 Z" fill-rule="nonzero" clip-path="url(#oQcNAdegLHQL)"/><path fill="rgb(245 249 250)" stroke="none" paint-order="stroke" d="M 280.1666564941406 250.4671173095703 L 395.49999237060547 250.4671173095703 L 395.49999237060547 256.4632487297058 L 280.1666564941406 256.4632487297058 L 280.1666564941406 250.4671173095703 Z" fill-rule="nonzero" clip-path="url(#oQcNAdegLHQL)"/><path fill="rgb(245 249 250)" stroke="none" paint-order="stroke" d="M 49.5 244.4709930419922 L 164.83333587646484 244.4709930419922 L 164.83333587646484 250.46712446212769 L 49.5 250.46712446212769 L 49.5 244.4709930419922 Z" fill-rule="nonzero" clip-path="url(#oQcNAdegLHQL)"/><path fill="rgb(245 249 250)" stroke="none" paint-order="stroke" d="M 164.8333282470703 244.4709930419922 L 280.16666412353516 244.4709930419922 L 280.16666412353516 250.46712446212769 L 164.8333282470703 250.46712446212769 L 164.8333282470703 244.4709930419922 Z" fill-rule="nonzero" clip-path="url(#oQcNAdegLHQL)"/><path fill="rgb(245 249 250)" stroke="none" paint-order="stroke" d="M 280.1666564941406 244.4709930419922 L 395.49999237060547 244.4709930419922 L 395.49999237060547 250.46712446212769 L 280.1666564941406 250.46712446212769 L 280.1666564941406 244.4709930419922 Z" fill-rule="nonzero" clip-path="url(#oQcNAdegLHQL)"/><path fill="rgb(245 249 250)" stroke="none" paint-order="stroke" d="M 49.5 238.474853515625 L 164.83333587646484 238.474853515625 L 164.83333587646484 244.4709849357605 L 49.5 244.4709849357605 L 49.5 238.474853515625 Z" fill-rule="nonzero" clip-path="url(#oQcNAdegLHQL)"/><path fill="rgb(245 249 250)" stroke="none" paint-order="stroke" d="M 164.8333282470703 238.474853515625 L 280.16666412353516 238.474853515625 L 280.16666412353516 244.4709849357605 L 164.8333282470703 244.4709849357605 L 164.8333282470703 238.474853515625 Z" fill-rule="nonzero" clip-path="url(#oQcNAdegLHQL)"/><path fill="rgb(245 249 250)" stroke="none" paint-order="stroke" d="M 280.1666564941406 238.474853515625 L 395.49999237060547 238.474853515625 L 395.49999237060547 244.4709849357605 L 280.1666564941406 244.4709849357605 L 280.1666564941406 238.474853515625 Z" fill-rule="nonzero" clip-path="url(#oQcNAdegLHQL)"/><path fill="rgb(245 249 250)" stroke="none" paint-order="stroke" d="M 49.5 232.47872924804688 L 164.83333587646484 232.47872924804688 L 164.83333587646484 238.47486066818237 L 49.5 238.47486066818237 L 49.5 232.47872924804688 Z" fill-rule="nonzero" clip-path="url(#oQcNAdegLHQL)"/><path fill="rgb(245 249 250)" stroke="none" paint-order="stroke" d="M 164.8333282470703 232.47872924804688 L 280.16666412353516 232.47872924804688 L 280.16666412353516 238.47486066818237 L 164.8333282470703 238.47486066818237 L 164.8333282470703 232.47872924804688 Z" fill-rule="nonzero" clip-path="url(#oQcNAdegLHQL)"/><path fill="rgb(245 249 250)" stroke="none" paint-order="stroke" d="M 280.1666564941406 232.47872924804688 L 395.49999237060547 232.47872924804688 L 395.49999237060547 238.47486066818237 L 280.1666564941406 238.47486066818237 L 280.1666564941406 232.47872924804688 Z" fill-rule="nonzero" clip-path="url(#oQcNAdegLHQL)"/><path fill="rgb(245 249 250)" stroke="none" paint-order="stroke" d="M 49.5 226.4825897216797 L 164.83333587646484 226.4825897216797 L 164.83333587646484 232.47872114181519 L 49.5 232.47872114181519 L 49.5 226.4825897216797 Z" fill-rule="nonzero" clip-path="url(#oQcNAdegLHQL)"/><path fill="rgb(245 249 250)" stroke="none" paint-order="stroke" d="M 164.8333282470703 226.4825897216797 L 280.16666412353516 226.4825897216797 L 280.16666412353516 232.47872114181519 L 164.8333282470703 232.47872114181519 L 164.8333282470703 226.4825897216797 Z" fill-rule="nonzero" clip-path="url(#oQcNAdegLHQL)"/><path fill="rgb(245 249 250)" stroke="none" paint-order="stroke" d="M 280.1666564941406 226.4825897216797 L 395.49999237060547 226.4825897216797 L 395.49999237060547 232.47872114181519 L 280.1666564941406 232.47872114181519 L 280.1666564941406 226.4825897216797 Z" fill-rule="nonzero" clip-path="url(#oQcNAdegLHQL)"/><path fill="rgb(245 249 250)" stroke="none" paint-order="stroke" d="M 49.5 220.48646545410156 L 164.83333587646484 220.48646545410156 L 164.83333587646484 226.48259687423706 L 49.5 226.48259687423706 L 49.5 220.48646545410156 Z" fill-rule="nonzero" clip-path="url(#oQcNAdegLHQL)"/><path fill="rgb(245 249 250)" stroke="none" paint-order="stroke" d="M 164.8333282470703 220.48646545410156 L 280.16666412353516 220.48646545410156 L 280.16666412353516 226.48259687423706 L 164.8333282470703 226.48259687423706 L 164.8333282470703 220.48646545410156 Z" fill-rule="nonzero" clip-path="url(#oQcNAdegLHQL)"/><path fill="rgb(245 249 250)" stroke="none" paint-order="stroke" d="M 280.1666564941406 220.48646545410156 L 395.49999237060547 220.48646545410156 L 395.49999237060547 226.48259687423706 L 280.1666564941406 226.48259687423706 L 280.1666564941406 220.48646545410156 Z" fill-rule="nonzero" clip-path="url(#oQcNAdegLHQL)"/><path fill="rgb(245 249 250)" stroke="none" paint-order="stroke" d="M 49.5 214.49032592773438 L 164.83333587646484 214.49032592773438 L 164.83333587646484 220.48645734786987 L 49.5 220.48645734786987 L 49.5 214.49032592773438 Z" fill-rule="nonzero" clip-path="url(#oQcNAdegLHQL)"/><path fill="rgb(245 249 250)" stroke="none" paint-order="stroke" d="M 164.8333282470703 214.49032592773438 L 280.16666412353516 214.49032592773438 L 280.16666412353516 220.48645734786987 L 164.8333282470703 220.48645734786987 L 164.8333282470703 214.49032592773438 Z" fill-rule="nonzero" clip-path="url(#oQcNAdegLHQL)"/><path fill="rgb(245 249 250)" stroke="none" paint-order="stroke" d="M 280.1666564941406 214.49032592773438 L 395.49999237060547 214.49032592773438 L 395.49999237060547 220.48645734786987 L 280.1666564941406 220.48645734786987 L 280.1666564941406 214.49032592773438 Z" fill-rule="nonzero" clip-path="url(#oQcNAdegLHQL)"/><path fill="rgb(245 249 250)" stroke="none" paint-order="stroke" d="M 49.5 208.49420166015625 L 164.83333587646484 208.49420166015625 L 164.83333587646484 214.49033308029175 L 49.5 214.49033308029175 L 49.5 208.49420166015625 Z" fill-rule="nonzero" clip-path="url(#oQcNAdegLHQL)"/><path fill="rgb(245 249 250)" stroke="none" paint-order="stroke" d="M 164.8333282470703 208.49420166015625 L 280.16666412353516 208.49420166015625 L 280.16666412353516 214.49033308029175 L 164.8333282470703 214.49033308029175 L 164.8333282470703 208.49420166015625 Z" fill-rule="nonzero" clip-path="url(#oQcNAdegLHQL)"/><path fill="rgb(245 249 250)" stroke="none" paint-order="stroke" d="M 280.1666564941406 208.49420166015625 L 395.49999237060547 208.49420166015625 L 395.49999237060547 214.49033308029175 L 280.1666564941406 214.49033308029175 L 280.1666564941406 208.49420166015625 Z" fill-rule="nonzero" clip-path="url(#oQcNAdegLHQL)"/><path fill="rgb(245 249 250)" stroke="none" paint-order="stroke" d="M 49.5 202.49806213378906 L 164.83333587646484 202.49806213378906 L 164.83333587646484 208.49419355392456 L 49.5 208.49419355392456 L 49.5 202.49806213378906 Z" fill-rule="nonzero" clip-path="url(#oQcNAdegLHQL)"/><path fill="rgb(245 249 250)" stroke="none" paint-order="stroke" d="M 164.8333282470703 202.49806213378906 L 280.16666412353516 202.49806213378906 L 280.16666412353516 208.49419355392456 L 164.8333282470703 208.49419355392456 L 164.8333282470703 202.49806213378906 Z" fill-rule="nonzero" clip-path="url(#oQcNAdegLHQL)"/><path fill="rgb(245 249 250)" stroke="none" paint-order="stroke" d="M 280.1666564941406 202.49806213378906 L 395.49999237060547 202.49806213378906 L 395.49999237060547 208.49419355392456 L 280.1666564941406 208.49419355392456 L 280.1666564941406 202.49806213378906 Z" fill-rule="nonzero" clip-path="url(#oQcNAdegLHQL)"/><path fill="rgb(245 249 250)" stroke="none" paint-order="stroke" d="M 49.5 196.50193786621094 L 164.83333587646484 196.50193786621094 L 164.83333587646484 202.49806928634644 L 49.5 202.49806928634644 L 49.5 196.50193786621094 Z" fill-rule="nonzero" clip-path="url(#oQcNAdegLHQL)"/><path fill="rgb(245 249 250)" stroke="none" paint-order="stroke" d="M 164.8333282470703 196.50193786621094 L 280.16666412353516 196.50193786621094 L 280.16666412353516 202.49806928634644 L 164.8333282470703 202.49806928634644 L 164.8333282470703 196.50193786621094 Z" fill-rule="nonzero" clip-path="url(#oQcNAdegLHQL)"/><path fill="rgb(245 249 250)" stroke="none" paint-order="stroke" d="M 280.1666564941406 196.50193786621094 L 395.49999237060547 196.50193786621094 L 395.49999237060547 202.49806928634644 L 280.1666564941406 202.49806928634644 L 280.1666564941406 196.50193786621094 Z" fill-rule="nonzero" clip-path="url(#oQcNAdegLHQL)"/><path fill="rgb(245 249 250)" stroke="none" paint-order="stroke" d="M 49.5 190.50579833984375 L 164.83333587646484 190.50579833984375 L 164.83333587646484 196.50192975997925 L 49.5 196.50192975997925 L 49.5 190.50579833984375 Z" fill-rule="nonzero" clip-path="url(#oQcNAdegLHQL)"/><path fill="rgb(245 249 250)" stroke="none" paint-order="stroke" d="M 164.8333282470703 190.50579833984375 L 280.16666412353516 190.50579833984375 L 280.16666412353516 196.50192975997925 L 164.8333282470703 196.50192975997925 L 164.8333282470703 190.50579833984375 Z" fill-rule="nonzero" clip-path="url(#oQcNAdegLHQL)"/><path fill="rgb(245 249 250)" stroke="none" paint-order="stroke" d="M 280.1666564941406 190.50579833984375 L 395.49999237060547 190.50579833984375 L 395.49999237060547 196.50192975997925 L 280.1666564941406 196.50192975997925 L 280.1666564941406 190.50579833984375 Z" fill-rule="nonzero" clip-path="url(#oQcNAdegLHQL)"/><path fill="rgb(245 249 250)" stroke="none" paint-order="stroke" d="M 49.5 184.50967407226562 L 164.83333587646484 184.50967407226562 L 164.83333587646484 190.50580549240112 L 49.5 190.50580549240112 L 49.5 184.50967407226562 Z" fill-rule="nonzero" clip-path="url(#oQcNAdegLHQL)"/><path fill="rgb(245 249 250)" stroke="none" paint-order="stroke" d="M 164.8333282470703 184.50967407226562 L 280.16666412353516 184.50967407226562 L 280.16666412353516 190.50580549240112 L 164.8333282470703 190.50580549240112 L 164.8333282470703 184.50967407226562 Z" fill-rule="nonzero" clip-path="url(#oQcNAdegLHQL)"/><path fill="rgb(245 249 250)" stroke="none" paint-order="stroke" d="M 280.1666564941406 184.50967407226562 L 395.49999237060547 184.50967407226562 L 395.49999237060547 190.50580549240112 L 280.1666564941406 190.50580549240112 L 280.1666564941406 184.50967407226562 Z" fill-rule="nonzero" clip-path="url(#oQcNAdegLHQL)"/><path fill="rgb(245 249 250)" stroke="none" paint-order="stroke" d="M 49.5 178.51353454589844 L 164.83333587646484 178.51353454589844 L 164.83333587646484 184.50966596603394 L 49.5 184.50966596603394 L 49.5 178.51353454589844 Z" fill-rule="nonzero" clip-path="url(#oQcNAdegLHQL)"/><path fill="rgb(245 249 250)" stroke="none" paint-order="stroke" d="M 164.8333282470703 178.51353454589844 L 280.16666412353516 178.51353454589844 L 280.16666412353516 184.50966596603394 L 164.8333282470703 184.50966596603394 L 164.8333282470703 178.51353454589844 Z" fill-rule="nonzero" clip-path="url(#oQcNAdegLHQL)"/><path fill="rgb(245 249 250)" stroke="none" paint-order="stroke" d="M 280.1666564941406 178.51353454589844 L 395.49999237060547 178.51353454589844 L 395.49999237060547 184.50966596603394 L 280.1666564941406 184.50966596603394 L 280.1666564941406 178.51353454589844 Z" fill-rule="nonzero" clip-path="url(#oQcNAdegLHQL)"/><path fill="rgb(245 249 250)" stroke="none" paint-order="stroke" d="M 49.5 172.5174102783203 L 164.83333587646484 172.5174102783203 L 164.83333587646484 178.5135416984558 L 49.5 178.5135416984558 L 49.5 172.5174102783203 Z" fill-rule="nonzero" clip-path="url(#oQcNAdegLHQL)"/><path fill="rgb(245 249 250)" stroke="none" paint-order="stroke" d="M 164.8333282470703 172.5174102783203 L 280.16666412353516 172.5174102783203 L 280.16666412353516 178.5135416984558 L 164.8333282470703 178.5135416984558 L 164.8333282470703 172.5174102783203 Z" fill-rule="nonzero" clip-path="url(#oQcNAdegLHQL)"/><path fill="rgb(245 249 250)" stroke="none" paint-order="stroke" d="M 280.1666564941406 172.5174102783203 L 395.49999237060547 172.5174102783203 L 395.49999237060547 178.5135416984558 L 280.1666564941406 178.5135416984558 L 280.1666564941406 172.5174102783203 Z" fill-rule="nonzero" clip-path="url(#oQcNAdegLHQL)"/><path fill="rgb(245 249 250)" stroke="none" paint-order="stroke" d="M 49.5 166.52127075195312 L 164.83333587646484 166.52127075195312 L 164.83333587646484 172.51740217208862 L 49.5 172.51740217208862 L 49.5 166.52127075195312 Z" fill-rule="nonzero" clip-path="url(#oQcNAdegLHQL)"/><path fill="rgb(245 249 250)" stroke="none" paint-order="stroke" d="M 164.8333282470703 166.52127075195312 L 280.16666412353516 166.52127075195312 L 280.16666412353516 172.51740217208862 L 164.8333282470703 172.51740217208862 L 164.8333282470703 166.52127075195312 Z" fill-rule="nonzero" clip-path="url(#oQcNAdegLHQL)"/><path fill="rgb(245 249 250)" stroke="none" paint-order="stroke" d="M 280.1666564941406 166.52127075195312 L 395.49999237060547 166.52127075195312 L 395.49999237060547 172.51740217208862 L 280.1666564941406 172.51740217208862 L 280.1666564941406 166.52127075195312 Z" fill-rule="nonzero" clip-path="url(#oQcNAdegLHQL)"/><path fill="rgb(245 249 250)" stroke="none" paint-order="stroke" d="M 49.5 160.525146484375 L 164.83333587646484 160.525146484375 L 164.83333587646484 166.5212779045105 L 49.5 166.5212779045105 L 49.5 160.525146484375 Z" fill-rule="nonzero" clip-path="url(#oQcNAdegLHQL)"/><path fill="rgb(245 249 250)" stroke="none" paint-order="stroke" d="M 164.8333282470703 160.525146484375 L 280.16666412353516 160.525146484375 L 280.16666412353516 166.5212779045105 L 164.8333282470703 166.5212779045105 L 164.8333282470703 160.525146484375 Z" fill-rule="nonzero" clip-path="url(#oQcNAdegLHQL)"/><path fill="rgb(245 249 250)" stroke="none" paint-order="stroke" d="M 280.1666564941406 160.525146484375 L 395.49999237060547 160.525146484375 L 395.49999237060547 166.5212779045105 L 280.1666564941406 166.5212779045105 L 280.1666564941406 160.525146484375 Z" fill-rule="nonzero" clip-path="url(#oQcNAdegLHQL)"/><path fill="rgb(245 249 250)" stroke="none" paint-order="stroke" d="M 49.5 154.5290069580078 L 164.83333587646484 154.5290069580078 L 164.83333587646484 160.5251383781433 L 49.5 160.5251383781433 L 49.5 154.5290069580078 Z" fill-rule="nonzero" clip-path="url(#oQcNAdegLHQL)"/><path fill="rgb(245 249 250)" stroke="none" paint-order="stroke" d="M 164.8333282470703 154.5290069580078 L 280.16666412353516 154.5290069580078 L 280.16666412353516 160.5251383781433 L 164.8333282470703 160.5251383781433 L 164.8333282470703 154.5290069580078 Z" fill-rule="nonzero" clip-path="url(#oQcNAdegLHQL)"/><path fill="rgb(245 249 250)" stroke="none" paint-order="stroke" d="M 280.1666564941406 154.5290069580078 L 395.49999237060547 154.5290069580078 L 395.49999237060547 160.5251383781433 L 280.1666564941406 160.5251383781433 L 280.1666564941406 154.5290069580078 Z" fill-rule="nonzero" clip-path="url(#oQcNAdegLHQL)"/><path fill="rgb(245 249 250)" stroke="none" paint-order="stroke" d="M 49.5 148.5328826904297 L 164.83333587646484 148.5328826904297 L 164.83333587646484 154.52901411056519 L 49.5 154.52901411056519 L 49.5 148.5328826904297 Z" fill-rule="nonzero" clip-path="url(#oQcNAdegLHQL)"/><path fill="rgb(245 249 250)" stroke="none" paint-order="stroke" d="M 164.8333282470703 148.5328826904297 L 280.16666412353516 148.5328826904297 L 280.16666412353516 154.52901411056519 L 164.8333282470703 154.52901411056519 L 164.8333282470703 148.5328826904297 Z" fill-rule="nonzero" clip-path="url(#oQcNAdegLHQL)"/><path fill="rgb(245 249 250)" stroke="none" paint-order="stroke" d="M 280.1666564941406 148.5328826904297 L 395.49999237060547 148.5328826904297 L 395.49999237060547 154.52901411056519 L 280.1666564941406 154.52901411056519 L 280.1666564941406 148.5328826904297 Z" fill-rule="nonzero" clip-path="url(#oQcNAdegLHQL)"/><path fill="rgb(245 249 250)" stroke="none" paint-order="stroke" d="M 49.5 142.5367431640625 L 164.83333587646484 142.5367431640625 L 164.83333587646484 148.532874584198 L 49.5 148.532874584198 L 49.5 142.5367431640625 Z" fill-rule="nonzero" clip-path="url(#oQcNAdegLHQL)"/><path fill="rgb(245 249 250)" stroke="none" paint-order="stroke" d="M 164.8333282470703 142.5367431640625 L 280.16666412353516 142.5367431640625 L 280.16666412353516 148.532874584198 L 164.8333282470703 148.532874584198 L 164.8333282470703 142.5367431640625 Z" fill-rule="nonzero" clip-path="url(#oQcNAdegLHQL)"/><path fill="rgb(245 249 250)" stroke="none" paint-order="stroke" d="M 280.1666564941406 142.5367431640625 L 395.49999237060547 142.5367431640625 L 395.49999237060547 148.532874584198 L 280.1666564941406 148.532874584198 L 280.1666564941406 142.5367431640625 Z" fill-rule="nonzero" clip-path="url(#oQcNAdegLHQL)"/><path fill="rgb(245 249 250)" stroke="none" paint-order="stroke" d="M 49.5 136.54061889648438 L 164.83333587646484 136.54061889648438 L 164.83333587646484 142.53675031661987 L 49.5 142.53675031661987 L 49.5 136.54061889648438 Z" fill-rule="nonzero" clip-path="url(#oQcNAdegLHQL)"/><path fill="rgb(245 249 250)" stroke="none" paint-order="stroke" d="M 164.8333282470703 136.54061889648438 L 280.16666412353516 136.54061889648438 L 280.16666412353516 142.53675031661987 L 164.8333282470703 142.53675031661987 L 164.8333282470703 136.54061889648438 Z" fill-rule="nonzero" clip-path="url(#oQcNAdegLHQL)"/><path fill="rgb(245 249 250)" stroke="none" paint-order="stroke" d="M 280.1666564941406 136.54061889648438 L 395.49999237060547 136.54061889648438 L 395.49999237060547 142.53675031661987 L 280.1666564941406 142.53675031661987 L 280.1666564941406 136.54061889648438 Z" fill-rule="nonzero" clip-path="url(#oQcNAdegLHQL)"/><path fill="rgb(245 249 250)" stroke="none" paint-order="stroke" d="M 49.5 130.54449462890625 L 164.83333587646484 130.54449462890625 L 164.83333587646484 136.54062604904175 L 49.5 136.54062604904175 L 49.5 130.54449462890625 Z" fill-rule="nonzero" clip-path="url(#oQcNAdegLHQL)"/><path fill="rgb(245 249 250)" stroke="none" paint-order="stroke" d="M 164.8333282470703 130.54449462890625 L 280.16666412353516 130.54449462890625 L 280.16666412353516 136.54062604904175 L 164.8333282470703 136.54062604904175 L 164.8333282470703 130.54449462890625 Z" fill-rule="nonzero" clip-path="url(#oQcNAdegLHQL)"/><path fill="rgb(245 249 250)" stroke="none" paint-order="stroke" d="M 280.1666564941406 130.54449462890625 L 395.49999237060547 130.54449462890625 L 395.49999237060547 136.54062604904175 L 280.1666564941406 136.54062604904175 L 280.1666564941406 130.54449462890625 Z" fill-rule="nonzero" clip-path="url(#oQcNAdegLHQL)"/><path fill="rgb(245 249 250)" stroke="none" paint-order="stroke" d="M 49.5 124.54835510253906 L 164.83333587646484 124.54835510253906 L 164.83333587646484 130.54448652267456 L 49.5 130.54448652267456 L 49.5 124.54835510253906 Z" fill-rule="nonzero" clip-path="url(#oQcNAdegLHQL)"/><path fill="rgb(245 249 250)" stroke="none" paint-order="stroke" d="M 164.8333282470703 124.54835510253906 L 280.16666412353516 124.54835510253906 L 280.16666412353516 130.54448652267456 L 164.8333282470703 130.54448652267456 L 164.8333282470703 124.54835510253906 Z" fill-rule="nonzero" clip-path="url(#oQcNAdegLHQL)"/><path fill="rgb(245 249 250)" stroke="none" paint-order="stroke" d="M 280.1666564941406 124.54835510253906 L 395.49999237060547 124.54835510253906 L 395.49999237060547 130.54448652267456 L 280.1666564941406 130.54448652267456 L 280.1666564941406 124.54835510253906 Z" fill-rule="nonzero" clip-path="url(#oQcNAdegLHQL)"/><path fill="rgb(245 249 250)" stroke="none" paint-order="stroke" d="M 49.5 118.5522232055664 L 164.83333587646484 118.5522232055664 L 164.83333587646484 124.5483546257019 L 49.5 124.5483546257019 L 49.5 118.5522232055664 Z" fill-rule="nonzero" clip-path="url(#oQcNAdegLHQL)"/><path fill="rgb(245 249 250)" stroke="none" paint-order="stroke" d="M 164.8333282470703 118.5522232055664 L 280.16666412353516 118.5522232055664 L 280.16666412353516 124.5483546257019 L 164.8333282470703 124.5483546257019 L 164.8333282470703 118.5522232055664 Z" fill-rule="nonzero" clip-path="url(#oQcNAdegLHQL)"/><path fill="rgb(245 249 250)" stroke="none" paint-order="stroke" d="M 280.1666564941406 118.5522232055664 L 395.49999237060547 118.5522232055664 L 395.49999237060547 124.5483546257019 L 280.1666564941406 124.5483546257019 L 280.1666564941406 118.5522232055664 Z" fill-rule="nonzero" clip-path="url(#oQcNAdegLHQL)"/><path fill="rgb(245 249 250)" stroke="none" paint-order="stroke" d="M 49.5 112.55609130859375 L 164.83333587646484 112.55609130859375 L 164.83333587646484 118.55222272872925 L 49.5 118.55222272872925 L 49.5 112.55609130859375 Z" fill-rule="nonzero" clip-path="url(#oQcNAdegLHQL)"/><path fill="rgb(245 249 250)" stroke="none" paint-order="stroke" d="M 164.8333282470703 112.55609130859375 L 280.16666412353516 112.55609130859375 L 280.16666412353516 118.55222272872925 L 164.8333282470703 118.55222272872925 L 164.8333282470703 112.55609130859375 Z" fill-rule="nonzero" clip-path="url(#oQcNAdegLHQL)"/><path fill="rgb(245 249 250)" stroke="none" paint-order="stroke" d="M 280.1666564941406 112.55609130859375 L 395.49999237060547 112.55609130859375 L 395.49999237060547 118.55222272872925 L 280.1666564941406 118.55222272872925 L 280.1666564941406 112.55609130859375 Z" fill-rule="nonzero" clip-path="url(#oQcNAdegLHQL)"/><path fill="rgb(245 249 250)" stroke="none" paint-order="stroke" d="M 49.5 106.5599594116211 L 164.83333587646484 106.5599594116211 L 164.83333587646484 112.55609083175659 L 49.5 112.55609083175659 L 49.5 106.5599594116211 Z" fill-rule="nonzero" clip-path="url(#oQcNAdegLHQL)"/><path fill="rgb(245 249 250)" stroke="none" paint-order="stroke" d="M 164.8333282470703 106.5599594116211 L 280.16666412353516 106.5599594116211 L 280.16666412353516 112.55609083175659 L 164.8333282470703 112.55609083175659 L 164.8333282470703 106.5599594116211 Z" fill-rule="nonzero" clip-path="url(#oQcNAdegLHQL)"/><path fill="rgb(245 249 250)" stroke="none" paint-order="stroke" d="M 280.1666564941406 106.5599594116211 L 395.49999237060547 106.5599594116211 L 395.49999237060547 112.55609083175659 L 280.1666564941406 112.55609083175659 L 280.1666564941406 106.5599594116211 Z" fill-rule="nonzero" clip-path="url(#oQcNAdegLHQL)"/><path fill="rgb(245 249 250)" stroke="none" paint-order="stroke" d="M 49.5 100.56382751464844 L 164.83333587646484 100.56382751464844 L 164.83333587646484 106.55995893478394 L 49.5 106.55995893478394 L 49.5 100.56382751464844 Z" fill-rule="nonzero" clip-path="url(#oQcNAdegLHQL)"/><path fill="rgb(245 249 250)" stroke="none" paint-order="stroke" d="M 164.8333282470703 100.56382751464844 L 280.16666412353516 100.56382751464844 L 280.16666412353516 106.55995893478394 L 164.8333282470703 106.55995893478394 L 164.8333282470703 100.56382751464844 Z" fill-rule="nonzero" clip-path="url(#oQcNAdegLHQL)"/><path fill="rgb(245 249 250)" stroke="none" paint-order="stroke" d="M 280.1666564941406 100.56382751464844 L 395.49999237060547 100.56382751464844 L 395.49999237060547 106.55995893478394 L 280.1666564941406 106.55995893478394 L 280.1666564941406 100.56382751464844 Z" fill-rule="nonzero" clip-path="url(#oQcNAdegLHQL)"/><path fill="rgb(245 249 250)" stroke="none" paint-order="stroke" d="M 49.5 94.56769561767578 L 164.83333587646484 94.56769561767578 L 164.83333587646484 100.56382703781128 L 49.5 100.56382703781128 L 49.5 94.56769561767578 Z" fill-rule="nonzero" clip-path="url(#oQcNAdegLHQL)"/><path fill="rgb(245 249 250)" stroke="none" paint-order="stroke" d="M 164.8333282470703 94.56769561767578 L 280.16666412353516 94.56769561767578 L 280.16666412353516 100.56382703781128 L 164.8333282470703 100.56382703781128 L 164.8333282470703 94.56769561767578 Z" fill-rule="nonzero" clip-path="url(#oQcNAdegLHQL)"/><path fill="rgb(245 249 250)" stroke="none" paint-order="stroke" d="M 280.1666564941406 94.56769561767578 L 395.49999237060547 94.56769561767578 L 395.49999237060547 100.56382703781128 L 280.1666564941406 100.56382703781128 L 280.1666564941406 94.56769561767578 Z" fill-rule="nonzero" clip-path="url(#oQcNAdegLHQL)"/><path fill="rgb(245 249 250)" stroke="none" paint-order="stroke" d="M 49.5 88.57156372070312 L 164.83333587646484 88.57156372070312 L 164.83333587646484 94.56769514083862 L 49.5 94.56769514083862 L 49.5 88.57156372070312 Z" fill-rule="nonzero" clip-path="url(#oQcNAdegLHQL)"/><path fill="rgb(245 249 250)" stroke="none" paint-order="stroke" d="M 164.8333282470703 88.57156372070312 L 280.16666412353516 88.57156372070312 L 280.16666412353516 94.56769514083862 L 164.8333282470703 94.56769514083862 L 164.8333282470703 88.57156372070312 Z" fill-rule="nonzero" clip-path="url(#oQcNAdegLHQL)"/><path fill="rgb(245 249 250)" stroke="none" paint-order="stroke" d="M 280.1666564941406 88.57156372070312 L 395.49999237060547 88.57156372070312 L 395.49999237060547 94.56769514083862 L 280.1666564941406 94.56769514083862 L 280.1666564941406 88.57156372070312 Z" fill-rule="nonzero" clip-path="url(#oQcNAdegLHQL)"/><path fill="rgb(245 249 250)" stroke="none" paint-order="stroke" d="M 49.5 82.57543182373047 L 164.83333587646484 82.57543182373047 L 164.83333587646484 88.57156324386597 L 49.5 88.57156324386597 L 49.5 82.57543182373047 Z" fill-rule="nonzero" clip-path="url(#oQcNAdegLHQL)"/><path fill="rgb(245 249 250)" stroke="none" paint-order="stroke" d="M 164.8333282470703 82.57543182373047 L 280.16666412353516 82.57543182373047 L 280.16666412353516 88.57156324386597 L 164.8333282470703 88.57156324386597 L 164.8333282470703 82.57543182373047 Z" fill-rule="nonzero" clip-path="url(#oQcNAdegLHQL)"/><path fill="rgb(245 249 250)" stroke="none" paint-order="stroke" d="M 280.1666564941406 82.57543182373047 L 395.49999237060547 82.57543182373047 L 395.49999237060547 88.57156324386597 L 280.1666564941406 88.57156324386597 L 280.1666564941406 82.57543182373047 Z" fill-rule="nonzero" clip-path="url(#oQcNAdegLHQL)"/><path fill="rgb(245 249 250)" stroke="none" paint-order="stroke" d="M 49.5 76.57929992675781 L 164.83333587646484 76.57929992675781 L 164.83333587646484 82.57543134689331 L 49.5 82.57543134689331 L 49.5 76.57929992675781 Z" fill-rule="nonzero" clip-path="url(#oQcNAdegLHQL)"/><path fill="rgb(245 249 250)" stroke="none" paint-order="stroke" d="M 164.8333282470703 76.57929992675781 L 280.16666412353516 76.57929992675781 L 280.16666412353516 82.57543134689331 L 164.8333282470703 82.57543134689331 L 164.8333282470703 76.57929992675781 Z" fill-rule="nonzero" clip-path="url(#oQcNAdegLHQL)"/><path fill="rgb(245 249 250)" stroke="none" paint-order="stroke" d="M 280.1666564941406 76.57929992675781 L 395.49999237060547 76.57929992675781 L 395.49999237060547 82.57543134689331 L 280.1666564941406 82.57543134689331 L 280.1666564941406 76.57929992675781 Z" fill-rule="nonzero" clip-path="url(#oQcNAdegLHQL)"/><path fill="rgb(245 249 250)" stroke="none" paint-order="stroke" d="M 49.5 70.58317565917969 L 164.83333587646484 70.58317565917969 L 164.83333587646484 76.57930707931519 L 49.5 76.57930707931519 L 49.5 70.58317565917969 Z" fill-rule="nonzero" clip-path="url(#oQcNAdegLHQL)"/><path fill="rgb(245 249 250)" stroke="none" paint-order="stroke" d="M 164.8333282470703 70.58317565917969 L 280.16666412353516 70.58317565917969 L 280.16666412353516 76.57930707931519 L 164.8333282470703 76.57930707931519 L 164.8333282470703 70.58317565917969 Z" fill-rule="nonzero" clip-path="url(#oQcNAdegLHQL)"/><path fill="rgb(245 249 250)" stroke="none" paint-order="stroke" d="M 280.1666564941406 70.58317565917969 L 395.49999237060547 70.58317565917969 L 395.49999237060547 76.57930707931519 L 280.1666564941406 76.57930707931519 L 280.1666564941406 70.58317565917969 Z" fill-rule="nonzero" clip-path="url(#oQcNAdegLHQL)"/><path fill="rgb(245 249 250)" stroke="none" paint-order="stroke" d="M 49.5 64.58704376220703 L 164.83333587646484 64.58704376220703 L 164.83333587646484 70.58317518234253 L 49.5 70.58317518234253 L 49.5 64.58704376220703 Z" fill-rule="nonzero" clip-path="url(#oQcNAdegLHQL)"/><path fill="rgb(245 249 250)" stroke="none" paint-order="stroke" d="M 164.8333282470703 64.58704376220703 L 280.16666412353516 64.58704376220703 L 280.16666412353516 70.58317518234253 L 164.8333282470703 70.58317518234253 L 164.8333282470703 64.58704376220703 Z" fill-rule="nonzero" clip-path="url(#oQcNAdegLHQL)"/><path fill="rgb(245 249 250)" stroke="none" paint-order="stroke" d="M 280.1666564941406 64.58704376220703 L 395.49999237060547 64.58704376220703 L 395.49999237060547 70.58317518234253 L 280.1666564941406 70.58317518234253 L 280.1666564941406 64.58704376220703 Z" fill-rule="nonzero" clip-path="url(#oQcNAdegLHQL)"/><path fill="rgb(245 249 250)" stroke="none" paint-order="stroke" d="M 49.5 58.59090805053711 L 164.83333587646484 58.59090805053711 L 164.83333587646484 64.58703947067261 L 49.5 64.58703947067261 L 49.5 58.59090805053711 Z" fill-rule="nonzero" clip-path="url(#oQcNAdegLHQL)"/><path fill="rgb(245 249 250)" stroke="none" paint-order="stroke" d="M 164.8333282470703 58.59090805053711 L 280.16666412353516 58.59090805053711 L 280.16666412353516 64.58703947067261 L 164.8333282470703 64.58703947067261 L 164.8333282470703 58.59090805053711 Z" fill-rule="nonzero" clip-path="url(#oQcNAdegLHQL)"/><path fill="rgb(245 249 250)" stroke="none" paint-order="stroke" d="M 280.1666564941406 58.59090805053711 L 395.49999237060547 58.59090805053711 L 395.49999237060547 64.58703947067261 L 280.1666564941406 64.58703947067261 L 280.1666564941406 58.59090805053711 Z" fill-rule="nonzero" clip-path="url(#oQcNAdegLHQL)"/><path fill="none" stroke="black" paint-order="fill" d="" stroke-linejoin="bevel" stroke-miterlimit="10"/><text fill="#444444" stroke="none" font-family="helvetica" font-size="8pt" font-style="normal" font-weight="normal" text-decoration="normal" x="106.66666412353516" y="41.82312989234924" text-anchor="start" dominant-baseline="alphabetic" transform="matrix(1, 0, 0, 1, 0.5, 0.5)">0</text><text fill="none" stroke="rgb(0 0 0 / 0)" font-family="helvetica" font-size="8pt" font-style="normal" font-weight="normal" text-decoration="normal" x="106.66666412353516" y="41.82312989234924" text-anchor="start" dominant-baseline="alphabetic" transform="matrix(1, 0, 0, 1, 0.5, 0.5)" stroke-linejoin="bevel" stroke-miterlimit="10">0</text><text fill="#444444" stroke="none" font-family="helvetica" font-size="8pt" font-style="normal" font-weight="normal" text-decoration="normal" x="222" y="41.82312989234924" text-anchor="start" dominant-baseline="alphabetic" transform="matrix(1, 0, 0, 1, 0.5, 0.5)">1</text><text fill="none" stroke="rgb(0 0 0 / 0)" font-family="helvetica" font-size="8pt" font-style="normal" font-weight="normal" text-decoration="normal" x="222" y="41.82312989234924" text-anchor="start" dominant-baseline="alphabetic" transform="matrix(1, 0, 0, 1, 0.5, 0.5)" stroke-linejoin="bevel" stroke-miterlimit="10">1</text><text fill="#444444" stroke="none" font-family="helvetica" font-size="8pt" font-style="normal" font-weight="normal" text-decoration="normal" x="337.3333435058594" y="41.82312989234924" text-anchor="start" dominant-baseline="alphabetic" transform="matrix(1, 0, 0, 1, 0.5, 0.5)">2</text><text fill="none" stroke="rgb(0 0 0 / 0)" font-family="helvetica" font-size="8pt" font-style="normal" font-weight="normal" text-decoration="normal" x="337.3333435058594" y="41.82312989234924" text-anchor="start" dominant-baseline="alphabetic" transform="matrix(1, 0, 0, 1, 0.5, 0.5)" stroke-linejoin="bevel" stroke-miterlimit="10">2</text><path fill="none" stroke="black" paint-order="fill" d="M 49.5 354.5 L 49.5 44.5" stroke-linejoin="bevel" stroke-miterlimit="10"/><path fill="none" stroke="black" paint-order="fill" d="M 43.5 337.5 L 51.5 337.5 M 43.5 307.5 L 51.5 307.5 M 43.5 277.5 L 51.5 277.5 M 43.5 247.5 L 51.5 247.5 M 43.5 217.5 L 51.5 217.5 M 43.5 187.5 L 51.5 187.5 M 43.5 157.5 L 51.5 157.5 M 43.5 127.5 L 51.5 127.5 M 43.5 97.5 L 51.5 97.5 M 43.5 67.5 L 51.5 67.5" stroke-linejoin="bevel" stroke-miterlimit="10"/><path fill="none" stroke="black" paint-order="fill" d="M 45.5 337.5 L 49.5 337.5 M 45.5 331.5 L 49.5 331.5 M 45.5 325.5 L 49.5 325.5 M 45.5 319.5 L 49.5 319.5 M 45.5 313.5 L 49.5 313.5 M 45.5 307.5 L 49.5 307.5 M 45.5 301.5 L 49.5 301.5 M 45.5 295.5 L 49.5 295.5 M 45.5 289.5 L 49.5 289.5 M 45.5 283.5 L 49.5 283.5 M 45.5 277.5 L 49.5 277.5 M 45.5 271.5 L 49.5 271.5 M 45.5 265.5 L 49.5 265.5 M 45.5 259.5 L 49.5 259.5 M 45.5 253.5 L 49.5 253.5 M 45.5 247.5 L 49.5 247.5 M 45.5 241.5 L 49.5 241.5 M 45.5 235.5 L 49.5 235.5 M 45.5 229.5 L 49.5 229.5 M 45.5 223.5 L 49.5 223.5 M 45.5 217.5 L 49.5 217.5 M 45.5 211.5 L 49.5 211.5 M 45.5 205.5 L 49.5 205.5 M 45.5 199.5 L 49.5 199.5 M 45.5 193.5 L 49.5 193.5 M 45.5 187.5 L 49.5 187.5 M 45.5 181.5 L 49.5 181.5 M 45.5 175.5 L 49.5 175.5 M 45.5 169.5 L 49.5 169.5 M 45.5 163.5 L 49.5 163.5 M 45.5 157.5 L 49.5 157.5 M 45.5 151.5 L 49.5 151.5 M 45.5 145.5 L 49.5 145.5 M 45.5 139.5 L 49.5 139.5 M 45.5 133.5 L 49.5 133.5 M 45.5 127.5 L 49.5 127.5 M 45.5 121.5 L 49.5 121.5 M 45.5 115.5 L 49.5 115.5 M 45.5 109.5 L 49.5 109.5 M 45.5 103.5 L 49.5 103.5 M 45.5 97.5 L 49.5 97.5 M 45.5 91.5 L 49.5 91.5 M 45.5 85.5 L 49.5 85.5 M 45.5 79.5 L 49.5 79.5 M 45.5 73.5 L 49.5 73.5 M 45.5 67.5 L 49.5 67.5" stroke-linejoin="bevel" stroke-miterlimit="10"/><text fill="#444444" stroke="none" font-family="helvetica" font-size="11px" font-style="normal" font-weight="normal" text-decoration="normal" x="25.7646484375" y="340.8560791015625" text-anchor="start" dominant-baseline="alphabetic" transform="matrix(1, 0, 0, 1, 0.5, 0.5)">20</text><text fill="none" stroke="rgb(0 0 0 / 0)" font-family="helvetica" font-size="11px" font-style="normal" font-weight="normal" text-decoration="normal" x="25.7646484375" y="340.8560791015625" text-anchor="start" dominant-baseline="alphabetic" transform="matrix(1, 0, 0, 1, 0.5, 0.5)" stroke-linejoin="bevel" stroke-miterlimit="10">20</text><text fill="#444444" stroke="none" font-family="helvetica" font-size="11px" font-style="normal" font-weight="normal" text-decoration="normal" x="25.7646484375" y="310.87542724609375" text-anchor="start" dominant-baseline="alphabetic" transform="matrix(1, 0, 0, 1, 0.5, 0.5)">25</text><text fill="none" stroke="rgb(0 0 0 / 0)" font-family="helvetica" font-size="11px" font-style="normal" font-weight="normal" text-decoration="normal" x="25.7646484375" y="310.87542724609375" text-anchor="start" dominant-baseline="alphabetic" transform="matrix(1, 0, 0, 1, 0.5, 0.5)" stroke-linejoin="bevel" stroke-miterlimit="10">25</text><text fill="#444444" stroke="none" font-family="helvetica" font-size="11px" font-style="normal" font-weight="normal" text-decoration="normal" x="25.7646484375" y="280.894775390625" text-anchor="start" dominant-baseline="alphabetic" transform="matrix(1, 0, 0, 1, 0.5, 0.5)">30</text><text fill="none" stroke="rgb(0 0 0 / 0)" font-family="helvetica" font-size="11px" font-style="normal" font-weight="normal" text-decoration="normal" x="25.7646484375" y="280.894775390625" text-anchor="start" dominant-baseline="alphabetic" transform="matrix(1, 0, 0, 1, 0.5, 0.5)" stroke-linejoin="bevel" stroke-miterlimit="10">30</text><text fill="#444444" stroke="none" font-family="helvetica" font-size="11px" font-style="normal" font-weight="normal" text-decoration="normal" x="25.7646484375" y="250.91412353515625" text-anchor="start" dominant-baseline="alphabetic" transform="matrix(1, 0, 0, 1, 0.5, 0.5)">35</text><text fill="none" stroke="rgb(0 0 0 / 0)" font-family="helvetica" font-size="11px" font-style="normal" font-weight="normal" text-decoration="normal" x="25.7646484375" y="250.91412353515625" text-anchor="start" dominant-baseline="alphabetic" transform="matrix(1, 0, 0, 1, 0.5, 0.5)" stroke-linejoin="bevel" stroke-miterlimit="10">35</text><text fill="#444444" stroke="none" font-family="helvetica" font-size="11px" font-style="normal" font-weight="normal" text-decoration="normal" x="25.7646484375" y="220.93345642089844" text-anchor="start" dominant-baseline="alphabetic" transform="matrix(1, 0, 0, 1, 0.5, 0.5)">40</text><text fill="none" stroke="rgb(0 0 0 / 0)" font-family="helvetica" font-size="11px" font-style="normal" font-weight="normal" text-decoration="normal" x="25.7646484375" y="220.93345642089844" text-anchor="start" dominant-baseline="alphabetic" transform="matrix(1, 0, 0, 1, 0.5, 0.5)" stroke-linejoin="bevel" stroke-miterlimit="10">40</text><text fill="#444444" stroke="none" font-family="helvetica" font-size="11px" font-style="normal" font-weight="normal" text-decoration="normal" x="25.7646484375" y="190.9528045654297" text-anchor="start" dominant-baseline="alphabetic" transform="matrix(1, 0, 0, 1, 0.5, 0.5)">45</text><text fill="none" stroke="rgb(0 0 0 / 0)" font-family="helvetica" font-size="11px" font-style="normal" font-weight="normal" text-decoration="normal" x="25.7646484375" y="190.9528045654297" text-anchor="start" dominant-baseline="alphabetic" transform="matrix(1, 0, 0, 1, 0.5, 0.5)" stroke-linejoin="bevel" stroke-miterlimit="10">45</text><text fill="#444444" stroke="none" font-family="helvetica" font-size="11px" font-style="normal" font-weight="normal" text-decoration="normal" x="25.7646484375" y="160.97215270996094" text-anchor="start" dominant-baseline="alphabetic" transform="matrix(1, 0, 0, 1, 0.5, 0.5)">50</text><text fill="none" stroke="rgb(0 0 0 / 0)" font-family="helvetica" font-size="11px" font-style="normal" font-weight="normal" text-decoration="normal" x="25.7646484375" y="160.97215270996094" text-anchor="start" dominant-baseline="alphabetic" transform="matrix(1, 0, 0, 1, 0.5, 0.5)" stroke-linejoin="bevel" stroke-miterlimit="10">50</text><text fill="#444444" stroke="none" font-family="helvetica" font-size="11px" font-style="normal" font-weight="normal" text-decoration="normal" x="25.7646484375" y="130.99149322509766" text-anchor="start" dominant-baseline="alphabetic" transform="matrix(1, 0, 0, 1, 0.5, 0.5)">55</text><text fill="none" stroke="rgb(0 0 0 / 0)" font-family="helvetica" font-size="11px" font-style="normal" font-weight="normal" text-decoration="normal" x="25.7646484375" y="130.99149322509766" text-anchor="start" dominant-baseline="alphabetic" transform="matrix(1, 0, 0, 1, 0.5, 0.5)" stroke-linejoin="bevel" stroke-miterlimit="10">55</text><text fill="#444444" stroke="none" font-family="helvetica" font-size="11px" font-style="normal" font-weight="normal" text-decoration="normal" x="25.7646484375" y="101.01083374023438" text-anchor="start" dominant-baseline="alphabetic" transform="matrix(1, 0, 0, 1, 0.5, 0.5)">60</text><text fill="none" stroke="rgb(0 0 0 / 0)" font-family="helvetica" font-size="11px" font-style="normal" font-weight="normal" text-decoration="normal" x="25.7646484375" y="101.01083374023438" text-anchor="start" dominant-baseline="alphabetic" transform="matrix(1, 0, 0, 1, 0.5, 0.5)" stroke-linejoin="bevel" stroke-miterlimit="10">60</text><text fill="#444444" stroke="none" font-family="helvetica" font-size="11px" font-style="normal" font-weight="normal" text-decoration="normal" x="25.7646484375" y="71.0301742553711" text-anchor="start" dominant-baseline="alphabetic" transform="matrix(1, 0, 0, 1, 0.5, 0.5)">65</text><text fill="none" stroke="rgb(0 0 0 / 0)" font-family="helvetica" font-size="11px" font-style="normal" font-weight="normal" text-decoration="normal" x="25.7646484375" y="71.0301742553711" text-anchor="start" dominant-baseline="alphabetic" transform="matrix(1, 0, 0, 1, 0.5, 0.5)" stroke-linejoin="bevel" stroke-miterlimit="10">65</text><text fill="#444444" stroke="none" font-family="helvetica" font-size="13px" font-style="italic" font-weight="normal" text-decoration="normal" x="-19.461181640625" y="196" text-anchor="start" dominant-baseline="alphabetic" transform="matrix(6.123233995736766e-17, -1, 1, 6.123233995736766e-17, -180.7353515625, 217.2646484375)">Read Length</text><text fill="none" stroke="rgb(0 0 0 / 0)" font-family="helvetica" font-size="13px" font-style="italic" font-weight="normal" text-decoration="normal" x="-19.461181640625" y="196" text-anchor="start" dominant-baseline="alphabetic" transform="matrix(6.123233995736766e-17, -1, 1, 6.123233995736766e-17, -180.7353515625, 217.2646484375)" stroke-linejoin="bevel" stroke-miterlimit="10">Read Length</text><text fill="#444444" stroke="none" font-family="helvetica" font-size="13px" font-style="normal" font-weight="bold" text-decoration="normal" x="0" y="12" text-anchor="start" dominant-baseline="alphabetic" transform="matrix(1, 0, 0, 1, 49.5, 7.5)">Psite Frames at 3'UTR</text><text fill="none" stroke="rgb(0 0 0 / 0)" font-family="helvetica" font-size="13px" font-style="normal" font-weight="bold" text-decoration="normal" x="0" y="12" text-anchor="start" dominant-baseline="alphabetic" transform="matrix(1, 0, 0, 1, 49.5, 7.5)" stroke-miterlimit="10" stroke-dasharray="">Psite Frames at 3'UTR</text></svg>