<svg version="1.1" xmlns="http://www.w3.org/2000/svg" width="1200" height="600"><defs><clipPath id="RpzdSqQlILSJ"><path fill="none" stroke="none" d="M 0.5 0.5 L 1200.5 0.5 L 1200.5 600.5 L 0.5 600.5 L 0.5 0.5 Z M 52.5 87.5 L 1195.5 87.5 L 1195.5 525.5 L 52.5 525.5 L 52.5 87.5 Z" clip-rule="evenodd"/></clipPath><clipPath id="myHMLLcrRrHU"><path fill="none" stroke="none" d="M 52.5 87.5 L 1195.5 87.5 L 1195.5 525.5 L 52.5 525.5 L 52.5 87.5 Z"/></clipPath><clipPath id="hxndBxpRZTxD"><path fill="none" stroke="none" d="M 52.5 87.5 L 1195.5 87.5 L 1195.5 525.5 L 52.5 525.5 L 52.5 87.5 Z"/></clipPath><clipPath id="lXzmLHeEfilc"><path fill="none" stroke="none" d="M 52.5 87.5 L 1195.5 87.5 L 1195.5 525.5 L 52.5 525.5 L 52.5 87.5 Z"/></clipPath><clipPath id="frgHeTTQOxCW"><path fill="none" stroke="none" d="M 52.5 87.5 L 1195.5 87.5 L 1195.5 525.5 L 52.5 525.5 L 52.5 87.5 Z"/></clipPath><clipPath id="WiSBxhfRwsWh"><path fill="none" stroke="none" d="M 52.5 87.5 L 1195.5 87.5 L 1195.5 525.5 L 52.5 525.5 L 52.5 87.5 Z"/></clipPath></defs><path fill="rgb(255,255,255)" stroke="none" paint-order="stroke" d="M 0.5 0.5 L 1200.5 0.5 L 1200.5 600.5 L 0.5 600.5 L 0.5 0.5 Z" fill-opacity="1" clip-path="url(#RpzdSqQlILSJ)"/><path fill="rgb(255,255,255)" stroke="none" paint-order="stroke" d="M 52.5 87.5 L 1195.5 87.5 L 1195.5 525.5 L 52.5 525.5 L 52.5 87.5 Z" fill-opacity="1"/><path fill="none" stroke="rgb(229,229,229)" paint-order="fill" d="M 52.5 87.5 L 1195.5 87.5 L 1195.5 525.5 L 52.5 525.5 L 52.5 87.5 Z" stroke-opacity="1" stroke-linejoin="bevel" stroke-miterlimit="10"/><path fill="none" stroke="rgb(229,229,229)" paint-order="fill" d="M 281.5 525.5 L 281.5 87.5 M 560.5 525.5 L 560.5 87.5 M 839.5 525.5 L 839.5 87.5 M 1119.5 525.5 L 1119.5 87.5" stroke-opacity="1" stroke-linejoin="bevel" stroke-miterlimit="10" clip-path="url(#myHMLLcrRrHU)"/><path fill="none" stroke="rgb(229,229,229)" paint-order="fill" d="M 52.5 506.5 L 1195.5 506.5 M 52.5 401.5 L 1195.5 401.5 M 52.5 297.5 L 1195.5 297.5 M 52.5 192.5 L 1195.5 192.5 M 52.5 88.5 L 1195.5 88.5" stroke-opacity="1" stroke-linejoin="bevel" stroke-miterlimit="10" clip-path="url(#hxndBxpRZTxD)"/><path fill="rgb(206,206,205)" stroke="rgb(206,206,205)" paint-order="fill" d="M 766.6646728515625 486.9151916503906 A 8 8 0 0 1 750.6646728515625 486.9151916503906 A 8 8 0 0 1 766.6646728515625 486.9151916503906" fill-opacity="0.8" clip-path="url(#lXzmLHeEfilc)" stroke-opacity="0.8" stroke-linejoin="bevel" stroke-miterlimit="10"/><path fill="rgb(50,199,50)" stroke="rgb(50,199,50)" paint-order="fill" d="M 260.5982971191406 391.78985595703125 A 8 8 0 0 1 244.59829711914062 391.78985595703125 A 8 8 0 0 1 260.5982971191406 391.78985595703125" fill-opacity="0.8" clip-path="url(#lXzmLHeEfilc)" stroke-opacity="0.8" stroke-linejoin="bevel" stroke-miterlimit="10"/><path fill="rgb(206,206,205)" stroke="rgb(206,206,205)" paint-order="fill" d="M 804.1569213867188 430.7584533691406 A 8 8 0 0 1 788.1569213867188 430.7584533691406 A 8 8 0 0 1 804.1569213867188 430.7584533691406" fill-opacity="0.8" clip-path="url(#lXzmLHeEfilc)" stroke-opacity="0.8" stroke-linejoin="bevel" stroke-miterlimit="10"/><path fill="rgb(206,206,205)" stroke="rgb(206,206,205)" paint-order="fill" d="M 566.1002807617188 505.5909118652344 A 8 8 0 0 1 550.1002807617188 505.5909118652344 A 8 8 0 0 1 566.1002807617188 505.5909118652344" fill-opacity="0.8" clip-path="url(#lXzmLHeEfilc)" stroke-opacity="0.8" stroke-linejoin="bevel" stroke-miterlimit="10"/><path fill="rgb(206,206,205)" stroke="rgb(206,206,205)" paint-order="fill" d="M 415.9831848144531 477.9232482910156 A 8 8 0 0 1 399.9831848144531 477.9232482910156 A 8 8 0 0 1 415.9831848144531 477.9232482910156" fill-opacity="0.8" clip-path="url(#lXzmLHeEfilc)" stroke-opacity="0.8" stroke-linejoin="bevel" stroke-miterlimit="10"/><path fill="rgb(206,206,205)" stroke="rgb(206,206,205)" paint-order="fill" d="M 346.9184265136719 446.30987548828125 A 8 8 0 0 1 330.9184265136719 446.30987548828125 A 8 8 0 0 1 346.9184265136719 446.30987548828125" fill-opacity="0.8" clip-path="url(#lXzmLHeEfilc)" stroke-opacity="0.8" stroke-linejoin="bevel" stroke-miterlimit="10"/><path fill="rgb(206,206,205)" stroke="rgb(206,206,205)" paint-order="fill" d="M 447.7535095214844 482.9931335449219 A 8 8 0 0 1 431.7535095214844 482.9931335449219 A 8 8 0 0 1 447.7535095214844 482.9931335449219" fill-opacity="0.8" clip-path="url(#lXzmLHeEfilc)" stroke-opacity="0.8" stroke-linejoin="bevel" stroke-miterlimit="10"/><path fill="rgb(206,206,205)" stroke="rgb(206,206,205)" paint-order="fill" d="M 395.120361328125 452.0809326171875 A 8 8 0 0 1 379.120361328125 452.0809326171875 A 8 8 0 0 1 395.120361328125 452.0809326171875" fill-opacity="0.8" clip-path="url(#lXzmLHeEfilc)" stroke-opacity="0.8" stroke-linejoin="bevel" stroke-miterlimit="10"/><path fill="rgb(206,206,205)" stroke="rgb(206,206,205)" paint-order="fill" d="M 562.5657348632812 505.146728515625 A 8 8 0 0 1 546.5657348632812 505.146728515625 A 8 8 0 0 1 562.5657348632812 505.146728515625" fill-opacity="0.8" clip-path="url(#lXzmLHeEfilc)" stroke-opacity="0.8" stroke-linejoin="bevel" stroke-miterlimit="10"/><path fill="rgb(50,199,50)" stroke="rgb(50,199,50)" paint-order="fill" d="M 281.5492858886719 487.2817687988281 A 8 8 0 0 1 265.5492858886719 487.2817687988281 A 8 8 0 0 1 281.5492858886719 487.2817687988281" fill-opacity="0.8" clip-path="url(#lXzmLHeEfilc)" stroke-opacity="0.8" stroke-linejoin="bevel" stroke-miterlimit="10"/><path fill="rgb(206,206,205)" stroke="rgb(206,206,205)" paint-order="fill" d="M 499.0547180175781 487.40789794921875 A 8 8 0 0 1 483.0547180175781 487.40789794921875 A 8 8 0 0 1 499.0547180175781 487.40789794921875" fill-opacity="0.8" clip-path="url(#lXzmLHeEfilc)" stroke-opacity="0.8" stroke-linejoin="bevel" stroke-miterlimit="10"/><path fill="rgb(206,206,205)" stroke="rgb(206,206,205)" paint-order="fill" d="M 679.2750244140625 484.7657775878906 A 8 8 0 0 1 663.2750244140625 484.7657775878906 A 8 8 0 0 1 679.2750244140625 484.7657775878906" fill-opacity="0.8" clip-path="url(#lXzmLHeEfilc)" stroke-opacity="0.8" stroke-linejoin="bevel" stroke-miterlimit="10"/><path fill="rgb(206,206,205)" stroke="rgb(206,206,205)" paint-order="fill" d="M 666.3934326171875 487.40411376953125 A 8 8 0 0 1 650.3934326171875 487.40411376953125 A 8 8 0 0 1 666.3934326171875 487.40411376953125" fill-opacity="0.8" clip-path="url(#lXzmLHeEfilc)" stroke-opacity="0.8" stroke-linejoin="bevel" stroke-miterlimit="10"/><path fill="rgb(206,206,205)" stroke="rgb(206,206,205)" paint-order="fill" d="M 672.37060546875 477.9232482910156 A 8 8 0 0 1 656.37060546875 477.9232482910156 A 8 8 0 0 1 672.37060546875 477.9232482910156" fill-opacity="0.8" clip-path="url(#lXzmLHeEfilc)" stroke-opacity="0.8" stroke-linejoin="bevel" stroke-miterlimit="10"/><path fill="rgb(206,206,205)" stroke="rgb(206,206,205)" paint-order="fill" d="M 617.1528930664062 487.40411376953125 A 8 8 0 0 1 601.1528930664062 487.40411376953125 A 8 8 0 0 1 617.1528930664062 487.40411376953125" fill-opacity="0.8" clip-path="url(#lXzmLHeEfilc)" stroke-opacity="0.8" stroke-linejoin="bevel" stroke-miterlimit="10"/><path fill="rgb(206,206,205)" stroke="rgb(206,206,205)" paint-order="fill" d="M 455.7265930175781 482.9931335449219 A 8 8 0 0 1 439.7265930175781 482.9931335449219 A 8 8 0 0 1 455.7265930175781 482.9931335449219" fill-opacity="0.8" clip-path="url(#lXzmLHeEfilc)" stroke-opacity="0.8" stroke-linejoin="bevel" stroke-miterlimit="10"/><path fill="rgb(206,206,205)" stroke="rgb(206,206,205)" paint-order="fill" d="M 476.34149169921875 483.9607849121094 A 8 8 0 0 1 460.34149169921875 483.9607849121094 A 8 8 0 0 1 476.34149169921875 483.9607849121094" fill-opacity="0.8" clip-path="url(#lXzmLHeEfilc)" stroke-opacity="0.8" stroke-linejoin="bevel" stroke-miterlimit="10"/><path fill="rgb(206,206,205)" stroke="rgb(206,206,205)" paint-order="fill" d="M 435.22381591796875 482.9931335449219 A 8 8 0 0 1 419.22381591796875 482.9931335449219 A 8 8 0 0 1 435.22381591796875 482.9931335449219" fill-opacity="0.8" clip-path="url(#lXzmLHeEfilc)" stroke-opacity="0.8" stroke-linejoin="bevel" stroke-miterlimit="10"/><path fill="rgb(50,199,50)" stroke="rgb(50,199,50)" paint-order="fill" d="M 905.2339477539062 392.53839111328125 A 8 8 0 0 1 889.2339477539062 392.53839111328125 A 8 8 0 0 1 905.2339477539062 392.53839111328125" fill-opacity="0.8" clip-path="url(#lXzmLHeEfilc)" stroke-opacity="0.8" stroke-linejoin="bevel" stroke-miterlimit="10"/><path fill="rgb(255,105,97)" stroke="rgb(255,105,97)" paint-order="fill" d="M 1151.54541015625 107.40908813476562 A 8 8 0 0 1 1135.54541015625 107.40908813476562 A 8 8 0 0 1 1151.54541015625 107.40908813476562" fill-opacity="0.8" clip-path="url(#lXzmLHeEfilc)" stroke-opacity="0.8" stroke-linejoin="bevel" stroke-miterlimit="10"/><path fill="rgb(206,206,205)" stroke="rgb(206,206,205)" paint-order="fill" d="M 430.7450256347656 482.9931335449219 A 8 8 0 0 1 414.7450256347656 482.9931335449219 A 8 8 0 0 1 430.7450256347656 482.9931335449219" fill-opacity="0.8" clip-path="url(#lXzmLHeEfilc)" stroke-opacity="0.8" stroke-linejoin="bevel" stroke-miterlimit="10"/><path fill="rgb(206,206,205)" stroke="rgb(206,206,205)" paint-order="fill" d="M 605.6510009765625 491.0775451660156 A 8 8 0 0 1 589.6510009765625 491.0775451660156 A 8 8 0 0 1 605.6510009765625 491.0775451660156" fill-opacity="0.8" clip-path="url(#lXzmLHeEfilc)" stroke-opacity="0.8" stroke-linejoin="bevel" stroke-miterlimit="10"/><path fill="rgb(206,206,205)" stroke="rgb(206,206,205)" paint-order="fill" d="M 376.0909423828125 458.5423583984375 A 8 8 0 0 1 360.0909423828125 458.5423583984375 A 8 8 0 0 1 376.0909423828125 458.5423583984375" fill-opacity="0.8" clip-path="url(#lXzmLHeEfilc)" stroke-opacity="0.8" stroke-linejoin="bevel" stroke-miterlimit="10"/><path fill="rgb(206,206,205)" stroke="rgb(206,206,205)" paint-order="fill" d="M 402.3011779785156 467.7367858886719 A 8 8 0 0 1 386.3011779785156 467.7367858886719 A 8 8 0 0 1 402.3011779785156 467.7367858886719" fill-opacity="0.8" clip-path="url(#lXzmLHeEfilc)" stroke-opacity="0.8" stroke-linejoin="bevel" stroke-miterlimit="10"/><path fill="rgb(206,206,205)" stroke="rgb(206,206,205)" paint-order="fill" d="M 347.13055419921875 487.2817687988281 A 8 8 0 0 1 331.13055419921875 487.2817687988281 A 8 8 0 0 1 347.13055419921875 487.2817687988281" fill-opacity="0.8" clip-path="url(#lXzmLHeEfilc)" stroke-opacity="0.8" stroke-linejoin="bevel" stroke-miterlimit="10"/><path fill="rgb(255,105,97)" stroke="rgb(255,105,97)" paint-order="fill" d="M 232.22525024414062 342.3082580566406 A 8 8 0 0 1 216.22525024414062 342.3082580566406 A 8 8 0 0 1 232.22525024414062 342.3082580566406" fill-opacity="0.8" clip-path="url(#lXzmLHeEfilc)" stroke-opacity="0.8" stroke-linejoin="bevel" stroke-miterlimit="10"/><path fill="rgb(206,206,205)" stroke="rgb(206,206,205)" paint-order="fill" d="M 510.2532958984375 491.0775451660156 A 8 8 0 0 1 494.2532958984375 491.0775451660156 A 8 8 0 0 1 510.2532958984375 491.0775451660156" fill-opacity="0.8" clip-path="url(#lXzmLHeEfilc)" stroke-opacity="0.8" stroke-linejoin="bevel" stroke-miterlimit="10"/><path fill="rgb(167,199,231)" stroke="rgb(167,199,231)" paint-order="fill" d="M 817.0035400390625 369.8011474609375 A 8 8 0 0 1 801.0035400390625 369.8011474609375 A 8 8 0 0 1 817.0035400390625 369.8011474609375" fill-opacity="0.8" clip-path="url(#lXzmLHeEfilc)" stroke-opacity="0.8" stroke-linejoin="bevel" stroke-miterlimit="10"/><path fill="rgb(206,206,205)" stroke="rgb(206,206,205)" paint-order="fill" d="M 748.9063110351562 458.5423583984375 A 8 8 0 0 1 732.9063110351562 458.5423583984375 A 8 8 0 0 1 748.9063110351562 458.5423583984375" fill-opacity="0.8" clip-path="url(#lXzmLHeEfilc)" stroke-opacity="0.8" stroke-linejoin="bevel" stroke-miterlimit="10"/><path fill="rgb(206,206,205)" stroke="rgb(206,206,205)" paint-order="fill" d="M 621.2976684570312 487.40411376953125 A 8 8 0 0 1 605.2976684570312 487.40411376953125 A 8 8 0 0 1 621.2976684570312 487.40411376953125" fill-opacity="0.8" clip-path="url(#lXzmLHeEfilc)" stroke-opacity="0.8" stroke-linejoin="bevel" stroke-miterlimit="10"/><path fill="rgb(50,199,50)" stroke="rgb(50,199,50)" paint-order="fill" d="M 849.0144653320312 391.78985595703125 A 8 8 0 0 1 833.0144653320312 391.78985595703125 A 8 8 0 0 1 849.0144653320312 391.78985595703125" fill-opacity="0.8" clip-path="url(#lXzmLHeEfilc)" stroke-opacity="0.8" stroke-linejoin="bevel" stroke-miterlimit="10"/><path fill="rgb(206,206,205)" stroke="rgb(206,206,205)" paint-order="fill" d="M 696.0897827148438 482.9931335449219 A 8 8 0 0 1 680.0897827148438 482.9931335449219 A 8 8 0 0 1 696.0897827148438 482.9931335449219" fill-opacity="0.8" clip-path="url(#lXzmLHeEfilc)" stroke-opacity="0.8" stroke-linejoin="bevel" stroke-miterlimit="10"/><path fill="rgb(206,206,205)" stroke="rgb(206,206,205)" paint-order="fill" d="M 382.9439392089844 458.5423583984375 A 8 8 0 0 1 366.9439392089844 458.5423583984375 A 8 8 0 0 1 382.9439392089844 458.5423583984375" fill-opacity="0.8" clip-path="url(#lXzmLHeEfilc)" stroke-opacity="0.8" stroke-linejoin="bevel" stroke-miterlimit="10"/><path fill="rgb(50,199,50)" stroke="rgb(50,199,50)" paint-order="fill" d="M 903.0447998046875 392.53839111328125 A 8 8 0 0 1 887.0447998046875 392.53839111328125 A 8 8 0 0 1 903.0447998046875 392.53839111328125" fill-opacity="0.8" clip-path="url(#lXzmLHeEfilc)" stroke-opacity="0.8" stroke-linejoin="bevel" stroke-miterlimit="10"/><path fill="rgb(255,105,97)" stroke="rgb(255,105,97)" paint-order="fill" d="M 112.45454406738281 294.3064270019531 A 8 8 0 0 1 96.45454406738281 294.3064270019531 A 8 8 0 0 1 112.45454406738281 294.3064270019531" fill-opacity="0.8" clip-path="url(#lXzmLHeEfilc)" stroke-opacity="0.8" stroke-linejoin="bevel" stroke-miterlimit="10"/><path fill="rgb(206,206,205)" stroke="rgb(206,206,205)" paint-order="fill" d="M 644.7632446289062 483.9607849121094 A 8 8 0 0 1 628.7632446289062 483.9607849121094 A 8 8 0 0 1 644.7632446289062 483.9607849121094" fill-opacity="0.8" clip-path="url(#lXzmLHeEfilc)" stroke-opacity="0.8" stroke-linejoin="bevel" stroke-miterlimit="10"/><path fill="rgb(206,206,205)" stroke="rgb(206,206,205)" paint-order="fill" d="M 375.48870849609375 446.30987548828125 A 8 8 0 0 1 359.48870849609375 446.30987548828125 A 8 8 0 0 1 375.48870849609375 446.30987548828125" fill-opacity="0.8" clip-path="url(#lXzmLHeEfilc)" stroke-opacity="0.8" stroke-linejoin="bevel" stroke-miterlimit="10"/><path fill="rgb(206,206,205)" stroke="rgb(206,206,205)" paint-order="fill" d="M 460.48565673828125 469.7218933105469 A 8 8 0 0 1 444.48565673828125 469.7218933105469 A 8 8 0 0 1 460.48565673828125 469.7218933105469" fill-opacity="0.8" clip-path="url(#lXzmLHeEfilc)" stroke-opacity="0.8" stroke-linejoin="bevel" stroke-miterlimit="10"/><path fill="none" stroke="rgb(0,0,0)" paint-order="fill" d="M 52.5 370.5 L 1195.5 370.5" stroke-opacity="1" stroke-linejoin="bevel" stroke-miterlimit="10" clip-path="url(#frgHeTTQOxCW)"/><path fill="none" stroke="rgb(0,0,0)" paint-order="fill" d="M 281.5 87.5 L 281.5 525.5" stroke-opacity="1" stroke-linejoin="bevel" stroke-miterlimit="10" clip-path="url(#WiSBxhfRwsWh)"/><path fill="none" stroke="rgb(0,0,0)" paint-order="fill" d="M 839.5 87.5 L 839.5 525.5" stroke-opacity="1" stroke-linejoin="bevel" stroke-miterlimit="10" clip-path="url(#WiSBxhfRwsWh)"/><path fill="none" stroke="rgb(0,0,0)" paint-order="fill" d="M 52.5 525.5 L 1195.5 525.5" stroke-opacity="1" stroke-linejoin="bevel" stroke-miterlimit="10"/><path fill="none" stroke="rgb(0,0,0)" paint-order="fill" d="M 281.5 531.5 L 281.5 523.5 M 560.5 531.5 L 560.5 523.5 M 839.5 531.5 L 839.5 523.5 M 1119.5 531.5 L 1119.5 523.5" stroke-opacity="1" stroke-linejoin="bevel" stroke-miterlimit="10"/><path fill="none" stroke="rgb(0,0,0)" paint-order="fill" d="M 225.5 529.5 L 225.5 525.5 M 169.5 529.5 L 169.5 525.5 M 113.5 529.5 L 113.5 525.5 M 57.5 529.5 L 57.5 525.5 M 281.5 529.5 L 281.5 525.5 M 336.5 529.5 L 336.5 525.5 M 392.5 529.5 L 392.5 525.5 M 448.5 529.5 L 448.5 525.5 M 504.5 529.5 L 504.5 525.5 M 560.5 529.5 L 560.5 525.5 M 616.5 529.5 L 616.5 525.5 M 672.5 529.5 L 672.5 525.5 M 728.5 529.5 L 728.5 525.5 M 783.5 529.5 L 783.5 525.5 M 839.5 529.5 L 839.5 525.5 M 895.5 529.5 L 895.5 525.5 M 951.5 529.5 L 951.5 525.5 M 1007.5 529.5 L 1007.5 525.5 M 1063.5 529.5 L 1063.5 525.5 M 1119.5 529.5 L 1119.5 525.5 M 1175.5 529.5 L 1175.5 525.5" stroke-opacity="1" stroke-linejoin="bevel" stroke-miterlimit="10"/><text fill="rgb(68,68,68)" stroke="none" font-family="helvetica" font-size="11px" font-style="normal" font-weight="normal" text-decoration="normal" x="269.7099609375" y="543.875" text-anchor="start" dominant-baseline="alphabetic" transform="matrix(1, 0, 0, 1, 0.5, 0.5)" fill-opacity="1">−0.5</text><text fill="none" stroke="rgb(0,0,0)" font-family="helvetica" font-size="11px" font-style="normal" font-weight="normal" text-decoration="normal" x="269.7099609375" y="543.875" text-anchor="start" dominant-baseline="alphabetic" transform="matrix(1, 0, 0, 1, 0.5, 0.5)" stroke-opacity="0" stroke-linejoin="bevel" stroke-miterlimit="10">−0.5</text><text fill="rgb(68,68,68)" stroke="none" font-family="helvetica" font-size="11px" font-style="normal" font-weight="normal" text-decoration="normal" x="556.901123046875" y="543.875" text-anchor="start" dominant-baseline="alphabetic" transform="matrix(1, 0, 0, 1, 0.5, 0.5)" fill-opacity="1">0</text><text fill="none" stroke="rgb(0,0,0)" font-family="helvetica" font-size="11px" font-style="normal" font-weight="normal" text-decoration="normal" x="556.901123046875" y="543.875" text-anchor="start" dominant-baseline="alphabetic" transform="matrix(1, 0, 0, 1, 0.5, 0.5)" stroke-opacity="0" stroke-linejoin="bevel" stroke-miterlimit="10">0</text><text fill="rgb(68,68,68)" stroke="none" font-family="helvetica" font-size="11px" font-style="normal" font-weight="normal" text-decoration="normal" x="831.70654296875" y="543.875" text-anchor="start" dominant-baseline="alphabetic" transform="matrix(1, 0, 0, 1, 0.5, 0.5)" fill-opacity="1">0.5</text><text fill="none" stroke="rgb(0,0,0)" font-family="helvetica" font-size="11px" font-style="normal" font-weight="normal" text-decoration="normal" x="831.70654296875" y="543.875" text-anchor="start" dominant-baseline="alphabetic" transform="matrix(1, 0, 0, 1, 0.5, 0.5)" stroke-opacity="0" stroke-linejoin="bevel" stroke-miterlimit="10">0.5</text><text fill="rgb(68,68,68)" stroke="none" font-family="helvetica" font-size="11px" font-style="normal" font-weight="normal" text-decoration="normal" x="1115.685791015625" y="543.875" text-anchor="start" dominant-baseline="alphabetic" transform="matrix(1, 0, 0, 1, 0.5, 0.5)" fill-opacity="1">1</text><text fill="none" stroke="rgb(0,0,0)" font-family="helvetica" font-size="11px" font-style="normal" font-weight="normal" text-decoration="normal" x="1115.685791015625" y="543.875" text-anchor="start" dominant-baseline="alphabetic" transform="matrix(1, 0, 0, 1, 0.5, 0.5)" stroke-opacity="0" stroke-linejoin="bevel" stroke-miterlimit="10">1</text><text fill="rgb(68,68,68)" stroke="none" font-family="helvetica" font-size="13px" font-style="italic" font-weight="normal" text-decoration="normal" x="575.79736328125" y="563.875" text-anchor="start" dominant-baseline="alphabetic" transform="matrix(1, 0, 0, 1, 0.5, 0.5)" fill-opacity="1">log2FoldChange</text><text fill="none" stroke="rgb(0,0,0)" font-family="helvetica" font-size="13px" font-style="italic" font-weight="normal" text-decoration="normal" x="575.79736328125" y="563.875" text-anchor="start" dominant-baseline="alphabetic" transform="matrix(1, 0, 0, 1, 0.5, 0.5)" stroke-opacity="0" stroke-linejoin="bevel" stroke-miterlimit="10">log2FoldChange</text><path fill="none" stroke="rgb(0,0,0)" paint-order="fill" d="M 52.5 525.5 L 52.5 87.5" stroke-opacity="1" stroke-linejoin="bevel" stroke-miterlimit="10"/><path fill="none" stroke="rgb(0,0,0)" paint-order="fill" d="M 46.5 506.5 L 54.5 506.5 M 46.5 401.5 L 54.5 401.5 M 46.5 297.5 L 54.5 297.5 M 46.5 192.5 L 54.5 192.5 M 46.5 88.5 L 54.5 88.5" stroke-opacity="1" stroke-linejoin="bevel" stroke-miterlimit="10"/><path fill="none" stroke="rgb(0,0,0)" paint-order="fill" d="M 48.5 506.5 L 52.5 506.5 M 48.5 485.5 L 52.5 485.5 M 48.5 464.5 L 52.5 464.5 M 48.5 443.5 L 52.5 443.5 M 48.5 422.5 L 52.5 422.5 M 48.5 401.5 L 52.5 401.5 M 48.5 380.5 L 52.5 380.5 M 48.5 359.5 L 52.5 359.5 M 48.5 338.5 L 52.5 338.5 M 48.5 318.5 L 52.5 318.5 M 48.5 297.5 L 52.5 297.5 M 48.5 276.5 L 52.5 276.5 M 48.5 255.5 L 52.5 255.5 M 48.5 234.5 L 52.5 234.5 M 48.5 213.5 L 52.5 213.5 M 48.5 192.5 L 52.5 192.5 M 48.5 171.5 L 52.5 171.5 M 48.5 150.5 L 52.5 150.5 M 48.5 129.5 L 52.5 129.5 M 48.5 108.5 L 52.5 108.5 M 48.5 88.5 L 52.5 88.5" stroke-opacity="1" stroke-linejoin="bevel" stroke-miterlimit="10"/><text fill="rgb(68,68,68)" stroke="none" font-family="helvetica" font-size="11px" font-style="normal" font-weight="normal" text-decoration="normal" x="34.88232421875" y="509.6015930175781" text-anchor="start" dominant-baseline="alphabetic" transform="matrix(1, 0, 0, 1, 0.5, 0.5)" fill-opacity="1">0</text><text fill="none" stroke="rgb(0,0,0)" font-family="helvetica" font-size="11px" font-style="normal" font-weight="normal" text-decoration="normal" x="34.88232421875" y="509.6015930175781" text-anchor="start" dominant-baseline="alphabetic" transform="matrix(1, 0, 0, 1, 0.5, 0.5)" stroke-opacity="0" stroke-linejoin="bevel" stroke-miterlimit="10">0</text><text fill="rgb(68,68,68)" stroke="none" font-family="helvetica" font-size="11px" font-style="normal" font-weight="normal" text-decoration="normal" x="34.88232421875" y="405.0809326171875" text-anchor="start" dominant-baseline="alphabetic" transform="matrix(1, 0, 0, 1, 0.5, 0.5)" fill-opacity="1">1</text><text fill="none" stroke="rgb(0,0,0)" font-family="helvetica" font-size="11px" font-style="normal" font-weight="normal" text-decoration="normal" x="34.88232421875" y="405.0809326171875" text-anchor="start" dominant-baseline="alphabetic" transform="matrix(1, 0, 0, 1, 0.5, 0.5)" stroke-opacity="0" stroke-linejoin="bevel" stroke-miterlimit="10">1</text><text fill="rgb(68,68,68)" stroke="none" font-family="helvetica" font-size="11px" font-style="normal" font-weight="normal" text-decoration="normal" x="34.88232421875" y="300.560302734375" text-anchor="start" dominant-baseline="alphabetic" transform="matrix(1, 0, 0, 1, 0.5, 0.5)" fill-opacity="1">2</text><text fill="none" stroke="rgb(0,0,0)" font-family="helvetica" font-size="11px" font-style="normal" font-weight="normal" text-decoration="normal" x="34.88232421875" y="300.560302734375" text-anchor="start" dominant-baseline="alphabetic" transform="matrix(1, 0, 0, 1, 0.5, 0.5)" stroke-opacity="0" stroke-linejoin="bevel" stroke-miterlimit="10">2</text><text fill="rgb(68,68,68)" stroke="none" font-family="helvetica" font-size="11px" font-style="normal" font-weight="normal" text-decoration="normal" x="34.88232421875" y="196.0396270751953" text-anchor="start" dominant-baseline="alphabetic" transform="matrix(1, 0, 0, 1, 0.5, 0.5)" fill-opacity="1">3</text><text fill="none" stroke="rgb(0,0,0)" font-family="helvetica" font-size="11px" font-style="normal" font-weight="normal" text-decoration="normal" x="34.88232421875" y="196.0396270751953" text-anchor="start" dominant-baseline="alphabetic" transform="matrix(1, 0, 0, 1, 0.5, 0.5)" stroke-opacity="0" stroke-linejoin="bevel" stroke-miterlimit="10">3</text><text fill="rgb(68,68,68)" stroke="none" font-family="helvetica" font-size="11px" font-style="normal" font-weight="normal" text-decoration="normal" x="34.88232421875" y="91.51896667480469" text-anchor="start" dominant-baseline="alphabetic" transform="matrix(1, 0, 0, 1, 0.5, 0.5)" fill-opacity="1">4</text><text fill="none" stroke="rgb(0,0,0)" font-family="helvetica" font-size="11px" font-style="normal" font-weight="normal" text-decoration="normal" x="34.88232421875" y="91.51896667480469" text-anchor="start" dominant-baseline="alphabetic" transform="matrix(1, 0, 0, 1, 0.5, 0.5)" stroke-opacity="0" stroke-linejoin="bevel" stroke-miterlimit="10">4</text><text fill="rgb(68,68,68)" stroke="none" font-family="helvetica" font-size="13px" font-style="italic" font-weight="normal" text-decoration="normal" x="-26.1142578125" y="303" text-anchor="start" dominant-baseline="alphabetic" transform="matrix(6.123233995736766e-17, -1, 1, 6.123233995736766e-17, -278.61767578125, 333.38232421875)" fill-opacity="1">-log10(P.Adjusted)</text><text fill="none" stroke="rgb(0,0,0)" font-family="helvetica" font-size="13px" font-style="italic" font-weight="normal" text-decoration="normal" x="-26.1142578125" y="303" text-anchor="start" dominant-baseline="alphabetic" transform="matrix(6.123233995736766e-17, -1, 1, 6.123233995736766e-17, -278.61767578125, 333.38232421875)" stroke-opacity="0" stroke-linejoin="bevel" stroke-miterlimit="10">-log10(P.Adjusted)</text><path fill="rgb(255,255,255)" stroke="rgb(229,229,229)" paint-order="fill" d="M 744.5 37.5 L 1185.5 37.5 L 1185.5 77.5 L 744.5 77.5 L 744.5 37.5 Z" fill-opacity="0.9490196078431372" stroke-opacity="0.5019607843137255" stroke-linejoin="bevel" stroke-miterlimit="10"/><path fill="rgb(206,206,205)" stroke="rgb(206,206,205)" paint-order="fill" d="M 768.5 57.5 A 4 4 0 0 1 760.5 57.5 A 4 4 0 0 1 768.5 57.5" fill-opacity="0.8" stroke-opacity="0.8" stroke-linejoin="bevel" stroke-miterlimit="10"/><text fill="rgb(68,68,68)" stroke="none" font-family="helvetica" font-size="13px" font-style="normal" font-weight="normal" text-decoration="normal" x="0" y="4.5" text-anchor="start" dominant-baseline="alphabetic" transform="matrix(1, 0, 0, 1, 779.5, 57.5)" fill-opacity="1">NS</text><text fill="none" stroke="rgb(0,0,0)" font-family="helvetica" font-size="13px" font-style="normal" font-weight="normal" text-decoration="normal" x="0" y="4.5" text-anchor="start" dominant-baseline="alphabetic" transform="matrix(1, 0, 0, 1, 779.5, 57.5)" stroke-opacity="0" stroke-linejoin="bevel" stroke-miterlimit="10">NS</text><path fill="rgb(50,199,50)" stroke="rgb(50,199,50)" paint-order="fill" d="M 816.5 57.5 A 4 4 0 0 1 808.5 57.5 A 4 4 0 0 1 816.5 57.5" fill-opacity="0.8" stroke-opacity="0.8" stroke-linejoin="bevel" stroke-miterlimit="10"/><text fill="rgb(68,68,68)" stroke="none" font-family="helvetica" font-size="13px" font-style="normal" font-weight="normal" text-decoration="normal" x="0" y="4.5" text-anchor="start" dominant-baseline="alphabetic" transform="matrix(1, 0, 0, 1, 827.5, 57.5)" fill-opacity="1">log2FoldChange</text><text fill="none" stroke="rgb(0,0,0)" font-family="helvetica" font-size="13px" font-style="normal" font-weight="normal" text-decoration="normal" x="0" y="4.5" text-anchor="start" dominant-baseline="alphabetic" transform="matrix(1, 0, 0, 1, 827.5, 57.5)" stroke-opacity="0" stroke-linejoin="bevel" stroke-miterlimit="10">log2FoldChange</text><path fill="rgb(255,105,97)" stroke="rgb(255,105,97)" paint-order="fill" d="M 939.5 57.5 A 4 4 0 0 1 931.5 57.5 A 4 4 0 0 1 939.5 57.5" fill-opacity="0.8" stroke-opacity="0.8" stroke-linejoin="bevel" stroke-miterlimit="10"/><text fill="rgb(68,68,68)" stroke="none" font-family="helvetica" font-size="13px" font-style="normal" font-weight="normal" text-decoration="normal" x="0" y="4.5" text-anchor="start" dominant-baseline="alphabetic" transform="matrix(1, 0, 0, 1, 950.5, 57.5)" fill-opacity="1">P.Value &amp; log2FoldChange</text><text fill="none" stroke="rgb(0,0,0)" font-family="helvetica" font-size="13px" font-style="normal" font-weight="normal" text-decoration="normal" x="0" y="4.5" text-anchor="start" dominant-baseline="alphabetic" transform="matrix(1, 0, 0, 1, 950.5, 57.5)" stroke-opacity="0" stroke-linejoin="bevel" stroke-miterlimit="10">P.Value &amp; log2FoldChange</text><path fill="rgb(167,199,231)" stroke="rgb(167,199,231)" paint-order="fill" d="M 1121.5 57.5 A 4 4 0 0 1 1113.5 57.5 A 4 4 0 0 1 1121.5 57.5" fill-opacity="0.8" stroke-opacity="0.8" stroke-linejoin="bevel" stroke-miterlimit="10"/><text fill="rgb(68,68,68)" stroke="none" font-family="helvetica" font-size="13px" font-style="normal" font-weight="normal" text-decoration="normal" x="0" y="4.5" text-anchor="start" dominant-baseline="alphabetic" transform="matrix(1, 0, 0, 1, 1132.5, 57.5)" fill-opacity="1">P.Value</text><text fill="none" stroke="rgb(0,0,0)" font-family="helvetica" font-size="13px" font-style="normal" font-weight="normal" text-decoration="normal" x="0" y="4.5" text-anchor="start" dominant-baseline="alphabetic" transform="matrix(1, 0, 0, 1, 1132.5, 57.5)" stroke-opacity="0" stroke-linejoin="bevel" stroke-miterlimit="10">P.Value</text><path fill="rgb(255,255,255)" stroke="rgb(229,229,229)" paint-order="fill" d="M 744.5 37.5 L 1185.5 37.5 L 1185.5 77.5 L 744.5 77.5 L 744.5 37.5 Z" fill-opacity="0.9490196078431372" stroke-opacity="0.5019607843137255" stroke-linejoin="bevel" stroke-miterlimit="10"/><path fill="rgb(206,206,205)" stroke="rgb(206,206,205)" paint-order="fill" d="M 768.5 57.5 A 4 4 0 0 1 760.5 57.5 A 4 4 0 0 1 768.5 57.5" fill-opacity="0.8" stroke-opacity="0.8" stroke-linejoin="bevel" stroke-miterlimit="10"/><text fill="rgb(68,68,68)" stroke="none" font-family="helvetica" font-size="13px" font-style="normal" font-weight="normal" text-decoration="normal" x="0" y="4.5" text-anchor="start" dominant-baseline="alphabetic" transform="matrix(1, 0, 0, 1, 779.5, 57.5)" fill-opacity="1">NS</text><text fill="none" stroke="rgb(0,0,0)" font-family="helvetica" font-size="13px" font-style="normal" font-weight="normal" text-decoration="normal" x="0" y="4.5" text-anchor="start" dominant-baseline="alphabetic" transform="matrix(1, 0, 0, 1, 779.5, 57.5)" stroke-opacity="0" stroke-linejoin="bevel" stroke-miterlimit="10">NS</text><path fill="rgb(50,199,50)" stroke="rgb(50,199,50)" paint-order="fill" d="M 816.5 57.5 A 4 4 0 0 1 808.5 57.5 A 4 4 0 0 1 816.5 57.5" fill-opacity="0.8" stroke-opacity="0.8" stroke-linejoin="bevel" stroke-miterlimit="10"/><text fill="rgb(68,68,68)" stroke="none" font-family="helvetica" font-size="13px" font-style="normal" font-weight="normal" text-decoration="normal" x="0" y="4.5" text-anchor="start" dominant-baseline="alphabetic" transform="matrix(1, 0, 0, 1, 827.5, 57.5)" fill-opacity="1">log2FoldChange</text><text fill="none" stroke="rgb(0,0,0)" font-family="helvetica" font-size="13px" font-style="normal" font-weight="normal" text-decoration="normal" x="0" y="4.5" text-anchor="start" dominant-baseline="alphabetic" transform="matrix(1, 0, 0, 1, 827.5, 57.5)" stroke-opacity="0" stroke-linejoin="bevel" stroke-miterlimit="10">log2FoldChange</text><path fill="rgb(255,105,97)" stroke="rgb(255,105,97)" paint-order="fill" d="M 939.5 57.5 A 4 4 0 0 1 931.5 57.5 A 4 4 0 0 1 939.5 57.5" fill-opacity="0.8" stroke-opacity="0.8" stroke-linejoin="bevel" stroke-miterlimit="10"/><text fill="rgb(68,68,68)" stroke="none" font-family="helvetica" font-size="13px" font-style="normal" font-weight="normal" text-decoration="normal" x="0" y="4.5" text-anchor="start" dominant-baseline="alphabetic" transform="matrix(1, 0, 0, 1, 950.5, 57.5)" fill-opacity="1">P.Value &amp; log2FoldChange</text><text fill="none" stroke="rgb(0,0,0)" font-family="helvetica" font-size="13px" font-style="normal" font-weight="normal" text-decoration="normal" x="0" y="4.5" text-anchor="start" dominant-baseline="alphabetic" transform="matrix(1, 0, 0, 1, 950.5, 57.5)" stroke-opacity="0" stroke-linejoin="bevel" stroke-miterlimit="10">P.Value &amp; log2FoldChange</text><path fill="rgb(167,199,231)" stroke="rgb(167,199,231)" paint-order="fill" d="M 1121.5 57.5 A 4 4 0 0 1 1113.5 57.5 A 4 4 0 0 1 1121.5 57.5" fill-opacity="0.8" stroke-opacity="0.8" stroke-linejoin="bevel" stroke-miterlimit="10"/><text fill="rgb(68,68,68)" stroke="none" font-family="helvetica" font-size="13px" font-style="normal" font-weight="normal" text-decoration="normal" x="0" y="4.5" text-anchor="start" dominant-baseline="alphabetic" transform="matrix(1, 0, 0, 1, 1132.5, 57.5)" fill-opacity="1">P.Value</text><text fill="none" stroke="rgb(0,0,0)" font-family="helvetica" font-size="13px" font-style="normal" font-weight="normal" text-decoration="normal" x="0" y="4.5" text-anchor="start" dominant-baseline="alphabetic" transform="matrix(1, 0, 0, 1, 1132.5, 57.5)" stroke-opacity="0" stroke-linejoin="bevel" stroke-miterlimit="10">P.Value</text><text fill="rgb(68,68,68)" stroke="none" font-family="helvetica" font-size="13px" font-style="normal" font-weight="bold" text-decoration="normal" x="0" y="12" text-anchor="start" dominant-baseline="alphabetic" transform="matrix(1, 0, 0, 1, 52.5, 7.5)" fill-opacity="1">Differential Expression Treatment.vs.Control</text><text fill="none" stroke="rgb(0,0,0)" font-family="helvetica" font-size="13px" font-style="normal" font-weight="bold" text-decoration="normal" x="0" y="12" text-anchor="start" dominant-baseline="alphabetic" transform="matrix(1, 0, 0, 1, 52.5, 7.5)" stroke-opacity="0" stroke-miterlimit="10" stroke-dasharray="">Differential Expression Treatment.vs.Control</text></svg>